%FSLAX45Y45*%
G04 Gerber Fmt 4.5, Leading zero omitted, Abs format (unit mm)*
G04 Created by KiCad (PCBNEW 5.1.12-84ad8e8a86~92~ubuntu18.04.1) date 2022-02-09 16:31:25*
%MOMM*%
%LPD*%
G01*
G04 APERTURE LIST*
%TA.AperFunction,Profile*%
%ADD10C,0.100000*%
%TD*%
%ADD11C,0.200000*%
%ADD12C,0.300000*%
G04 APERTURE END LIST*
D10*
X42636440Y-15346680D02*
X42636440Y-25826720D01*
X27909520Y-15346680D02*
X42636440Y-15346680D01*
X27909520Y-25826720D02*
X27909520Y-15346680D01*
X42636440Y-25826720D02*
X27909520Y-25826720D01*
D11*
X28295920Y-21773200D02*
X28335920Y-21813200D01*
X28335920Y-21773200D02*
X28295920Y-21813200D01*
X28443240Y-22916200D02*
X28483240Y-22956200D01*
X28483240Y-22916200D02*
X28443240Y-22956200D01*
X28666760Y-17876840D02*
X28706760Y-17916840D01*
X28706760Y-17876840D02*
X28666760Y-17916840D01*
X28925840Y-17633000D02*
X28965840Y-17673000D01*
X28965840Y-17633000D02*
X28925840Y-17673000D01*
X29063000Y-25141240D02*
X29103000Y-25181240D01*
X29103000Y-25141240D02*
X29063000Y-25181240D01*
X29123960Y-15809280D02*
X29163960Y-15849280D01*
X29163960Y-15809280D02*
X29123960Y-15849280D01*
X29225560Y-20574320D02*
X29265560Y-20614320D01*
X29265560Y-20574320D02*
X29225560Y-20614320D01*
X29342400Y-15458760D02*
X29382400Y-15498760D01*
X29382400Y-15458760D02*
X29342400Y-15498760D01*
X29388760Y-22144040D02*
X29428760Y-22184040D01*
X29428760Y-22144040D02*
X29388760Y-22184040D01*
X29464320Y-15453680D02*
X29504320Y-15493680D01*
X29504320Y-15453680D02*
X29464320Y-15493680D01*
X29489720Y-23784880D02*
X29529720Y-23824880D01*
X29529720Y-23784880D02*
X29489720Y-23824880D01*
X29565920Y-17744760D02*
X29605920Y-17784760D01*
X29605920Y-17744760D02*
X29565920Y-17784760D01*
X29667520Y-25160920D02*
X29707520Y-25200920D01*
X29707520Y-25160920D02*
X29667520Y-25200920D01*
X29850400Y-17949340D02*
X29890400Y-17989340D01*
X29890400Y-17949340D02*
X29850400Y-17989340D01*
X29870720Y-23541040D02*
X29910720Y-23581040D01*
X29910720Y-23541040D02*
X29870720Y-23581040D01*
X29936760Y-22533080D02*
X29976760Y-22573080D01*
X29976760Y-22533080D02*
X29936760Y-22573080D01*
X29943220Y-16366700D02*
X29983220Y-16406700D01*
X29983220Y-16366700D02*
X29943220Y-16406700D01*
X30005760Y-23515640D02*
X30045760Y-23555640D01*
X30045760Y-23515640D02*
X30005760Y-23555640D01*
X30129800Y-25658020D02*
X30169800Y-25698020D01*
X30169800Y-25658020D02*
X30129800Y-25698020D01*
X30190760Y-23068600D02*
X30230760Y-23108600D01*
X30230760Y-23068600D02*
X30190760Y-23108600D01*
X30383800Y-21077240D02*
X30423800Y-21117240D01*
X30423800Y-21077240D02*
X30383800Y-21117240D01*
X30447080Y-16825280D02*
X30487080Y-16865280D01*
X30487080Y-16825280D02*
X30447080Y-16865280D01*
X30485400Y-22225320D02*
X30525400Y-22265320D01*
X30525400Y-22225320D02*
X30485400Y-22265320D01*
X30515880Y-20960400D02*
X30555880Y-21000400D01*
X30555880Y-20960400D02*
X30515880Y-21000400D01*
X30592080Y-17429800D02*
X30632080Y-17469800D01*
X30632080Y-17429800D02*
X30592080Y-17469800D01*
X30630075Y-19047675D02*
X30670075Y-19087675D01*
X30670075Y-19047675D02*
X30630075Y-19087675D01*
X30795280Y-20533680D02*
X30835280Y-20573680D01*
X30835280Y-20533680D02*
X30795280Y-20573680D01*
X30860580Y-17368100D02*
X30900580Y-17408100D01*
X30900580Y-17368100D02*
X30860580Y-17408100D01*
X31059440Y-23114320D02*
X31099440Y-23154320D01*
X31099440Y-23114320D02*
X31059440Y-23154320D01*
X31154580Y-19683940D02*
X31194580Y-19723940D01*
X31194580Y-19683940D02*
X31154580Y-19723940D01*
X31196600Y-16439200D02*
X31236600Y-16479200D01*
X31236600Y-16439200D02*
X31196600Y-16479200D01*
X31227080Y-19385600D02*
X31267080Y-19425600D01*
X31267080Y-19385600D02*
X31227080Y-19425600D01*
X31252480Y-22306600D02*
X31292480Y-22346600D01*
X31292480Y-22306600D02*
X31252480Y-22346600D01*
X31328680Y-19050320D02*
X31368680Y-19090320D01*
X31368680Y-19050320D02*
X31328680Y-19090320D01*
X31425200Y-23632480D02*
X31465200Y-23672480D01*
X31465200Y-23632480D02*
X31425200Y-23672480D01*
X31440440Y-19812320D02*
X31480440Y-19852320D01*
X31480440Y-19812320D02*
X31440440Y-19852320D01*
X31486160Y-17470440D02*
X31526160Y-17510440D01*
X31526160Y-17470440D02*
X31486160Y-17510440D01*
X31765560Y-24125240D02*
X31805560Y-24165240D01*
X31805560Y-24125240D02*
X31765560Y-24165240D01*
X31807580Y-18074960D02*
X31847580Y-18114960D01*
X31847580Y-18074960D02*
X31807580Y-18114960D01*
X31877320Y-17968280D02*
X31917320Y-18008280D01*
X31917320Y-17968280D02*
X31877320Y-18008280D01*
X31994160Y-17373920D02*
X32034160Y-17413920D01*
X32034160Y-17373920D02*
X31994160Y-17413920D01*
X32019560Y-18069880D02*
X32059560Y-18109880D01*
X32059560Y-18069880D02*
X32019560Y-18109880D01*
X32146560Y-16561120D02*
X32186560Y-16601120D01*
X32186560Y-16561120D02*
X32146560Y-16601120D01*
X32166880Y-24120160D02*
X32206880Y-24160160D01*
X32206880Y-24120160D02*
X32166880Y-24160160D01*
X32222760Y-18760760D02*
X32262760Y-18800760D01*
X32262760Y-18760760D02*
X32222760Y-18800760D01*
X32298960Y-24196360D02*
X32338960Y-24236360D01*
X32338960Y-24196360D02*
X32298960Y-24236360D01*
X32355580Y-19425500D02*
X32395580Y-19465500D01*
X32395580Y-19425500D02*
X32355580Y-19465500D01*
X32359920Y-20532300D02*
X32399920Y-20572300D01*
X32399920Y-20532300D02*
X32359920Y-20572300D01*
X32415800Y-23906800D02*
X32455800Y-23946800D01*
X32455800Y-23906800D02*
X32415800Y-23946800D01*
X32489880Y-20604800D02*
X32529880Y-20644800D01*
X32529880Y-20604800D02*
X32489880Y-20644800D01*
X32507240Y-17973360D02*
X32547240Y-18013360D01*
X32547240Y-17973360D02*
X32507240Y-18013360D01*
X32568200Y-25151400D02*
X32608200Y-25191400D01*
X32608200Y-25151400D02*
X32568200Y-25191400D01*
X32573280Y-21646200D02*
X32613280Y-21686200D01*
X32613280Y-21646200D02*
X32573280Y-21686200D01*
X32624545Y-16444745D02*
X32664545Y-16484745D01*
X32664545Y-16444745D02*
X32624545Y-16484745D01*
X32654560Y-21300760D02*
X32694560Y-21340760D01*
X32694560Y-21300760D02*
X32654560Y-21340760D01*
X33101600Y-16474760D02*
X33141600Y-16514760D01*
X33141600Y-16474760D02*
X33101600Y-16514760D01*
X33152400Y-20594640D02*
X33192400Y-20634640D01*
X33192400Y-20594640D02*
X33152400Y-20634640D01*
X33193040Y-18654080D02*
X33233040Y-18694080D01*
X33233040Y-18654080D02*
X33193040Y-18694080D01*
X33248920Y-17526320D02*
X33288920Y-17566320D01*
X33288920Y-17526320D02*
X33248920Y-17566320D01*
X33502920Y-17307880D02*
X33542920Y-17347880D01*
X33542920Y-17307880D02*
X33502920Y-17347880D01*
X33548640Y-23896640D02*
X33588640Y-23936640D01*
X33588640Y-23896640D02*
X33548640Y-23936640D01*
X33565320Y-21817077D02*
X33605320Y-21857077D01*
X33605320Y-21817077D02*
X33565320Y-21857077D01*
X33603140Y-18146080D02*
X33643140Y-18186080D01*
X33643140Y-18146080D02*
X33603140Y-18186080D01*
X33603140Y-18938560D02*
X33643140Y-18978560D01*
X33643140Y-18938560D02*
X33603140Y-18978560D01*
X33655320Y-22977160D02*
X33695320Y-23017160D01*
X33695320Y-22977160D02*
X33655320Y-23017160D01*
X33838200Y-17414560D02*
X33878200Y-17454560D01*
X33878200Y-17414560D02*
X33838200Y-17454560D01*
X33944880Y-16611920D02*
X33984880Y-16651920D01*
X33984880Y-16611920D02*
X33944880Y-16651920D01*
X33953660Y-18085120D02*
X33993660Y-18125120D01*
X33993660Y-18085120D02*
X33953660Y-18125120D01*
X34025695Y-22281665D02*
X34065695Y-22321665D01*
X34065695Y-22281665D02*
X34025695Y-22321665D01*
X34026160Y-19436400D02*
X34066160Y-19476400D01*
X34066160Y-19436400D02*
X34026160Y-19476400D01*
X34031240Y-20594640D02*
X34071240Y-20634640D01*
X34071240Y-20594640D02*
X34031240Y-20634640D01*
X34110206Y-18661128D02*
X34150206Y-18701128D01*
X34150206Y-18661128D02*
X34110206Y-18701128D01*
X34254760Y-16611920D02*
X34294760Y-16651920D01*
X34294760Y-16611920D02*
X34254760Y-16651920D01*
X34295400Y-23165120D02*
X34335400Y-23205120D01*
X34335400Y-23165120D02*
X34295400Y-23205120D01*
X34305560Y-20614960D02*
X34345560Y-20654960D01*
X34345560Y-20614960D02*
X34305560Y-20654960D01*
X34310640Y-22337080D02*
X34350640Y-22377080D01*
X34350640Y-22337080D02*
X34310640Y-22377080D01*
X34381760Y-23509180D02*
X34421760Y-23549180D01*
X34421760Y-23509180D02*
X34381760Y-23549180D01*
X34442720Y-20589560D02*
X34482720Y-20629560D01*
X34482720Y-20589560D02*
X34442720Y-20629560D01*
X34447800Y-18908080D02*
X34487800Y-18948080D01*
X34487800Y-18908080D02*
X34447800Y-18948080D01*
X34457960Y-17409480D02*
X34497960Y-17449480D01*
X34497960Y-17409480D02*
X34457960Y-17449480D01*
X34605280Y-17617760D02*
X34645280Y-17657760D01*
X34645280Y-17617760D02*
X34605280Y-17657760D01*
X34696720Y-18069880D02*
X34736720Y-18109880D01*
X34736720Y-18069880D02*
X34696720Y-18109880D01*
X34798320Y-21727480D02*
X34838320Y-21767480D01*
X34838320Y-21727480D02*
X34798320Y-21767480D01*
X34813560Y-20569880D02*
X34853560Y-20609880D01*
X34853560Y-20569880D02*
X34813560Y-20609880D01*
X34955800Y-17307880D02*
X34995800Y-17347880D01*
X34995800Y-17307880D02*
X34955800Y-17347880D01*
X35006600Y-24948200D02*
X35046600Y-24988200D01*
X35046600Y-24948200D02*
X35006600Y-24988200D01*
X35157620Y-18156240D02*
X35197620Y-18196240D01*
X35197620Y-18156240D02*
X35157620Y-18196240D01*
X35174240Y-24648480D02*
X35214240Y-24688480D01*
X35214240Y-24648480D02*
X35174240Y-24688480D01*
X35174240Y-25126000D02*
X35214240Y-25166000D01*
X35214240Y-25126000D02*
X35174240Y-25166000D01*
X35296600Y-24775920D02*
X35336600Y-24815920D01*
X35336600Y-24775920D02*
X35296600Y-24815920D01*
X35302620Y-18643920D02*
X35342620Y-18683920D01*
X35342620Y-18643920D02*
X35302620Y-18683920D01*
X35304940Y-16239387D02*
X35344940Y-16279387D01*
X35344940Y-16239387D02*
X35304940Y-16279387D01*
X35377440Y-22956840D02*
X35417440Y-22996840D01*
X35417440Y-22956840D02*
X35377440Y-22996840D01*
X35448560Y-17531400D02*
X35488560Y-17571400D01*
X35488560Y-17531400D02*
X35448560Y-17571400D01*
X35595880Y-16149640D02*
X35635880Y-16189640D01*
X35635880Y-16149640D02*
X35595880Y-16189640D01*
X35606040Y-22855240D02*
X35646040Y-22895240D01*
X35646040Y-22855240D02*
X35606040Y-22895240D01*
X35638640Y-18100360D02*
X35678640Y-18140360D01*
X35678640Y-18100360D02*
X35638640Y-18140360D01*
X35820140Y-19532180D02*
X35860140Y-19572180D01*
X35860140Y-19532180D02*
X35820140Y-19572180D01*
X35971800Y-22409580D02*
X36011800Y-22449580D01*
X36011800Y-22409580D02*
X35971800Y-22449580D01*
X36144520Y-17892080D02*
X36184520Y-17932080D01*
X36184520Y-17892080D02*
X36144520Y-17932080D01*
X36220720Y-23058440D02*
X36260720Y-23098440D01*
X36260720Y-23058440D02*
X36220720Y-23098440D01*
X36264365Y-17874765D02*
X36304365Y-17914765D01*
X36304365Y-17874765D02*
X36264365Y-17914765D01*
X36407300Y-23144800D02*
X36447300Y-23184800D01*
X36447300Y-23144800D02*
X36407300Y-23184800D01*
X36484880Y-23287040D02*
X36524880Y-23327040D01*
X36524880Y-23287040D02*
X36484880Y-23327040D01*
X36495040Y-20609880D02*
X36535040Y-20649880D01*
X36535040Y-20609880D02*
X36495040Y-20649880D01*
X36540760Y-25029480D02*
X36580760Y-25069480D01*
X36580760Y-25029480D02*
X36540760Y-25069480D01*
X36607540Y-21726740D02*
X36647540Y-21766740D01*
X36647540Y-21726740D02*
X36607540Y-21766740D01*
X36627120Y-24120160D02*
X36667120Y-24160160D01*
X36667120Y-24120160D02*
X36627120Y-24160160D01*
X36632200Y-25481600D02*
X36672200Y-25521600D01*
X36672200Y-25481600D02*
X36632200Y-25521600D01*
X36764280Y-16962440D02*
X36804280Y-17002440D01*
X36804280Y-16962440D02*
X36764280Y-17002440D01*
X36881120Y-23459760D02*
X36921120Y-23499760D01*
X36921120Y-23459760D02*
X36881120Y-23499760D01*
X36920380Y-17455200D02*
X36960380Y-17495200D01*
X36960380Y-17455200D02*
X36920380Y-17495200D01*
X36920380Y-21189000D02*
X36960380Y-21229000D01*
X36960380Y-21189000D02*
X36920380Y-21229000D01*
X36992880Y-21722400D02*
X37032880Y-21762400D01*
X37032880Y-21722400D02*
X36992880Y-21762400D01*
X37065380Y-19964720D02*
X37105380Y-20004720D01*
X37105380Y-19964720D02*
X37065380Y-20004720D01*
X37267437Y-20947280D02*
X37307437Y-20987280D01*
X37307437Y-20947280D02*
X37267437Y-20987280D01*
X37587240Y-16520480D02*
X37627240Y-16560480D01*
X37627240Y-16520480D02*
X37587240Y-16560480D01*
X37643120Y-23048280D02*
X37683120Y-23088280D01*
X37683120Y-23048280D02*
X37643120Y-23088280D01*
X37648200Y-16667800D02*
X37688200Y-16707800D01*
X37688200Y-16667800D02*
X37648200Y-16707800D01*
X37770120Y-22088160D02*
X37810120Y-22128160D01*
X37810120Y-22088160D02*
X37770120Y-22128160D01*
X37775200Y-22865400D02*
X37815200Y-22905400D01*
X37815200Y-22865400D02*
X37775200Y-22905400D01*
X37831080Y-19421160D02*
X37871080Y-19461160D01*
X37871080Y-19421160D02*
X37831080Y-19461160D01*
X37953000Y-21189000D02*
X37993000Y-21229000D01*
X37993000Y-21189000D02*
X37953000Y-21229000D01*
X38059680Y-15529880D02*
X38099680Y-15569880D01*
X38099680Y-15529880D02*
X38059680Y-15569880D01*
X38064760Y-25329200D02*
X38104760Y-25369200D01*
X38104760Y-25329200D02*
X38064760Y-25369200D01*
X38078620Y-24043960D02*
X38118620Y-24083960D01*
X38118620Y-24043960D02*
X38078620Y-24083960D01*
X38132180Y-16007400D02*
X38172180Y-16047400D01*
X38172180Y-16007400D02*
X38132180Y-16047400D01*
X38151120Y-23581680D02*
X38191120Y-23621680D01*
X38191120Y-23581680D02*
X38151120Y-23621680D01*
X38151120Y-25405400D02*
X38191120Y-25445400D01*
X38191120Y-25405400D02*
X38151120Y-25445400D01*
X38297700Y-20961140D02*
X38337700Y-21001140D01*
X38337700Y-20961140D02*
X38297700Y-21001140D01*
X38298440Y-15910880D02*
X38338440Y-15950880D01*
X38338440Y-15910880D02*
X38298440Y-15950880D01*
X38384800Y-19776760D02*
X38424800Y-19816760D01*
X38424800Y-19776760D02*
X38384800Y-19816760D01*
X38582920Y-23292120D02*
X38622920Y-23332120D01*
X38622920Y-23292120D02*
X38582920Y-23332120D01*
X38674360Y-23739821D02*
X38714360Y-23779821D01*
X38714360Y-23739821D02*
X38674360Y-23779821D01*
X38699760Y-21133120D02*
X38739760Y-21173120D01*
X38739760Y-21133120D02*
X38699760Y-21173120D01*
X38704840Y-20223800D02*
X38744840Y-20263800D01*
X38744840Y-20223800D02*
X38704840Y-20263800D01*
X38725160Y-17706440D02*
X38765160Y-17746440D01*
X38765160Y-17706440D02*
X38725160Y-17746440D01*
X38971960Y-19195520D02*
X39011960Y-19235520D01*
X39011960Y-19195520D02*
X38971960Y-19235520D01*
X39044460Y-18695460D02*
X39084460Y-18735460D01*
X39084460Y-18695460D02*
X39044460Y-18735460D01*
X39085840Y-22413280D02*
X39125840Y-22453280D01*
X39125840Y-22413280D02*
X39085840Y-22453280D01*
X39151880Y-17368840D02*
X39191880Y-17408840D01*
X39191880Y-17368840D02*
X39151880Y-17408840D01*
X39278880Y-18191800D02*
X39318880Y-18231800D01*
X39318880Y-18191800D02*
X39278880Y-18231800D01*
X39316560Y-22533080D02*
X39356560Y-22573080D01*
X39356560Y-22533080D02*
X39316560Y-22573080D01*
X39329680Y-25332900D02*
X39369680Y-25372900D01*
X39369680Y-25332900D02*
X39329680Y-25372900D01*
X39355080Y-19573560D02*
X39395080Y-19613560D01*
X39395080Y-19573560D02*
X39355080Y-19613560D01*
X39357400Y-20970560D02*
X39397400Y-21010560D01*
X39397400Y-20970560D02*
X39357400Y-21010560D01*
X39429900Y-19964720D02*
X39469900Y-20004720D01*
X39469900Y-19964720D02*
X39429900Y-20004720D01*
X39436360Y-22733320D02*
X39476360Y-22773320D01*
X39476360Y-22733320D02*
X39436360Y-22773320D01*
X39441440Y-22956840D02*
X39481440Y-22996840D01*
X39481440Y-22956840D02*
X39441440Y-22996840D01*
X39502400Y-19665000D02*
X39542400Y-19705000D01*
X39542400Y-19665000D02*
X39502400Y-19705000D01*
X39502400Y-20421920D02*
X39542400Y-20461920D01*
X39542400Y-20421920D02*
X39502400Y-20461920D01*
X39502400Y-22260531D02*
X39542400Y-22300531D01*
X39542400Y-22260531D02*
X39502400Y-22300531D01*
X39507480Y-22160660D02*
X39547480Y-22200660D01*
X39547480Y-22160660D02*
X39507480Y-22200660D01*
X39512560Y-24196360D02*
X39552560Y-24236360D01*
X39552560Y-24196360D02*
X39512560Y-24236360D01*
X39782540Y-21579420D02*
X39822540Y-21619420D01*
X39822540Y-21579420D02*
X39782540Y-21619420D01*
X39855040Y-21786320D02*
X39895040Y-21826320D01*
X39895040Y-21786320D02*
X39855040Y-21826320D01*
X39985000Y-20497380D02*
X40025000Y-20537380D01*
X40025000Y-20497380D02*
X39985000Y-20537380D01*
X39985000Y-22160660D02*
X40025000Y-22200660D01*
X40025000Y-22160660D02*
X39985000Y-22200660D01*
X40051040Y-20945160D02*
X40091040Y-20985160D01*
X40091040Y-20945160D02*
X40051040Y-20985160D01*
X40061200Y-20086640D02*
X40101200Y-20126640D01*
X40101200Y-20086640D02*
X40061200Y-20126640D01*
X40061200Y-20686080D02*
X40101200Y-20726080D01*
X40101200Y-20686080D02*
X40061200Y-20726080D01*
X40066280Y-22575840D02*
X40106280Y-22615840D01*
X40106280Y-22575840D02*
X40066280Y-22615840D01*
X40096760Y-24268860D02*
X40136760Y-24308860D01*
X40136760Y-24268860D02*
X40096760Y-24308860D01*
X40141100Y-23469920D02*
X40181100Y-23509920D01*
X40181100Y-23469920D02*
X40141100Y-23509920D01*
X40172960Y-16286800D02*
X40212960Y-16326800D01*
X40212960Y-16286800D02*
X40172960Y-16326800D01*
X40213600Y-23622320D02*
X40253600Y-23662320D01*
X40253600Y-23622320D02*
X40213600Y-23662320D01*
X40227742Y-23721315D02*
X40267742Y-23761315D01*
X40267742Y-23721315D02*
X40227742Y-23761315D01*
X40233920Y-17947960D02*
X40273920Y-17987960D01*
X40273920Y-17947960D02*
X40233920Y-17987960D01*
X40247040Y-21707160D02*
X40287040Y-21747160D01*
X40287040Y-21707160D02*
X40247040Y-21747160D01*
X40247040Y-22225320D02*
X40287040Y-22265320D01*
X40287040Y-22225320D02*
X40247040Y-22265320D01*
X40254240Y-20589560D02*
X40294240Y-20629560D01*
X40294240Y-20589560D02*
X40254240Y-20629560D01*
X40254240Y-21067080D02*
X40294240Y-21107080D01*
X40294240Y-21067080D02*
X40254240Y-21107080D01*
X40457440Y-23191900D02*
X40497440Y-23231900D01*
X40497440Y-23191900D02*
X40457440Y-23231900D01*
X40617040Y-21255040D02*
X40657040Y-21295040D01*
X40657040Y-21255040D02*
X40617040Y-21295040D01*
X40660640Y-16744000D02*
X40700640Y-16784000D01*
X40700640Y-16744000D02*
X40660640Y-16784000D01*
X40675880Y-17522620D02*
X40715880Y-17562620D01*
X40715880Y-17522620D02*
X40675880Y-17562620D01*
X40833360Y-17706440D02*
X40873360Y-17746440D01*
X40873360Y-17706440D02*
X40833360Y-17746440D01*
X40929140Y-17048060D02*
X40969140Y-17088060D01*
X40969140Y-17048060D02*
X40929140Y-17088060D01*
X40945120Y-23856000D02*
X40985120Y-23896000D01*
X40985120Y-23856000D02*
X40945120Y-23896000D01*
X40956540Y-18413291D02*
X40996540Y-18453291D01*
X40996540Y-18413291D02*
X40956540Y-18453291D01*
X40962344Y-18217420D02*
X41002344Y-18257420D01*
X41002344Y-18217420D02*
X40962344Y-18257420D01*
X40985760Y-20579400D02*
X41025760Y-20619400D01*
X41025760Y-20579400D02*
X40985760Y-20619400D01*
X41046720Y-21268160D02*
X41086720Y-21308160D01*
X41086720Y-21268160D02*
X41046720Y-21308160D01*
X41112760Y-20843560D02*
X41152760Y-20883560D01*
X41152760Y-20843560D02*
X41112760Y-20883560D01*
X41183880Y-17450120D02*
X41223880Y-17490120D01*
X41223880Y-17450120D02*
X41183880Y-17490120D01*
X41290560Y-17851440D02*
X41330560Y-17891440D01*
X41330560Y-17851440D02*
X41290560Y-17891440D01*
X41321040Y-22088160D02*
X41361040Y-22128160D01*
X41361040Y-22088160D02*
X41321040Y-22128160D01*
X41402320Y-21366800D02*
X41442320Y-21406800D01*
X41442320Y-21366800D02*
X41402320Y-21406800D01*
X41483600Y-23881400D02*
X41523600Y-23921400D01*
X41523600Y-23881400D02*
X41483600Y-23921400D01*
X41581500Y-17778940D02*
X41621500Y-17818940D01*
X41621500Y-17778940D02*
X41581500Y-17818940D01*
X41722360Y-21768120D02*
X41762360Y-21808120D01*
X41762360Y-21768120D02*
X41722360Y-21808120D01*
X41732520Y-18100360D02*
X41772520Y-18140360D01*
X41772520Y-18100360D02*
X41732520Y-18140360D01*
X41768080Y-19609120D02*
X41808080Y-19649120D01*
X41808080Y-19609120D02*
X41768080Y-19649120D01*
X41775280Y-21077240D02*
X41815280Y-21117240D01*
X41815280Y-21077240D02*
X41775280Y-21117240D01*
X41775280Y-21204240D02*
X41815280Y-21244240D01*
X41815280Y-21204240D02*
X41775280Y-21244240D01*
X41849360Y-21580160D02*
X41889360Y-21620160D01*
X41889360Y-21580160D02*
X41849360Y-21620160D01*
X41884920Y-23808900D02*
X41924920Y-23848900D01*
X41924920Y-23808900D02*
X41884920Y-23848900D01*
X41991600Y-18572800D02*
X42031600Y-18612800D01*
X42031600Y-18572800D02*
X41991600Y-18612800D01*
X42064100Y-18811560D02*
X42104100Y-18851560D01*
X42104100Y-18811560D02*
X42064100Y-18851560D01*
X42149080Y-22459000D02*
X42189080Y-22499000D01*
X42189080Y-22459000D02*
X42149080Y-22499000D01*
X42221580Y-22306600D02*
X42261580Y-22346600D01*
X42261580Y-22306600D02*
X42221580Y-22346600D01*
X42225280Y-23119400D02*
X42265280Y-23159400D01*
X42265280Y-23119400D02*
X42225280Y-23159400D01*
X42321800Y-21077240D02*
X42361800Y-21117240D01*
X42361800Y-21077240D02*
X42321800Y-21117240D01*
X42326880Y-25694960D02*
X42366880Y-25734960D01*
X42366880Y-25694960D02*
X42326880Y-25734960D01*
X42327347Y-21177086D02*
X42367347Y-21217086D01*
X42367347Y-21177086D02*
X42327347Y-21217086D01*
X42399847Y-21620800D02*
X42439847Y-21660800D01*
X42439847Y-21620800D02*
X42399847Y-21660800D01*
X42403080Y-25603520D02*
X42443080Y-25643520D01*
X42443080Y-25603520D02*
X42403080Y-25643520D01*
X42472347Y-22118640D02*
X42512347Y-22158640D01*
X42512347Y-22118640D02*
X42472347Y-22158640D01*
X42474200Y-25405400D02*
X42514200Y-25445400D01*
X42514200Y-25405400D02*
X42474200Y-25445400D01*
X42479280Y-21498880D02*
X42519280Y-21538880D01*
X42519280Y-21498880D02*
X42479280Y-21538880D01*
X42509760Y-19893600D02*
X42549760Y-19933600D01*
X42549760Y-19893600D02*
X42509760Y-19933600D01*
X28472760Y-21976080D02*
G75*
G03*
X28472760Y-21976080I-40000J0D01*
G01*
X28472760Y-22738080D02*
G75*
G03*
X28472760Y-22738080I-40000J0D01*
G01*
X28477840Y-20792440D02*
G75*
G03*
X28477840Y-20792440I-40000J0D01*
G01*
X28477840Y-21554440D02*
G75*
G03*
X28477840Y-21554440I-40000J0D01*
G01*
X28615000Y-18933160D02*
G75*
G03*
X28615000Y-18933160I-40000J0D01*
G01*
X28615000Y-19695160D02*
G75*
G03*
X28615000Y-19695160I-40000J0D01*
G01*
X28726760Y-21976080D02*
G75*
G03*
X28726760Y-21976080I-40000J0D01*
G01*
X28726760Y-22738080D02*
G75*
G03*
X28726760Y-22738080I-40000J0D01*
G01*
X28731840Y-20792440D02*
G75*
G03*
X28731840Y-20792440I-40000J0D01*
G01*
X28731840Y-21554440D02*
G75*
G03*
X28731840Y-21554440I-40000J0D01*
G01*
X28980760Y-21976080D02*
G75*
G03*
X28980760Y-21976080I-40000J0D01*
G01*
X28980760Y-22738080D02*
G75*
G03*
X28980760Y-22738080I-40000J0D01*
G01*
X28985840Y-20792440D02*
G75*
G03*
X28985840Y-20792440I-40000J0D01*
G01*
X28985840Y-21554440D02*
G75*
G03*
X28985840Y-21554440I-40000J0D01*
G01*
X29234760Y-21976080D02*
G75*
G03*
X29234760Y-21976080I-40000J0D01*
G01*
X29234760Y-22738080D02*
G75*
G03*
X29234760Y-22738080I-40000J0D01*
G01*
X29239840Y-20792440D02*
G75*
G03*
X29239840Y-20792440I-40000J0D01*
G01*
X29239840Y-21554440D02*
G75*
G03*
X29239840Y-21554440I-40000J0D01*
G01*
X29377000Y-18933160D02*
G75*
G03*
X29377000Y-18933160I-40000J0D01*
G01*
X29377000Y-19695160D02*
G75*
G03*
X29377000Y-19695160I-40000J0D01*
G01*
X29488760Y-21976080D02*
G75*
G03*
X29488760Y-21976080I-40000J0D01*
G01*
X29488760Y-22738080D02*
G75*
G03*
X29488760Y-22738080I-40000J0D01*
G01*
X29493840Y-20792440D02*
G75*
G03*
X29493840Y-20792440I-40000J0D01*
G01*
X29493840Y-21554440D02*
G75*
G03*
X29493840Y-21554440I-40000J0D01*
G01*
X29742760Y-21976080D02*
G75*
G03*
X29742760Y-21976080I-40000J0D01*
G01*
X29742760Y-22738080D02*
G75*
G03*
X29742760Y-22738080I-40000J0D01*
G01*
X29747840Y-20792440D02*
G75*
G03*
X29747840Y-20792440I-40000J0D01*
G01*
X29747840Y-21554440D02*
G75*
G03*
X29747840Y-21554440I-40000J0D01*
G01*
X29793560Y-18425160D02*
G75*
G03*
X29793560Y-18425160I-40000J0D01*
G01*
X29793560Y-18679160D02*
G75*
G03*
X29793560Y-18679160I-40000J0D01*
G01*
X29793560Y-18933160D02*
G75*
G03*
X29793560Y-18933160I-40000J0D01*
G01*
X29793560Y-19187160D02*
G75*
G03*
X29793560Y-19187160I-40000J0D01*
G01*
X29793560Y-19441160D02*
G75*
G03*
X29793560Y-19441160I-40000J0D01*
G01*
X29793560Y-19695160D02*
G75*
G03*
X29793560Y-19695160I-40000J0D01*
G01*
X29793560Y-19949160D02*
G75*
G03*
X29793560Y-19949160I-40000J0D01*
G01*
X29996760Y-21976080D02*
G75*
G03*
X29996760Y-21976080I-40000J0D01*
G01*
X29996760Y-22738080D02*
G75*
G03*
X29996760Y-22738080I-40000J0D01*
G01*
X30001840Y-20792440D02*
G75*
G03*
X30001840Y-20792440I-40000J0D01*
G01*
X30001840Y-21554440D02*
G75*
G03*
X30001840Y-21554440I-40000J0D01*
G01*
X30250760Y-21976080D02*
G75*
G03*
X30250760Y-21976080I-40000J0D01*
G01*
X30250760Y-22738080D02*
G75*
G03*
X30250760Y-22738080I-40000J0D01*
G01*
X30255840Y-20792440D02*
G75*
G03*
X30255840Y-20792440I-40000J0D01*
G01*
X30255840Y-21554440D02*
G75*
G03*
X30255840Y-21554440I-40000J0D01*
G01*
X30555560Y-18425160D02*
G75*
G03*
X30555560Y-18425160I-40000J0D01*
G01*
X30555560Y-18679160D02*
G75*
G03*
X30555560Y-18679160I-40000J0D01*
G01*
X30555560Y-18933160D02*
G75*
G03*
X30555560Y-18933160I-40000J0D01*
G01*
X30555560Y-19187160D02*
G75*
G03*
X30555560Y-19187160I-40000J0D01*
G01*
X30555560Y-19441160D02*
G75*
G03*
X30555560Y-19441160I-40000J0D01*
G01*
X30555560Y-19695160D02*
G75*
G03*
X30555560Y-19695160I-40000J0D01*
G01*
X30555560Y-19949160D02*
G75*
G03*
X30555560Y-19949160I-40000J0D01*
G01*
X30677480Y-20787360D02*
G75*
G03*
X30677480Y-20787360I-40000J0D01*
G01*
X30677480Y-21549360D02*
G75*
G03*
X30677480Y-21549360I-40000J0D01*
G01*
X30682560Y-21981160D02*
G75*
G03*
X30682560Y-21981160I-40000J0D01*
G01*
X30682560Y-22743160D02*
G75*
G03*
X30682560Y-22743160I-40000J0D01*
G01*
X30779080Y-16997680D02*
G75*
G03*
X30779080Y-16997680I-40000J0D01*
G01*
X30779080Y-17759680D02*
G75*
G03*
X30779080Y-17759680I-40000J0D01*
G01*
X30834960Y-18420080D02*
G75*
G03*
X30834960Y-18420080I-40000J0D01*
G01*
X30834960Y-18674080D02*
G75*
G03*
X30834960Y-18674080I-40000J0D01*
G01*
X30834960Y-18928080D02*
G75*
G03*
X30834960Y-18928080I-40000J0D01*
G01*
X30834960Y-19182080D02*
G75*
G03*
X30834960Y-19182080I-40000J0D01*
G01*
X30834960Y-19436080D02*
G75*
G03*
X30834960Y-19436080I-40000J0D01*
G01*
X30834960Y-19690080D02*
G75*
G03*
X30834960Y-19690080I-40000J0D01*
G01*
X30834960Y-19944080D02*
G75*
G03*
X30834960Y-19944080I-40000J0D01*
G01*
X30834960Y-20198080D02*
G75*
G03*
X30834960Y-20198080I-40000J0D01*
G01*
X30931480Y-20787360D02*
G75*
G03*
X30931480Y-20787360I-40000J0D01*
G01*
X30931480Y-21549360D02*
G75*
G03*
X30931480Y-21549360I-40000J0D01*
G01*
X30936560Y-21981160D02*
G75*
G03*
X30936560Y-21981160I-40000J0D01*
G01*
X30936560Y-22743160D02*
G75*
G03*
X30936560Y-22743160I-40000J0D01*
G01*
X31033080Y-16997680D02*
G75*
G03*
X31033080Y-16997680I-40000J0D01*
G01*
X31033080Y-17759680D02*
G75*
G03*
X31033080Y-17759680I-40000J0D01*
G01*
X31185480Y-20787360D02*
G75*
G03*
X31185480Y-20787360I-40000J0D01*
G01*
X31185480Y-21549360D02*
G75*
G03*
X31185480Y-21549360I-40000J0D01*
G01*
X31190560Y-21981160D02*
G75*
G03*
X31190560Y-21981160I-40000J0D01*
G01*
X31190560Y-22743160D02*
G75*
G03*
X31190560Y-22743160I-40000J0D01*
G01*
X31287080Y-16997680D02*
G75*
G03*
X31287080Y-16997680I-40000J0D01*
G01*
X31287080Y-17759680D02*
G75*
G03*
X31287080Y-17759680I-40000J0D01*
G01*
X31439480Y-20787360D02*
G75*
G03*
X31439480Y-20787360I-40000J0D01*
G01*
X31439480Y-21549360D02*
G75*
G03*
X31439480Y-21549360I-40000J0D01*
G01*
X31444560Y-21981160D02*
G75*
G03*
X31444560Y-21981160I-40000J0D01*
G01*
X31444560Y-22743160D02*
G75*
G03*
X31444560Y-22743160I-40000J0D01*
G01*
X31541080Y-16997680D02*
G75*
G03*
X31541080Y-16997680I-40000J0D01*
G01*
X31541080Y-17759680D02*
G75*
G03*
X31541080Y-17759680I-40000J0D01*
G01*
X31596960Y-18420080D02*
G75*
G03*
X31596960Y-18420080I-40000J0D01*
G01*
X31596960Y-18674080D02*
G75*
G03*
X31596960Y-18674080I-40000J0D01*
G01*
X31596960Y-18928080D02*
G75*
G03*
X31596960Y-18928080I-40000J0D01*
G01*
X31596960Y-19182080D02*
G75*
G03*
X31596960Y-19182080I-40000J0D01*
G01*
X31596960Y-19436080D02*
G75*
G03*
X31596960Y-19436080I-40000J0D01*
G01*
X31596960Y-19690080D02*
G75*
G03*
X31596960Y-19690080I-40000J0D01*
G01*
X31596960Y-19944080D02*
G75*
G03*
X31596960Y-19944080I-40000J0D01*
G01*
X31596960Y-20198080D02*
G75*
G03*
X31596960Y-20198080I-40000J0D01*
G01*
X31693480Y-20787360D02*
G75*
G03*
X31693480Y-20787360I-40000J0D01*
G01*
X31693480Y-21549360D02*
G75*
G03*
X31693480Y-21549360I-40000J0D01*
G01*
X31698560Y-21981160D02*
G75*
G03*
X31698560Y-21981160I-40000J0D01*
G01*
X31698560Y-22743160D02*
G75*
G03*
X31698560Y-22743160I-40000J0D01*
G01*
X31795080Y-16997680D02*
G75*
G03*
X31795080Y-16997680I-40000J0D01*
G01*
X31795080Y-17759680D02*
G75*
G03*
X31795080Y-17759680I-40000J0D01*
G01*
X31947480Y-20787360D02*
G75*
G03*
X31947480Y-20787360I-40000J0D01*
G01*
X31947480Y-21549360D02*
G75*
G03*
X31947480Y-21549360I-40000J0D01*
G01*
X31952560Y-21981160D02*
G75*
G03*
X31952560Y-21981160I-40000J0D01*
G01*
X31952560Y-22743160D02*
G75*
G03*
X31952560Y-22743160I-40000J0D01*
G01*
X31972880Y-18420080D02*
G75*
G03*
X31972880Y-18420080I-40000J0D01*
G01*
X31972880Y-18674080D02*
G75*
G03*
X31972880Y-18674080I-40000J0D01*
G01*
X31972880Y-18928080D02*
G75*
G03*
X31972880Y-18928080I-40000J0D01*
G01*
X31972880Y-19182080D02*
G75*
G03*
X31972880Y-19182080I-40000J0D01*
G01*
X31972880Y-19436080D02*
G75*
G03*
X31972880Y-19436080I-40000J0D01*
G01*
X31972880Y-19690080D02*
G75*
G03*
X31972880Y-19690080I-40000J0D01*
G01*
X31972880Y-19944080D02*
G75*
G03*
X31972880Y-19944080I-40000J0D01*
G01*
X31972880Y-20198080D02*
G75*
G03*
X31972880Y-20198080I-40000J0D01*
G01*
X32049080Y-16997680D02*
G75*
G03*
X32049080Y-16997680I-40000J0D01*
G01*
X32049080Y-17759680D02*
G75*
G03*
X32049080Y-17759680I-40000J0D01*
G01*
X32201480Y-20787360D02*
G75*
G03*
X32201480Y-20787360I-40000J0D01*
G01*
X32201480Y-21549360D02*
G75*
G03*
X32201480Y-21549360I-40000J0D01*
G01*
X32206560Y-21981160D02*
G75*
G03*
X32206560Y-21981160I-40000J0D01*
G01*
X32206560Y-22743160D02*
G75*
G03*
X32206560Y-22743160I-40000J0D01*
G01*
X32303080Y-16997680D02*
G75*
G03*
X32303080Y-16997680I-40000J0D01*
G01*
X32303080Y-17759680D02*
G75*
G03*
X32303080Y-17759680I-40000J0D01*
G01*
X32455480Y-20787360D02*
G75*
G03*
X32455480Y-20787360I-40000J0D01*
G01*
X32455480Y-21549360D02*
G75*
G03*
X32455480Y-21549360I-40000J0D01*
G01*
X32460560Y-21981160D02*
G75*
G03*
X32460560Y-21981160I-40000J0D01*
G01*
X32460560Y-22743160D02*
G75*
G03*
X32460560Y-22743160I-40000J0D01*
G01*
X32557080Y-16997680D02*
G75*
G03*
X32557080Y-16997680I-40000J0D01*
G01*
X32557080Y-17759680D02*
G75*
G03*
X32557080Y-17759680I-40000J0D01*
G01*
X32734880Y-18420080D02*
G75*
G03*
X32734880Y-18420080I-40000J0D01*
G01*
X32734880Y-18674080D02*
G75*
G03*
X32734880Y-18674080I-40000J0D01*
G01*
X32734880Y-18928080D02*
G75*
G03*
X32734880Y-18928080I-40000J0D01*
G01*
X32734880Y-19182080D02*
G75*
G03*
X32734880Y-19182080I-40000J0D01*
G01*
X32734880Y-19436080D02*
G75*
G03*
X32734880Y-19436080I-40000J0D01*
G01*
X32734880Y-19690080D02*
G75*
G03*
X32734880Y-19690080I-40000J0D01*
G01*
X32734880Y-19944080D02*
G75*
G03*
X32734880Y-19944080I-40000J0D01*
G01*
X32734880Y-20198080D02*
G75*
G03*
X32734880Y-20198080I-40000J0D01*
G01*
X32811080Y-16997680D02*
G75*
G03*
X32811080Y-16997680I-40000J0D01*
G01*
X32811080Y-17759680D02*
G75*
G03*
X32811080Y-17759680I-40000J0D01*
G01*
X32841560Y-20782280D02*
G75*
G03*
X32841560Y-20782280I-40000J0D01*
G01*
X32841560Y-21544280D02*
G75*
G03*
X32841560Y-21544280I-40000J0D01*
G01*
X32846640Y-21976080D02*
G75*
G03*
X32846640Y-21976080I-40000J0D01*
G01*
X32846640Y-22738080D02*
G75*
G03*
X32846640Y-22738080I-40000J0D01*
G01*
X33065080Y-16997680D02*
G75*
G03*
X33065080Y-16997680I-40000J0D01*
G01*
X33065080Y-17759680D02*
G75*
G03*
X33065080Y-17759680I-40000J0D01*
G01*
X33095560Y-20782280D02*
G75*
G03*
X33095560Y-20782280I-40000J0D01*
G01*
X33095560Y-21544280D02*
G75*
G03*
X33095560Y-21544280I-40000J0D01*
G01*
X33100640Y-18420080D02*
G75*
G03*
X33100640Y-18420080I-40000J0D01*
G01*
X33100640Y-18674080D02*
G75*
G03*
X33100640Y-18674080I-40000J0D01*
G01*
X33100640Y-18928080D02*
G75*
G03*
X33100640Y-18928080I-40000J0D01*
G01*
X33100640Y-19182080D02*
G75*
G03*
X33100640Y-19182080I-40000J0D01*
G01*
X33100640Y-19436080D02*
G75*
G03*
X33100640Y-19436080I-40000J0D01*
G01*
X33100640Y-19690080D02*
G75*
G03*
X33100640Y-19690080I-40000J0D01*
G01*
X33100640Y-19944080D02*
G75*
G03*
X33100640Y-19944080I-40000J0D01*
G01*
X33100640Y-20198080D02*
G75*
G03*
X33100640Y-20198080I-40000J0D01*
G01*
X33100640Y-21976080D02*
G75*
G03*
X33100640Y-21976080I-40000J0D01*
G01*
X33100640Y-22738080D02*
G75*
G03*
X33100640Y-22738080I-40000J0D01*
G01*
X33207320Y-24810720D02*
G75*
G03*
X33207320Y-24810720I-40000J0D01*
G01*
X33207320Y-25140920D02*
G75*
G03*
X33207320Y-25140920I-40000J0D01*
G01*
X33207320Y-25476200D02*
G75*
G03*
X33207320Y-25476200I-40000J0D01*
G01*
X33349560Y-20782280D02*
G75*
G03*
X33349560Y-20782280I-40000J0D01*
G01*
X33349560Y-21544280D02*
G75*
G03*
X33349560Y-21544280I-40000J0D01*
G01*
X33354640Y-21976080D02*
G75*
G03*
X33354640Y-21976080I-40000J0D01*
G01*
X33354640Y-22738080D02*
G75*
G03*
X33354640Y-22738080I-40000J0D01*
G01*
X33603560Y-20782280D02*
G75*
G03*
X33603560Y-20782280I-40000J0D01*
G01*
X33603560Y-21544280D02*
G75*
G03*
X33603560Y-21544280I-40000J0D01*
G01*
X33608640Y-21976080D02*
G75*
G03*
X33608640Y-21976080I-40000J0D01*
G01*
X33608640Y-22738080D02*
G75*
G03*
X33608640Y-22738080I-40000J0D01*
G01*
X33735640Y-17002760D02*
G75*
G03*
X33735640Y-17002760I-40000J0D01*
G01*
X33735640Y-17764760D02*
G75*
G03*
X33735640Y-17764760I-40000J0D01*
G01*
X33857560Y-20782280D02*
G75*
G03*
X33857560Y-20782280I-40000J0D01*
G01*
X33857560Y-21544280D02*
G75*
G03*
X33857560Y-21544280I-40000J0D01*
G01*
X33862640Y-18420080D02*
G75*
G03*
X33862640Y-18420080I-40000J0D01*
G01*
X33862640Y-18674080D02*
G75*
G03*
X33862640Y-18674080I-40000J0D01*
G01*
X33862640Y-18928080D02*
G75*
G03*
X33862640Y-18928080I-40000J0D01*
G01*
X33862640Y-19182080D02*
G75*
G03*
X33862640Y-19182080I-40000J0D01*
G01*
X33862640Y-19436080D02*
G75*
G03*
X33862640Y-19436080I-40000J0D01*
G01*
X33862640Y-19690080D02*
G75*
G03*
X33862640Y-19690080I-40000J0D01*
G01*
X33862640Y-19944080D02*
G75*
G03*
X33862640Y-19944080I-40000J0D01*
G01*
X33862640Y-20198080D02*
G75*
G03*
X33862640Y-20198080I-40000J0D01*
G01*
X33862640Y-21976080D02*
G75*
G03*
X33862640Y-21976080I-40000J0D01*
G01*
X33862640Y-22738080D02*
G75*
G03*
X33862640Y-22738080I-40000J0D01*
G01*
X33969320Y-24810720D02*
G75*
G03*
X33969320Y-24810720I-40000J0D01*
G01*
X33969320Y-25140920D02*
G75*
G03*
X33969320Y-25140920I-40000J0D01*
G01*
X33969320Y-25476200D02*
G75*
G03*
X33969320Y-25476200I-40000J0D01*
G01*
X33989640Y-17002760D02*
G75*
G03*
X33989640Y-17002760I-40000J0D01*
G01*
X33989640Y-17764760D02*
G75*
G03*
X33989640Y-17764760I-40000J0D01*
G01*
X34111560Y-20782280D02*
G75*
G03*
X34111560Y-20782280I-40000J0D01*
G01*
X34111560Y-21544280D02*
G75*
G03*
X34111560Y-21544280I-40000J0D01*
G01*
X34116640Y-21976080D02*
G75*
G03*
X34116640Y-21976080I-40000J0D01*
G01*
X34116640Y-22738080D02*
G75*
G03*
X34116640Y-22738080I-40000J0D01*
G01*
X34243640Y-17002760D02*
G75*
G03*
X34243640Y-17002760I-40000J0D01*
G01*
X34243640Y-17764760D02*
G75*
G03*
X34243640Y-17764760I-40000J0D01*
G01*
X34309680Y-18415000D02*
G75*
G03*
X34309680Y-18415000I-40000J0D01*
G01*
X34309680Y-18669000D02*
G75*
G03*
X34309680Y-18669000I-40000J0D01*
G01*
X34309680Y-18923000D02*
G75*
G03*
X34309680Y-18923000I-40000J0D01*
G01*
X34309680Y-19177000D02*
G75*
G03*
X34309680Y-19177000I-40000J0D01*
G01*
X34309680Y-19431000D02*
G75*
G03*
X34309680Y-19431000I-40000J0D01*
G01*
X34309680Y-19685000D02*
G75*
G03*
X34309680Y-19685000I-40000J0D01*
G01*
X34309680Y-19939000D02*
G75*
G03*
X34309680Y-19939000I-40000J0D01*
G01*
X34309680Y-20193000D02*
G75*
G03*
X34309680Y-20193000I-40000J0D01*
G01*
X34365560Y-20782280D02*
G75*
G03*
X34365560Y-20782280I-40000J0D01*
G01*
X34365560Y-21544280D02*
G75*
G03*
X34365560Y-21544280I-40000J0D01*
G01*
X34370640Y-21976080D02*
G75*
G03*
X34370640Y-21976080I-40000J0D01*
G01*
X34370640Y-22738080D02*
G75*
G03*
X34370640Y-22738080I-40000J0D01*
G01*
X34497640Y-17002760D02*
G75*
G03*
X34497640Y-17002760I-40000J0D01*
G01*
X34497640Y-17764760D02*
G75*
G03*
X34497640Y-17764760I-40000J0D01*
G01*
X34619560Y-20782280D02*
G75*
G03*
X34619560Y-20782280I-40000J0D01*
G01*
X34619560Y-21544280D02*
G75*
G03*
X34619560Y-21544280I-40000J0D01*
G01*
X34624640Y-21976080D02*
G75*
G03*
X34624640Y-21976080I-40000J0D01*
G01*
X34624640Y-22738080D02*
G75*
G03*
X34624640Y-22738080I-40000J0D01*
G01*
X34751640Y-17002760D02*
G75*
G03*
X34751640Y-17002760I-40000J0D01*
G01*
X34751640Y-17764760D02*
G75*
G03*
X34751640Y-17764760I-40000J0D01*
G01*
X35005640Y-17002760D02*
G75*
G03*
X35005640Y-17002760I-40000J0D01*
G01*
X35005640Y-17764760D02*
G75*
G03*
X35005640Y-17764760I-40000J0D01*
G01*
X35015800Y-21976080D02*
G75*
G03*
X35015800Y-21976080I-40000J0D01*
G01*
X35015800Y-22738080D02*
G75*
G03*
X35015800Y-22738080I-40000J0D01*
G01*
X35031040Y-20777200D02*
G75*
G03*
X35031040Y-20777200I-40000J0D01*
G01*
X35031040Y-21539200D02*
G75*
G03*
X35031040Y-21539200I-40000J0D01*
G01*
X35071680Y-18415000D02*
G75*
G03*
X35071680Y-18415000I-40000J0D01*
G01*
X35071680Y-18669000D02*
G75*
G03*
X35071680Y-18669000I-40000J0D01*
G01*
X35071680Y-18923000D02*
G75*
G03*
X35071680Y-18923000I-40000J0D01*
G01*
X35071680Y-19177000D02*
G75*
G03*
X35071680Y-19177000I-40000J0D01*
G01*
X35071680Y-19431000D02*
G75*
G03*
X35071680Y-19431000I-40000J0D01*
G01*
X35071680Y-19685000D02*
G75*
G03*
X35071680Y-19685000I-40000J0D01*
G01*
X35071680Y-19939000D02*
G75*
G03*
X35071680Y-19939000I-40000J0D01*
G01*
X35071680Y-20193000D02*
G75*
G03*
X35071680Y-20193000I-40000J0D01*
G01*
X35259640Y-17002760D02*
G75*
G03*
X35259640Y-17002760I-40000J0D01*
G01*
X35259640Y-17764760D02*
G75*
G03*
X35259640Y-17764760I-40000J0D01*
G01*
X35269800Y-21976080D02*
G75*
G03*
X35269800Y-21976080I-40000J0D01*
G01*
X35269800Y-22738080D02*
G75*
G03*
X35269800Y-22738080I-40000J0D01*
G01*
X35285040Y-20777200D02*
G75*
G03*
X35285040Y-20777200I-40000J0D01*
G01*
X35285040Y-21539200D02*
G75*
G03*
X35285040Y-21539200I-40000J0D01*
G01*
X35513640Y-17002760D02*
G75*
G03*
X35513640Y-17002760I-40000J0D01*
G01*
X35513640Y-17764760D02*
G75*
G03*
X35513640Y-17764760I-40000J0D01*
G01*
X35518720Y-18409920D02*
G75*
G03*
X35518720Y-18409920I-40000J0D01*
G01*
X35518720Y-18663920D02*
G75*
G03*
X35518720Y-18663920I-40000J0D01*
G01*
X35518720Y-18917920D02*
G75*
G03*
X35518720Y-18917920I-40000J0D01*
G01*
X35518720Y-19171920D02*
G75*
G03*
X35518720Y-19171920I-40000J0D01*
G01*
X35518720Y-19425920D02*
G75*
G03*
X35518720Y-19425920I-40000J0D01*
G01*
X35518720Y-19679920D02*
G75*
G03*
X35518720Y-19679920I-40000J0D01*
G01*
X35518720Y-19933920D02*
G75*
G03*
X35518720Y-19933920I-40000J0D01*
G01*
X35518720Y-20187920D02*
G75*
G03*
X35518720Y-20187920I-40000J0D01*
G01*
X35523800Y-21976080D02*
G75*
G03*
X35523800Y-21976080I-40000J0D01*
G01*
X35523800Y-22738080D02*
G75*
G03*
X35523800Y-22738080I-40000J0D01*
G01*
X35539040Y-20777200D02*
G75*
G03*
X35539040Y-20777200I-40000J0D01*
G01*
X35539040Y-21539200D02*
G75*
G03*
X35539040Y-21539200I-40000J0D01*
G01*
X35767640Y-17002760D02*
G75*
G03*
X35767640Y-17002760I-40000J0D01*
G01*
X35767640Y-17764760D02*
G75*
G03*
X35767640Y-17764760I-40000J0D01*
G01*
X35777800Y-21976080D02*
G75*
G03*
X35777800Y-21976080I-40000J0D01*
G01*
X35777800Y-22738080D02*
G75*
G03*
X35777800Y-22738080I-40000J0D01*
G01*
X35793040Y-20777200D02*
G75*
G03*
X35793040Y-20777200I-40000J0D01*
G01*
X35793040Y-21539200D02*
G75*
G03*
X35793040Y-21539200I-40000J0D01*
G01*
X36021640Y-17002760D02*
G75*
G03*
X36021640Y-17002760I-40000J0D01*
G01*
X36021640Y-17764760D02*
G75*
G03*
X36021640Y-17764760I-40000J0D01*
G01*
X36031800Y-21976080D02*
G75*
G03*
X36031800Y-21976080I-40000J0D01*
G01*
X36031800Y-22738080D02*
G75*
G03*
X36031800Y-22738080I-40000J0D01*
G01*
X36047040Y-20777200D02*
G75*
G03*
X36047040Y-20777200I-40000J0D01*
G01*
X36047040Y-21539200D02*
G75*
G03*
X36047040Y-21539200I-40000J0D01*
G01*
X36280720Y-18409920D02*
G75*
G03*
X36280720Y-18409920I-40000J0D01*
G01*
X36280720Y-18663920D02*
G75*
G03*
X36280720Y-18663920I-40000J0D01*
G01*
X36280720Y-18917920D02*
G75*
G03*
X36280720Y-18917920I-40000J0D01*
G01*
X36280720Y-19171920D02*
G75*
G03*
X36280720Y-19171920I-40000J0D01*
G01*
X36280720Y-19425920D02*
G75*
G03*
X36280720Y-19425920I-40000J0D01*
G01*
X36280720Y-19679920D02*
G75*
G03*
X36280720Y-19679920I-40000J0D01*
G01*
X36280720Y-19933920D02*
G75*
G03*
X36280720Y-19933920I-40000J0D01*
G01*
X36280720Y-20187920D02*
G75*
G03*
X36280720Y-20187920I-40000J0D01*
G01*
X36285800Y-21976080D02*
G75*
G03*
X36285800Y-21976080I-40000J0D01*
G01*
X36285800Y-22738080D02*
G75*
G03*
X36285800Y-22738080I-40000J0D01*
G01*
X36301040Y-20777200D02*
G75*
G03*
X36301040Y-20777200I-40000J0D01*
G01*
X36301040Y-21539200D02*
G75*
G03*
X36301040Y-21539200I-40000J0D01*
G01*
X36539800Y-21976080D02*
G75*
G03*
X36539800Y-21976080I-40000J0D01*
G01*
X36539800Y-22738080D02*
G75*
G03*
X36539800Y-22738080I-40000J0D01*
G01*
X36555040Y-20777200D02*
G75*
G03*
X36555040Y-20777200I-40000J0D01*
G01*
X36555040Y-21539200D02*
G75*
G03*
X36555040Y-21539200I-40000J0D01*
G01*
X36783640Y-18425160D02*
G75*
G03*
X36783640Y-18425160I-40000J0D01*
G01*
X36783640Y-18679160D02*
G75*
G03*
X36783640Y-18679160I-40000J0D01*
G01*
X36783640Y-18933160D02*
G75*
G03*
X36783640Y-18933160I-40000J0D01*
G01*
X36783640Y-19187160D02*
G75*
G03*
X36783640Y-19187160I-40000J0D01*
G01*
X36783640Y-19441160D02*
G75*
G03*
X36783640Y-19441160I-40000J0D01*
G01*
X36783640Y-19695160D02*
G75*
G03*
X36783640Y-19695160I-40000J0D01*
G01*
X36783640Y-19949160D02*
G75*
G03*
X36783640Y-19949160I-40000J0D01*
G01*
X36793800Y-21976080D02*
G75*
G03*
X36793800Y-21976080I-40000J0D01*
G01*
X36793800Y-22738080D02*
G75*
G03*
X36793800Y-22738080I-40000J0D01*
G01*
X36809040Y-20777200D02*
G75*
G03*
X36809040Y-20777200I-40000J0D01*
G01*
X36809040Y-21539200D02*
G75*
G03*
X36809040Y-21539200I-40000J0D01*
G01*
X37200200Y-20772120D02*
G75*
G03*
X37200200Y-20772120I-40000J0D01*
G01*
X37200200Y-21534120D02*
G75*
G03*
X37200200Y-21534120I-40000J0D01*
G01*
X37205280Y-21976080D02*
G75*
G03*
X37205280Y-21976080I-40000J0D01*
G01*
X37205280Y-22738080D02*
G75*
G03*
X37205280Y-22738080I-40000J0D01*
G01*
X37225600Y-15656560D02*
G75*
G03*
X37225600Y-15656560I-40000J0D01*
G01*
X37225600Y-15910560D02*
G75*
G03*
X37225600Y-15910560I-40000J0D01*
G01*
X37225600Y-16164560D02*
G75*
G03*
X37225600Y-16164560I-40000J0D01*
G01*
X37225600Y-16418560D02*
G75*
G03*
X37225600Y-16418560I-40000J0D01*
G01*
X37225600Y-16672560D02*
G75*
G03*
X37225600Y-16672560I-40000J0D01*
G01*
X37225600Y-16926560D02*
G75*
G03*
X37225600Y-16926560I-40000J0D01*
G01*
X37225600Y-17180560D02*
G75*
G03*
X37225600Y-17180560I-40000J0D01*
G01*
X37454200Y-20772120D02*
G75*
G03*
X37454200Y-20772120I-40000J0D01*
G01*
X37454200Y-21534120D02*
G75*
G03*
X37454200Y-21534120I-40000J0D01*
G01*
X37459280Y-21976080D02*
G75*
G03*
X37459280Y-21976080I-40000J0D01*
G01*
X37459280Y-22738080D02*
G75*
G03*
X37459280Y-22738080I-40000J0D01*
G01*
X37545640Y-18425160D02*
G75*
G03*
X37545640Y-18425160I-40000J0D01*
G01*
X37545640Y-18679160D02*
G75*
G03*
X37545640Y-18679160I-40000J0D01*
G01*
X37545640Y-18933160D02*
G75*
G03*
X37545640Y-18933160I-40000J0D01*
G01*
X37545640Y-19187160D02*
G75*
G03*
X37545640Y-19187160I-40000J0D01*
G01*
X37545640Y-19441160D02*
G75*
G03*
X37545640Y-19441160I-40000J0D01*
G01*
X37545640Y-19695160D02*
G75*
G03*
X37545640Y-19695160I-40000J0D01*
G01*
X37545640Y-19949160D02*
G75*
G03*
X37545640Y-19949160I-40000J0D01*
G01*
X37708200Y-20772120D02*
G75*
G03*
X37708200Y-20772120I-40000J0D01*
G01*
X37708200Y-21534120D02*
G75*
G03*
X37708200Y-21534120I-40000J0D01*
G01*
X37713280Y-21976080D02*
G75*
G03*
X37713280Y-21976080I-40000J0D01*
G01*
X37713280Y-22738080D02*
G75*
G03*
X37713280Y-22738080I-40000J0D01*
G01*
X37962200Y-20772120D02*
G75*
G03*
X37962200Y-20772120I-40000J0D01*
G01*
X37962200Y-21534120D02*
G75*
G03*
X37962200Y-21534120I-40000J0D01*
G01*
X37967280Y-21976080D02*
G75*
G03*
X37967280Y-21976080I-40000J0D01*
G01*
X37967280Y-22738080D02*
G75*
G03*
X37967280Y-22738080I-40000J0D01*
G01*
X37987600Y-15656560D02*
G75*
G03*
X37987600Y-15656560I-40000J0D01*
G01*
X37987600Y-15910560D02*
G75*
G03*
X37987600Y-15910560I-40000J0D01*
G01*
X37987600Y-16164560D02*
G75*
G03*
X37987600Y-16164560I-40000J0D01*
G01*
X37987600Y-16418560D02*
G75*
G03*
X37987600Y-16418560I-40000J0D01*
G01*
X37987600Y-16672560D02*
G75*
G03*
X37987600Y-16672560I-40000J0D01*
G01*
X37987600Y-16926560D02*
G75*
G03*
X37987600Y-16926560I-40000J0D01*
G01*
X37987600Y-17180560D02*
G75*
G03*
X37987600Y-17180560I-40000J0D01*
G01*
X38124760Y-18420080D02*
G75*
G03*
X38124760Y-18420080I-40000J0D01*
G01*
X38124760Y-18674080D02*
G75*
G03*
X38124760Y-18674080I-40000J0D01*
G01*
X38124760Y-18928080D02*
G75*
G03*
X38124760Y-18928080I-40000J0D01*
G01*
X38124760Y-19182080D02*
G75*
G03*
X38124760Y-19182080I-40000J0D01*
G01*
X38124760Y-19436080D02*
G75*
G03*
X38124760Y-19436080I-40000J0D01*
G01*
X38124760Y-19690080D02*
G75*
G03*
X38124760Y-19690080I-40000J0D01*
G01*
X38124760Y-19944080D02*
G75*
G03*
X38124760Y-19944080I-40000J0D01*
G01*
X38216200Y-20772120D02*
G75*
G03*
X38216200Y-20772120I-40000J0D01*
G01*
X38216200Y-21534120D02*
G75*
G03*
X38216200Y-21534120I-40000J0D01*
G01*
X38221280Y-21976080D02*
G75*
G03*
X38221280Y-21976080I-40000J0D01*
G01*
X38221280Y-22738080D02*
G75*
G03*
X38221280Y-22738080I-40000J0D01*
G01*
X38378760Y-24018240D02*
G75*
G03*
X38378760Y-24018240I-40000J0D01*
G01*
X38378760Y-25542240D02*
G75*
G03*
X38378760Y-25542240I-40000J0D01*
G01*
X38429560Y-23149560D02*
G75*
G03*
X38429560Y-23149560I-40000J0D01*
G01*
X38429560Y-23479760D02*
G75*
G03*
X38429560Y-23479760I-40000J0D01*
G01*
X38454960Y-15687040D02*
G75*
G03*
X38454960Y-15687040I-40000J0D01*
G01*
X38454960Y-17211040D02*
G75*
G03*
X38454960Y-17211040I-40000J0D01*
G01*
X38470200Y-20772120D02*
G75*
G03*
X38470200Y-20772120I-40000J0D01*
G01*
X38470200Y-21534120D02*
G75*
G03*
X38470200Y-21534120I-40000J0D01*
G01*
X38475280Y-21976080D02*
G75*
G03*
X38475280Y-21976080I-40000J0D01*
G01*
X38475280Y-22738080D02*
G75*
G03*
X38475280Y-22738080I-40000J0D01*
G01*
X38632760Y-24018240D02*
G75*
G03*
X38632760Y-24018240I-40000J0D01*
G01*
X38632760Y-25542240D02*
G75*
G03*
X38632760Y-25542240I-40000J0D01*
G01*
X38708960Y-15687040D02*
G75*
G03*
X38708960Y-15687040I-40000J0D01*
G01*
X38708960Y-17211040D02*
G75*
G03*
X38708960Y-17211040I-40000J0D01*
G01*
X38724200Y-20772120D02*
G75*
G03*
X38724200Y-20772120I-40000J0D01*
G01*
X38724200Y-21534120D02*
G75*
G03*
X38724200Y-21534120I-40000J0D01*
G01*
X38729280Y-21976080D02*
G75*
G03*
X38729280Y-21976080I-40000J0D01*
G01*
X38729280Y-22738080D02*
G75*
G03*
X38729280Y-22738080I-40000J0D01*
G01*
X38886760Y-18420080D02*
G75*
G03*
X38886760Y-18420080I-40000J0D01*
G01*
X38886760Y-18674080D02*
G75*
G03*
X38886760Y-18674080I-40000J0D01*
G01*
X38886760Y-18928080D02*
G75*
G03*
X38886760Y-18928080I-40000J0D01*
G01*
X38886760Y-19182080D02*
G75*
G03*
X38886760Y-19182080I-40000J0D01*
G01*
X38886760Y-19436080D02*
G75*
G03*
X38886760Y-19436080I-40000J0D01*
G01*
X38886760Y-19690080D02*
G75*
G03*
X38886760Y-19690080I-40000J0D01*
G01*
X38886760Y-19944080D02*
G75*
G03*
X38886760Y-19944080I-40000J0D01*
G01*
X38886760Y-24018240D02*
G75*
G03*
X38886760Y-24018240I-40000J0D01*
G01*
X38886760Y-25542240D02*
G75*
G03*
X38886760Y-25542240I-40000J0D01*
G01*
X38962960Y-15687040D02*
G75*
G03*
X38962960Y-15687040I-40000J0D01*
G01*
X38962960Y-17211040D02*
G75*
G03*
X38962960Y-17211040I-40000J0D01*
G01*
X38978200Y-20772120D02*
G75*
G03*
X38978200Y-20772120I-40000J0D01*
G01*
X38978200Y-21534120D02*
G75*
G03*
X38978200Y-21534120I-40000J0D01*
G01*
X38983280Y-21976080D02*
G75*
G03*
X38983280Y-21976080I-40000J0D01*
G01*
X38983280Y-22738080D02*
G75*
G03*
X38983280Y-22738080I-40000J0D01*
G01*
X39140760Y-24018240D02*
G75*
G03*
X39140760Y-24018240I-40000J0D01*
G01*
X39140760Y-25542240D02*
G75*
G03*
X39140760Y-25542240I-40000J0D01*
G01*
X39191560Y-23149560D02*
G75*
G03*
X39191560Y-23149560I-40000J0D01*
G01*
X39191560Y-23479760D02*
G75*
G03*
X39191560Y-23479760I-40000J0D01*
G01*
X39216960Y-15687040D02*
G75*
G03*
X39216960Y-15687040I-40000J0D01*
G01*
X39216960Y-17211040D02*
G75*
G03*
X39216960Y-17211040I-40000J0D01*
G01*
X39394760Y-24018240D02*
G75*
G03*
X39394760Y-24018240I-40000J0D01*
G01*
X39394760Y-25542240D02*
G75*
G03*
X39394760Y-25542240I-40000J0D01*
G01*
X39470960Y-15687040D02*
G75*
G03*
X39470960Y-15687040I-40000J0D01*
G01*
X39470960Y-17211040D02*
G75*
G03*
X39470960Y-17211040I-40000J0D01*
G01*
X39648760Y-24018240D02*
G75*
G03*
X39648760Y-24018240I-40000J0D01*
G01*
X39648760Y-25542240D02*
G75*
G03*
X39648760Y-25542240I-40000J0D01*
G01*
X39714800Y-17957800D02*
G75*
G03*
X39714800Y-17957800I-40000J0D01*
G01*
X39714800Y-18211800D02*
G75*
G03*
X39714800Y-18211800I-40000J0D01*
G01*
X39714800Y-18465800D02*
G75*
G03*
X39714800Y-18465800I-40000J0D01*
G01*
X39714800Y-18719800D02*
G75*
G03*
X39714800Y-18719800I-40000J0D01*
G01*
X39714800Y-18973800D02*
G75*
G03*
X39714800Y-18973800I-40000J0D01*
G01*
X39714800Y-19227800D02*
G75*
G03*
X39714800Y-19227800I-40000J0D01*
G01*
X39714800Y-19481800D02*
G75*
G03*
X39714800Y-19481800I-40000J0D01*
G01*
X39714800Y-19735800D02*
G75*
G03*
X39714800Y-19735800I-40000J0D01*
G01*
X39714800Y-19989800D02*
G75*
G03*
X39714800Y-19989800I-40000J0D01*
G01*
X39714800Y-20243800D02*
G75*
G03*
X39714800Y-20243800I-40000J0D01*
G01*
X39724960Y-15687040D02*
G75*
G03*
X39724960Y-15687040I-40000J0D01*
G01*
X39724960Y-17211040D02*
G75*
G03*
X39724960Y-17211040I-40000J0D01*
G01*
X39730040Y-20711160D02*
G75*
G03*
X39730040Y-20711160I-40000J0D01*
G01*
X39730040Y-20965160D02*
G75*
G03*
X39730040Y-20965160I-40000J0D01*
G01*
X39730040Y-21219160D02*
G75*
G03*
X39730040Y-21219160I-40000J0D01*
G01*
X39730040Y-21473160D02*
G75*
G03*
X39730040Y-21473160I-40000J0D01*
G01*
X39730040Y-21727160D02*
G75*
G03*
X39730040Y-21727160I-40000J0D01*
G01*
X39730040Y-21981160D02*
G75*
G03*
X39730040Y-21981160I-40000J0D01*
G01*
X39730040Y-22235160D02*
G75*
G03*
X39730040Y-22235160I-40000J0D01*
G01*
X39730040Y-22489160D02*
G75*
G03*
X39730040Y-22489160I-40000J0D01*
G01*
X39730040Y-22743160D02*
G75*
G03*
X39730040Y-22743160I-40000J0D01*
G01*
X39730040Y-22997160D02*
G75*
G03*
X39730040Y-22997160I-40000J0D01*
G01*
X39745280Y-23479760D02*
G75*
G03*
X39745280Y-23479760I-40000J0D01*
G01*
X39902760Y-24018240D02*
G75*
G03*
X39902760Y-24018240I-40000J0D01*
G01*
X39902760Y-25542240D02*
G75*
G03*
X39902760Y-25542240I-40000J0D01*
G01*
X39978960Y-15687040D02*
G75*
G03*
X39978960Y-15687040I-40000J0D01*
G01*
X39978960Y-17211040D02*
G75*
G03*
X39978960Y-17211040I-40000J0D01*
G01*
X40156760Y-24018240D02*
G75*
G03*
X40156760Y-24018240I-40000J0D01*
G01*
X40156760Y-25542240D02*
G75*
G03*
X40156760Y-25542240I-40000J0D01*
G01*
X40232960Y-15687040D02*
G75*
G03*
X40232960Y-15687040I-40000J0D01*
G01*
X40232960Y-17211040D02*
G75*
G03*
X40232960Y-17211040I-40000J0D01*
G01*
X40410760Y-24018240D02*
G75*
G03*
X40410760Y-24018240I-40000J0D01*
G01*
X40410760Y-25542240D02*
G75*
G03*
X40410760Y-25542240I-40000J0D01*
G01*
X40476800Y-17957800D02*
G75*
G03*
X40476800Y-17957800I-40000J0D01*
G01*
X40476800Y-18211800D02*
G75*
G03*
X40476800Y-18211800I-40000J0D01*
G01*
X40476800Y-18465800D02*
G75*
G03*
X40476800Y-18465800I-40000J0D01*
G01*
X40476800Y-18719800D02*
G75*
G03*
X40476800Y-18719800I-40000J0D01*
G01*
X40476800Y-18973800D02*
G75*
G03*
X40476800Y-18973800I-40000J0D01*
G01*
X40476800Y-19227800D02*
G75*
G03*
X40476800Y-19227800I-40000J0D01*
G01*
X40476800Y-19481800D02*
G75*
G03*
X40476800Y-19481800I-40000J0D01*
G01*
X40476800Y-19735800D02*
G75*
G03*
X40476800Y-19735800I-40000J0D01*
G01*
X40476800Y-19989800D02*
G75*
G03*
X40476800Y-19989800I-40000J0D01*
G01*
X40476800Y-20243800D02*
G75*
G03*
X40476800Y-20243800I-40000J0D01*
G01*
X40486960Y-15687040D02*
G75*
G03*
X40486960Y-15687040I-40000J0D01*
G01*
X40486960Y-17211040D02*
G75*
G03*
X40486960Y-17211040I-40000J0D01*
G01*
X40492040Y-20711160D02*
G75*
G03*
X40492040Y-20711160I-40000J0D01*
G01*
X40492040Y-20965160D02*
G75*
G03*
X40492040Y-20965160I-40000J0D01*
G01*
X40492040Y-21219160D02*
G75*
G03*
X40492040Y-21219160I-40000J0D01*
G01*
X40492040Y-21473160D02*
G75*
G03*
X40492040Y-21473160I-40000J0D01*
G01*
X40492040Y-21727160D02*
G75*
G03*
X40492040Y-21727160I-40000J0D01*
G01*
X40492040Y-21981160D02*
G75*
G03*
X40492040Y-21981160I-40000J0D01*
G01*
X40492040Y-22235160D02*
G75*
G03*
X40492040Y-22235160I-40000J0D01*
G01*
X40492040Y-22489160D02*
G75*
G03*
X40492040Y-22489160I-40000J0D01*
G01*
X40492040Y-22743160D02*
G75*
G03*
X40492040Y-22743160I-40000J0D01*
G01*
X40492040Y-22997160D02*
G75*
G03*
X40492040Y-22997160I-40000J0D01*
G01*
X40507280Y-23479760D02*
G75*
G03*
X40507280Y-23479760I-40000J0D01*
G01*
X40664760Y-24018240D02*
G75*
G03*
X40664760Y-24018240I-40000J0D01*
G01*
X40664760Y-25542240D02*
G75*
G03*
X40664760Y-25542240I-40000J0D01*
G01*
X40740960Y-15687040D02*
G75*
G03*
X40740960Y-15687040I-40000J0D01*
G01*
X40740960Y-17211040D02*
G75*
G03*
X40740960Y-17211040I-40000J0D01*
G01*
X40883200Y-17967960D02*
G75*
G03*
X40883200Y-17967960I-40000J0D01*
G01*
X40883200Y-18221960D02*
G75*
G03*
X40883200Y-18221960I-40000J0D01*
G01*
X40883200Y-18475960D02*
G75*
G03*
X40883200Y-18475960I-40000J0D01*
G01*
X40883200Y-18729960D02*
G75*
G03*
X40883200Y-18729960I-40000J0D01*
G01*
X40883200Y-18983960D02*
G75*
G03*
X40883200Y-18983960I-40000J0D01*
G01*
X40883200Y-19237960D02*
G75*
G03*
X40883200Y-19237960I-40000J0D01*
G01*
X40883200Y-19491960D02*
G75*
G03*
X40883200Y-19491960I-40000J0D01*
G01*
X40883200Y-19745960D02*
G75*
G03*
X40883200Y-19745960I-40000J0D01*
G01*
X40883200Y-19999960D02*
G75*
G03*
X40883200Y-19999960I-40000J0D01*
G01*
X40883200Y-20253960D02*
G75*
G03*
X40883200Y-20253960I-40000J0D01*
G01*
X40888280Y-20716240D02*
G75*
G03*
X40888280Y-20716240I-40000J0D01*
G01*
X40888280Y-20970240D02*
G75*
G03*
X40888280Y-20970240I-40000J0D01*
G01*
X40888280Y-21224240D02*
G75*
G03*
X40888280Y-21224240I-40000J0D01*
G01*
X40888280Y-21478240D02*
G75*
G03*
X40888280Y-21478240I-40000J0D01*
G01*
X40888280Y-21732240D02*
G75*
G03*
X40888280Y-21732240I-40000J0D01*
G01*
X40888280Y-21986240D02*
G75*
G03*
X40888280Y-21986240I-40000J0D01*
G01*
X40888280Y-22240240D02*
G75*
G03*
X40888280Y-22240240I-40000J0D01*
G01*
X40888280Y-22494240D02*
G75*
G03*
X40888280Y-22494240I-40000J0D01*
G01*
X40888280Y-22748240D02*
G75*
G03*
X40888280Y-22748240I-40000J0D01*
G01*
X40888280Y-23002240D02*
G75*
G03*
X40888280Y-23002240I-40000J0D01*
G01*
X40918760Y-24018240D02*
G75*
G03*
X40918760Y-24018240I-40000J0D01*
G01*
X40918760Y-25542240D02*
G75*
G03*
X40918760Y-25542240I-40000J0D01*
G01*
X40994960Y-15687040D02*
G75*
G03*
X40994960Y-15687040I-40000J0D01*
G01*
X40994960Y-17211040D02*
G75*
G03*
X40994960Y-17211040I-40000J0D01*
G01*
X41172760Y-24018240D02*
G75*
G03*
X41172760Y-24018240I-40000J0D01*
G01*
X41172760Y-25542240D02*
G75*
G03*
X41172760Y-25542240I-40000J0D01*
G01*
X41248960Y-15687040D02*
G75*
G03*
X41248960Y-15687040I-40000J0D01*
G01*
X41248960Y-17211040D02*
G75*
G03*
X41248960Y-17211040I-40000J0D01*
G01*
X41426760Y-24018240D02*
G75*
G03*
X41426760Y-24018240I-40000J0D01*
G01*
X41426760Y-25542240D02*
G75*
G03*
X41426760Y-25542240I-40000J0D01*
G01*
X41502960Y-15687040D02*
G75*
G03*
X41502960Y-15687040I-40000J0D01*
G01*
X41502960Y-17211040D02*
G75*
G03*
X41502960Y-17211040I-40000J0D01*
G01*
X41645200Y-17967960D02*
G75*
G03*
X41645200Y-17967960I-40000J0D01*
G01*
X41645200Y-18221960D02*
G75*
G03*
X41645200Y-18221960I-40000J0D01*
G01*
X41645200Y-18475960D02*
G75*
G03*
X41645200Y-18475960I-40000J0D01*
G01*
X41645200Y-18729960D02*
G75*
G03*
X41645200Y-18729960I-40000J0D01*
G01*
X41645200Y-18983960D02*
G75*
G03*
X41645200Y-18983960I-40000J0D01*
G01*
X41645200Y-19237960D02*
G75*
G03*
X41645200Y-19237960I-40000J0D01*
G01*
X41645200Y-19491960D02*
G75*
G03*
X41645200Y-19491960I-40000J0D01*
G01*
X41645200Y-19745960D02*
G75*
G03*
X41645200Y-19745960I-40000J0D01*
G01*
X41645200Y-19999960D02*
G75*
G03*
X41645200Y-19999960I-40000J0D01*
G01*
X41645200Y-20253960D02*
G75*
G03*
X41645200Y-20253960I-40000J0D01*
G01*
X41650280Y-20716240D02*
G75*
G03*
X41650280Y-20716240I-40000J0D01*
G01*
X41650280Y-20970240D02*
G75*
G03*
X41650280Y-20970240I-40000J0D01*
G01*
X41650280Y-21224240D02*
G75*
G03*
X41650280Y-21224240I-40000J0D01*
G01*
X41650280Y-21478240D02*
G75*
G03*
X41650280Y-21478240I-40000J0D01*
G01*
X41650280Y-21732240D02*
G75*
G03*
X41650280Y-21732240I-40000J0D01*
G01*
X41650280Y-21986240D02*
G75*
G03*
X41650280Y-21986240I-40000J0D01*
G01*
X41650280Y-22240240D02*
G75*
G03*
X41650280Y-22240240I-40000J0D01*
G01*
X41650280Y-22494240D02*
G75*
G03*
X41650280Y-22494240I-40000J0D01*
G01*
X41650280Y-22748240D02*
G75*
G03*
X41650280Y-22748240I-40000J0D01*
G01*
X41650280Y-23002240D02*
G75*
G03*
X41650280Y-23002240I-40000J0D01*
G01*
X41680760Y-24018240D02*
G75*
G03*
X41680760Y-24018240I-40000J0D01*
G01*
X41680760Y-25542240D02*
G75*
G03*
X41680760Y-25542240I-40000J0D01*
G01*
X41756960Y-15687040D02*
G75*
G03*
X41756960Y-15687040I-40000J0D01*
G01*
X41756960Y-17211040D02*
G75*
G03*
X41756960Y-17211040I-40000J0D01*
G01*
X41934760Y-24018240D02*
G75*
G03*
X41934760Y-24018240I-40000J0D01*
G01*
X41934760Y-25542240D02*
G75*
G03*
X41934760Y-25542240I-40000J0D01*
G01*
X42010960Y-15687040D02*
G75*
G03*
X42010960Y-15687040I-40000J0D01*
G01*
X42010960Y-17211040D02*
G75*
G03*
X42010960Y-17211040I-40000J0D01*
G01*
X42188760Y-24018240D02*
G75*
G03*
X42188760Y-24018240I-40000J0D01*
G01*
X42188760Y-25542240D02*
G75*
G03*
X42188760Y-25542240I-40000J0D01*
G01*
X42264960Y-15687040D02*
G75*
G03*
X42264960Y-15687040I-40000J0D01*
G01*
X42264960Y-17211040D02*
G75*
G03*
X42264960Y-17211040I-40000J0D01*
G01*
X28219400Y-23932680D02*
X28219400Y-24032680D01*
X28169400Y-23982680D02*
X28269400Y-23982680D01*
X28219400Y-24186680D02*
X28219400Y-24286680D01*
X28169400Y-24236680D02*
X28269400Y-24236680D01*
X28219400Y-24440680D02*
X28219400Y-24540680D01*
X28169400Y-24490680D02*
X28269400Y-24490680D01*
X28219400Y-24694680D02*
X28219400Y-24794680D01*
X28169400Y-24744680D02*
X28269400Y-24744680D01*
X28219400Y-24948680D02*
X28219400Y-25048680D01*
X28169400Y-24998680D02*
X28269400Y-24998680D01*
X28219400Y-25436360D02*
X28219400Y-25536360D01*
X28169400Y-25486360D02*
X28269400Y-25486360D01*
X28473400Y-25436360D02*
X28473400Y-25536360D01*
X28423400Y-25486360D02*
X28523400Y-25486360D01*
X28488640Y-16058680D02*
X28488640Y-16158680D01*
X28438640Y-16108680D02*
X28538640Y-16108680D01*
X28727400Y-25436360D02*
X28727400Y-25536360D01*
X28677400Y-25486360D02*
X28777400Y-25486360D01*
X28757880Y-24430520D02*
X28757880Y-24530520D01*
X28707880Y-24480520D02*
X28807880Y-24480520D01*
X28981400Y-25436360D02*
X28981400Y-25536360D01*
X28931400Y-25486360D02*
X29031400Y-25486360D01*
X28988640Y-16058680D02*
X28988640Y-16158680D01*
X28938640Y-16108680D02*
X29038640Y-16108680D01*
X29235400Y-25436360D02*
X29235400Y-25536360D01*
X29185400Y-25486360D02*
X29285400Y-25486360D01*
X29257880Y-24430520D02*
X29257880Y-24530520D01*
X29207880Y-24480520D02*
X29307880Y-24480520D01*
X29489400Y-25436360D02*
X29489400Y-25536360D01*
X29439400Y-25486360D02*
X29539400Y-25486360D01*
X29743400Y-25436360D02*
X29743400Y-25536360D01*
X29693400Y-25486360D02*
X29793400Y-25486360D01*
X29997400Y-25436360D02*
X29997400Y-25536360D01*
X29947400Y-25486360D02*
X30047400Y-25486360D01*
X30251400Y-25436360D02*
X30251400Y-25536360D01*
X30201400Y-25486360D02*
X30301400Y-25486360D01*
X30505400Y-25436360D02*
X30505400Y-25536360D01*
X30455400Y-25486360D02*
X30555400Y-25486360D01*
X30759400Y-25436360D02*
X30759400Y-25536360D01*
X30709400Y-25486360D02*
X30809400Y-25486360D01*
X31013400Y-25436360D02*
X31013400Y-25536360D01*
X30963400Y-25486360D02*
X31063400Y-25486360D01*
X31267400Y-25436360D02*
X31267400Y-25536360D01*
X31217400Y-25486360D02*
X31317400Y-25486360D01*
X31343600Y-15657360D02*
X31343600Y-15757360D01*
X31293600Y-15707360D02*
X31393600Y-15707360D01*
X31343600Y-15911360D02*
X31343600Y-16011360D01*
X31293600Y-15961360D02*
X31393600Y-15961360D01*
X31343600Y-16165360D02*
X31343600Y-16265360D01*
X31293600Y-16215360D02*
X31393600Y-16215360D01*
X31521400Y-25436360D02*
X31521400Y-25536360D01*
X31471400Y-25486360D02*
X31571400Y-25486360D01*
X31597600Y-15657360D02*
X31597600Y-15757360D01*
X31547600Y-15707360D02*
X31647600Y-15707360D01*
X31597600Y-15911360D02*
X31597600Y-16011360D01*
X31547600Y-15961360D02*
X31647600Y-15961360D01*
X31597600Y-16165360D02*
X31597600Y-16265360D01*
X31547600Y-16215360D02*
X31647600Y-16215360D01*
X31775400Y-25436360D02*
X31775400Y-25536360D01*
X31725400Y-25486360D02*
X31825400Y-25486360D01*
X31851600Y-15657360D02*
X31851600Y-15757360D01*
X31801600Y-15707360D02*
X31901600Y-15707360D01*
X31851600Y-15911360D02*
X31851600Y-16011360D01*
X31801600Y-15961360D02*
X31901600Y-15961360D01*
X31851600Y-16165360D02*
X31851600Y-16265360D01*
X31801600Y-16215360D02*
X31901600Y-16215360D01*
X32029400Y-25436360D02*
X32029400Y-25536360D01*
X31979400Y-25486360D02*
X32079400Y-25486360D01*
X32105600Y-15657360D02*
X32105600Y-15757360D01*
X32055600Y-15707360D02*
X32155600Y-15707360D01*
X32105600Y-15911360D02*
X32105600Y-16011360D01*
X32055600Y-15961360D02*
X32155600Y-15961360D01*
X32105600Y-16165360D02*
X32105600Y-16265360D01*
X32055600Y-16215360D02*
X32155600Y-16215360D01*
X32283400Y-25436360D02*
X32283400Y-25536360D01*
X32233400Y-25486360D02*
X32333400Y-25486360D01*
X32359600Y-15657360D02*
X32359600Y-15757360D01*
X32309600Y-15707360D02*
X32409600Y-15707360D01*
X32359600Y-15911360D02*
X32359600Y-16011360D01*
X32309600Y-15961360D02*
X32409600Y-15961360D01*
X32359600Y-16165360D02*
X32359600Y-16265360D01*
X32309600Y-16215360D02*
X32409600Y-16215360D01*
X32537400Y-25436360D02*
X32537400Y-25536360D01*
X32487400Y-25486360D02*
X32587400Y-25486360D01*
X32613600Y-15657360D02*
X32613600Y-15757360D01*
X32563600Y-15707360D02*
X32663600Y-15707360D01*
X32613600Y-15911360D02*
X32613600Y-16011360D01*
X32563600Y-15961360D02*
X32663600Y-15961360D01*
X32613600Y-16165360D02*
X32613600Y-16265360D01*
X32563600Y-16215360D02*
X32663600Y-16215360D01*
X32867600Y-15657360D02*
X32867600Y-15757360D01*
X32817600Y-15707360D02*
X32917600Y-15707360D01*
X32867600Y-15911360D02*
X32867600Y-16011360D01*
X32817600Y-15961360D02*
X32917600Y-15961360D01*
X32867600Y-16165360D02*
X32867600Y-16265360D01*
X32817600Y-16215360D02*
X32917600Y-16215360D01*
X33121600Y-15657360D02*
X33121600Y-15757360D01*
X33071600Y-15707360D02*
X33171600Y-15707360D01*
X33121600Y-15911360D02*
X33121600Y-16011360D01*
X33071600Y-15961360D02*
X33171600Y-15961360D01*
X33121600Y-16165360D02*
X33121600Y-16265360D01*
X33071600Y-16215360D02*
X33171600Y-16215360D01*
X33375600Y-15657360D02*
X33375600Y-15757360D01*
X33325600Y-15707360D02*
X33425600Y-15707360D01*
X33375600Y-15911360D02*
X33375600Y-16011360D01*
X33325600Y-15961360D02*
X33425600Y-15961360D01*
X33375600Y-16165360D02*
X33375600Y-16265360D01*
X33325600Y-16215360D02*
X33425600Y-16215360D01*
X33629600Y-15657360D02*
X33629600Y-15757360D01*
X33579600Y-15707360D02*
X33679600Y-15707360D01*
X33629600Y-15911360D02*
X33629600Y-16011360D01*
X33579600Y-15961360D02*
X33679600Y-15961360D01*
X33629600Y-16165360D02*
X33629600Y-16265360D01*
X33579600Y-16215360D02*
X33679600Y-16215360D01*
X33883600Y-15657360D02*
X33883600Y-15757360D01*
X33833600Y-15707360D02*
X33933600Y-15707360D01*
X33883600Y-15911360D02*
X33883600Y-16011360D01*
X33833600Y-15961360D02*
X33933600Y-15961360D01*
X33883600Y-16165360D02*
X33883600Y-16265360D01*
X33833600Y-16215360D02*
X33933600Y-16215360D01*
X34137600Y-15657360D02*
X34137600Y-15757360D01*
X34087600Y-15707360D02*
X34187600Y-15707360D01*
X34137600Y-15911360D02*
X34137600Y-16011360D01*
X34087600Y-15961360D02*
X34187600Y-15961360D01*
X34137600Y-16165360D02*
X34137600Y-16265360D01*
X34087600Y-16215360D02*
X34187600Y-16215360D01*
X34391600Y-15657360D02*
X34391600Y-15757360D01*
X34341600Y-15707360D02*
X34441600Y-15707360D01*
X34391600Y-15911360D02*
X34391600Y-16011360D01*
X34341600Y-15961360D02*
X34441600Y-15961360D01*
X34391600Y-16165360D02*
X34391600Y-16265360D01*
X34341600Y-16215360D02*
X34441600Y-16215360D01*
X34645600Y-15657360D02*
X34645600Y-15757360D01*
X34595600Y-15707360D02*
X34695600Y-15707360D01*
X34645600Y-15911360D02*
X34645600Y-16011360D01*
X34595600Y-15961360D02*
X34695600Y-15961360D01*
X34645600Y-16165360D02*
X34645600Y-16265360D01*
X34595600Y-16215360D02*
X34695600Y-16215360D01*
X34899600Y-15657360D02*
X34899600Y-15757360D01*
X34849600Y-15707360D02*
X34949600Y-15707360D01*
X34899600Y-15911360D02*
X34899600Y-16011360D01*
X34849600Y-15961360D02*
X34949600Y-15961360D01*
X34899600Y-16165360D02*
X34899600Y-16265360D01*
X34849600Y-16215360D02*
X34949600Y-16215360D01*
X35153600Y-15657360D02*
X35153600Y-15757360D01*
X35103600Y-15707360D02*
X35203600Y-15707360D01*
X35153600Y-15911360D02*
X35153600Y-16011360D01*
X35103600Y-15961360D02*
X35203600Y-15961360D01*
X35153600Y-16165360D02*
X35153600Y-16265360D01*
X35103600Y-16215360D02*
X35203600Y-16215360D01*
X35397440Y-23775200D02*
X35397440Y-23875200D01*
X35347440Y-23825200D02*
X35447440Y-23825200D01*
X35651440Y-23775200D02*
X35651440Y-23875200D01*
X35601440Y-23825200D02*
X35701440Y-23825200D01*
X35905440Y-23775200D02*
X35905440Y-23875200D01*
X35855440Y-23825200D02*
X35955440Y-23825200D01*
X36027360Y-15885960D02*
X36027360Y-15985960D01*
X35977360Y-15935960D02*
X36077360Y-15935960D01*
X36159440Y-23775200D02*
X36159440Y-23875200D01*
X36109440Y-23825200D02*
X36209440Y-23825200D01*
X36413440Y-23775200D02*
X36413440Y-23875200D01*
X36363440Y-23825200D02*
X36463440Y-23825200D01*
X36527360Y-15885960D02*
X36527360Y-15985960D01*
X36477360Y-15935960D02*
X36577360Y-15935960D01*
X42011600Y-20691640D02*
X42011600Y-20791640D01*
X41961600Y-20741640D02*
X42061600Y-20741640D01*
X42011600Y-20945640D02*
X42011600Y-21045640D01*
X41961600Y-20995640D02*
X42061600Y-20995640D01*
X42011600Y-21199640D02*
X42011600Y-21299640D01*
X41961600Y-21249640D02*
X42061600Y-21249640D01*
X42011600Y-21453640D02*
X42011600Y-21553640D01*
X41961600Y-21503640D02*
X42061600Y-21503640D01*
X42011600Y-21707640D02*
X42011600Y-21807640D01*
X41961600Y-21757640D02*
X42061600Y-21757640D01*
X42011600Y-22276600D02*
X42011600Y-22376600D01*
X41961600Y-22326600D02*
X42061600Y-22326600D01*
X42011600Y-22530600D02*
X42011600Y-22630600D01*
X41961600Y-22580600D02*
X42061600Y-22580600D01*
X35444193Y-24461633D02*
X35444193Y-24377487D01*
X35360047Y-24377487D01*
X35360047Y-24461633D01*
X35444193Y-24461633D01*
X35444193Y-24969633D02*
X35444193Y-24885487D01*
X35360047Y-24885487D01*
X35360047Y-24969633D01*
X35444193Y-24969633D01*
X35558693Y-24715633D02*
X35558693Y-24631487D01*
X35474547Y-24631487D01*
X35474547Y-24715633D01*
X35558693Y-24715633D01*
X35673193Y-24461633D02*
X35673193Y-24377487D01*
X35589047Y-24377487D01*
X35589047Y-24461633D01*
X35673193Y-24461633D01*
X35673193Y-24969633D02*
X35673193Y-24885487D01*
X35589047Y-24885487D01*
X35589047Y-24969633D01*
X35673193Y-24969633D01*
X35787693Y-24715633D02*
X35787693Y-24631487D01*
X35703547Y-24631487D01*
X35703547Y-24715633D01*
X35787693Y-24715633D01*
X35902193Y-24461633D02*
X35902193Y-24377487D01*
X35818047Y-24377487D01*
X35818047Y-24461633D01*
X35902193Y-24461633D01*
X35902193Y-24969633D02*
X35902193Y-24885487D01*
X35818047Y-24885487D01*
X35818047Y-24969633D01*
X35902193Y-24969633D01*
X36016693Y-24715633D02*
X36016693Y-24631487D01*
X35932547Y-24631487D01*
X35932547Y-24715633D01*
X36016693Y-24715633D01*
X36131193Y-24461633D02*
X36131193Y-24377487D01*
X36047047Y-24377487D01*
X36047047Y-24461633D01*
X36131193Y-24461633D01*
X36131193Y-24969633D02*
X36131193Y-24885487D01*
X36047047Y-24885487D01*
X36047047Y-24969633D01*
X36131193Y-24969633D01*
X36245693Y-24715633D02*
X36245693Y-24631487D01*
X36161547Y-24631487D01*
X36161547Y-24715633D01*
X36245693Y-24715633D01*
X36360193Y-24461633D02*
X36360193Y-24377487D01*
X36276047Y-24377487D01*
X36276047Y-24461633D01*
X36360193Y-24461633D01*
X36360193Y-24969633D02*
X36360193Y-24885487D01*
X36276047Y-24885487D01*
X36276047Y-24969633D01*
X36360193Y-24969633D01*
X36474693Y-24715633D02*
X36474693Y-24631487D01*
X36390547Y-24631487D01*
X36390547Y-24715633D01*
X36474693Y-24715633D01*
X34635620Y-24826060D02*
X34788120Y-24673560D01*
X34635620Y-24521060D01*
X34483120Y-24673560D01*
X34635620Y-24826060D01*
X37134620Y-24826060D02*
X37287120Y-24673560D01*
X37134620Y-24521060D01*
X36982120Y-24673560D01*
X37134620Y-24826060D01*
D12*
X28190948Y-26297434D02*
X28190948Y-25997434D01*
X28262377Y-25997434D01*
X28305234Y-26011720D01*
X28333806Y-26040291D01*
X28348091Y-26068863D01*
X28362377Y-26126006D01*
X28362377Y-26168863D01*
X28348091Y-26226006D01*
X28333806Y-26254577D01*
X28305234Y-26283149D01*
X28262377Y-26297434D01*
X28190948Y-26297434D01*
X28490948Y-26297434D02*
X28490948Y-26097434D01*
X28490948Y-26154577D02*
X28505234Y-26126006D01*
X28519520Y-26111720D01*
X28548091Y-26097434D01*
X28576663Y-26097434D01*
X28676663Y-26297434D02*
X28676663Y-26097434D01*
X28676663Y-25997434D02*
X28662377Y-26011720D01*
X28676663Y-26026006D01*
X28690948Y-26011720D01*
X28676663Y-25997434D01*
X28676663Y-26026006D01*
X28862377Y-26297434D02*
X28833806Y-26283149D01*
X28819520Y-26254577D01*
X28819520Y-25997434D01*
X29019520Y-26297434D02*
X28990948Y-26283149D01*
X28976663Y-26254577D01*
X28976663Y-25997434D01*
X29362377Y-26297434D02*
X29362377Y-25997434D01*
X29462377Y-26211720D01*
X29562377Y-25997434D01*
X29562377Y-26297434D01*
X29833806Y-26297434D02*
X29833806Y-26140291D01*
X29819520Y-26111720D01*
X29790948Y-26097434D01*
X29733806Y-26097434D01*
X29705234Y-26111720D01*
X29833806Y-26283149D02*
X29805234Y-26297434D01*
X29733806Y-26297434D01*
X29705234Y-26283149D01*
X29690948Y-26254577D01*
X29690948Y-26226006D01*
X29705234Y-26197434D01*
X29733806Y-26183149D01*
X29805234Y-26183149D01*
X29833806Y-26168863D01*
X29976663Y-26097434D02*
X29976663Y-26397434D01*
X29976663Y-26111720D02*
X30005234Y-26097434D01*
X30062377Y-26097434D01*
X30090948Y-26111720D01*
X30105234Y-26126006D01*
X30119520Y-26154577D01*
X30119520Y-26240291D01*
X30105234Y-26268863D01*
X30090948Y-26283149D01*
X30062377Y-26297434D01*
X30005234Y-26297434D01*
X29976663Y-26283149D01*
X30248091Y-26268863D02*
X30262377Y-26283149D01*
X30248091Y-26297434D01*
X30233806Y-26283149D01*
X30248091Y-26268863D01*
X30248091Y-26297434D01*
X30248091Y-26111720D02*
X30262377Y-26126006D01*
X30248091Y-26140291D01*
X30233806Y-26126006D01*
X30248091Y-26111720D01*
X30248091Y-26140291D01*
X27864520Y-26771720D02*
X27904520Y-26811720D01*
X27904520Y-26771720D02*
X27864520Y-26811720D01*
X28248091Y-26627434D02*
X28276663Y-26627434D01*
X28305234Y-26641720D01*
X28319520Y-26656006D01*
X28333806Y-26684577D01*
X28348091Y-26741720D01*
X28348091Y-26813149D01*
X28333806Y-26870291D01*
X28319520Y-26898863D01*
X28305234Y-26913149D01*
X28276663Y-26927434D01*
X28248091Y-26927434D01*
X28219520Y-26913149D01*
X28205234Y-26898863D01*
X28190948Y-26870291D01*
X28176663Y-26813149D01*
X28176663Y-26741720D01*
X28190948Y-26684577D01*
X28205234Y-26656006D01*
X28219520Y-26641720D01*
X28248091Y-26627434D01*
X28476663Y-26898863D02*
X28490948Y-26913149D01*
X28476663Y-26927434D01*
X28462377Y-26913149D01*
X28476663Y-26898863D01*
X28476663Y-26927434D01*
X28748091Y-26727434D02*
X28748091Y-26927434D01*
X28676663Y-26613149D02*
X28605234Y-26827434D01*
X28790948Y-26827434D01*
X28962377Y-26627434D02*
X28990948Y-26627434D01*
X29019520Y-26641720D01*
X29033806Y-26656006D01*
X29048091Y-26684577D01*
X29062377Y-26741720D01*
X29062377Y-26813149D01*
X29048091Y-26870291D01*
X29033806Y-26898863D01*
X29019520Y-26913149D01*
X28990948Y-26927434D01*
X28962377Y-26927434D01*
X28933806Y-26913149D01*
X28919520Y-26898863D01*
X28905234Y-26870291D01*
X28890948Y-26813149D01*
X28890948Y-26741720D01*
X28905234Y-26684577D01*
X28919520Y-26656006D01*
X28933806Y-26641720D01*
X28962377Y-26627434D01*
X29248091Y-26627434D02*
X29276663Y-26627434D01*
X29305234Y-26641720D01*
X29319520Y-26656006D01*
X29333806Y-26684577D01*
X29348091Y-26741720D01*
X29348091Y-26813149D01*
X29333806Y-26870291D01*
X29319520Y-26898863D01*
X29305234Y-26913149D01*
X29276663Y-26927434D01*
X29248091Y-26927434D01*
X29219520Y-26913149D01*
X29205234Y-26898863D01*
X29190948Y-26870291D01*
X29176663Y-26813149D01*
X29176663Y-26741720D01*
X29190948Y-26684577D01*
X29205234Y-26656006D01*
X29219520Y-26641720D01*
X29248091Y-26627434D01*
X29476663Y-26927434D02*
X29476663Y-26727434D01*
X29476663Y-26756006D02*
X29490948Y-26741720D01*
X29519520Y-26727434D01*
X29562377Y-26727434D01*
X29590948Y-26741720D01*
X29605234Y-26770291D01*
X29605234Y-26927434D01*
X29605234Y-26770291D02*
X29619520Y-26741720D01*
X29648091Y-26727434D01*
X29690948Y-26727434D01*
X29719520Y-26741720D01*
X29733806Y-26770291D01*
X29733806Y-26927434D01*
X29876663Y-26927434D02*
X29876663Y-26727434D01*
X29876663Y-26756006D02*
X29890948Y-26741720D01*
X29919520Y-26727434D01*
X29962377Y-26727434D01*
X29990948Y-26741720D01*
X30005234Y-26770291D01*
X30005234Y-26927434D01*
X30005234Y-26770291D02*
X30019520Y-26741720D01*
X30048091Y-26727434D01*
X30090948Y-26727434D01*
X30119520Y-26741720D01*
X30133806Y-26770291D01*
X30133806Y-26927434D01*
X30719520Y-26613149D02*
X30462377Y-26998863D01*
X31105234Y-26627434D02*
X31133806Y-26627434D01*
X31162377Y-26641720D01*
X31176663Y-26656006D01*
X31190948Y-26684577D01*
X31205234Y-26741720D01*
X31205234Y-26813149D01*
X31190948Y-26870291D01*
X31176663Y-26898863D01*
X31162377Y-26913149D01*
X31133806Y-26927434D01*
X31105234Y-26927434D01*
X31076663Y-26913149D01*
X31062377Y-26898863D01*
X31048091Y-26870291D01*
X31033806Y-26813149D01*
X31033806Y-26741720D01*
X31048091Y-26684577D01*
X31062377Y-26656006D01*
X31076663Y-26641720D01*
X31105234Y-26627434D01*
X31333806Y-26898863D02*
X31348091Y-26913149D01*
X31333806Y-26927434D01*
X31319520Y-26913149D01*
X31333806Y-26898863D01*
X31333806Y-26927434D01*
X31533806Y-26627434D02*
X31562377Y-26627434D01*
X31590948Y-26641720D01*
X31605234Y-26656006D01*
X31619520Y-26684577D01*
X31633806Y-26741720D01*
X31633806Y-26813149D01*
X31619520Y-26870291D01*
X31605234Y-26898863D01*
X31590948Y-26913149D01*
X31562377Y-26927434D01*
X31533806Y-26927434D01*
X31505234Y-26913149D01*
X31490948Y-26898863D01*
X31476663Y-26870291D01*
X31462377Y-26813149D01*
X31462377Y-26741720D01*
X31476663Y-26684577D01*
X31490948Y-26656006D01*
X31505234Y-26641720D01*
X31533806Y-26627434D01*
X31919520Y-26927434D02*
X31748091Y-26927434D01*
X31833806Y-26927434D02*
X31833806Y-26627434D01*
X31805234Y-26670291D01*
X31776663Y-26698863D01*
X31748091Y-26713149D01*
X32190948Y-26627434D02*
X32048091Y-26627434D01*
X32033806Y-26770291D01*
X32048091Y-26756006D01*
X32076663Y-26741720D01*
X32148091Y-26741720D01*
X32176663Y-26756006D01*
X32190948Y-26770291D01*
X32205234Y-26798863D01*
X32205234Y-26870291D01*
X32190948Y-26898863D01*
X32176663Y-26913149D01*
X32148091Y-26927434D01*
X32076663Y-26927434D01*
X32048091Y-26913149D01*
X32033806Y-26898863D01*
X32305234Y-26627434D02*
X32505234Y-26627434D01*
X32376663Y-26927434D01*
X32605234Y-26627434D02*
X32605234Y-26684577D01*
X32719520Y-26627434D02*
X32719520Y-26684577D01*
X33162377Y-27041720D02*
X33148091Y-27027434D01*
X33119520Y-26984577D01*
X33105234Y-26956006D01*
X33090948Y-26913149D01*
X33076663Y-26841720D01*
X33076663Y-26784577D01*
X33090948Y-26713149D01*
X33105234Y-26670291D01*
X33119520Y-26641720D01*
X33148091Y-26598863D01*
X33162377Y-26584577D01*
X33262377Y-26656006D02*
X33276663Y-26641720D01*
X33305234Y-26627434D01*
X33376663Y-26627434D01*
X33405234Y-26641720D01*
X33419520Y-26656006D01*
X33433806Y-26684577D01*
X33433806Y-26713149D01*
X33419520Y-26756006D01*
X33248091Y-26927434D01*
X33433806Y-26927434D01*
X33719520Y-26927434D02*
X33548091Y-26927434D01*
X33633806Y-26927434D02*
X33633806Y-26627434D01*
X33605234Y-26670291D01*
X33576663Y-26698863D01*
X33548091Y-26713149D01*
X34005234Y-26927434D02*
X33833806Y-26927434D01*
X33919520Y-26927434D02*
X33919520Y-26627434D01*
X33890948Y-26670291D01*
X33862377Y-26698863D01*
X33833806Y-26713149D01*
X34362377Y-26927434D02*
X34362377Y-26627434D01*
X34490948Y-26927434D02*
X34490948Y-26770291D01*
X34476663Y-26741720D01*
X34448091Y-26727434D01*
X34405234Y-26727434D01*
X34376663Y-26741720D01*
X34362377Y-26756006D01*
X34676663Y-26927434D02*
X34648091Y-26913149D01*
X34633806Y-26898863D01*
X34619520Y-26870291D01*
X34619520Y-26784577D01*
X34633806Y-26756006D01*
X34648091Y-26741720D01*
X34676663Y-26727434D01*
X34719520Y-26727434D01*
X34748091Y-26741720D01*
X34762377Y-26756006D01*
X34776663Y-26784577D01*
X34776663Y-26870291D01*
X34762377Y-26898863D01*
X34748091Y-26913149D01*
X34719520Y-26927434D01*
X34676663Y-26927434D01*
X34948091Y-26927434D02*
X34919520Y-26913149D01*
X34905234Y-26884577D01*
X34905234Y-26627434D01*
X35176663Y-26913149D02*
X35148091Y-26927434D01*
X35090948Y-26927434D01*
X35062377Y-26913149D01*
X35048091Y-26884577D01*
X35048091Y-26770291D01*
X35062377Y-26741720D01*
X35090948Y-26727434D01*
X35148091Y-26727434D01*
X35176663Y-26741720D01*
X35190948Y-26770291D01*
X35190948Y-26798863D01*
X35048091Y-26827434D01*
X35305234Y-26913149D02*
X35333806Y-26927434D01*
X35390948Y-26927434D01*
X35419520Y-26913149D01*
X35433806Y-26884577D01*
X35433806Y-26870291D01*
X35419520Y-26841720D01*
X35390948Y-26827434D01*
X35348091Y-26827434D01*
X35319520Y-26813149D01*
X35305234Y-26784577D01*
X35305234Y-26770291D01*
X35319520Y-26741720D01*
X35348091Y-26727434D01*
X35390948Y-26727434D01*
X35419520Y-26741720D01*
X35533806Y-27041720D02*
X35548091Y-27027434D01*
X35576663Y-26984577D01*
X35590948Y-26956006D01*
X35605234Y-26913149D01*
X35619520Y-26841720D01*
X35619520Y-26784577D01*
X35605234Y-26713149D01*
X35590948Y-26670291D01*
X35576663Y-26641720D01*
X35548091Y-26598863D01*
X35533806Y-26584577D01*
X27904520Y-27187720D02*
G75*
G03*
X27904520Y-27187720I-40000J0D01*
G01*
X28248091Y-27023434D02*
X28276663Y-27023434D01*
X28305234Y-27037720D01*
X28319520Y-27052006D01*
X28333806Y-27080577D01*
X28348091Y-27137720D01*
X28348091Y-27209149D01*
X28333806Y-27266291D01*
X28319520Y-27294863D01*
X28305234Y-27309149D01*
X28276663Y-27323434D01*
X28248091Y-27323434D01*
X28219520Y-27309149D01*
X28205234Y-27294863D01*
X28190948Y-27266291D01*
X28176663Y-27209149D01*
X28176663Y-27137720D01*
X28190948Y-27080577D01*
X28205234Y-27052006D01*
X28219520Y-27037720D01*
X28248091Y-27023434D01*
X28476663Y-27294863D02*
X28490948Y-27309149D01*
X28476663Y-27323434D01*
X28462377Y-27309149D01*
X28476663Y-27294863D01*
X28476663Y-27323434D01*
X28662377Y-27152006D02*
X28633806Y-27137720D01*
X28619520Y-27123434D01*
X28605234Y-27094863D01*
X28605234Y-27080577D01*
X28619520Y-27052006D01*
X28633806Y-27037720D01*
X28662377Y-27023434D01*
X28719520Y-27023434D01*
X28748091Y-27037720D01*
X28762377Y-27052006D01*
X28776663Y-27080577D01*
X28776663Y-27094863D01*
X28762377Y-27123434D01*
X28748091Y-27137720D01*
X28719520Y-27152006D01*
X28662377Y-27152006D01*
X28633806Y-27166291D01*
X28619520Y-27180577D01*
X28605234Y-27209149D01*
X28605234Y-27266291D01*
X28619520Y-27294863D01*
X28633806Y-27309149D01*
X28662377Y-27323434D01*
X28719520Y-27323434D01*
X28748091Y-27309149D01*
X28762377Y-27294863D01*
X28776663Y-27266291D01*
X28776663Y-27209149D01*
X28762377Y-27180577D01*
X28748091Y-27166291D01*
X28719520Y-27152006D01*
X28962377Y-27023434D02*
X28990948Y-27023434D01*
X29019520Y-27037720D01*
X29033806Y-27052006D01*
X29048091Y-27080577D01*
X29062377Y-27137720D01*
X29062377Y-27209149D01*
X29048091Y-27266291D01*
X29033806Y-27294863D01*
X29019520Y-27309149D01*
X28990948Y-27323434D01*
X28962377Y-27323434D01*
X28933806Y-27309149D01*
X28919520Y-27294863D01*
X28905234Y-27266291D01*
X28890948Y-27209149D01*
X28890948Y-27137720D01*
X28905234Y-27080577D01*
X28919520Y-27052006D01*
X28933806Y-27037720D01*
X28962377Y-27023434D01*
X29248091Y-27023434D02*
X29276663Y-27023434D01*
X29305234Y-27037720D01*
X29319520Y-27052006D01*
X29333806Y-27080577D01*
X29348091Y-27137720D01*
X29348091Y-27209149D01*
X29333806Y-27266291D01*
X29319520Y-27294863D01*
X29305234Y-27309149D01*
X29276663Y-27323434D01*
X29248091Y-27323434D01*
X29219520Y-27309149D01*
X29205234Y-27294863D01*
X29190948Y-27266291D01*
X29176663Y-27209149D01*
X29176663Y-27137720D01*
X29190948Y-27080577D01*
X29205234Y-27052006D01*
X29219520Y-27037720D01*
X29248091Y-27023434D01*
X29476663Y-27323434D02*
X29476663Y-27123434D01*
X29476663Y-27152006D02*
X29490948Y-27137720D01*
X29519520Y-27123434D01*
X29562377Y-27123434D01*
X29590948Y-27137720D01*
X29605234Y-27166291D01*
X29605234Y-27323434D01*
X29605234Y-27166291D02*
X29619520Y-27137720D01*
X29648091Y-27123434D01*
X29690948Y-27123434D01*
X29719520Y-27137720D01*
X29733806Y-27166291D01*
X29733806Y-27323434D01*
X29876663Y-27323434D02*
X29876663Y-27123434D01*
X29876663Y-27152006D02*
X29890948Y-27137720D01*
X29919520Y-27123434D01*
X29962377Y-27123434D01*
X29990948Y-27137720D01*
X30005234Y-27166291D01*
X30005234Y-27323434D01*
X30005234Y-27166291D02*
X30019520Y-27137720D01*
X30048091Y-27123434D01*
X30090948Y-27123434D01*
X30119520Y-27137720D01*
X30133806Y-27166291D01*
X30133806Y-27323434D01*
X30719520Y-27009149D02*
X30462377Y-27394863D01*
X31105234Y-27023434D02*
X31133806Y-27023434D01*
X31162377Y-27037720D01*
X31176663Y-27052006D01*
X31190948Y-27080577D01*
X31205234Y-27137720D01*
X31205234Y-27209149D01*
X31190948Y-27266291D01*
X31176663Y-27294863D01*
X31162377Y-27309149D01*
X31133806Y-27323434D01*
X31105234Y-27323434D01*
X31076663Y-27309149D01*
X31062377Y-27294863D01*
X31048091Y-27266291D01*
X31033806Y-27209149D01*
X31033806Y-27137720D01*
X31048091Y-27080577D01*
X31062377Y-27052006D01*
X31076663Y-27037720D01*
X31105234Y-27023434D01*
X31333806Y-27294863D02*
X31348091Y-27309149D01*
X31333806Y-27323434D01*
X31319520Y-27309149D01*
X31333806Y-27294863D01*
X31333806Y-27323434D01*
X31533806Y-27023434D02*
X31562377Y-27023434D01*
X31590948Y-27037720D01*
X31605234Y-27052006D01*
X31619520Y-27080577D01*
X31633806Y-27137720D01*
X31633806Y-27209149D01*
X31619520Y-27266291D01*
X31605234Y-27294863D01*
X31590948Y-27309149D01*
X31562377Y-27323434D01*
X31533806Y-27323434D01*
X31505234Y-27309149D01*
X31490948Y-27294863D01*
X31476663Y-27266291D01*
X31462377Y-27209149D01*
X31462377Y-27137720D01*
X31476663Y-27080577D01*
X31490948Y-27052006D01*
X31505234Y-27037720D01*
X31533806Y-27023434D01*
X31733806Y-27023434D02*
X31919520Y-27023434D01*
X31819520Y-27137720D01*
X31862377Y-27137720D01*
X31890948Y-27152006D01*
X31905234Y-27166291D01*
X31919520Y-27194863D01*
X31919520Y-27266291D01*
X31905234Y-27294863D01*
X31890948Y-27309149D01*
X31862377Y-27323434D01*
X31776663Y-27323434D01*
X31748091Y-27309149D01*
X31733806Y-27294863D01*
X32205234Y-27323434D02*
X32033806Y-27323434D01*
X32119520Y-27323434D02*
X32119520Y-27023434D01*
X32090948Y-27066291D01*
X32062377Y-27094863D01*
X32033806Y-27109149D01*
X32476663Y-27023434D02*
X32333806Y-27023434D01*
X32319520Y-27166291D01*
X32333806Y-27152006D01*
X32362377Y-27137720D01*
X32433806Y-27137720D01*
X32462377Y-27152006D01*
X32476663Y-27166291D01*
X32490948Y-27194863D01*
X32490948Y-27266291D01*
X32476663Y-27294863D01*
X32462377Y-27309149D01*
X32433806Y-27323434D01*
X32362377Y-27323434D01*
X32333806Y-27309149D01*
X32319520Y-27294863D01*
X32605234Y-27023434D02*
X32605234Y-27080577D01*
X32719520Y-27023434D02*
X32719520Y-27080577D01*
X33162377Y-27437720D02*
X33148091Y-27423434D01*
X33119520Y-27380577D01*
X33105234Y-27352006D01*
X33090948Y-27309149D01*
X33076663Y-27237720D01*
X33076663Y-27180577D01*
X33090948Y-27109149D01*
X33105234Y-27066291D01*
X33119520Y-27037720D01*
X33148091Y-26994863D01*
X33162377Y-26980577D01*
X33405234Y-27123434D02*
X33405234Y-27323434D01*
X33333806Y-27009149D02*
X33262377Y-27223434D01*
X33448091Y-27223434D01*
X33576663Y-27323434D02*
X33633806Y-27323434D01*
X33662377Y-27309149D01*
X33676663Y-27294863D01*
X33705234Y-27252006D01*
X33719520Y-27194863D01*
X33719520Y-27080577D01*
X33705234Y-27052006D01*
X33690948Y-27037720D01*
X33662377Y-27023434D01*
X33605234Y-27023434D01*
X33576663Y-27037720D01*
X33562377Y-27052006D01*
X33548091Y-27080577D01*
X33548091Y-27152006D01*
X33562377Y-27180577D01*
X33576663Y-27194863D01*
X33605234Y-27209149D01*
X33662377Y-27209149D01*
X33690948Y-27194863D01*
X33705234Y-27180577D01*
X33719520Y-27152006D01*
X33976663Y-27023434D02*
X33919520Y-27023434D01*
X33890948Y-27037720D01*
X33876663Y-27052006D01*
X33848091Y-27094863D01*
X33833806Y-27152006D01*
X33833806Y-27266291D01*
X33848091Y-27294863D01*
X33862377Y-27309149D01*
X33890948Y-27323434D01*
X33948091Y-27323434D01*
X33976663Y-27309149D01*
X33990948Y-27294863D01*
X34005234Y-27266291D01*
X34005234Y-27194863D01*
X33990948Y-27166291D01*
X33976663Y-27152006D01*
X33948091Y-27137720D01*
X33890948Y-27137720D01*
X33862377Y-27152006D01*
X33848091Y-27166291D01*
X33833806Y-27194863D01*
X34362377Y-27323434D02*
X34362377Y-27023434D01*
X34490948Y-27323434D02*
X34490948Y-27166291D01*
X34476663Y-27137720D01*
X34448091Y-27123434D01*
X34405234Y-27123434D01*
X34376663Y-27137720D01*
X34362377Y-27152006D01*
X34676663Y-27323434D02*
X34648091Y-27309149D01*
X34633806Y-27294863D01*
X34619520Y-27266291D01*
X34619520Y-27180577D01*
X34633806Y-27152006D01*
X34648091Y-27137720D01*
X34676663Y-27123434D01*
X34719520Y-27123434D01*
X34748091Y-27137720D01*
X34762377Y-27152006D01*
X34776663Y-27180577D01*
X34776663Y-27266291D01*
X34762377Y-27294863D01*
X34748091Y-27309149D01*
X34719520Y-27323434D01*
X34676663Y-27323434D01*
X34948091Y-27323434D02*
X34919520Y-27309149D01*
X34905234Y-27280577D01*
X34905234Y-27023434D01*
X35176663Y-27309149D02*
X35148091Y-27323434D01*
X35090948Y-27323434D01*
X35062377Y-27309149D01*
X35048091Y-27280577D01*
X35048091Y-27166291D01*
X35062377Y-27137720D01*
X35090948Y-27123434D01*
X35148091Y-27123434D01*
X35176663Y-27137720D01*
X35190948Y-27166291D01*
X35190948Y-27194863D01*
X35048091Y-27223434D01*
X35305234Y-27309149D02*
X35333806Y-27323434D01*
X35390948Y-27323434D01*
X35419520Y-27309149D01*
X35433806Y-27280577D01*
X35433806Y-27266291D01*
X35419520Y-27237720D01*
X35390948Y-27223434D01*
X35348091Y-27223434D01*
X35319520Y-27209149D01*
X35305234Y-27180577D01*
X35305234Y-27166291D01*
X35319520Y-27137720D01*
X35348091Y-27123434D01*
X35390948Y-27123434D01*
X35419520Y-27137720D01*
X35533806Y-27437720D02*
X35548091Y-27423434D01*
X35576663Y-27380577D01*
X35590948Y-27352006D01*
X35605234Y-27309149D01*
X35619520Y-27237720D01*
X35619520Y-27180577D01*
X35605234Y-27109149D01*
X35590948Y-27066291D01*
X35576663Y-27037720D01*
X35548091Y-26994863D01*
X35533806Y-26980577D01*
X27854520Y-27533720D02*
X27854520Y-27633720D01*
X27804520Y-27583720D02*
X27904520Y-27583720D01*
X28348091Y-27719434D02*
X28176663Y-27719434D01*
X28262377Y-27719434D02*
X28262377Y-27419434D01*
X28233806Y-27462291D01*
X28205234Y-27490863D01*
X28176663Y-27505149D01*
X28476663Y-27690863D02*
X28490948Y-27705149D01*
X28476663Y-27719434D01*
X28462377Y-27705149D01*
X28476663Y-27690863D01*
X28476663Y-27719434D01*
X28676663Y-27419434D02*
X28705234Y-27419434D01*
X28733806Y-27433720D01*
X28748091Y-27448006D01*
X28762377Y-27476577D01*
X28776663Y-27533720D01*
X28776663Y-27605149D01*
X28762377Y-27662291D01*
X28748091Y-27690863D01*
X28733806Y-27705149D01*
X28705234Y-27719434D01*
X28676663Y-27719434D01*
X28648091Y-27705149D01*
X28633806Y-27690863D01*
X28619520Y-27662291D01*
X28605234Y-27605149D01*
X28605234Y-27533720D01*
X28619520Y-27476577D01*
X28633806Y-27448006D01*
X28648091Y-27433720D01*
X28676663Y-27419434D01*
X28962377Y-27419434D02*
X28990948Y-27419434D01*
X29019520Y-27433720D01*
X29033806Y-27448006D01*
X29048091Y-27476577D01*
X29062377Y-27533720D01*
X29062377Y-27605149D01*
X29048091Y-27662291D01*
X29033806Y-27690863D01*
X29019520Y-27705149D01*
X28990948Y-27719434D01*
X28962377Y-27719434D01*
X28933806Y-27705149D01*
X28919520Y-27690863D01*
X28905234Y-27662291D01*
X28890948Y-27605149D01*
X28890948Y-27533720D01*
X28905234Y-27476577D01*
X28919520Y-27448006D01*
X28933806Y-27433720D01*
X28962377Y-27419434D01*
X29248091Y-27419434D02*
X29276663Y-27419434D01*
X29305234Y-27433720D01*
X29319520Y-27448006D01*
X29333806Y-27476577D01*
X29348091Y-27533720D01*
X29348091Y-27605149D01*
X29333806Y-27662291D01*
X29319520Y-27690863D01*
X29305234Y-27705149D01*
X29276663Y-27719434D01*
X29248091Y-27719434D01*
X29219520Y-27705149D01*
X29205234Y-27690863D01*
X29190948Y-27662291D01*
X29176663Y-27605149D01*
X29176663Y-27533720D01*
X29190948Y-27476577D01*
X29205234Y-27448006D01*
X29219520Y-27433720D01*
X29248091Y-27419434D01*
X29476663Y-27719434D02*
X29476663Y-27519434D01*
X29476663Y-27548006D02*
X29490948Y-27533720D01*
X29519520Y-27519434D01*
X29562377Y-27519434D01*
X29590948Y-27533720D01*
X29605234Y-27562291D01*
X29605234Y-27719434D01*
X29605234Y-27562291D02*
X29619520Y-27533720D01*
X29648091Y-27519434D01*
X29690948Y-27519434D01*
X29719520Y-27533720D01*
X29733806Y-27562291D01*
X29733806Y-27719434D01*
X29876663Y-27719434D02*
X29876663Y-27519434D01*
X29876663Y-27548006D02*
X29890948Y-27533720D01*
X29919520Y-27519434D01*
X29962377Y-27519434D01*
X29990948Y-27533720D01*
X30005234Y-27562291D01*
X30005234Y-27719434D01*
X30005234Y-27562291D02*
X30019520Y-27533720D01*
X30048091Y-27519434D01*
X30090948Y-27519434D01*
X30119520Y-27533720D01*
X30133806Y-27562291D01*
X30133806Y-27719434D01*
X30719520Y-27405149D02*
X30462377Y-27790863D01*
X31105234Y-27419434D02*
X31133806Y-27419434D01*
X31162377Y-27433720D01*
X31176663Y-27448006D01*
X31190948Y-27476577D01*
X31205234Y-27533720D01*
X31205234Y-27605149D01*
X31190948Y-27662291D01*
X31176663Y-27690863D01*
X31162377Y-27705149D01*
X31133806Y-27719434D01*
X31105234Y-27719434D01*
X31076663Y-27705149D01*
X31062377Y-27690863D01*
X31048091Y-27662291D01*
X31033806Y-27605149D01*
X31033806Y-27533720D01*
X31048091Y-27476577D01*
X31062377Y-27448006D01*
X31076663Y-27433720D01*
X31105234Y-27419434D01*
X31333806Y-27690863D02*
X31348091Y-27705149D01*
X31333806Y-27719434D01*
X31319520Y-27705149D01*
X31333806Y-27690863D01*
X31333806Y-27719434D01*
X31533806Y-27419434D02*
X31562377Y-27419434D01*
X31590948Y-27433720D01*
X31605234Y-27448006D01*
X31619520Y-27476577D01*
X31633806Y-27533720D01*
X31633806Y-27605149D01*
X31619520Y-27662291D01*
X31605234Y-27690863D01*
X31590948Y-27705149D01*
X31562377Y-27719434D01*
X31533806Y-27719434D01*
X31505234Y-27705149D01*
X31490948Y-27690863D01*
X31476663Y-27662291D01*
X31462377Y-27605149D01*
X31462377Y-27533720D01*
X31476663Y-27476577D01*
X31490948Y-27448006D01*
X31505234Y-27433720D01*
X31533806Y-27419434D01*
X31733806Y-27419434D02*
X31919520Y-27419434D01*
X31819520Y-27533720D01*
X31862377Y-27533720D01*
X31890948Y-27548006D01*
X31905234Y-27562291D01*
X31919520Y-27590863D01*
X31919520Y-27662291D01*
X31905234Y-27690863D01*
X31890948Y-27705149D01*
X31862377Y-27719434D01*
X31776663Y-27719434D01*
X31748091Y-27705149D01*
X31733806Y-27690863D01*
X32062377Y-27719434D02*
X32119520Y-27719434D01*
X32148091Y-27705149D01*
X32162377Y-27690863D01*
X32190948Y-27648006D01*
X32205234Y-27590863D01*
X32205234Y-27476577D01*
X32190948Y-27448006D01*
X32176663Y-27433720D01*
X32148091Y-27419434D01*
X32090948Y-27419434D01*
X32062377Y-27433720D01*
X32048091Y-27448006D01*
X32033806Y-27476577D01*
X32033806Y-27548006D01*
X32048091Y-27576577D01*
X32062377Y-27590863D01*
X32090948Y-27605149D01*
X32148091Y-27605149D01*
X32176663Y-27590863D01*
X32190948Y-27576577D01*
X32205234Y-27548006D01*
X32462377Y-27519434D02*
X32462377Y-27719434D01*
X32390948Y-27405149D02*
X32319520Y-27619434D01*
X32505234Y-27619434D01*
X32605234Y-27419434D02*
X32605234Y-27476577D01*
X32719520Y-27419434D02*
X32719520Y-27476577D01*
X33162377Y-27833720D02*
X33148091Y-27819434D01*
X33119520Y-27776577D01*
X33105234Y-27748006D01*
X33090948Y-27705149D01*
X33076663Y-27633720D01*
X33076663Y-27576577D01*
X33090948Y-27505149D01*
X33105234Y-27462291D01*
X33119520Y-27433720D01*
X33148091Y-27390863D01*
X33162377Y-27376577D01*
X33319520Y-27548006D02*
X33290948Y-27533720D01*
X33276663Y-27519434D01*
X33262377Y-27490863D01*
X33262377Y-27476577D01*
X33276663Y-27448006D01*
X33290948Y-27433720D01*
X33319520Y-27419434D01*
X33376663Y-27419434D01*
X33405234Y-27433720D01*
X33419520Y-27448006D01*
X33433806Y-27476577D01*
X33433806Y-27490863D01*
X33419520Y-27519434D01*
X33405234Y-27533720D01*
X33376663Y-27548006D01*
X33319520Y-27548006D01*
X33290948Y-27562291D01*
X33276663Y-27576577D01*
X33262377Y-27605149D01*
X33262377Y-27662291D01*
X33276663Y-27690863D01*
X33290948Y-27705149D01*
X33319520Y-27719434D01*
X33376663Y-27719434D01*
X33405234Y-27705149D01*
X33419520Y-27690863D01*
X33433806Y-27662291D01*
X33433806Y-27605149D01*
X33419520Y-27576577D01*
X33405234Y-27562291D01*
X33376663Y-27548006D01*
X33576663Y-27719434D02*
X33633806Y-27719434D01*
X33662377Y-27705149D01*
X33676663Y-27690863D01*
X33705234Y-27648006D01*
X33719520Y-27590863D01*
X33719520Y-27476577D01*
X33705234Y-27448006D01*
X33690948Y-27433720D01*
X33662377Y-27419434D01*
X33605234Y-27419434D01*
X33576663Y-27433720D01*
X33562377Y-27448006D01*
X33548091Y-27476577D01*
X33548091Y-27548006D01*
X33562377Y-27576577D01*
X33576663Y-27590863D01*
X33605234Y-27605149D01*
X33662377Y-27605149D01*
X33690948Y-27590863D01*
X33705234Y-27576577D01*
X33719520Y-27548006D01*
X34076663Y-27719434D02*
X34076663Y-27419434D01*
X34205234Y-27719434D02*
X34205234Y-27562291D01*
X34190948Y-27533720D01*
X34162377Y-27519434D01*
X34119520Y-27519434D01*
X34090948Y-27533720D01*
X34076663Y-27548006D01*
X34390948Y-27719434D02*
X34362377Y-27705149D01*
X34348091Y-27690863D01*
X34333806Y-27662291D01*
X34333806Y-27576577D01*
X34348091Y-27548006D01*
X34362377Y-27533720D01*
X34390948Y-27519434D01*
X34433806Y-27519434D01*
X34462377Y-27533720D01*
X34476663Y-27548006D01*
X34490948Y-27576577D01*
X34490948Y-27662291D01*
X34476663Y-27690863D01*
X34462377Y-27705149D01*
X34433806Y-27719434D01*
X34390948Y-27719434D01*
X34662377Y-27719434D02*
X34633806Y-27705149D01*
X34619520Y-27676577D01*
X34619520Y-27419434D01*
X34890948Y-27705149D02*
X34862377Y-27719434D01*
X34805234Y-27719434D01*
X34776663Y-27705149D01*
X34762377Y-27676577D01*
X34762377Y-27562291D01*
X34776663Y-27533720D01*
X34805234Y-27519434D01*
X34862377Y-27519434D01*
X34890948Y-27533720D01*
X34905234Y-27562291D01*
X34905234Y-27590863D01*
X34762377Y-27619434D01*
X35019520Y-27705149D02*
X35048091Y-27719434D01*
X35105234Y-27719434D01*
X35133806Y-27705149D01*
X35148091Y-27676577D01*
X35148091Y-27662291D01*
X35133806Y-27633720D01*
X35105234Y-27619434D01*
X35062377Y-27619434D01*
X35033806Y-27605149D01*
X35019520Y-27576577D01*
X35019520Y-27562291D01*
X35033806Y-27533720D01*
X35062377Y-27519434D01*
X35105234Y-27519434D01*
X35133806Y-27533720D01*
X35248091Y-27833720D02*
X35262377Y-27819434D01*
X35290948Y-27776577D01*
X35305234Y-27748006D01*
X35319520Y-27705149D01*
X35333806Y-27633720D01*
X35333806Y-27576577D01*
X35319520Y-27505149D01*
X35305234Y-27462291D01*
X35290948Y-27433720D01*
X35262377Y-27390863D01*
X35248091Y-27376577D01*
X27887093Y-28021793D02*
X27887093Y-27937647D01*
X27802947Y-27937647D01*
X27802947Y-28021793D01*
X27887093Y-28021793D01*
X28348091Y-28115434D02*
X28176663Y-28115434D01*
X28262377Y-28115434D02*
X28262377Y-27815434D01*
X28233806Y-27858291D01*
X28205234Y-27886863D01*
X28176663Y-27901149D01*
X28476663Y-28086863D02*
X28490948Y-28101149D01*
X28476663Y-28115434D01*
X28462377Y-28101149D01*
X28476663Y-28086863D01*
X28476663Y-28115434D01*
X28776663Y-28115434D02*
X28605234Y-28115434D01*
X28690948Y-28115434D02*
X28690948Y-27815434D01*
X28662377Y-27858291D01*
X28633806Y-27886863D01*
X28605234Y-27901149D01*
X28919520Y-28115434D02*
X28976663Y-28115434D01*
X29005234Y-28101149D01*
X29019520Y-28086863D01*
X29048091Y-28044006D01*
X29062377Y-27986863D01*
X29062377Y-27872577D01*
X29048091Y-27844006D01*
X29033806Y-27829720D01*
X29005234Y-27815434D01*
X28948091Y-27815434D01*
X28919520Y-27829720D01*
X28905234Y-27844006D01*
X28890948Y-27872577D01*
X28890948Y-27944006D01*
X28905234Y-27972577D01*
X28919520Y-27986863D01*
X28948091Y-28001149D01*
X29005234Y-28001149D01*
X29033806Y-27986863D01*
X29048091Y-27972577D01*
X29062377Y-27944006D01*
X29248091Y-27815434D02*
X29276663Y-27815434D01*
X29305234Y-27829720D01*
X29319520Y-27844006D01*
X29333806Y-27872577D01*
X29348091Y-27929720D01*
X29348091Y-28001149D01*
X29333806Y-28058291D01*
X29319520Y-28086863D01*
X29305234Y-28101149D01*
X29276663Y-28115434D01*
X29248091Y-28115434D01*
X29219520Y-28101149D01*
X29205234Y-28086863D01*
X29190948Y-28058291D01*
X29176663Y-28001149D01*
X29176663Y-27929720D01*
X29190948Y-27872577D01*
X29205234Y-27844006D01*
X29219520Y-27829720D01*
X29248091Y-27815434D01*
X29476663Y-28115434D02*
X29476663Y-27915434D01*
X29476663Y-27944006D02*
X29490948Y-27929720D01*
X29519520Y-27915434D01*
X29562377Y-27915434D01*
X29590948Y-27929720D01*
X29605234Y-27958291D01*
X29605234Y-28115434D01*
X29605234Y-27958291D02*
X29619520Y-27929720D01*
X29648091Y-27915434D01*
X29690948Y-27915434D01*
X29719520Y-27929720D01*
X29733806Y-27958291D01*
X29733806Y-28115434D01*
X29876663Y-28115434D02*
X29876663Y-27915434D01*
X29876663Y-27944006D02*
X29890948Y-27929720D01*
X29919520Y-27915434D01*
X29962377Y-27915434D01*
X29990948Y-27929720D01*
X30005234Y-27958291D01*
X30005234Y-28115434D01*
X30005234Y-27958291D02*
X30019520Y-27929720D01*
X30048091Y-27915434D01*
X30090948Y-27915434D01*
X30119520Y-27929720D01*
X30133806Y-27958291D01*
X30133806Y-28115434D01*
X30719520Y-27801149D02*
X30462377Y-28186863D01*
X31105234Y-27815434D02*
X31133806Y-27815434D01*
X31162377Y-27829720D01*
X31176663Y-27844006D01*
X31190948Y-27872577D01*
X31205234Y-27929720D01*
X31205234Y-28001149D01*
X31190948Y-28058291D01*
X31176663Y-28086863D01*
X31162377Y-28101149D01*
X31133806Y-28115434D01*
X31105234Y-28115434D01*
X31076663Y-28101149D01*
X31062377Y-28086863D01*
X31048091Y-28058291D01*
X31033806Y-28001149D01*
X31033806Y-27929720D01*
X31048091Y-27872577D01*
X31062377Y-27844006D01*
X31076663Y-27829720D01*
X31105234Y-27815434D01*
X31333806Y-28086863D02*
X31348091Y-28101149D01*
X31333806Y-28115434D01*
X31319520Y-28101149D01*
X31333806Y-28086863D01*
X31333806Y-28115434D01*
X31533806Y-27815434D02*
X31562377Y-27815434D01*
X31590948Y-27829720D01*
X31605234Y-27844006D01*
X31619520Y-27872577D01*
X31633806Y-27929720D01*
X31633806Y-28001149D01*
X31619520Y-28058291D01*
X31605234Y-28086863D01*
X31590948Y-28101149D01*
X31562377Y-28115434D01*
X31533806Y-28115434D01*
X31505234Y-28101149D01*
X31490948Y-28086863D01*
X31476663Y-28058291D01*
X31462377Y-28001149D01*
X31462377Y-27929720D01*
X31476663Y-27872577D01*
X31490948Y-27844006D01*
X31505234Y-27829720D01*
X31533806Y-27815434D01*
X31890948Y-27915434D02*
X31890948Y-28115434D01*
X31819520Y-27801149D02*
X31748091Y-28015434D01*
X31933806Y-28015434D01*
X32176663Y-27815434D02*
X32119520Y-27815434D01*
X32090948Y-27829720D01*
X32076663Y-27844006D01*
X32048091Y-27886863D01*
X32033806Y-27944006D01*
X32033806Y-28058291D01*
X32048091Y-28086863D01*
X32062377Y-28101149D01*
X32090948Y-28115434D01*
X32148091Y-28115434D01*
X32176663Y-28101149D01*
X32190948Y-28086863D01*
X32205234Y-28058291D01*
X32205234Y-27986863D01*
X32190948Y-27958291D01*
X32176663Y-27944006D01*
X32148091Y-27929720D01*
X32090948Y-27929720D01*
X32062377Y-27944006D01*
X32048091Y-27958291D01*
X32033806Y-27986863D01*
X32348091Y-28115434D02*
X32405234Y-28115434D01*
X32433806Y-28101149D01*
X32448091Y-28086863D01*
X32476663Y-28044006D01*
X32490948Y-27986863D01*
X32490948Y-27872577D01*
X32476663Y-27844006D01*
X32462377Y-27829720D01*
X32433806Y-27815434D01*
X32376663Y-27815434D01*
X32348091Y-27829720D01*
X32333806Y-27844006D01*
X32319520Y-27872577D01*
X32319520Y-27944006D01*
X32333806Y-27972577D01*
X32348091Y-27986863D01*
X32376663Y-28001149D01*
X32433806Y-28001149D01*
X32462377Y-27986863D01*
X32476663Y-27972577D01*
X32490948Y-27944006D01*
X32605234Y-27815434D02*
X32605234Y-27872577D01*
X32719520Y-27815434D02*
X32719520Y-27872577D01*
X33162377Y-28229720D02*
X33148091Y-28215434D01*
X33119520Y-28172577D01*
X33105234Y-28144006D01*
X33090948Y-28101149D01*
X33076663Y-28029720D01*
X33076663Y-27972577D01*
X33090948Y-27901149D01*
X33105234Y-27858291D01*
X33119520Y-27829720D01*
X33148091Y-27786863D01*
X33162377Y-27772577D01*
X33433806Y-28115434D02*
X33262377Y-28115434D01*
X33348091Y-28115434D02*
X33348091Y-27815434D01*
X33319520Y-27858291D01*
X33290948Y-27886863D01*
X33262377Y-27901149D01*
X33705234Y-27815434D02*
X33562377Y-27815434D01*
X33548091Y-27958291D01*
X33562377Y-27944006D01*
X33590948Y-27929720D01*
X33662377Y-27929720D01*
X33690948Y-27944006D01*
X33705234Y-27958291D01*
X33719520Y-27986863D01*
X33719520Y-28058291D01*
X33705234Y-28086863D01*
X33690948Y-28101149D01*
X33662377Y-28115434D01*
X33590948Y-28115434D01*
X33562377Y-28101149D01*
X33548091Y-28086863D01*
X34076663Y-28115434D02*
X34076663Y-27815434D01*
X34205234Y-28115434D02*
X34205234Y-27958291D01*
X34190948Y-27929720D01*
X34162377Y-27915434D01*
X34119520Y-27915434D01*
X34090948Y-27929720D01*
X34076663Y-27944006D01*
X34390948Y-28115434D02*
X34362377Y-28101149D01*
X34348091Y-28086863D01*
X34333806Y-28058291D01*
X34333806Y-27972577D01*
X34348091Y-27944006D01*
X34362377Y-27929720D01*
X34390948Y-27915434D01*
X34433806Y-27915434D01*
X34462377Y-27929720D01*
X34476663Y-27944006D01*
X34490948Y-27972577D01*
X34490948Y-28058291D01*
X34476663Y-28086863D01*
X34462377Y-28101149D01*
X34433806Y-28115434D01*
X34390948Y-28115434D01*
X34662377Y-28115434D02*
X34633806Y-28101149D01*
X34619520Y-28072577D01*
X34619520Y-27815434D01*
X34890948Y-28101149D02*
X34862377Y-28115434D01*
X34805234Y-28115434D01*
X34776663Y-28101149D01*
X34762377Y-28072577D01*
X34762377Y-27958291D01*
X34776663Y-27929720D01*
X34805234Y-27915434D01*
X34862377Y-27915434D01*
X34890948Y-27929720D01*
X34905234Y-27958291D01*
X34905234Y-27986863D01*
X34762377Y-28015434D01*
X35019520Y-28101149D02*
X35048091Y-28115434D01*
X35105234Y-28115434D01*
X35133806Y-28101149D01*
X35148091Y-28072577D01*
X35148091Y-28058291D01*
X35133806Y-28029720D01*
X35105234Y-28015434D01*
X35062377Y-28015434D01*
X35033806Y-28001149D01*
X35019520Y-27972577D01*
X35019520Y-27958291D01*
X35033806Y-27929720D01*
X35062377Y-27915434D01*
X35105234Y-27915434D01*
X35133806Y-27929720D01*
X35248091Y-28229720D02*
X35262377Y-28215434D01*
X35290948Y-28172577D01*
X35305234Y-28144006D01*
X35319520Y-28101149D01*
X35333806Y-28029720D01*
X35333806Y-27972577D01*
X35319520Y-27901149D01*
X35305234Y-27858291D01*
X35290948Y-27829720D01*
X35262377Y-27786863D01*
X35248091Y-27772577D01*
X27752020Y-28528220D02*
X27904520Y-28375720D01*
X27752020Y-28223220D01*
X27599520Y-28375720D01*
X27752020Y-28528220D01*
X28162377Y-28211434D02*
X28348091Y-28211434D01*
X28248091Y-28325720D01*
X28290948Y-28325720D01*
X28319520Y-28340006D01*
X28333806Y-28354291D01*
X28348091Y-28382863D01*
X28348091Y-28454291D01*
X28333806Y-28482863D01*
X28319520Y-28497149D01*
X28290948Y-28511434D01*
X28205234Y-28511434D01*
X28176663Y-28497149D01*
X28162377Y-28482863D01*
X28476663Y-28482863D02*
X28490948Y-28497149D01*
X28476663Y-28511434D01*
X28462377Y-28497149D01*
X28476663Y-28482863D01*
X28476663Y-28511434D01*
X28676663Y-28211434D02*
X28705234Y-28211434D01*
X28733806Y-28225720D01*
X28748091Y-28240006D01*
X28762377Y-28268577D01*
X28776663Y-28325720D01*
X28776663Y-28397149D01*
X28762377Y-28454291D01*
X28748091Y-28482863D01*
X28733806Y-28497149D01*
X28705234Y-28511434D01*
X28676663Y-28511434D01*
X28648091Y-28497149D01*
X28633806Y-28482863D01*
X28619520Y-28454291D01*
X28605234Y-28397149D01*
X28605234Y-28325720D01*
X28619520Y-28268577D01*
X28633806Y-28240006D01*
X28648091Y-28225720D01*
X28676663Y-28211434D01*
X29048091Y-28211434D02*
X28905234Y-28211434D01*
X28890948Y-28354291D01*
X28905234Y-28340006D01*
X28933806Y-28325720D01*
X29005234Y-28325720D01*
X29033806Y-28340006D01*
X29048091Y-28354291D01*
X29062377Y-28382863D01*
X29062377Y-28454291D01*
X29048091Y-28482863D01*
X29033806Y-28497149D01*
X29005234Y-28511434D01*
X28933806Y-28511434D01*
X28905234Y-28497149D01*
X28890948Y-28482863D01*
X29248091Y-28211434D02*
X29276663Y-28211434D01*
X29305234Y-28225720D01*
X29319520Y-28240006D01*
X29333806Y-28268577D01*
X29348091Y-28325720D01*
X29348091Y-28397149D01*
X29333806Y-28454291D01*
X29319520Y-28482863D01*
X29305234Y-28497149D01*
X29276663Y-28511434D01*
X29248091Y-28511434D01*
X29219520Y-28497149D01*
X29205234Y-28482863D01*
X29190948Y-28454291D01*
X29176663Y-28397149D01*
X29176663Y-28325720D01*
X29190948Y-28268577D01*
X29205234Y-28240006D01*
X29219520Y-28225720D01*
X29248091Y-28211434D01*
X29476663Y-28511434D02*
X29476663Y-28311434D01*
X29476663Y-28340006D02*
X29490948Y-28325720D01*
X29519520Y-28311434D01*
X29562377Y-28311434D01*
X29590948Y-28325720D01*
X29605234Y-28354291D01*
X29605234Y-28511434D01*
X29605234Y-28354291D02*
X29619520Y-28325720D01*
X29648091Y-28311434D01*
X29690948Y-28311434D01*
X29719520Y-28325720D01*
X29733806Y-28354291D01*
X29733806Y-28511434D01*
X29876663Y-28511434D02*
X29876663Y-28311434D01*
X29876663Y-28340006D02*
X29890948Y-28325720D01*
X29919520Y-28311434D01*
X29962377Y-28311434D01*
X29990948Y-28325720D01*
X30005234Y-28354291D01*
X30005234Y-28511434D01*
X30005234Y-28354291D02*
X30019520Y-28325720D01*
X30048091Y-28311434D01*
X30090948Y-28311434D01*
X30119520Y-28325720D01*
X30133806Y-28354291D01*
X30133806Y-28511434D01*
X30719520Y-28197149D02*
X30462377Y-28582863D01*
X31105234Y-28211434D02*
X31133806Y-28211434D01*
X31162377Y-28225720D01*
X31176663Y-28240006D01*
X31190948Y-28268577D01*
X31205234Y-28325720D01*
X31205234Y-28397149D01*
X31190948Y-28454291D01*
X31176663Y-28482863D01*
X31162377Y-28497149D01*
X31133806Y-28511434D01*
X31105234Y-28511434D01*
X31076663Y-28497149D01*
X31062377Y-28482863D01*
X31048091Y-28454291D01*
X31033806Y-28397149D01*
X31033806Y-28325720D01*
X31048091Y-28268577D01*
X31062377Y-28240006D01*
X31076663Y-28225720D01*
X31105234Y-28211434D01*
X31333806Y-28482863D02*
X31348091Y-28497149D01*
X31333806Y-28511434D01*
X31319520Y-28497149D01*
X31333806Y-28482863D01*
X31333806Y-28511434D01*
X31633806Y-28511434D02*
X31462377Y-28511434D01*
X31548091Y-28511434D02*
X31548091Y-28211434D01*
X31519520Y-28254291D01*
X31490948Y-28282863D01*
X31462377Y-28297149D01*
X31748091Y-28240006D02*
X31762377Y-28225720D01*
X31790948Y-28211434D01*
X31862377Y-28211434D01*
X31890948Y-28225720D01*
X31905234Y-28240006D01*
X31919520Y-28268577D01*
X31919520Y-28297149D01*
X31905234Y-28340006D01*
X31733806Y-28511434D01*
X31919520Y-28511434D01*
X32105234Y-28211434D02*
X32133806Y-28211434D01*
X32162377Y-28225720D01*
X32176663Y-28240006D01*
X32190948Y-28268577D01*
X32205234Y-28325720D01*
X32205234Y-28397149D01*
X32190948Y-28454291D01*
X32176663Y-28482863D01*
X32162377Y-28497149D01*
X32133806Y-28511434D01*
X32105234Y-28511434D01*
X32076663Y-28497149D01*
X32062377Y-28482863D01*
X32048091Y-28454291D01*
X32033806Y-28397149D01*
X32033806Y-28325720D01*
X32048091Y-28268577D01*
X32062377Y-28240006D01*
X32076663Y-28225720D01*
X32105234Y-28211434D01*
X32490948Y-28511434D02*
X32319520Y-28511434D01*
X32405234Y-28511434D02*
X32405234Y-28211434D01*
X32376663Y-28254291D01*
X32348091Y-28282863D01*
X32319520Y-28297149D01*
X32605234Y-28211434D02*
X32605234Y-28268577D01*
X32719520Y-28211434D02*
X32719520Y-28268577D01*
X33162377Y-28625720D02*
X33148091Y-28611434D01*
X33119520Y-28568577D01*
X33105234Y-28540006D01*
X33090948Y-28497149D01*
X33076663Y-28425720D01*
X33076663Y-28368577D01*
X33090948Y-28297149D01*
X33105234Y-28254291D01*
X33119520Y-28225720D01*
X33148091Y-28182863D01*
X33162377Y-28168577D01*
X33262377Y-28240006D02*
X33276663Y-28225720D01*
X33305234Y-28211434D01*
X33376663Y-28211434D01*
X33405234Y-28225720D01*
X33419520Y-28240006D01*
X33433806Y-28268577D01*
X33433806Y-28297149D01*
X33419520Y-28340006D01*
X33248091Y-28511434D01*
X33433806Y-28511434D01*
X33790948Y-28511434D02*
X33790948Y-28211434D01*
X33919520Y-28511434D02*
X33919520Y-28354291D01*
X33905234Y-28325720D01*
X33876663Y-28311434D01*
X33833806Y-28311434D01*
X33805234Y-28325720D01*
X33790948Y-28340006D01*
X34105234Y-28511434D02*
X34076663Y-28497149D01*
X34062377Y-28482863D01*
X34048091Y-28454291D01*
X34048091Y-28368577D01*
X34062377Y-28340006D01*
X34076663Y-28325720D01*
X34105234Y-28311434D01*
X34148091Y-28311434D01*
X34176663Y-28325720D01*
X34190948Y-28340006D01*
X34205234Y-28368577D01*
X34205234Y-28454291D01*
X34190948Y-28482863D01*
X34176663Y-28497149D01*
X34148091Y-28511434D01*
X34105234Y-28511434D01*
X34376663Y-28511434D02*
X34348091Y-28497149D01*
X34333806Y-28468577D01*
X34333806Y-28211434D01*
X34605234Y-28497149D02*
X34576663Y-28511434D01*
X34519520Y-28511434D01*
X34490948Y-28497149D01*
X34476663Y-28468577D01*
X34476663Y-28354291D01*
X34490948Y-28325720D01*
X34519520Y-28311434D01*
X34576663Y-28311434D01*
X34605234Y-28325720D01*
X34619520Y-28354291D01*
X34619520Y-28382863D01*
X34476663Y-28411434D01*
X34733806Y-28497149D02*
X34762377Y-28511434D01*
X34819520Y-28511434D01*
X34848091Y-28497149D01*
X34862377Y-28468577D01*
X34862377Y-28454291D01*
X34848091Y-28425720D01*
X34819520Y-28411434D01*
X34776663Y-28411434D01*
X34748091Y-28397149D01*
X34733806Y-28368577D01*
X34733806Y-28354291D01*
X34748091Y-28325720D01*
X34776663Y-28311434D01*
X34819520Y-28311434D01*
X34848091Y-28325720D01*
X34962377Y-28625720D02*
X34976663Y-28611434D01*
X35005234Y-28568577D01*
X35019520Y-28540006D01*
X35033806Y-28497149D01*
X35048091Y-28425720D01*
X35048091Y-28368577D01*
X35033806Y-28297149D01*
X35019520Y-28254291D01*
X35005234Y-28225720D01*
X34976663Y-28182863D01*
X34962377Y-28168577D01*
M02*
