%TF.GenerationSoftware,KiCad,Pcbnew,5.1.12-84ad8e8a86~92~ubuntu18.04.1*%
%TF.CreationDate,2022-02-09T16:29:34-05:00*%
%TF.ProjectId,kicad,6b696361-642e-46b6-9963-61645f706362,rev?*%
%TF.SameCoordinates,Original*%
%TF.FileFunction,Legend,Top*%
%TF.FilePolarity,Positive*%
%FSLAX46Y46*%
G04 Gerber Fmt 4.6, Leading zero omitted, Abs format (unit mm)*
G04 Created by KiCad (PCBNEW 5.1.12-84ad8e8a86~92~ubuntu18.04.1) date 2022-02-09 16:29:34*
%MOMM*%
%LPD*%
G01*
G04 APERTURE LIST*
%ADD10C,0.150000*%
%ADD11C,0.250000*%
%ADD12C,0.350000*%
%ADD13C,0.120000*%
%ADD14C,0.127000*%
%ADD15C,0.200000*%
%ADD16C,1.600000*%
%ADD17R,1.600000X1.600000*%
%ADD18O,1.600000X1.600000*%
%ADD19O,1.700000X1.700000*%
%ADD20R,1.700000X1.700000*%
%ADD21C,4.066000*%
%ADD22C,1.785000*%
%ADD23R,1.785000X1.785000*%
%ADD24C,2.000000*%
%ADD25R,2.000000X2.000000*%
G04 APERTURE END LIST*
D10*
X298328395Y-241321580D02*
X298328395Y-240321580D01*
X298899823Y-241321580D01*
X298899823Y-240321580D01*
X299376014Y-241321580D02*
X299376014Y-240654914D01*
X299376014Y-240321580D02*
X299328395Y-240369200D01*
X299376014Y-240416819D01*
X299423633Y-240369200D01*
X299376014Y-240321580D01*
X299376014Y-240416819D01*
X300280776Y-241273961D02*
X300185538Y-241321580D01*
X299995061Y-241321580D01*
X299899823Y-241273961D01*
X299852204Y-241226342D01*
X299804585Y-241131104D01*
X299804585Y-240845390D01*
X299852204Y-240750152D01*
X299899823Y-240702533D01*
X299995061Y-240654914D01*
X300185538Y-240654914D01*
X300280776Y-240702533D01*
X300709347Y-241321580D02*
X300709347Y-240321580D01*
X300804585Y-240940628D02*
X301090300Y-241321580D01*
X301090300Y-240654914D02*
X300709347Y-241035866D01*
X302614109Y-240797771D02*
X302756966Y-240845390D01*
X302804585Y-240893009D01*
X302852204Y-240988247D01*
X302852204Y-241131104D01*
X302804585Y-241226342D01*
X302756966Y-241273961D01*
X302661728Y-241321580D01*
X302280776Y-241321580D01*
X302280776Y-240321580D01*
X302614109Y-240321580D01*
X302709347Y-240369200D01*
X302756966Y-240416819D01*
X302804585Y-240512057D01*
X302804585Y-240607295D01*
X302756966Y-240702533D01*
X302709347Y-240750152D01*
X302614109Y-240797771D01*
X302280776Y-240797771D01*
X303280776Y-241321580D02*
X303280776Y-240654914D01*
X303280776Y-240321580D02*
X303233157Y-240369200D01*
X303280776Y-240416819D01*
X303328395Y-240369200D01*
X303280776Y-240321580D01*
X303280776Y-240416819D01*
X303899823Y-241321580D02*
X303804585Y-241273961D01*
X303756966Y-241178723D01*
X303756966Y-240321580D01*
X304709347Y-241321580D02*
X304709347Y-240321580D01*
X304709347Y-241273961D02*
X304614109Y-241321580D01*
X304423633Y-241321580D01*
X304328395Y-241273961D01*
X304280776Y-241226342D01*
X304233157Y-241131104D01*
X304233157Y-240845390D01*
X304280776Y-240750152D01*
X304328395Y-240702533D01*
X304423633Y-240654914D01*
X304614109Y-240654914D01*
X304709347Y-240702533D01*
X298661728Y-242447771D02*
X298328395Y-242447771D01*
X298328395Y-242971580D02*
X298328395Y-241971580D01*
X298804585Y-241971580D01*
X299566490Y-242923961D02*
X299471252Y-242971580D01*
X299280776Y-242971580D01*
X299185538Y-242923961D01*
X299137919Y-242828723D01*
X299137919Y-242447771D01*
X299185538Y-242352533D01*
X299280776Y-242304914D01*
X299471252Y-242304914D01*
X299566490Y-242352533D01*
X299614109Y-242447771D01*
X299614109Y-242543009D01*
X299137919Y-242638247D01*
X300042680Y-242971580D02*
X300042680Y-241971580D01*
X300042680Y-242352533D02*
X300137919Y-242304914D01*
X300328395Y-242304914D01*
X300423633Y-242352533D01*
X300471252Y-242400152D01*
X300518871Y-242495390D01*
X300518871Y-242781104D01*
X300471252Y-242876342D01*
X300423633Y-242923961D01*
X300328395Y-242971580D01*
X300137919Y-242971580D01*
X300042680Y-242923961D01*
X300947442Y-242971580D02*
X300947442Y-242304914D01*
X300947442Y-242495390D02*
X300995061Y-242400152D01*
X301042680Y-242352533D01*
X301137919Y-242304914D01*
X301233157Y-242304914D01*
X301995061Y-242304914D02*
X301995061Y-242971580D01*
X301566490Y-242304914D02*
X301566490Y-242828723D01*
X301614109Y-242923961D01*
X301709347Y-242971580D01*
X301852204Y-242971580D01*
X301947442Y-242923961D01*
X301995061Y-242876342D01*
X302899823Y-242971580D02*
X302899823Y-242447771D01*
X302852204Y-242352533D01*
X302756966Y-242304914D01*
X302566490Y-242304914D01*
X302471252Y-242352533D01*
X302899823Y-242923961D02*
X302804585Y-242971580D01*
X302566490Y-242971580D01*
X302471252Y-242923961D01*
X302423633Y-242828723D01*
X302423633Y-242733485D01*
X302471252Y-242638247D01*
X302566490Y-242590628D01*
X302804585Y-242590628D01*
X302899823Y-242543009D01*
X303376014Y-242971580D02*
X303376014Y-242304914D01*
X303376014Y-242495390D02*
X303423633Y-242400152D01*
X303471252Y-242352533D01*
X303566490Y-242304914D01*
X303661728Y-242304914D01*
X303899823Y-242304914D02*
X304137919Y-242971580D01*
X304376014Y-242304914D02*
X304137919Y-242971580D01*
X304042680Y-243209676D01*
X303995061Y-243257295D01*
X303899823Y-243304914D01*
X305471252Y-242066819D02*
X305518871Y-242019200D01*
X305614109Y-241971580D01*
X305852204Y-241971580D01*
X305947442Y-242019200D01*
X305995061Y-242066819D01*
X306042680Y-242162057D01*
X306042680Y-242257295D01*
X305995061Y-242400152D01*
X305423633Y-242971580D01*
X306042680Y-242971580D01*
X306661728Y-241971580D02*
X306756966Y-241971580D01*
X306852204Y-242019200D01*
X306899823Y-242066819D01*
X306947442Y-242162057D01*
X306995061Y-242352533D01*
X306995061Y-242590628D01*
X306947442Y-242781104D01*
X306899823Y-242876342D01*
X306852204Y-242923961D01*
X306756966Y-242971580D01*
X306661728Y-242971580D01*
X306566490Y-242923961D01*
X306518871Y-242876342D01*
X306471252Y-242781104D01*
X306423633Y-242590628D01*
X306423633Y-242352533D01*
X306471252Y-242162057D01*
X306518871Y-242066819D01*
X306566490Y-242019200D01*
X306661728Y-241971580D01*
X307376014Y-242066819D02*
X307423633Y-242019200D01*
X307518871Y-241971580D01*
X307756966Y-241971580D01*
X307852204Y-242019200D01*
X307899823Y-242066819D01*
X307947442Y-242162057D01*
X307947442Y-242257295D01*
X307899823Y-242400152D01*
X307328395Y-242971580D01*
X307947442Y-242971580D01*
X308328395Y-242066819D02*
X308376014Y-242019200D01*
X308471252Y-241971580D01*
X308709347Y-241971580D01*
X308804585Y-242019200D01*
X308852204Y-242066819D01*
X308899823Y-242162057D01*
X308899823Y-242257295D01*
X308852204Y-242400152D01*
X308280776Y-242971580D01*
X308899823Y-242971580D01*
X298756966Y-243954914D02*
X298756966Y-244764438D01*
X298709347Y-244859676D01*
X298661728Y-244907295D01*
X298566490Y-244954914D01*
X298423633Y-244954914D01*
X298328395Y-244907295D01*
X298756966Y-244573961D02*
X298661728Y-244621580D01*
X298471252Y-244621580D01*
X298376014Y-244573961D01*
X298328395Y-244526342D01*
X298280776Y-244431104D01*
X298280776Y-244145390D01*
X298328395Y-244050152D01*
X298376014Y-244002533D01*
X298471252Y-243954914D01*
X298661728Y-243954914D01*
X298756966Y-244002533D01*
X299233157Y-244621580D02*
X299233157Y-243954914D01*
X299233157Y-243621580D02*
X299185538Y-243669200D01*
X299233157Y-243716819D01*
X299280776Y-243669200D01*
X299233157Y-243621580D01*
X299233157Y-243716819D01*
X299566490Y-243954914D02*
X299947442Y-243954914D01*
X299709347Y-243621580D02*
X299709347Y-244478723D01*
X299756966Y-244573961D01*
X299852204Y-244621580D01*
X299947442Y-244621580D01*
X300280776Y-244621580D02*
X300280776Y-243621580D01*
X300709347Y-244621580D02*
X300709347Y-244097771D01*
X300661728Y-244002533D01*
X300566490Y-243954914D01*
X300423633Y-243954914D01*
X300328395Y-244002533D01*
X300280776Y-244050152D01*
X301614109Y-243954914D02*
X301614109Y-244621580D01*
X301185538Y-243954914D02*
X301185538Y-244478723D01*
X301233157Y-244573961D01*
X301328395Y-244621580D01*
X301471252Y-244621580D01*
X301566490Y-244573961D01*
X301614109Y-244526342D01*
X302090300Y-244621580D02*
X302090300Y-243621580D01*
X302090300Y-244002533D02*
X302185538Y-243954914D01*
X302376014Y-243954914D01*
X302471252Y-244002533D01*
X302518871Y-244050152D01*
X302566490Y-244145390D01*
X302566490Y-244431104D01*
X302518871Y-244526342D01*
X302471252Y-244573961D01*
X302376014Y-244621580D01*
X302185538Y-244621580D01*
X302090300Y-244573961D01*
X302995061Y-244526342D02*
X303042680Y-244573961D01*
X302995061Y-244621580D01*
X302947442Y-244573961D01*
X302995061Y-244526342D01*
X302995061Y-244621580D01*
X303899823Y-244573961D02*
X303804585Y-244621580D01*
X303614109Y-244621580D01*
X303518871Y-244573961D01*
X303471252Y-244526342D01*
X303423633Y-244431104D01*
X303423633Y-244145390D01*
X303471252Y-244050152D01*
X303518871Y-244002533D01*
X303614109Y-243954914D01*
X303804585Y-243954914D01*
X303899823Y-244002533D01*
X304471252Y-244621580D02*
X304376014Y-244573961D01*
X304328395Y-244526342D01*
X304280776Y-244431104D01*
X304280776Y-244145390D01*
X304328395Y-244050152D01*
X304376014Y-244002533D01*
X304471252Y-243954914D01*
X304614109Y-243954914D01*
X304709347Y-244002533D01*
X304756966Y-244050152D01*
X304804585Y-244145390D01*
X304804585Y-244431104D01*
X304756966Y-244526342D01*
X304709347Y-244573961D01*
X304614109Y-244621580D01*
X304471252Y-244621580D01*
X305233157Y-244621580D02*
X305233157Y-243954914D01*
X305233157Y-244050152D02*
X305280776Y-244002533D01*
X305376014Y-243954914D01*
X305518871Y-243954914D01*
X305614109Y-244002533D01*
X305661728Y-244097771D01*
X305661728Y-244621580D01*
X305661728Y-244097771D02*
X305709347Y-244002533D01*
X305804585Y-243954914D01*
X305947442Y-243954914D01*
X306042680Y-244002533D01*
X306090300Y-244097771D01*
X306090300Y-244621580D01*
X307280776Y-243573961D02*
X306423633Y-244859676D01*
X307614109Y-243954914D02*
X307614109Y-244621580D01*
X307614109Y-244050152D02*
X307661728Y-244002533D01*
X307756966Y-243954914D01*
X307899823Y-243954914D01*
X307995061Y-244002533D01*
X308042680Y-244097771D01*
X308042680Y-244621580D01*
X308518871Y-244621580D02*
X308518871Y-243954914D01*
X308518871Y-243621580D02*
X308471252Y-243669200D01*
X308518871Y-243716819D01*
X308566490Y-243669200D01*
X308518871Y-243621580D01*
X308518871Y-243716819D01*
X309423633Y-244573961D02*
X309328395Y-244621580D01*
X309137919Y-244621580D01*
X309042680Y-244573961D01*
X308995061Y-244526342D01*
X308947442Y-244431104D01*
X308947442Y-244145390D01*
X308995061Y-244050152D01*
X309042680Y-244002533D01*
X309137919Y-243954914D01*
X309328395Y-243954914D01*
X309423633Y-244002533D01*
X309852204Y-244621580D02*
X309852204Y-243621580D01*
X309947442Y-244240628D02*
X310233157Y-244621580D01*
X310233157Y-243954914D02*
X309852204Y-244335866D01*
X310661728Y-244621580D02*
X310661728Y-243621580D01*
X310661728Y-244002533D02*
X310756966Y-243954914D01*
X310947442Y-243954914D01*
X311042680Y-244002533D01*
X311090300Y-244050152D01*
X311137919Y-244145390D01*
X311137919Y-244431104D01*
X311090300Y-244526342D01*
X311042680Y-244573961D01*
X310947442Y-244621580D01*
X310756966Y-244621580D01*
X310661728Y-244573961D01*
X311566490Y-244621580D02*
X311566490Y-243954914D01*
X311566490Y-243621580D02*
X311518871Y-243669200D01*
X311566490Y-243716819D01*
X311614109Y-243669200D01*
X311566490Y-243621580D01*
X311566490Y-243716819D01*
X312185538Y-244621580D02*
X312090300Y-244573961D01*
X312042680Y-244478723D01*
X312042680Y-243621580D01*
X312995061Y-244621580D02*
X312995061Y-243621580D01*
X312995061Y-244573961D02*
X312899823Y-244621580D01*
X312709347Y-244621580D01*
X312614109Y-244573961D01*
X312566490Y-244526342D01*
X312518871Y-244431104D01*
X312518871Y-244145390D01*
X312566490Y-244050152D01*
X312614109Y-244002533D01*
X312709347Y-243954914D01*
X312899823Y-243954914D01*
X312995061Y-244002533D01*
X314185538Y-243573961D02*
X313328395Y-244859676D01*
X314423633Y-243954914D02*
X314661728Y-244621580D01*
X314899823Y-243954914D01*
X315661728Y-244573961D02*
X315566490Y-244621580D01*
X315376014Y-244621580D01*
X315280776Y-244573961D01*
X315233157Y-244478723D01*
X315233157Y-244097771D01*
X315280776Y-244002533D01*
X315376014Y-243954914D01*
X315566490Y-243954914D01*
X315661728Y-244002533D01*
X315709347Y-244097771D01*
X315709347Y-244193009D01*
X315233157Y-244288247D01*
X316566490Y-244573961D02*
X316471252Y-244621580D01*
X316280776Y-244621580D01*
X316185538Y-244573961D01*
X316137919Y-244526342D01*
X316090300Y-244431104D01*
X316090300Y-244145390D01*
X316137919Y-244050152D01*
X316185538Y-244002533D01*
X316280776Y-243954914D01*
X316471252Y-243954914D01*
X316566490Y-244002533D01*
X316852204Y-243954914D02*
X317233157Y-243954914D01*
X316995061Y-243621580D02*
X316995061Y-244478723D01*
X317042680Y-244573961D01*
X317137919Y-244621580D01*
X317233157Y-244621580D01*
X317566490Y-244621580D02*
X317566490Y-243954914D01*
X317566490Y-244145390D02*
X317614109Y-244050152D01*
X317661728Y-244002533D01*
X317756966Y-243954914D01*
X317852204Y-243954914D01*
X318328395Y-244621580D02*
X318233157Y-244573961D01*
X318185538Y-244526342D01*
X318137919Y-244431104D01*
X318137919Y-244145390D01*
X318185538Y-244050152D01*
X318233157Y-244002533D01*
X318328395Y-243954914D01*
X318471252Y-243954914D01*
X318566490Y-244002533D01*
X318614109Y-244050152D01*
X318661728Y-244145390D01*
X318661728Y-244431104D01*
X318614109Y-244526342D01*
X318566490Y-244573961D01*
X318471252Y-244621580D01*
X318328395Y-244621580D01*
X319090300Y-243954914D02*
X319090300Y-244621580D01*
X319090300Y-244050152D02*
X319137919Y-244002533D01*
X319233157Y-243954914D01*
X319376014Y-243954914D01*
X319471252Y-244002533D01*
X319518871Y-244097771D01*
X319518871Y-244621580D01*
X319756966Y-244716819D02*
X320518871Y-244716819D01*
X320661728Y-243954914D02*
X320899823Y-244621580D01*
X321137919Y-243954914D01*
X321947442Y-243954914D02*
X321947442Y-244764438D01*
X321899823Y-244859676D01*
X321852204Y-244907295D01*
X321756966Y-244954914D01*
X321614109Y-244954914D01*
X321518871Y-244907295D01*
X321947442Y-244573961D02*
X321852204Y-244621580D01*
X321661728Y-244621580D01*
X321566490Y-244573961D01*
X321518871Y-244526342D01*
X321471252Y-244431104D01*
X321471252Y-244145390D01*
X321518871Y-244050152D01*
X321566490Y-244002533D01*
X321661728Y-243954914D01*
X321852204Y-243954914D01*
X321947442Y-244002533D01*
X322852204Y-244621580D02*
X322852204Y-244097771D01*
X322804585Y-244002533D01*
X322709347Y-243954914D01*
X322518871Y-243954914D01*
X322423633Y-244002533D01*
X322852204Y-244573961D02*
X322756966Y-244621580D01*
X322518871Y-244621580D01*
X322423633Y-244573961D01*
X322376014Y-244478723D01*
X322376014Y-244383485D01*
X322423633Y-244288247D01*
X322518871Y-244240628D01*
X322756966Y-244240628D01*
X322852204Y-244193009D01*
X323090300Y-244716819D02*
X323852204Y-244716819D01*
X324090300Y-243954914D02*
X324090300Y-244954914D01*
X324090300Y-244002533D02*
X324185538Y-243954914D01*
X324376014Y-243954914D01*
X324471252Y-244002533D01*
X324518871Y-244050152D01*
X324566490Y-244145390D01*
X324566490Y-244431104D01*
X324518871Y-244526342D01*
X324471252Y-244573961D01*
X324376014Y-244621580D01*
X324185538Y-244621580D01*
X324090300Y-244573961D01*
X325137919Y-244621580D02*
X325042680Y-244573961D01*
X324995061Y-244478723D01*
X324995061Y-243621580D01*
X325947442Y-243954914D02*
X325947442Y-244621580D01*
X325518871Y-243954914D02*
X325518871Y-244478723D01*
X325566490Y-244573961D01*
X325661728Y-244621580D01*
X325804585Y-244621580D01*
X325899823Y-244573961D01*
X325947442Y-244526342D01*
X326376014Y-244573961D02*
X326471252Y-244621580D01*
X326661728Y-244621580D01*
X326756966Y-244573961D01*
X326804585Y-244478723D01*
X326804585Y-244431104D01*
X326756966Y-244335866D01*
X326661728Y-244288247D01*
X326518871Y-244288247D01*
X326423633Y-244240628D01*
X326376014Y-244145390D01*
X326376014Y-244097771D01*
X326423633Y-244002533D01*
X326518871Y-243954914D01*
X326661728Y-243954914D01*
X326756966Y-244002533D01*
X326995061Y-244716819D02*
X327756966Y-244716819D01*
X327899823Y-243954914D02*
X328137919Y-244621580D01*
X328376014Y-243954914D01*
X328709347Y-243716819D02*
X328756966Y-243669200D01*
X328852204Y-243621580D01*
X329090300Y-243621580D01*
X329185538Y-243669200D01*
X329233157Y-243716819D01*
X329280776Y-243812057D01*
X329280776Y-243907295D01*
X329233157Y-244050152D01*
X328661728Y-244621580D01*
X329280776Y-244621580D01*
D11*
X342379657Y-237569428D02*
X342855847Y-238902761D01*
X343332038Y-237569428D01*
X343998704Y-237093238D02*
X344093942Y-236998000D01*
X344284419Y-236902761D01*
X344760609Y-236902761D01*
X344951085Y-236998000D01*
X345046323Y-237093238D01*
X345141561Y-237283714D01*
X345141561Y-237474190D01*
X345046323Y-237759904D01*
X343903466Y-238902761D01*
X345141561Y-238902761D01*
X345998704Y-238712285D02*
X346093942Y-238807523D01*
X345998704Y-238902761D01*
X345903466Y-238807523D01*
X345998704Y-238712285D01*
X345998704Y-238902761D01*
X347332038Y-236902761D02*
X347522514Y-236902761D01*
X347712990Y-236998000D01*
X347808228Y-237093238D01*
X347903466Y-237283714D01*
X347998704Y-237664666D01*
X347998704Y-238140857D01*
X347903466Y-238521809D01*
X347808228Y-238712285D01*
X347712990Y-238807523D01*
X347522514Y-238902761D01*
X347332038Y-238902761D01*
X347141561Y-238807523D01*
X347046323Y-238712285D01*
X346951085Y-238521809D01*
X346855847Y-238140857D01*
X346855847Y-237664666D01*
X346951085Y-237283714D01*
X347046323Y-237093238D01*
X347141561Y-236998000D01*
X347332038Y-236902761D01*
D12*
X282004342Y-230332304D02*
X283671009Y-235332304D01*
X285337676Y-230332304D01*
X288909104Y-235094209D02*
X288432914Y-235332304D01*
X287480533Y-235332304D01*
X287004342Y-235094209D01*
X286766247Y-234618019D01*
X286766247Y-232713257D01*
X287004342Y-232237066D01*
X287480533Y-231998971D01*
X288432914Y-231998971D01*
X288909104Y-232237066D01*
X289147200Y-232713257D01*
X289147200Y-233189447D01*
X286766247Y-233665638D01*
X293432914Y-235094209D02*
X292956723Y-235332304D01*
X292004342Y-235332304D01*
X291528152Y-235094209D01*
X291290057Y-234856114D01*
X291051961Y-234379923D01*
X291051961Y-232951352D01*
X291290057Y-232475161D01*
X291528152Y-232237066D01*
X292004342Y-231998971D01*
X292956723Y-231998971D01*
X293432914Y-232237066D01*
X294861485Y-231998971D02*
X296766247Y-231998971D01*
X295575771Y-230332304D02*
X295575771Y-234618019D01*
X295813866Y-235094209D01*
X296290057Y-235332304D01*
X296766247Y-235332304D01*
X298432914Y-235332304D02*
X298432914Y-231998971D01*
X298432914Y-232951352D02*
X298671009Y-232475161D01*
X298909104Y-232237066D01*
X299385295Y-231998971D01*
X299861485Y-231998971D01*
X302242438Y-235332304D02*
X301766247Y-235094209D01*
X301528152Y-234856114D01*
X301290057Y-234379923D01*
X301290057Y-232951352D01*
X301528152Y-232475161D01*
X301766247Y-232237066D01*
X302242438Y-231998971D01*
X302956723Y-231998971D01*
X303432914Y-232237066D01*
X303671009Y-232475161D01*
X303909104Y-232951352D01*
X303909104Y-234379923D01*
X303671009Y-234856114D01*
X303432914Y-235094209D01*
X302956723Y-235332304D01*
X302242438Y-235332304D01*
X306051961Y-231998971D02*
X306051961Y-235332304D01*
X306051961Y-232475161D02*
X306290057Y-232237066D01*
X306766247Y-231998971D01*
X307480533Y-231998971D01*
X307956723Y-232237066D01*
X308194819Y-232713257D01*
X308194819Y-235332304D01*
X313671009Y-230332304D02*
X315337676Y-235332304D01*
X317004342Y-230332304D01*
X321290057Y-230570400D02*
X320813866Y-230332304D01*
X320099580Y-230332304D01*
X319385295Y-230570400D01*
X318909104Y-231046590D01*
X318671009Y-231522780D01*
X318432914Y-232475161D01*
X318432914Y-233189447D01*
X318671009Y-234141828D01*
X318909104Y-234618019D01*
X319385295Y-235094209D01*
X320099580Y-235332304D01*
X320575771Y-235332304D01*
X321290057Y-235094209D01*
X321528152Y-234856114D01*
X321528152Y-233189447D01*
X320575771Y-233189447D01*
X323432914Y-233903733D02*
X325813866Y-233903733D01*
X322956723Y-235332304D02*
X324623390Y-230332304D01*
X326290057Y-235332304D01*
X331766247Y-235332304D02*
X331766247Y-230332304D01*
X333671009Y-230332304D01*
X334147200Y-230570400D01*
X334385295Y-230808495D01*
X334623390Y-231284685D01*
X334623390Y-231998971D01*
X334385295Y-232475161D01*
X334147200Y-232713257D01*
X333671009Y-232951352D01*
X331766247Y-232951352D01*
X337480533Y-235332304D02*
X337004342Y-235094209D01*
X336766247Y-234618019D01*
X336766247Y-230332304D01*
X341528152Y-231998971D02*
X341528152Y-235332304D01*
X339385295Y-231998971D02*
X339385295Y-234618019D01*
X339623390Y-235094209D01*
X340099580Y-235332304D01*
X340813866Y-235332304D01*
X341290057Y-235094209D01*
X341528152Y-234856114D01*
X343671009Y-235094209D02*
X344147199Y-235332304D01*
X345099580Y-235332304D01*
X345575771Y-235094209D01*
X345813866Y-234618019D01*
X345813866Y-234379923D01*
X345575771Y-233903733D01*
X345099580Y-233665638D01*
X344385295Y-233665638D01*
X343909104Y-233427542D01*
X343671009Y-232951352D01*
X343671009Y-232713257D01*
X343909104Y-232237066D01*
X344385295Y-231998971D01*
X345099580Y-231998971D01*
X345575771Y-232237066D01*
D10*
X422324304Y-207868780D02*
X422324304Y-206868780D01*
X422562400Y-206868780D01*
X422705257Y-206916400D01*
X422800495Y-207011638D01*
X422848114Y-207106876D01*
X422895733Y-207297352D01*
X422895733Y-207440209D01*
X422848114Y-207630685D01*
X422800495Y-207725923D01*
X422705257Y-207821161D01*
X422562400Y-207868780D01*
X422324304Y-207868780D01*
X423514780Y-206868780D02*
X423610019Y-206868780D01*
X423705257Y-206916400D01*
X423752876Y-206964019D01*
X423800495Y-207059257D01*
X423848114Y-207249733D01*
X423848114Y-207487828D01*
X423800495Y-207678304D01*
X423752876Y-207773542D01*
X423705257Y-207821161D01*
X423610019Y-207868780D01*
X423514780Y-207868780D01*
X423419542Y-207821161D01*
X423371923Y-207773542D01*
X423324304Y-207678304D01*
X423276685Y-207487828D01*
X423276685Y-207249733D01*
X423324304Y-207059257D01*
X423371923Y-206964019D01*
X423419542Y-206916400D01*
X423514780Y-206868780D01*
X417693790Y-204261980D02*
X417693790Y-203261980D01*
X417931885Y-203261980D01*
X418074742Y-203309600D01*
X418169980Y-203404838D01*
X418217600Y-203500076D01*
X418265219Y-203690552D01*
X418265219Y-203833409D01*
X418217600Y-204023885D01*
X418169980Y-204119123D01*
X418074742Y-204214361D01*
X417931885Y-204261980D01*
X417693790Y-204261980D01*
X419122361Y-204261980D02*
X419122361Y-203738171D01*
X419074742Y-203642933D01*
X418979504Y-203595314D01*
X418789028Y-203595314D01*
X418693790Y-203642933D01*
X419122361Y-204214361D02*
X419027123Y-204261980D01*
X418789028Y-204261980D01*
X418693790Y-204214361D01*
X418646171Y-204119123D01*
X418646171Y-204023885D01*
X418693790Y-203928647D01*
X418789028Y-203881028D01*
X419027123Y-203881028D01*
X419122361Y-203833409D01*
X419455695Y-203595314D02*
X419836647Y-203595314D01*
X419598552Y-203261980D02*
X419598552Y-204119123D01*
X419646171Y-204214361D01*
X419741409Y-204261980D01*
X419836647Y-204261980D01*
X420598552Y-204261980D02*
X420598552Y-203738171D01*
X420550933Y-203642933D01*
X420455695Y-203595314D01*
X420265219Y-203595314D01*
X420169980Y-203642933D01*
X420598552Y-204214361D02*
X420503314Y-204261980D01*
X420265219Y-204261980D01*
X420169980Y-204214361D01*
X420122361Y-204119123D01*
X420122361Y-204023885D01*
X420169980Y-203928647D01*
X420265219Y-203881028D01*
X420503314Y-203881028D01*
X420598552Y-203833409D01*
X421836647Y-204261980D02*
X421836647Y-203261980D01*
X422312838Y-203595314D02*
X422312838Y-204261980D01*
X422312838Y-203690552D02*
X422360457Y-203642933D01*
X422455695Y-203595314D01*
X422598552Y-203595314D01*
X422693790Y-203642933D01*
X422741409Y-203738171D01*
X422741409Y-204261980D01*
X422919542Y-226264742D02*
X422871923Y-226312361D01*
X422729066Y-226359980D01*
X422633828Y-226359980D01*
X422490971Y-226312361D01*
X422395733Y-226217123D01*
X422348114Y-226121885D01*
X422300495Y-225931409D01*
X422300495Y-225788552D01*
X422348114Y-225598076D01*
X422395733Y-225502838D01*
X422490971Y-225407600D01*
X422633828Y-225359980D01*
X422729066Y-225359980D01*
X422871923Y-225407600D01*
X422919542Y-225455219D01*
X423348114Y-225836171D02*
X423681447Y-225836171D01*
X423824304Y-226359980D02*
X423348114Y-226359980D01*
X423348114Y-225359980D01*
X423824304Y-225359980D01*
X422283047Y-222718380D02*
X422521142Y-223718380D01*
X422711619Y-223004095D01*
X422902095Y-223718380D01*
X423140190Y-222718380D01*
X423521142Y-223194571D02*
X423854476Y-223194571D01*
X423997333Y-223718380D02*
X423521142Y-223718380D01*
X423521142Y-222718380D01*
X423997333Y-222718380D01*
X417377904Y-228595180D02*
X417377904Y-227595180D01*
X417711238Y-228309466D01*
X418044571Y-227595180D01*
X418044571Y-228595180D01*
X418663619Y-228595180D02*
X418568380Y-228547561D01*
X418520761Y-228499942D01*
X418473142Y-228404704D01*
X418473142Y-228118990D01*
X418520761Y-228023752D01*
X418568380Y-227976133D01*
X418663619Y-227928514D01*
X418806476Y-227928514D01*
X418901714Y-227976133D01*
X418949333Y-228023752D01*
X418996952Y-228118990D01*
X418996952Y-228404704D01*
X418949333Y-228499942D01*
X418901714Y-228547561D01*
X418806476Y-228595180D01*
X418663619Y-228595180D01*
X419854095Y-228595180D02*
X419854095Y-227595180D01*
X419854095Y-228547561D02*
X419758857Y-228595180D01*
X419568380Y-228595180D01*
X419473142Y-228547561D01*
X419425523Y-228499942D01*
X419377904Y-228404704D01*
X419377904Y-228118990D01*
X419425523Y-228023752D01*
X419473142Y-227976133D01*
X419568380Y-227928514D01*
X419758857Y-227928514D01*
X419854095Y-227976133D01*
X420711238Y-228547561D02*
X420616000Y-228595180D01*
X420425523Y-228595180D01*
X420330285Y-228547561D01*
X420282666Y-228452323D01*
X420282666Y-228071371D01*
X420330285Y-227976133D01*
X420425523Y-227928514D01*
X420616000Y-227928514D01*
X420711238Y-227976133D01*
X420758857Y-228071371D01*
X420758857Y-228166609D01*
X420282666Y-228261847D01*
X421949333Y-228595180D02*
X421949333Y-227595180D01*
X422425523Y-227928514D02*
X422425523Y-228595180D01*
X422425523Y-228023752D02*
X422473142Y-227976133D01*
X422568380Y-227928514D01*
X422711238Y-227928514D01*
X422806476Y-227976133D01*
X422854095Y-228071371D01*
X422854095Y-228595180D01*
X281479714Y-257570266D02*
X281955904Y-257570266D01*
X281384476Y-257855980D02*
X281717809Y-256855980D01*
X282051142Y-257855980D01*
X282574952Y-256855980D02*
X282670190Y-256855980D01*
X282765428Y-256903600D01*
X282813047Y-256951219D01*
X282860666Y-257046457D01*
X282908285Y-257236933D01*
X282908285Y-257475028D01*
X282860666Y-257665504D01*
X282813047Y-257760742D01*
X282765428Y-257808361D01*
X282670190Y-257855980D01*
X282574952Y-257855980D01*
X282479714Y-257808361D01*
X282432095Y-257760742D01*
X282384476Y-257665504D01*
X282336857Y-257475028D01*
X282336857Y-257236933D01*
X282384476Y-257046457D01*
X282432095Y-256951219D01*
X282479714Y-256903600D01*
X282574952Y-256855980D01*
X299412495Y-252033066D02*
X299888685Y-252033066D01*
X299317257Y-252318780D02*
X299650590Y-251318780D01*
X299983923Y-252318780D01*
X300745828Y-252318780D02*
X300745828Y-251318780D01*
X300745828Y-252271161D02*
X300650590Y-252318780D01*
X300460114Y-252318780D01*
X300364876Y-252271161D01*
X300317257Y-252223542D01*
X300269638Y-252128304D01*
X300269638Y-251842590D01*
X300317257Y-251747352D01*
X300364876Y-251699733D01*
X300460114Y-251652114D01*
X300650590Y-251652114D01*
X300745828Y-251699733D01*
X301650590Y-252318780D02*
X301650590Y-251318780D01*
X301650590Y-252271161D02*
X301555352Y-252318780D01*
X301364876Y-252318780D01*
X301269638Y-252271161D01*
X301222019Y-252223542D01*
X301174400Y-252128304D01*
X301174400Y-251842590D01*
X301222019Y-251747352D01*
X301269638Y-251699733D01*
X301364876Y-251652114D01*
X301555352Y-251652114D01*
X301650590Y-251699733D01*
X302126780Y-252318780D02*
X302126780Y-251652114D01*
X302126780Y-251842590D02*
X302174400Y-251747352D01*
X302222019Y-251699733D01*
X302317257Y-251652114D01*
X302412495Y-251652114D01*
X303126780Y-252271161D02*
X303031542Y-252318780D01*
X302841066Y-252318780D01*
X302745828Y-252271161D01*
X302698209Y-252175923D01*
X302698209Y-251794971D01*
X302745828Y-251699733D01*
X302841066Y-251652114D01*
X303031542Y-251652114D01*
X303126780Y-251699733D01*
X303174400Y-251794971D01*
X303174400Y-251890209D01*
X302698209Y-251985447D01*
X303555352Y-252271161D02*
X303650590Y-252318780D01*
X303841066Y-252318780D01*
X303936304Y-252271161D01*
X303983923Y-252175923D01*
X303983923Y-252128304D01*
X303936304Y-252033066D01*
X303841066Y-251985447D01*
X303698209Y-251985447D01*
X303602971Y-251937828D01*
X303555352Y-251842590D01*
X303555352Y-251794971D01*
X303602971Y-251699733D01*
X303698209Y-251652114D01*
X303841066Y-251652114D01*
X303936304Y-251699733D01*
X304364876Y-252271161D02*
X304460114Y-252318780D01*
X304650590Y-252318780D01*
X304745828Y-252271161D01*
X304793447Y-252175923D01*
X304793447Y-252128304D01*
X304745828Y-252033066D01*
X304650590Y-251985447D01*
X304507733Y-251985447D01*
X304412495Y-251937828D01*
X304364876Y-251842590D01*
X304364876Y-251794971D01*
X304412495Y-251699733D01*
X304507733Y-251652114D01*
X304650590Y-251652114D01*
X304745828Y-251699733D01*
X305983923Y-252318780D02*
X305983923Y-251318780D01*
X306460114Y-251652114D02*
X306460114Y-252318780D01*
X306460114Y-251747352D02*
X306507733Y-251699733D01*
X306602971Y-251652114D01*
X306745828Y-251652114D01*
X306841066Y-251699733D01*
X306888685Y-251794971D01*
X306888685Y-252318780D01*
X280169904Y-239377600D02*
X280074666Y-239329980D01*
X279931809Y-239329980D01*
X279788952Y-239377600D01*
X279693714Y-239472838D01*
X279646095Y-239568076D01*
X279598476Y-239758552D01*
X279598476Y-239901409D01*
X279646095Y-240091885D01*
X279693714Y-240187123D01*
X279788952Y-240282361D01*
X279931809Y-240329980D01*
X280027047Y-240329980D01*
X280169904Y-240282361D01*
X280217523Y-240234742D01*
X280217523Y-239901409D01*
X280027047Y-239901409D01*
X280169904Y-242019200D02*
X280074666Y-241971580D01*
X279931809Y-241971580D01*
X279788952Y-242019200D01*
X279693714Y-242114438D01*
X279646095Y-242209676D01*
X279598476Y-242400152D01*
X279598476Y-242543009D01*
X279646095Y-242733485D01*
X279693714Y-242828723D01*
X279788952Y-242923961D01*
X279931809Y-242971580D01*
X280027047Y-242971580D01*
X280169904Y-242923961D01*
X280217523Y-242876342D01*
X280217523Y-242543009D01*
X280027047Y-242543009D01*
X280169904Y-244610000D02*
X280074666Y-244562380D01*
X279931809Y-244562380D01*
X279788952Y-244610000D01*
X279693714Y-244705238D01*
X279646095Y-244800476D01*
X279598476Y-244990952D01*
X279598476Y-245133809D01*
X279646095Y-245324285D01*
X279693714Y-245419523D01*
X279788952Y-245514761D01*
X279931809Y-245562380D01*
X280027047Y-245562380D01*
X280169904Y-245514761D01*
X280217523Y-245467142D01*
X280217523Y-245133809D01*
X280027047Y-245133809D01*
X279869923Y-247102380D02*
X279393733Y-247102380D01*
X279346114Y-247578571D01*
X279393733Y-247530952D01*
X279488971Y-247483333D01*
X279727066Y-247483333D01*
X279822304Y-247530952D01*
X279869923Y-247578571D01*
X279917542Y-247673809D01*
X279917542Y-247911904D01*
X279869923Y-248007142D01*
X279822304Y-248054761D01*
X279727066Y-248102380D01*
X279488971Y-248102380D01*
X279393733Y-248054761D01*
X279346114Y-248007142D01*
X280203257Y-247102380D02*
X280536590Y-248102380D01*
X280869923Y-247102380D01*
X279869923Y-249642380D02*
X279393733Y-249642380D01*
X279346114Y-250118571D01*
X279393733Y-250070952D01*
X279488971Y-250023333D01*
X279727066Y-250023333D01*
X279822304Y-250070952D01*
X279869923Y-250118571D01*
X279917542Y-250213809D01*
X279917542Y-250451904D01*
X279869923Y-250547142D01*
X279822304Y-250594761D01*
X279727066Y-250642380D01*
X279488971Y-250642380D01*
X279393733Y-250594761D01*
X279346114Y-250547142D01*
X280203257Y-249642380D02*
X280536590Y-250642380D01*
X280869923Y-249642380D01*
X280217809Y-237942380D02*
X280217809Y-236942380D01*
X280598761Y-236942380D01*
X280694000Y-236990000D01*
X280741619Y-237037619D01*
X280789238Y-237132857D01*
X280789238Y-237275714D01*
X280741619Y-237370952D01*
X280694000Y-237418571D01*
X280598761Y-237466190D01*
X280217809Y-237466190D01*
X281360666Y-237942380D02*
X281265428Y-237894761D01*
X281217809Y-237847142D01*
X281170190Y-237751904D01*
X281170190Y-237466190D01*
X281217809Y-237370952D01*
X281265428Y-237323333D01*
X281360666Y-237275714D01*
X281503523Y-237275714D01*
X281598761Y-237323333D01*
X281646380Y-237370952D01*
X281694000Y-237466190D01*
X281694000Y-237751904D01*
X281646380Y-237847142D01*
X281598761Y-237894761D01*
X281503523Y-237942380D01*
X281360666Y-237942380D01*
X282027333Y-237275714D02*
X282217809Y-237942380D01*
X282408285Y-237466190D01*
X282598761Y-237942380D01*
X282789238Y-237275714D01*
X283551142Y-237894761D02*
X283455904Y-237942380D01*
X283265428Y-237942380D01*
X283170190Y-237894761D01*
X283122571Y-237799523D01*
X283122571Y-237418571D01*
X283170190Y-237323333D01*
X283265428Y-237275714D01*
X283455904Y-237275714D01*
X283551142Y-237323333D01*
X283598761Y-237418571D01*
X283598761Y-237513809D01*
X283122571Y-237609047D01*
X284027333Y-237942380D02*
X284027333Y-237275714D01*
X284027333Y-237466190D02*
X284074952Y-237370952D01*
X284122571Y-237323333D01*
X284217809Y-237275714D01*
X284313047Y-237275714D01*
X341115733Y-255061980D02*
X340544304Y-255061980D01*
X340830019Y-255061980D02*
X340830019Y-254061980D01*
X340734780Y-254204838D01*
X340639542Y-254300076D01*
X340544304Y-254347695D01*
X341734780Y-254061980D02*
X341830019Y-254061980D01*
X341925257Y-254109600D01*
X341972876Y-254157219D01*
X342020495Y-254252457D01*
X342068114Y-254442933D01*
X342068114Y-254681028D01*
X342020495Y-254871504D01*
X341972876Y-254966742D01*
X341925257Y-255014361D01*
X341830019Y-255061980D01*
X341734780Y-255061980D01*
X341639542Y-255014361D01*
X341591923Y-254966742D01*
X341544304Y-254871504D01*
X341496685Y-254681028D01*
X341496685Y-254442933D01*
X341544304Y-254252457D01*
X341591923Y-254157219D01*
X341639542Y-254109600D01*
X341734780Y-254061980D01*
X342687161Y-254061980D02*
X342782400Y-254061980D01*
X342877638Y-254109600D01*
X342925257Y-254157219D01*
X342972876Y-254252457D01*
X343020495Y-254442933D01*
X343020495Y-254681028D01*
X342972876Y-254871504D01*
X342925257Y-254966742D01*
X342877638Y-255014361D01*
X342782400Y-255061980D01*
X342687161Y-255061980D01*
X342591923Y-255014361D01*
X342544304Y-254966742D01*
X342496685Y-254871504D01*
X342449066Y-254681028D01*
X342449066Y-254442933D01*
X342496685Y-254252457D01*
X342544304Y-254157219D01*
X342591923Y-254109600D01*
X342687161Y-254061980D01*
X341166533Y-251861580D02*
X340595104Y-251861580D01*
X340880819Y-251861580D02*
X340880819Y-250861580D01*
X340785580Y-251004438D01*
X340690342Y-251099676D01*
X340595104Y-251147295D01*
X341785580Y-250861580D02*
X341880819Y-250861580D01*
X341976057Y-250909200D01*
X342023676Y-250956819D01*
X342071295Y-251052057D01*
X342118914Y-251242533D01*
X342118914Y-251480628D01*
X342071295Y-251671104D01*
X342023676Y-251766342D01*
X341976057Y-251813961D01*
X341880819Y-251861580D01*
X341785580Y-251861580D01*
X341690342Y-251813961D01*
X341642723Y-251766342D01*
X341595104Y-251671104D01*
X341547485Y-251480628D01*
X341547485Y-251242533D01*
X341595104Y-251052057D01*
X341642723Y-250956819D01*
X341690342Y-250909200D01*
X341785580Y-250861580D01*
X342737961Y-250861580D02*
X342833200Y-250861580D01*
X342928438Y-250909200D01*
X342976057Y-250956819D01*
X343023676Y-251052057D01*
X343071295Y-251242533D01*
X343071295Y-251480628D01*
X343023676Y-251671104D01*
X342976057Y-251766342D01*
X342928438Y-251813961D01*
X342833200Y-251861580D01*
X342737961Y-251861580D01*
X342642723Y-251813961D01*
X342595104Y-251766342D01*
X342547485Y-251671104D01*
X342499866Y-251480628D01*
X342499866Y-251242533D01*
X342547485Y-251052057D01*
X342595104Y-250956819D01*
X342642723Y-250909200D01*
X342737961Y-250861580D01*
X341166533Y-248610380D02*
X340595104Y-248610380D01*
X340880819Y-248610380D02*
X340880819Y-247610380D01*
X340785580Y-247753238D01*
X340690342Y-247848476D01*
X340595104Y-247896095D01*
X341785580Y-247610380D02*
X341880819Y-247610380D01*
X341976057Y-247658000D01*
X342023676Y-247705619D01*
X342071295Y-247800857D01*
X342118914Y-247991333D01*
X342118914Y-248229428D01*
X342071295Y-248419904D01*
X342023676Y-248515142D01*
X341976057Y-248562761D01*
X341880819Y-248610380D01*
X341785580Y-248610380D01*
X341690342Y-248562761D01*
X341642723Y-248515142D01*
X341595104Y-248419904D01*
X341547485Y-248229428D01*
X341547485Y-247991333D01*
X341595104Y-247800857D01*
X341642723Y-247705619D01*
X341690342Y-247658000D01*
X341785580Y-247610380D01*
X342737961Y-247610380D02*
X342833200Y-247610380D01*
X342928438Y-247658000D01*
X342976057Y-247705619D01*
X343023676Y-247800857D01*
X343071295Y-247991333D01*
X343071295Y-248229428D01*
X343023676Y-248419904D01*
X342976057Y-248515142D01*
X342928438Y-248562761D01*
X342833200Y-248610380D01*
X342737961Y-248610380D01*
X342642723Y-248562761D01*
X342595104Y-248515142D01*
X342547485Y-248419904D01*
X342499866Y-248229428D01*
X342499866Y-247991333D01*
X342547485Y-247800857D01*
X342595104Y-247705619D01*
X342642723Y-247658000D01*
X342737961Y-247610380D01*
X355438438Y-233335580D02*
X355771771Y-234335580D01*
X356105104Y-233335580D01*
X356962247Y-233383200D02*
X356867009Y-233335580D01*
X356724152Y-233335580D01*
X356581295Y-233383200D01*
X356486057Y-233478438D01*
X356438438Y-233573676D01*
X356390819Y-233764152D01*
X356390819Y-233907009D01*
X356438438Y-234097485D01*
X356486057Y-234192723D01*
X356581295Y-234287961D01*
X356724152Y-234335580D01*
X356819390Y-234335580D01*
X356962247Y-234287961D01*
X357009866Y-234240342D01*
X357009866Y-233907009D01*
X356819390Y-233907009D01*
X357390819Y-234049866D02*
X357867009Y-234049866D01*
X357295580Y-234335580D02*
X357628914Y-233335580D01*
X357962247Y-234335580D01*
X359247961Y-233335580D02*
X359438438Y-233335580D01*
X359533676Y-233383200D01*
X359628914Y-233478438D01*
X359676533Y-233668914D01*
X359676533Y-234002247D01*
X359628914Y-234192723D01*
X359533676Y-234287961D01*
X359438438Y-234335580D01*
X359247961Y-234335580D01*
X359152723Y-234287961D01*
X359057485Y-234192723D01*
X359009866Y-234002247D01*
X359009866Y-233668914D01*
X359057485Y-233478438D01*
X359152723Y-233383200D01*
X359247961Y-233335580D01*
X360533676Y-233668914D02*
X360533676Y-234335580D01*
X360105104Y-233668914D02*
X360105104Y-234192723D01*
X360152723Y-234287961D01*
X360247961Y-234335580D01*
X360390819Y-234335580D01*
X360486057Y-234287961D01*
X360533676Y-234240342D01*
X360867009Y-233668914D02*
X361247961Y-233668914D01*
X361009866Y-233335580D02*
X361009866Y-234192723D01*
X361057485Y-234287961D01*
X361152723Y-234335580D01*
X361247961Y-234335580D01*
X353164876Y-235164380D02*
X353498209Y-236164380D01*
X353831542Y-235164380D01*
X354117257Y-236116761D02*
X354260114Y-236164380D01*
X354498209Y-236164380D01*
X354593447Y-236116761D01*
X354641066Y-236069142D01*
X354688685Y-235973904D01*
X354688685Y-235878666D01*
X354641066Y-235783428D01*
X354593447Y-235735809D01*
X354498209Y-235688190D01*
X354307733Y-235640571D01*
X354212495Y-235592952D01*
X354164876Y-235545333D01*
X354117257Y-235450095D01*
X354117257Y-235354857D01*
X354164876Y-235259619D01*
X354212495Y-235212000D01*
X354307733Y-235164380D01*
X354545828Y-235164380D01*
X354688685Y-235212000D01*
X355752495Y-236164380D02*
X355752495Y-235164380D01*
X355752495Y-235640571D02*
X356323923Y-235640571D01*
X356323923Y-236164380D02*
X356323923Y-235164380D01*
X356752495Y-236116761D02*
X356895352Y-236164380D01*
X357133447Y-236164380D01*
X357228685Y-236116761D01*
X357276304Y-236069142D01*
X357323923Y-235973904D01*
X357323923Y-235878666D01*
X357276304Y-235783428D01*
X357228685Y-235735809D01*
X357133447Y-235688190D01*
X356942971Y-235640571D01*
X356847733Y-235592952D01*
X356800114Y-235545333D01*
X356752495Y-235450095D01*
X356752495Y-235354857D01*
X356800114Y-235259619D01*
X356847733Y-235212000D01*
X356942971Y-235164380D01*
X357181066Y-235164380D01*
X357323923Y-235212000D01*
X359227428Y-235640571D02*
X359370285Y-235688190D01*
X359417904Y-235735809D01*
X359465523Y-235831047D01*
X359465523Y-235973904D01*
X359417904Y-236069142D01*
X359370285Y-236116761D01*
X359275047Y-236164380D01*
X358894095Y-236164380D01*
X358894095Y-235164380D01*
X359227428Y-235164380D01*
X359322666Y-235212000D01*
X359370285Y-235259619D01*
X359417904Y-235354857D01*
X359417904Y-235450095D01*
X359370285Y-235545333D01*
X359322666Y-235592952D01*
X359227428Y-235640571D01*
X358894095Y-235640571D01*
X361907104Y-235161200D02*
X361811866Y-235113580D01*
X361669009Y-235113580D01*
X361526152Y-235161200D01*
X361430914Y-235256438D01*
X361383295Y-235351676D01*
X361335676Y-235542152D01*
X361335676Y-235685009D01*
X361383295Y-235875485D01*
X361430914Y-235970723D01*
X361526152Y-236065961D01*
X361669009Y-236113580D01*
X361764247Y-236113580D01*
X361907104Y-236065961D01*
X361954723Y-236018342D01*
X361954723Y-235685009D01*
X361764247Y-235685009D01*
X364342323Y-236113580D02*
X364008990Y-235637390D01*
X363770895Y-236113580D02*
X363770895Y-235113580D01*
X364151847Y-235113580D01*
X364247085Y-235161200D01*
X364294704Y-235208819D01*
X364342323Y-235304057D01*
X364342323Y-235446914D01*
X364294704Y-235542152D01*
X364247085Y-235589771D01*
X364151847Y-235637390D01*
X363770895Y-235637390D01*
X396204323Y-238469466D02*
X396680514Y-238469466D01*
X396109085Y-238755180D02*
X396442419Y-237755180D01*
X396775752Y-238755180D01*
X397061466Y-238707561D02*
X397204323Y-238755180D01*
X397442419Y-238755180D01*
X397537657Y-238707561D01*
X397585276Y-238659942D01*
X397632895Y-238564704D01*
X397632895Y-238469466D01*
X397585276Y-238374228D01*
X397537657Y-238326609D01*
X397442419Y-238278990D01*
X397251942Y-238231371D01*
X397156704Y-238183752D01*
X397109085Y-238136133D01*
X397061466Y-238040895D01*
X397061466Y-237945657D01*
X397109085Y-237850419D01*
X397156704Y-237802800D01*
X397251942Y-237755180D01*
X397490038Y-237755180D01*
X397632895Y-237802800D01*
X398490038Y-237755180D02*
X398299561Y-237755180D01*
X398204323Y-237802800D01*
X398156704Y-237850419D01*
X398061466Y-237993276D01*
X398013847Y-238183752D01*
X398013847Y-238564704D01*
X398061466Y-238659942D01*
X398109085Y-238707561D01*
X398204323Y-238755180D01*
X398394800Y-238755180D01*
X398490038Y-238707561D01*
X398537657Y-238659942D01*
X398585276Y-238564704D01*
X398585276Y-238326609D01*
X398537657Y-238231371D01*
X398490038Y-238183752D01*
X398394800Y-238136133D01*
X398204323Y-238136133D01*
X398109085Y-238183752D01*
X398061466Y-238231371D01*
X398013847Y-238326609D01*
X399585276Y-238659942D02*
X399537657Y-238707561D01*
X399394800Y-238755180D01*
X399299561Y-238755180D01*
X399156704Y-238707561D01*
X399061466Y-238612323D01*
X399013847Y-238517085D01*
X398966228Y-238326609D01*
X398966228Y-238183752D01*
X399013847Y-237993276D01*
X399061466Y-237898038D01*
X399156704Y-237802800D01*
X399299561Y-237755180D01*
X399394800Y-237755180D01*
X399537657Y-237802800D01*
X399585276Y-237850419D01*
X400442419Y-238088514D02*
X400442419Y-238755180D01*
X400204323Y-237707561D02*
X399966228Y-238421847D01*
X400585276Y-238421847D01*
X401156704Y-237755180D02*
X401251942Y-237755180D01*
X401347180Y-237802800D01*
X401394800Y-237850419D01*
X401442419Y-237945657D01*
X401490038Y-238136133D01*
X401490038Y-238374228D01*
X401442419Y-238564704D01*
X401394800Y-238659942D01*
X401347180Y-238707561D01*
X401251942Y-238755180D01*
X401156704Y-238755180D01*
X401061466Y-238707561D01*
X401013847Y-238659942D01*
X400966228Y-238564704D01*
X400918609Y-238374228D01*
X400918609Y-238136133D01*
X400966228Y-237945657D01*
X401013847Y-237850419D01*
X401061466Y-237802800D01*
X401156704Y-237755180D01*
X402109085Y-237755180D02*
X402204323Y-237755180D01*
X402299561Y-237802800D01*
X402347180Y-237850419D01*
X402394800Y-237945657D01*
X402442419Y-238136133D01*
X402442419Y-238374228D01*
X402394800Y-238564704D01*
X402347180Y-238659942D01*
X402299561Y-238707561D01*
X402204323Y-238755180D01*
X402109085Y-238755180D01*
X402013847Y-238707561D01*
X401966228Y-238659942D01*
X401918609Y-238564704D01*
X401870990Y-238374228D01*
X401870990Y-238136133D01*
X401918609Y-237945657D01*
X401966228Y-237850419D01*
X402013847Y-237802800D01*
X402109085Y-237755180D01*
X403013847Y-238183752D02*
X402918609Y-238136133D01*
X402870990Y-238088514D01*
X402823371Y-237993276D01*
X402823371Y-237945657D01*
X402870990Y-237850419D01*
X402918609Y-237802800D01*
X403013847Y-237755180D01*
X403204323Y-237755180D01*
X403299561Y-237802800D01*
X403347180Y-237850419D01*
X403394800Y-237945657D01*
X403394800Y-237993276D01*
X403347180Y-238088514D01*
X403299561Y-238136133D01*
X403204323Y-238183752D01*
X403013847Y-238183752D01*
X402918609Y-238231371D01*
X402870990Y-238278990D01*
X402823371Y-238374228D01*
X402823371Y-238564704D01*
X402870990Y-238659942D01*
X402918609Y-238707561D01*
X403013847Y-238755180D01*
X403204323Y-238755180D01*
X403299561Y-238707561D01*
X403347180Y-238659942D01*
X403394800Y-238564704D01*
X403394800Y-238374228D01*
X403347180Y-238278990D01*
X403299561Y-238231371D01*
X403204323Y-238183752D01*
X403823371Y-238374228D02*
X404585276Y-238374228D01*
X405537657Y-237755180D02*
X405061466Y-237755180D01*
X405013847Y-238231371D01*
X405061466Y-238183752D01*
X405156704Y-238136133D01*
X405394800Y-238136133D01*
X405490038Y-238183752D01*
X405537657Y-238231371D01*
X405585276Y-238326609D01*
X405585276Y-238564704D01*
X405537657Y-238659942D01*
X405490038Y-238707561D01*
X405394800Y-238755180D01*
X405156704Y-238755180D01*
X405061466Y-238707561D01*
X405013847Y-238659942D01*
X406490038Y-237755180D02*
X406013847Y-237755180D01*
X405966228Y-238231371D01*
X406013847Y-238183752D01*
X406109085Y-238136133D01*
X406347180Y-238136133D01*
X406442419Y-238183752D01*
X406490038Y-238231371D01*
X406537657Y-238326609D01*
X406537657Y-238564704D01*
X406490038Y-238659942D01*
X406442419Y-238707561D01*
X406347180Y-238755180D01*
X406109085Y-238755180D01*
X406013847Y-238707561D01*
X405966228Y-238659942D01*
X406966228Y-238755180D02*
X406966228Y-237755180D01*
X407347180Y-237755180D01*
X407442419Y-237802800D01*
X407490038Y-237850419D01*
X407537657Y-237945657D01*
X407537657Y-238088514D01*
X407490038Y-238183752D01*
X407442419Y-238231371D01*
X407347180Y-238278990D01*
X406966228Y-238278990D01*
X408537657Y-238659942D02*
X408490038Y-238707561D01*
X408347180Y-238755180D01*
X408251942Y-238755180D01*
X408109085Y-238707561D01*
X408013847Y-238612323D01*
X407966228Y-238517085D01*
X407918609Y-238326609D01*
X407918609Y-238183752D01*
X407966228Y-237993276D01*
X408013847Y-237898038D01*
X408109085Y-237802800D01*
X408251942Y-237755180D01*
X408347180Y-237755180D01*
X408490038Y-237802800D01*
X408537657Y-237850419D01*
X408966228Y-238755180D02*
X408966228Y-237755180D01*
X409537657Y-238755180D01*
X409537657Y-237755180D01*
X393223904Y-234497619D02*
X393271523Y-234450000D01*
X393366761Y-234402380D01*
X393604857Y-234402380D01*
X393700095Y-234450000D01*
X393747714Y-234497619D01*
X393795333Y-234592857D01*
X393795333Y-234688095D01*
X393747714Y-234830952D01*
X393176285Y-235402380D01*
X393795333Y-235402380D01*
X394414380Y-234402380D02*
X394509619Y-234402380D01*
X394604857Y-234450000D01*
X394652476Y-234497619D01*
X394700095Y-234592857D01*
X394747714Y-234783333D01*
X394747714Y-235021428D01*
X394700095Y-235211904D01*
X394652476Y-235307142D01*
X394604857Y-235354761D01*
X394509619Y-235402380D01*
X394414380Y-235402380D01*
X394319142Y-235354761D01*
X394271523Y-235307142D01*
X394223904Y-235211904D01*
X394176285Y-235021428D01*
X394176285Y-234783333D01*
X394223904Y-234592857D01*
X394271523Y-234497619D01*
X394319142Y-234450000D01*
X394414380Y-234402380D01*
X395366761Y-234402380D02*
X395462000Y-234402380D01*
X395557238Y-234450000D01*
X395604857Y-234497619D01*
X395652476Y-234592857D01*
X395700095Y-234783333D01*
X395700095Y-235021428D01*
X395652476Y-235211904D01*
X395604857Y-235307142D01*
X395557238Y-235354761D01*
X395462000Y-235402380D01*
X395366761Y-235402380D01*
X395271523Y-235354761D01*
X395223904Y-235307142D01*
X395176285Y-235211904D01*
X395128666Y-235021428D01*
X395128666Y-234783333D01*
X395176285Y-234592857D01*
X395223904Y-234497619D01*
X395271523Y-234450000D01*
X395366761Y-234402380D01*
X379914304Y-234294419D02*
X379961923Y-234246800D01*
X380057161Y-234199180D01*
X380295257Y-234199180D01*
X380390495Y-234246800D01*
X380438114Y-234294419D01*
X380485733Y-234389657D01*
X380485733Y-234484895D01*
X380438114Y-234627752D01*
X379866685Y-235199180D01*
X380485733Y-235199180D01*
X381104780Y-234199180D02*
X381200019Y-234199180D01*
X381295257Y-234246800D01*
X381342876Y-234294419D01*
X381390495Y-234389657D01*
X381438114Y-234580133D01*
X381438114Y-234818228D01*
X381390495Y-235008704D01*
X381342876Y-235103942D01*
X381295257Y-235151561D01*
X381200019Y-235199180D01*
X381104780Y-235199180D01*
X381009542Y-235151561D01*
X380961923Y-235103942D01*
X380914304Y-235008704D01*
X380866685Y-234818228D01*
X380866685Y-234580133D01*
X380914304Y-234389657D01*
X380961923Y-234294419D01*
X381009542Y-234246800D01*
X381104780Y-234199180D01*
X382057161Y-234199180D02*
X382152400Y-234199180D01*
X382247638Y-234246800D01*
X382295257Y-234294419D01*
X382342876Y-234389657D01*
X382390495Y-234580133D01*
X382390495Y-234818228D01*
X382342876Y-235008704D01*
X382295257Y-235103942D01*
X382247638Y-235151561D01*
X382152400Y-235199180D01*
X382057161Y-235199180D01*
X381961923Y-235151561D01*
X381914304Y-235103942D01*
X381866685Y-235008704D01*
X381819066Y-234818228D01*
X381819066Y-234580133D01*
X381866685Y-234389657D01*
X381914304Y-234294419D01*
X381961923Y-234246800D01*
X382057161Y-234199180D01*
X379914304Y-231144819D02*
X379961923Y-231097200D01*
X380057161Y-231049580D01*
X380295257Y-231049580D01*
X380390495Y-231097200D01*
X380438114Y-231144819D01*
X380485733Y-231240057D01*
X380485733Y-231335295D01*
X380438114Y-231478152D01*
X379866685Y-232049580D01*
X380485733Y-232049580D01*
X381104780Y-231049580D02*
X381200019Y-231049580D01*
X381295257Y-231097200D01*
X381342876Y-231144819D01*
X381390495Y-231240057D01*
X381438114Y-231430533D01*
X381438114Y-231668628D01*
X381390495Y-231859104D01*
X381342876Y-231954342D01*
X381295257Y-232001961D01*
X381200019Y-232049580D01*
X381104780Y-232049580D01*
X381009542Y-232001961D01*
X380961923Y-231954342D01*
X380914304Y-231859104D01*
X380866685Y-231668628D01*
X380866685Y-231430533D01*
X380914304Y-231240057D01*
X380961923Y-231144819D01*
X381009542Y-231097200D01*
X381104780Y-231049580D01*
X382057161Y-231049580D02*
X382152400Y-231049580D01*
X382247638Y-231097200D01*
X382295257Y-231144819D01*
X382342876Y-231240057D01*
X382390495Y-231430533D01*
X382390495Y-231668628D01*
X382342876Y-231859104D01*
X382295257Y-231954342D01*
X382247638Y-232001961D01*
X382152400Y-232049580D01*
X382057161Y-232049580D01*
X381961923Y-232001961D01*
X381914304Y-231954342D01*
X381866685Y-231859104D01*
X381819066Y-231668628D01*
X381819066Y-231430533D01*
X381866685Y-231240057D01*
X381914304Y-231144819D01*
X381961923Y-231097200D01*
X382057161Y-231049580D01*
X281239980Y-220068495D02*
X281239980Y-219401828D01*
X282239980Y-219830400D01*
X281573314Y-218592304D02*
X282239980Y-218592304D01*
X281192361Y-218830400D02*
X281906647Y-219068495D01*
X281906647Y-218449447D01*
X282239980Y-217544685D02*
X282239980Y-218116114D01*
X282239980Y-217830400D02*
X281239980Y-217830400D01*
X281382838Y-217925638D01*
X281478076Y-218020876D01*
X281525695Y-218116114D01*
X281239980Y-216639923D02*
X281239980Y-217116114D01*
X281716171Y-217163733D01*
X281668552Y-217116114D01*
X281620933Y-217020876D01*
X281620933Y-216782780D01*
X281668552Y-216687542D01*
X281716171Y-216639923D01*
X281811409Y-216592304D01*
X282049504Y-216592304D01*
X282144742Y-216639923D01*
X282192361Y-216687542D01*
X282239980Y-216782780D01*
X282239980Y-217020876D01*
X282192361Y-217116114D01*
X282144742Y-217163733D01*
X281239980Y-216258971D02*
X281239980Y-215592304D01*
X282239980Y-216020876D01*
X285250476Y-200461619D02*
X285298095Y-200414000D01*
X285393333Y-200366380D01*
X285631428Y-200366380D01*
X285726666Y-200414000D01*
X285774285Y-200461619D01*
X285821904Y-200556857D01*
X285821904Y-200652095D01*
X285774285Y-200794952D01*
X285202857Y-201366380D01*
X285821904Y-201366380D01*
X286726666Y-200366380D02*
X286250476Y-200366380D01*
X286202857Y-200842571D01*
X286250476Y-200794952D01*
X286345714Y-200747333D01*
X286583809Y-200747333D01*
X286679047Y-200794952D01*
X286726666Y-200842571D01*
X286774285Y-200937809D01*
X286774285Y-201175904D01*
X286726666Y-201271142D01*
X286679047Y-201318761D01*
X286583809Y-201366380D01*
X286345714Y-201366380D01*
X286250476Y-201318761D01*
X286202857Y-201271142D01*
X287202857Y-201271142D02*
X287250476Y-201318761D01*
X287202857Y-201366380D01*
X287155238Y-201318761D01*
X287202857Y-201271142D01*
X287202857Y-201366380D01*
X288202857Y-201366380D02*
X287631428Y-201366380D01*
X287917142Y-201366380D02*
X287917142Y-200366380D01*
X287821904Y-200509238D01*
X287726666Y-200604476D01*
X287631428Y-200652095D01*
X288536190Y-200366380D02*
X289202857Y-200366380D01*
X288774285Y-201366380D01*
X290060000Y-200366380D02*
X289583809Y-200366380D01*
X289536190Y-200842571D01*
X289583809Y-200794952D01*
X289679047Y-200747333D01*
X289917142Y-200747333D01*
X290012380Y-200794952D01*
X290060000Y-200842571D01*
X290107619Y-200937809D01*
X290107619Y-201175904D01*
X290060000Y-201271142D01*
X290012380Y-201318761D01*
X289917142Y-201366380D01*
X289679047Y-201366380D01*
X289583809Y-201318761D01*
X289536190Y-201271142D01*
X291298095Y-201366380D02*
X291298095Y-200366380D01*
X291631428Y-201080666D01*
X291964761Y-200366380D01*
X291964761Y-201366380D01*
X292440952Y-201366380D02*
X292440952Y-200366380D01*
X292440952Y-200842571D02*
X293012380Y-200842571D01*
X293012380Y-201366380D02*
X293012380Y-200366380D01*
X293393333Y-200699714D02*
X293917142Y-200699714D01*
X293393333Y-201366380D01*
X293917142Y-201366380D01*
X382590895Y-201534780D02*
X383257561Y-201534780D01*
X382828990Y-202534780D01*
X384067085Y-201868114D02*
X384067085Y-202534780D01*
X383828990Y-201487161D02*
X383590895Y-202201447D01*
X384209942Y-202201447D01*
X384495657Y-201534780D02*
X385162323Y-201534780D01*
X384733752Y-202534780D01*
X385971847Y-201868114D02*
X385971847Y-202534780D01*
X385733752Y-201487161D02*
X385495657Y-202201447D01*
X386114704Y-202201447D01*
X369230495Y-201737980D02*
X369897161Y-201737980D01*
X369468590Y-202737980D01*
X370706685Y-202071314D02*
X370706685Y-202737980D01*
X370468590Y-201690361D02*
X370230495Y-202404647D01*
X370849542Y-202404647D01*
X371420971Y-201737980D02*
X371516209Y-201737980D01*
X371611447Y-201785600D01*
X371659066Y-201833219D01*
X371706685Y-201928457D01*
X371754304Y-202118933D01*
X371754304Y-202357028D01*
X371706685Y-202547504D01*
X371659066Y-202642742D01*
X371611447Y-202690361D01*
X371516209Y-202737980D01*
X371420971Y-202737980D01*
X371325733Y-202690361D01*
X371278114Y-202642742D01*
X371230495Y-202547504D01*
X371182876Y-202357028D01*
X371182876Y-202118933D01*
X371230495Y-201928457D01*
X371278114Y-201833219D01*
X371325733Y-201785600D01*
X371420971Y-201737980D01*
X372611447Y-202071314D02*
X372611447Y-202737980D01*
X372373352Y-201690361D02*
X372135257Y-202404647D01*
X372754304Y-202404647D01*
X355952704Y-203871580D02*
X356619371Y-203871580D01*
X356190800Y-204871580D01*
X357428895Y-204204914D02*
X357428895Y-204871580D01*
X357190800Y-203823961D02*
X356952704Y-204538247D01*
X357571752Y-204538247D01*
X358476514Y-204871580D02*
X357905085Y-204871580D01*
X358190800Y-204871580D02*
X358190800Y-203871580D01*
X358095561Y-204014438D01*
X358000323Y-204109676D01*
X357905085Y-204157295D01*
X359333657Y-203871580D02*
X359143180Y-203871580D01*
X359047942Y-203919200D01*
X359000323Y-203966819D01*
X358905085Y-204109676D01*
X358857466Y-204300152D01*
X358857466Y-204681104D01*
X358905085Y-204776342D01*
X358952704Y-204823961D01*
X359047942Y-204871580D01*
X359238419Y-204871580D01*
X359333657Y-204823961D01*
X359381276Y-204776342D01*
X359428895Y-204681104D01*
X359428895Y-204443009D01*
X359381276Y-204347771D01*
X359333657Y-204300152D01*
X359238419Y-204252533D01*
X359047942Y-204252533D01*
X358952704Y-204300152D01*
X358905085Y-204347771D01*
X358857466Y-204443009D01*
X360381276Y-204871580D02*
X359809847Y-204871580D01*
X360095561Y-204871580D02*
X360095561Y-203871580D01*
X360000323Y-204014438D01*
X359905085Y-204109676D01*
X359809847Y-204157295D01*
X343913104Y-203922380D02*
X344579771Y-203922380D01*
X344151200Y-204922380D01*
X345389295Y-204255714D02*
X345389295Y-204922380D01*
X345151200Y-203874761D02*
X344913104Y-204589047D01*
X345532152Y-204589047D01*
X346436914Y-204922380D02*
X345865485Y-204922380D01*
X346151200Y-204922380D02*
X346151200Y-203922380D01*
X346055961Y-204065238D01*
X345960723Y-204160476D01*
X345865485Y-204208095D01*
X347294057Y-203922380D02*
X347103580Y-203922380D01*
X347008342Y-203970000D01*
X346960723Y-204017619D01*
X346865485Y-204160476D01*
X346817866Y-204350952D01*
X346817866Y-204731904D01*
X346865485Y-204827142D01*
X346913104Y-204874761D01*
X347008342Y-204922380D01*
X347198819Y-204922380D01*
X347294057Y-204874761D01*
X347341676Y-204827142D01*
X347389295Y-204731904D01*
X347389295Y-204493809D01*
X347341676Y-204398571D01*
X347294057Y-204350952D01*
X347198819Y-204303333D01*
X347008342Y-204303333D01*
X346913104Y-204350952D01*
X346865485Y-204398571D01*
X346817866Y-204493809D01*
X348341676Y-204922380D02*
X347770247Y-204922380D01*
X348055961Y-204922380D02*
X348055961Y-203922380D01*
X347960723Y-204065238D01*
X347865485Y-204160476D01*
X347770247Y-204208095D01*
X332025904Y-203871580D02*
X332692571Y-203871580D01*
X332264000Y-204871580D01*
X333502095Y-204204914D02*
X333502095Y-204871580D01*
X333264000Y-203823961D02*
X333025904Y-204538247D01*
X333644952Y-204538247D01*
X334549714Y-204871580D02*
X333978285Y-204871580D01*
X334264000Y-204871580D02*
X334264000Y-203871580D01*
X334168761Y-204014438D01*
X334073523Y-204109676D01*
X333978285Y-204157295D01*
X335406857Y-203871580D02*
X335216380Y-203871580D01*
X335121142Y-203919200D01*
X335073523Y-203966819D01*
X334978285Y-204109676D01*
X334930666Y-204300152D01*
X334930666Y-204681104D01*
X334978285Y-204776342D01*
X335025904Y-204823961D01*
X335121142Y-204871580D01*
X335311619Y-204871580D01*
X335406857Y-204823961D01*
X335454476Y-204776342D01*
X335502095Y-204681104D01*
X335502095Y-204443009D01*
X335454476Y-204347771D01*
X335406857Y-204300152D01*
X335311619Y-204252533D01*
X335121142Y-204252533D01*
X335025904Y-204300152D01*
X334978285Y-204347771D01*
X334930666Y-204443009D01*
X336454476Y-204871580D02*
X335883047Y-204871580D01*
X336168761Y-204871580D02*
X336168761Y-203871580D01*
X336073523Y-204014438D01*
X335978285Y-204109676D01*
X335883047Y-204157295D01*
X320748304Y-203871580D02*
X321414971Y-203871580D01*
X320986400Y-204871580D01*
X322224495Y-204204914D02*
X322224495Y-204871580D01*
X321986400Y-203823961D02*
X321748304Y-204538247D01*
X322367352Y-204538247D01*
X323272114Y-204871580D02*
X322700685Y-204871580D01*
X322986400Y-204871580D02*
X322986400Y-203871580D01*
X322891161Y-204014438D01*
X322795923Y-204109676D01*
X322700685Y-204157295D01*
X324129257Y-203871580D02*
X323938780Y-203871580D01*
X323843542Y-203919200D01*
X323795923Y-203966819D01*
X323700685Y-204109676D01*
X323653066Y-204300152D01*
X323653066Y-204681104D01*
X323700685Y-204776342D01*
X323748304Y-204823961D01*
X323843542Y-204871580D01*
X324034019Y-204871580D01*
X324129257Y-204823961D01*
X324176876Y-204776342D01*
X324224495Y-204681104D01*
X324224495Y-204443009D01*
X324176876Y-204347771D01*
X324129257Y-204300152D01*
X324034019Y-204252533D01*
X323843542Y-204252533D01*
X323748304Y-204300152D01*
X323700685Y-204347771D01*
X323653066Y-204443009D01*
X325176876Y-204871580D02*
X324605447Y-204871580D01*
X324891161Y-204871580D02*
X324891161Y-203871580D01*
X324795923Y-204014438D01*
X324700685Y-204109676D01*
X324605447Y-204157295D01*
X309216704Y-203820780D02*
X309883371Y-203820780D01*
X309454800Y-204820780D01*
X310692895Y-204154114D02*
X310692895Y-204820780D01*
X310454800Y-203773161D02*
X310216704Y-204487447D01*
X310835752Y-204487447D01*
X311740514Y-204820780D02*
X311169085Y-204820780D01*
X311454800Y-204820780D02*
X311454800Y-203820780D01*
X311359561Y-203963638D01*
X311264323Y-204058876D01*
X311169085Y-204106495D01*
X312597657Y-203820780D02*
X312407180Y-203820780D01*
X312311942Y-203868400D01*
X312264323Y-203916019D01*
X312169085Y-204058876D01*
X312121466Y-204249352D01*
X312121466Y-204630304D01*
X312169085Y-204725542D01*
X312216704Y-204773161D01*
X312311942Y-204820780D01*
X312502419Y-204820780D01*
X312597657Y-204773161D01*
X312645276Y-204725542D01*
X312692895Y-204630304D01*
X312692895Y-204392209D01*
X312645276Y-204296971D01*
X312597657Y-204249352D01*
X312502419Y-204201733D01*
X312311942Y-204201733D01*
X312216704Y-204249352D01*
X312169085Y-204296971D01*
X312121466Y-204392209D01*
X313645276Y-204820780D02*
X313073847Y-204820780D01*
X313359561Y-204820780D02*
X313359561Y-203820780D01*
X313264323Y-203963638D01*
X313169085Y-204058876D01*
X313073847Y-204106495D01*
X299532895Y-201585580D02*
X300199561Y-201585580D01*
X299770990Y-202585580D01*
X301009085Y-201918914D02*
X301009085Y-202585580D01*
X300770990Y-201537961D02*
X300532895Y-202252247D01*
X301151942Y-202252247D01*
X301437657Y-201585580D02*
X302104323Y-201585580D01*
X301675752Y-202585580D01*
X302913847Y-201918914D02*
X302913847Y-202585580D01*
X302675752Y-201537961D02*
X302437657Y-202252247D01*
X303056704Y-202252247D01*
X345233904Y-167651180D02*
X345900571Y-167651180D01*
X345472000Y-168651180D01*
X346710095Y-167984514D02*
X346710095Y-168651180D01*
X346472000Y-167603561D02*
X346233904Y-168317847D01*
X346852952Y-168317847D01*
X347662476Y-167651180D02*
X347472000Y-167651180D01*
X347376761Y-167698800D01*
X347329142Y-167746419D01*
X347233904Y-167889276D01*
X347186285Y-168079752D01*
X347186285Y-168460704D01*
X347233904Y-168555942D01*
X347281523Y-168603561D01*
X347376761Y-168651180D01*
X347567238Y-168651180D01*
X347662476Y-168603561D01*
X347710095Y-168555942D01*
X347757714Y-168460704D01*
X347757714Y-168222609D01*
X347710095Y-168127371D01*
X347662476Y-168079752D01*
X347567238Y-168032133D01*
X347376761Y-168032133D01*
X347281523Y-168079752D01*
X347233904Y-168127371D01*
X347186285Y-168222609D01*
X348329142Y-168079752D02*
X348233904Y-168032133D01*
X348186285Y-167984514D01*
X348138666Y-167889276D01*
X348138666Y-167841657D01*
X348186285Y-167746419D01*
X348233904Y-167698800D01*
X348329142Y-167651180D01*
X348519619Y-167651180D01*
X348614857Y-167698800D01*
X348662476Y-167746419D01*
X348710095Y-167841657D01*
X348710095Y-167889276D01*
X348662476Y-167984514D01*
X348614857Y-168032133D01*
X348519619Y-168079752D01*
X348329142Y-168079752D01*
X348233904Y-168127371D01*
X348186285Y-168174990D01*
X348138666Y-168270228D01*
X348138666Y-168460704D01*
X348186285Y-168555942D01*
X348233904Y-168603561D01*
X348329142Y-168651180D01*
X348519619Y-168651180D01*
X348614857Y-168603561D01*
X348662476Y-168555942D01*
X348710095Y-168460704D01*
X348710095Y-168270228D01*
X348662476Y-168174990D01*
X348614857Y-168127371D01*
X348519619Y-168079752D01*
X349091047Y-167746419D02*
X349138666Y-167698800D01*
X349233904Y-167651180D01*
X349472000Y-167651180D01*
X349567238Y-167698800D01*
X349614857Y-167746419D01*
X349662476Y-167841657D01*
X349662476Y-167936895D01*
X349614857Y-168079752D01*
X349043428Y-168651180D01*
X349662476Y-168651180D01*
X316481104Y-167498780D02*
X317147771Y-167498780D01*
X316719200Y-168498780D01*
X317957295Y-167832114D02*
X317957295Y-168498780D01*
X317719200Y-167451161D02*
X317481104Y-168165447D01*
X318100152Y-168165447D01*
X318909676Y-167498780D02*
X318719200Y-167498780D01*
X318623961Y-167546400D01*
X318576342Y-167594019D01*
X318481104Y-167736876D01*
X318433485Y-167927352D01*
X318433485Y-168308304D01*
X318481104Y-168403542D01*
X318528723Y-168451161D01*
X318623961Y-168498780D01*
X318814438Y-168498780D01*
X318909676Y-168451161D01*
X318957295Y-168403542D01*
X319004914Y-168308304D01*
X319004914Y-168070209D01*
X318957295Y-167974971D01*
X318909676Y-167927352D01*
X318814438Y-167879733D01*
X318623961Y-167879733D01*
X318528723Y-167927352D01*
X318481104Y-167974971D01*
X318433485Y-168070209D01*
X319576342Y-167927352D02*
X319481104Y-167879733D01*
X319433485Y-167832114D01*
X319385866Y-167736876D01*
X319385866Y-167689257D01*
X319433485Y-167594019D01*
X319481104Y-167546400D01*
X319576342Y-167498780D01*
X319766819Y-167498780D01*
X319862057Y-167546400D01*
X319909676Y-167594019D01*
X319957295Y-167689257D01*
X319957295Y-167736876D01*
X319909676Y-167832114D01*
X319862057Y-167879733D01*
X319766819Y-167927352D01*
X319576342Y-167927352D01*
X319481104Y-167974971D01*
X319433485Y-168022590D01*
X319385866Y-168117828D01*
X319385866Y-168308304D01*
X319433485Y-168403542D01*
X319481104Y-168451161D01*
X319576342Y-168498780D01*
X319766819Y-168498780D01*
X319862057Y-168451161D01*
X319909676Y-168403542D01*
X319957295Y-168308304D01*
X319957295Y-168117828D01*
X319909676Y-168022590D01*
X319862057Y-167974971D01*
X319766819Y-167927352D01*
X320338247Y-167594019D02*
X320385866Y-167546400D01*
X320481104Y-167498780D01*
X320719200Y-167498780D01*
X320814438Y-167546400D01*
X320862057Y-167594019D01*
X320909676Y-167689257D01*
X320909676Y-167784495D01*
X320862057Y-167927352D01*
X320290628Y-168498780D01*
X320909676Y-168498780D01*
X404314304Y-204176380D02*
X404980971Y-204176380D01*
X404552400Y-205176380D01*
X405790495Y-204509714D02*
X405790495Y-205176380D01*
X405552400Y-204128761D02*
X405314304Y-204843047D01*
X405933352Y-204843047D01*
X406266685Y-204271619D02*
X406314304Y-204224000D01*
X406409542Y-204176380D01*
X406647638Y-204176380D01*
X406742876Y-204224000D01*
X406790495Y-204271619D01*
X406838114Y-204366857D01*
X406838114Y-204462095D01*
X406790495Y-204604952D01*
X406219066Y-205176380D01*
X406838114Y-205176380D01*
X407695257Y-204509714D02*
X407695257Y-205176380D01*
X407457161Y-204128761D02*
X407219066Y-204843047D01*
X407838114Y-204843047D01*
X408647638Y-204509714D02*
X408647638Y-205176380D01*
X408409542Y-204128761D02*
X408171447Y-204843047D01*
X408790495Y-204843047D01*
X403857104Y-176591980D02*
X404523771Y-176591980D01*
X404095200Y-177591980D01*
X405333295Y-176925314D02*
X405333295Y-177591980D01*
X405095200Y-176544361D02*
X404857104Y-177258647D01*
X405476152Y-177258647D01*
X405809485Y-176687219D02*
X405857104Y-176639600D01*
X405952342Y-176591980D01*
X406190438Y-176591980D01*
X406285676Y-176639600D01*
X406333295Y-176687219D01*
X406380914Y-176782457D01*
X406380914Y-176877695D01*
X406333295Y-177020552D01*
X405761866Y-177591980D01*
X406380914Y-177591980D01*
X407238057Y-176925314D02*
X407238057Y-177591980D01*
X406999961Y-176544361D02*
X406761866Y-177258647D01*
X407380914Y-177258647D01*
X408190438Y-176925314D02*
X408190438Y-177591980D01*
X407952342Y-176544361D02*
X407714247Y-177258647D01*
X408333295Y-177258647D01*
X396051923Y-174258266D02*
X396528114Y-174258266D01*
X395956685Y-174543980D02*
X396290019Y-173543980D01*
X396623352Y-174543980D01*
X396909066Y-174496361D02*
X397051923Y-174543980D01*
X397290019Y-174543980D01*
X397385257Y-174496361D01*
X397432876Y-174448742D01*
X397480495Y-174353504D01*
X397480495Y-174258266D01*
X397432876Y-174163028D01*
X397385257Y-174115409D01*
X397290019Y-174067790D01*
X397099542Y-174020171D01*
X397004304Y-173972552D01*
X396956685Y-173924933D01*
X396909066Y-173829695D01*
X396909066Y-173734457D01*
X396956685Y-173639219D01*
X397004304Y-173591600D01*
X397099542Y-173543980D01*
X397337638Y-173543980D01*
X397480495Y-173591600D01*
X398337638Y-173543980D02*
X398147161Y-173543980D01*
X398051923Y-173591600D01*
X398004304Y-173639219D01*
X397909066Y-173782076D01*
X397861447Y-173972552D01*
X397861447Y-174353504D01*
X397909066Y-174448742D01*
X397956685Y-174496361D01*
X398051923Y-174543980D01*
X398242400Y-174543980D01*
X398337638Y-174496361D01*
X398385257Y-174448742D01*
X398432876Y-174353504D01*
X398432876Y-174115409D01*
X398385257Y-174020171D01*
X398337638Y-173972552D01*
X398242400Y-173924933D01*
X398051923Y-173924933D01*
X397956685Y-173972552D01*
X397909066Y-174020171D01*
X397861447Y-174115409D01*
X399432876Y-174448742D02*
X399385257Y-174496361D01*
X399242400Y-174543980D01*
X399147161Y-174543980D01*
X399004304Y-174496361D01*
X398909066Y-174401123D01*
X398861447Y-174305885D01*
X398813828Y-174115409D01*
X398813828Y-173972552D01*
X398861447Y-173782076D01*
X398909066Y-173686838D01*
X399004304Y-173591600D01*
X399147161Y-173543980D01*
X399242400Y-173543980D01*
X399385257Y-173591600D01*
X399432876Y-173639219D01*
X400290019Y-173877314D02*
X400290019Y-174543980D01*
X400051923Y-173496361D02*
X399813828Y-174210647D01*
X400432876Y-174210647D01*
X401004304Y-173543980D02*
X401099542Y-173543980D01*
X401194780Y-173591600D01*
X401242400Y-173639219D01*
X401290019Y-173734457D01*
X401337638Y-173924933D01*
X401337638Y-174163028D01*
X401290019Y-174353504D01*
X401242400Y-174448742D01*
X401194780Y-174496361D01*
X401099542Y-174543980D01*
X401004304Y-174543980D01*
X400909066Y-174496361D01*
X400861447Y-174448742D01*
X400813828Y-174353504D01*
X400766209Y-174163028D01*
X400766209Y-173924933D01*
X400813828Y-173734457D01*
X400861447Y-173639219D01*
X400909066Y-173591600D01*
X401004304Y-173543980D01*
X401956685Y-173543980D02*
X402051923Y-173543980D01*
X402147161Y-173591600D01*
X402194780Y-173639219D01*
X402242400Y-173734457D01*
X402290019Y-173924933D01*
X402290019Y-174163028D01*
X402242400Y-174353504D01*
X402194780Y-174448742D01*
X402147161Y-174496361D01*
X402051923Y-174543980D01*
X401956685Y-174543980D01*
X401861447Y-174496361D01*
X401813828Y-174448742D01*
X401766209Y-174353504D01*
X401718590Y-174163028D01*
X401718590Y-173924933D01*
X401766209Y-173734457D01*
X401813828Y-173639219D01*
X401861447Y-173591600D01*
X401956685Y-173543980D01*
X402861447Y-173972552D02*
X402766209Y-173924933D01*
X402718590Y-173877314D01*
X402670971Y-173782076D01*
X402670971Y-173734457D01*
X402718590Y-173639219D01*
X402766209Y-173591600D01*
X402861447Y-173543980D01*
X403051923Y-173543980D01*
X403147161Y-173591600D01*
X403194780Y-173639219D01*
X403242400Y-173734457D01*
X403242400Y-173782076D01*
X403194780Y-173877314D01*
X403147161Y-173924933D01*
X403051923Y-173972552D01*
X402861447Y-173972552D01*
X402766209Y-174020171D01*
X402718590Y-174067790D01*
X402670971Y-174163028D01*
X402670971Y-174353504D01*
X402718590Y-174448742D01*
X402766209Y-174496361D01*
X402861447Y-174543980D01*
X403051923Y-174543980D01*
X403147161Y-174496361D01*
X403194780Y-174448742D01*
X403242400Y-174353504D01*
X403242400Y-174163028D01*
X403194780Y-174067790D01*
X403147161Y-174020171D01*
X403051923Y-173972552D01*
X403670971Y-174163028D02*
X404432876Y-174163028D01*
X405385257Y-173543980D02*
X404909066Y-173543980D01*
X404861447Y-174020171D01*
X404909066Y-173972552D01*
X405004304Y-173924933D01*
X405242400Y-173924933D01*
X405337638Y-173972552D01*
X405385257Y-174020171D01*
X405432876Y-174115409D01*
X405432876Y-174353504D01*
X405385257Y-174448742D01*
X405337638Y-174496361D01*
X405242400Y-174543980D01*
X405004304Y-174543980D01*
X404909066Y-174496361D01*
X404861447Y-174448742D01*
X406337638Y-173543980D02*
X405861447Y-173543980D01*
X405813828Y-174020171D01*
X405861447Y-173972552D01*
X405956685Y-173924933D01*
X406194780Y-173924933D01*
X406290019Y-173972552D01*
X406337638Y-174020171D01*
X406385257Y-174115409D01*
X406385257Y-174353504D01*
X406337638Y-174448742D01*
X406290019Y-174496361D01*
X406194780Y-174543980D01*
X405956685Y-174543980D01*
X405861447Y-174496361D01*
X405813828Y-174448742D01*
X406813828Y-174543980D02*
X406813828Y-173543980D01*
X407194780Y-173543980D01*
X407290019Y-173591600D01*
X407337638Y-173639219D01*
X407385257Y-173734457D01*
X407385257Y-173877314D01*
X407337638Y-173972552D01*
X407290019Y-174020171D01*
X407194780Y-174067790D01*
X406813828Y-174067790D01*
X408385257Y-174448742D02*
X408337638Y-174496361D01*
X408194780Y-174543980D01*
X408099542Y-174543980D01*
X407956685Y-174496361D01*
X407861447Y-174401123D01*
X407813828Y-174305885D01*
X407766209Y-174115409D01*
X407766209Y-173972552D01*
X407813828Y-173782076D01*
X407861447Y-173686838D01*
X407956685Y-173591600D01*
X408099542Y-173543980D01*
X408194780Y-173543980D01*
X408337638Y-173591600D01*
X408385257Y-173639219D01*
X408813828Y-174543980D02*
X408813828Y-173543980D01*
X409385257Y-174543980D01*
X409385257Y-173543980D01*
X373853295Y-173696380D02*
X374519961Y-173696380D01*
X374091390Y-174696380D01*
X375329485Y-174029714D02*
X375329485Y-174696380D01*
X375091390Y-173648761D02*
X374853295Y-174363047D01*
X375472342Y-174363047D01*
X375758057Y-173696380D02*
X376377104Y-173696380D01*
X376043771Y-174077333D01*
X376186628Y-174077333D01*
X376281866Y-174124952D01*
X376329485Y-174172571D01*
X376377104Y-174267809D01*
X376377104Y-174505904D01*
X376329485Y-174601142D01*
X376281866Y-174648761D01*
X376186628Y-174696380D01*
X375900914Y-174696380D01*
X375805676Y-174648761D01*
X375758057Y-174601142D01*
X376758057Y-173791619D02*
X376805676Y-173744000D01*
X376900914Y-173696380D01*
X377139009Y-173696380D01*
X377234247Y-173744000D01*
X377281866Y-173791619D01*
X377329485Y-173886857D01*
X377329485Y-173982095D01*
X377281866Y-174124952D01*
X376710438Y-174696380D01*
X377329485Y-174696380D01*
X319749352Y-165603180D02*
X319749352Y-164603180D01*
X319987447Y-164603180D01*
X320130304Y-164650800D01*
X320225542Y-164746038D01*
X320273161Y-164841276D01*
X320320780Y-165031752D01*
X320320780Y-165174609D01*
X320273161Y-165365085D01*
X320225542Y-165460323D01*
X320130304Y-165555561D01*
X319987447Y-165603180D01*
X319749352Y-165603180D01*
X321130304Y-165555561D02*
X321035066Y-165603180D01*
X320844590Y-165603180D01*
X320749352Y-165555561D01*
X320701733Y-165460323D01*
X320701733Y-165079371D01*
X320749352Y-164984133D01*
X320844590Y-164936514D01*
X321035066Y-164936514D01*
X321130304Y-164984133D01*
X321177923Y-165079371D01*
X321177923Y-165174609D01*
X320701733Y-165269847D01*
X321463638Y-164936514D02*
X321844590Y-164936514D01*
X321606495Y-165603180D02*
X321606495Y-164746038D01*
X321654114Y-164650800D01*
X321749352Y-164603180D01*
X321844590Y-164603180D01*
X322606495Y-165603180D02*
X322606495Y-165079371D01*
X322558876Y-164984133D01*
X322463638Y-164936514D01*
X322273161Y-164936514D01*
X322177923Y-164984133D01*
X322606495Y-165555561D02*
X322511257Y-165603180D01*
X322273161Y-165603180D01*
X322177923Y-165555561D01*
X322130304Y-165460323D01*
X322130304Y-165365085D01*
X322177923Y-165269847D01*
X322273161Y-165222228D01*
X322511257Y-165222228D01*
X322606495Y-165174609D01*
X323511257Y-164936514D02*
X323511257Y-165603180D01*
X323082685Y-164936514D02*
X323082685Y-165460323D01*
X323130304Y-165555561D01*
X323225542Y-165603180D01*
X323368400Y-165603180D01*
X323463638Y-165555561D01*
X323511257Y-165507942D01*
X324130304Y-165603180D02*
X324035066Y-165555561D01*
X323987447Y-165460323D01*
X323987447Y-164603180D01*
X324368400Y-164936514D02*
X324749352Y-164936514D01*
X324511257Y-164603180D02*
X324511257Y-165460323D01*
X324558876Y-165555561D01*
X324654114Y-165603180D01*
X324749352Y-165603180D01*
X325082685Y-165507942D02*
X325130304Y-165555561D01*
X325082685Y-165603180D01*
X325035066Y-165555561D01*
X325082685Y-165507942D01*
X325082685Y-165603180D01*
X325082685Y-164984133D02*
X325130304Y-165031752D01*
X325082685Y-165079371D01*
X325035066Y-165031752D01*
X325082685Y-164984133D01*
X325082685Y-165079371D01*
X326320780Y-165603180D02*
X326320780Y-164603180D01*
X326320780Y-165079371D02*
X326892209Y-165079371D01*
X326892209Y-165603180D02*
X326892209Y-164603180D01*
X327368400Y-165603180D02*
X327368400Y-164603180D01*
X327368400Y-165079371D02*
X327939828Y-165079371D01*
X327939828Y-165603180D02*
X327939828Y-164603180D01*
X328416019Y-165603180D02*
X328416019Y-164603180D01*
X328416019Y-165079371D02*
X328987447Y-165079371D01*
X328987447Y-165603180D02*
X328987447Y-164603180D01*
X329463638Y-165603180D02*
X329463638Y-164603180D01*
X329463638Y-165079371D02*
X330035066Y-165079371D01*
X330035066Y-165603180D02*
X330035066Y-164603180D01*
X331749352Y-165603180D02*
X331273161Y-165603180D01*
X331273161Y-164603180D01*
X332558876Y-165603180D02*
X332082685Y-165603180D01*
X332082685Y-164603180D01*
X332892209Y-165603180D02*
X332892209Y-164603180D01*
X332892209Y-165079371D02*
X333463638Y-165079371D01*
X333463638Y-165603180D02*
X333463638Y-164603180D01*
X334416019Y-165603180D02*
X333939828Y-165603180D01*
X333939828Y-164603180D01*
X335987447Y-165603180D02*
X335511257Y-165603180D01*
X335511257Y-164603180D01*
X336796971Y-165603180D02*
X336320780Y-165603180D01*
X336320780Y-164603180D01*
X337130304Y-165603180D02*
X337130304Y-164603180D01*
X337130304Y-165079371D02*
X337701733Y-165079371D01*
X337701733Y-165603180D02*
X337701733Y-164603180D01*
X338654114Y-165603180D02*
X338177923Y-165603180D01*
X338177923Y-164603180D01*
X339749352Y-165603180D02*
X339749352Y-164603180D01*
X339749352Y-165079371D02*
X340320780Y-165079371D01*
X340320780Y-165603180D02*
X340320780Y-164603180D01*
X340796971Y-165603180D02*
X340796971Y-164603180D01*
X340796971Y-165079371D02*
X341368400Y-165079371D01*
X341368400Y-165603180D02*
X341368400Y-164603180D01*
X342320780Y-165603180D02*
X341844590Y-165603180D01*
X341844590Y-164603180D01*
X343130304Y-165603180D02*
X342654114Y-165603180D01*
X342654114Y-164603180D01*
X312620114Y-165165066D02*
X313096304Y-165165066D01*
X312524876Y-165450780D02*
X312858209Y-164450780D01*
X313191542Y-165450780D01*
X313715352Y-164450780D02*
X313810590Y-164450780D01*
X313905828Y-164498400D01*
X313953447Y-164546019D01*
X314001066Y-164641257D01*
X314048685Y-164831733D01*
X314048685Y-165069828D01*
X314001066Y-165260304D01*
X313953447Y-165355542D01*
X313905828Y-165403161D01*
X313810590Y-165450780D01*
X313715352Y-165450780D01*
X313620114Y-165403161D01*
X313572495Y-165355542D01*
X313524876Y-165260304D01*
X313477257Y-165069828D01*
X313477257Y-164831733D01*
X313524876Y-164641257D01*
X313572495Y-164546019D01*
X313620114Y-164498400D01*
X313715352Y-164450780D01*
X307797295Y-161602800D02*
X307702057Y-161555180D01*
X307559200Y-161555180D01*
X307416342Y-161602800D01*
X307321104Y-161698038D01*
X307273485Y-161793276D01*
X307225866Y-161983752D01*
X307225866Y-162126609D01*
X307273485Y-162317085D01*
X307321104Y-162412323D01*
X307416342Y-162507561D01*
X307559200Y-162555180D01*
X307654438Y-162555180D01*
X307797295Y-162507561D01*
X307844914Y-162459942D01*
X307844914Y-162126609D01*
X307654438Y-162126609D01*
X308273485Y-162555180D02*
X308273485Y-161555180D01*
X308844914Y-162555180D01*
X308844914Y-161555180D01*
X309321104Y-162555180D02*
X309321104Y-161555180D01*
X309559200Y-161555180D01*
X309702057Y-161602800D01*
X309797295Y-161698038D01*
X309844914Y-161793276D01*
X309892533Y-161983752D01*
X309892533Y-162126609D01*
X309844914Y-162317085D01*
X309797295Y-162412323D01*
X309702057Y-162507561D01*
X309559200Y-162555180D01*
X309321104Y-162555180D01*
X307121085Y-157094228D02*
X307882990Y-157094228D01*
X307502038Y-157475180D02*
X307502038Y-156713276D01*
X308835371Y-156475180D02*
X308359180Y-156475180D01*
X308311561Y-156951371D01*
X308359180Y-156903752D01*
X308454419Y-156856133D01*
X308692514Y-156856133D01*
X308787752Y-156903752D01*
X308835371Y-156951371D01*
X308882990Y-157046609D01*
X308882990Y-157284704D01*
X308835371Y-157379942D01*
X308787752Y-157427561D01*
X308692514Y-157475180D01*
X308454419Y-157475180D01*
X308359180Y-157427561D01*
X308311561Y-157379942D01*
X309168704Y-156475180D02*
X309502038Y-157475180D01*
X309835371Y-156475180D01*
X295456838Y-159919942D02*
X295409219Y-159967561D01*
X295266361Y-160015180D01*
X295171123Y-160015180D01*
X295028266Y-159967561D01*
X294933028Y-159872323D01*
X294885409Y-159777085D01*
X294837790Y-159586609D01*
X294837790Y-159443752D01*
X294885409Y-159253276D01*
X294933028Y-159158038D01*
X295028266Y-159062800D01*
X295171123Y-159015180D01*
X295266361Y-159015180D01*
X295409219Y-159062800D01*
X295456838Y-159110419D01*
X296028266Y-160015180D02*
X295933028Y-159967561D01*
X295885409Y-159919942D01*
X295837790Y-159824704D01*
X295837790Y-159538990D01*
X295885409Y-159443752D01*
X295933028Y-159396133D01*
X296028266Y-159348514D01*
X296171123Y-159348514D01*
X296266361Y-159396133D01*
X296313980Y-159443752D01*
X296361600Y-159538990D01*
X296361600Y-159824704D01*
X296313980Y-159919942D01*
X296266361Y-159967561D01*
X296171123Y-160015180D01*
X296028266Y-160015180D01*
X297218742Y-159348514D02*
X297218742Y-160015180D01*
X296790171Y-159348514D02*
X296790171Y-159872323D01*
X296837790Y-159967561D01*
X296933028Y-160015180D01*
X297075885Y-160015180D01*
X297171123Y-159967561D01*
X297218742Y-159919942D01*
X297694933Y-159348514D02*
X297694933Y-160015180D01*
X297694933Y-159443752D02*
X297742552Y-159396133D01*
X297837790Y-159348514D01*
X297980647Y-159348514D01*
X298075885Y-159396133D01*
X298123504Y-159491371D01*
X298123504Y-160015180D01*
X298456838Y-159348514D02*
X298837790Y-159348514D01*
X298599695Y-159015180D02*
X298599695Y-159872323D01*
X298647314Y-159967561D01*
X298742552Y-160015180D01*
X298837790Y-160015180D01*
X299552076Y-159967561D02*
X299456838Y-160015180D01*
X299266361Y-160015180D01*
X299171123Y-159967561D01*
X299123504Y-159872323D01*
X299123504Y-159491371D01*
X299171123Y-159396133D01*
X299266361Y-159348514D01*
X299456838Y-159348514D01*
X299552076Y-159396133D01*
X299599695Y-159491371D01*
X299599695Y-159586609D01*
X299123504Y-159681847D01*
X300028266Y-160015180D02*
X300028266Y-159348514D01*
X300028266Y-159538990D02*
X300075885Y-159443752D01*
X300123504Y-159396133D01*
X300218742Y-159348514D01*
X300313980Y-159348514D01*
X301980647Y-160015180D02*
X301647314Y-159538990D01*
X301409219Y-160015180D02*
X301409219Y-159015180D01*
X301790171Y-159015180D01*
X301885409Y-159062800D01*
X301933028Y-159110419D01*
X301980647Y-159205657D01*
X301980647Y-159348514D01*
X301933028Y-159443752D01*
X301885409Y-159491371D01*
X301790171Y-159538990D01*
X301409219Y-159538990D01*
X302790171Y-159967561D02*
X302694933Y-160015180D01*
X302504457Y-160015180D01*
X302409219Y-159967561D01*
X302361600Y-159872323D01*
X302361600Y-159491371D01*
X302409219Y-159396133D01*
X302504457Y-159348514D01*
X302694933Y-159348514D01*
X302790171Y-159396133D01*
X302837790Y-159491371D01*
X302837790Y-159586609D01*
X302361600Y-159681847D01*
X303218742Y-159967561D02*
X303313980Y-160015180D01*
X303504457Y-160015180D01*
X303599695Y-159967561D01*
X303647314Y-159872323D01*
X303647314Y-159824704D01*
X303599695Y-159729466D01*
X303504457Y-159681847D01*
X303361600Y-159681847D01*
X303266361Y-159634228D01*
X303218742Y-159538990D01*
X303218742Y-159491371D01*
X303266361Y-159396133D01*
X303361600Y-159348514D01*
X303504457Y-159348514D01*
X303599695Y-159396133D01*
X304456838Y-159967561D02*
X304361600Y-160015180D01*
X304171123Y-160015180D01*
X304075885Y-159967561D01*
X304028266Y-159872323D01*
X304028266Y-159491371D01*
X304075885Y-159396133D01*
X304171123Y-159348514D01*
X304361600Y-159348514D01*
X304456838Y-159396133D01*
X304504457Y-159491371D01*
X304504457Y-159586609D01*
X304028266Y-159681847D01*
X304790171Y-159348514D02*
X305171123Y-159348514D01*
X304933028Y-159015180D02*
X304933028Y-159872323D01*
X304980647Y-159967561D01*
X305075885Y-160015180D01*
X305171123Y-160015180D01*
X306123504Y-159015180D02*
X306456838Y-160015180D01*
X306790171Y-159015180D01*
X307552076Y-160015180D02*
X307552076Y-159491371D01*
X307504457Y-159396133D01*
X307409219Y-159348514D01*
X307218742Y-159348514D01*
X307123504Y-159396133D01*
X307552076Y-159967561D02*
X307456838Y-160015180D01*
X307218742Y-160015180D01*
X307123504Y-159967561D01*
X307075885Y-159872323D01*
X307075885Y-159777085D01*
X307123504Y-159681847D01*
X307218742Y-159634228D01*
X307456838Y-159634228D01*
X307552076Y-159586609D01*
X308171123Y-160015180D02*
X308075885Y-159967561D01*
X308028266Y-159872323D01*
X308028266Y-159015180D01*
X308980647Y-159348514D02*
X308980647Y-160015180D01*
X308552076Y-159348514D02*
X308552076Y-159872323D01*
X308599695Y-159967561D01*
X308694933Y-160015180D01*
X308837790Y-160015180D01*
X308933028Y-159967561D01*
X308980647Y-159919942D01*
X309837790Y-159967561D02*
X309742552Y-160015180D01*
X309552076Y-160015180D01*
X309456838Y-159967561D01*
X309409219Y-159872323D01*
X309409219Y-159491371D01*
X309456838Y-159396133D01*
X309552076Y-159348514D01*
X309742552Y-159348514D01*
X309837790Y-159396133D01*
X309885409Y-159491371D01*
X309885409Y-159586609D01*
X309409219Y-159681847D01*
D13*
%TO.C,X1*%
X283110000Y-199591600D02*
X295260000Y-199591600D01*
X296010000Y-198841600D02*
X296010000Y-187441600D01*
X295260000Y-186691600D02*
X283860000Y-186691600D01*
X283110000Y-187441600D02*
X283110000Y-199591600D01*
X283860000Y-186691600D02*
G75*
G03*
X283110000Y-187441600I0J-750000D01*
G01*
X296010000Y-187441600D02*
G75*
G03*
X295260000Y-186691600I-750000J0D01*
G01*
X295260000Y-199591600D02*
G75*
G03*
X296010000Y-198841600I0J750000D01*
G01*
%TO.C,U27*%
X414942800Y-205832400D02*
X413292800Y-205832400D01*
X414942800Y-231352400D02*
X414942800Y-205832400D01*
X409642800Y-231352400D02*
X414942800Y-231352400D01*
X409642800Y-205832400D02*
X409642800Y-231352400D01*
X411292800Y-205832400D02*
X409642800Y-205832400D01*
X413292800Y-205832400D02*
G75*
G02*
X411292800Y-205832400I-1000000J0D01*
G01*
%TO.C,U26*%
X414892000Y-178349600D02*
X413242000Y-178349600D01*
X414892000Y-203869600D02*
X414892000Y-178349600D01*
X409592000Y-203869600D02*
X414892000Y-203869600D01*
X409592000Y-178349600D02*
X409592000Y-203869600D01*
X411242000Y-178349600D02*
X409592000Y-178349600D01*
X413242000Y-178349600D02*
G75*
G02*
X411242000Y-178349600I-1000000J0D01*
G01*
%TO.C,U25*%
X403360400Y-205781600D02*
X401710400Y-205781600D01*
X403360400Y-231301600D02*
X403360400Y-205781600D01*
X398060400Y-231301600D02*
X403360400Y-231301600D01*
X398060400Y-205781600D02*
X398060400Y-231301600D01*
X399710400Y-205781600D02*
X398060400Y-205781600D01*
X401710400Y-205781600D02*
G75*
G02*
X399710400Y-205781600I-1000000J0D01*
G01*
%TO.C,U24*%
X403208000Y-178248000D02*
X401558000Y-178248000D01*
X403208000Y-203768000D02*
X403208000Y-178248000D01*
X397908000Y-203768000D02*
X403208000Y-203768000D01*
X397908000Y-178248000D02*
X397908000Y-203768000D01*
X399558000Y-178248000D02*
X397908000Y-178248000D01*
X401558000Y-178248000D02*
G75*
G02*
X399558000Y-178248000I-1000000J0D01*
G01*
%TO.C,U23*%
X423579600Y-170950400D02*
X423579600Y-165490400D01*
X382819600Y-170950400D02*
X423579600Y-170950400D01*
X382819600Y-158030400D02*
X382819600Y-170950400D01*
X423579600Y-158030400D02*
X382819600Y-158030400D01*
X423579600Y-163490400D02*
X423579600Y-158030400D01*
X423579600Y-165490400D02*
G75*
G02*
X423579600Y-163490400I0J1000000D01*
G01*
%TO.C,U22*%
X387307600Y-182870800D02*
X385657600Y-182870800D01*
X387307600Y-200770800D02*
X387307600Y-182870800D01*
X382007600Y-200770800D02*
X387307600Y-200770800D01*
X382007600Y-182870800D02*
X382007600Y-200770800D01*
X383657600Y-182870800D02*
X382007600Y-182870800D01*
X385657600Y-182870800D02*
G75*
G02*
X383657600Y-182870800I-1000000J0D01*
G01*
%TO.C,U21*%
X382057600Y-241342400D02*
X382057600Y-246802400D01*
X422817600Y-241342400D02*
X382057600Y-241342400D01*
X422817600Y-254262400D02*
X422817600Y-241342400D01*
X382057600Y-254262400D02*
X422817600Y-254262400D01*
X382057600Y-248802400D02*
X382057600Y-254262400D01*
X382057600Y-246802400D02*
G75*
G02*
X382057600Y-248802400I0J-1000000D01*
G01*
%TO.C,U20*%
X373896400Y-182921600D02*
X372246400Y-182921600D01*
X373896400Y-200821600D02*
X373896400Y-182921600D01*
X368596400Y-200821600D02*
X373896400Y-200821600D01*
X368596400Y-182921600D02*
X368596400Y-200821600D01*
X370246400Y-182921600D02*
X368596400Y-182921600D01*
X372246400Y-182921600D02*
G75*
G02*
X370246400Y-182921600I-1000000J0D01*
G01*
%TO.C,U19*%
X361247200Y-182769200D02*
X359597200Y-182769200D01*
X361247200Y-203209200D02*
X361247200Y-182769200D01*
X355947200Y-203209200D02*
X361247200Y-203209200D01*
X355947200Y-182769200D02*
X355947200Y-203209200D01*
X357597200Y-182769200D02*
X355947200Y-182769200D01*
X359597200Y-182769200D02*
G75*
G02*
X357597200Y-182769200I-1000000J0D01*
G01*
%TO.C,U18*%
X378316000Y-155235600D02*
X376666000Y-155235600D01*
X378316000Y-173135600D02*
X378316000Y-155235600D01*
X373016000Y-173135600D02*
X378316000Y-173135600D01*
X373016000Y-155235600D02*
X373016000Y-173135600D01*
X374666000Y-155235600D02*
X373016000Y-155235600D01*
X376666000Y-155235600D02*
G75*
G02*
X374666000Y-155235600I-1000000J0D01*
G01*
%TO.C,U17*%
X349156800Y-182820000D02*
X347506800Y-182820000D01*
X349156800Y-203260000D02*
X349156800Y-182820000D01*
X343856800Y-203260000D02*
X349156800Y-203260000D01*
X343856800Y-182820000D02*
X343856800Y-203260000D01*
X345506800Y-182820000D02*
X343856800Y-182820000D01*
X347506800Y-182820000D02*
G75*
G02*
X345506800Y-182820000I-1000000J0D01*
G01*
%TO.C,U16*%
X370272000Y-208881200D02*
X370272000Y-210531200D01*
X390712000Y-208881200D02*
X370272000Y-208881200D01*
X390712000Y-214181200D02*
X390712000Y-208881200D01*
X370272000Y-214181200D02*
X390712000Y-214181200D01*
X370272000Y-212531200D02*
X370272000Y-214181200D01*
X370272000Y-210531200D02*
G75*
G02*
X370272000Y-212531200I0J-1000000D01*
G01*
%TO.C,U15*%
X370322800Y-220920800D02*
X370322800Y-222570800D01*
X390762800Y-220920800D02*
X370322800Y-220920800D01*
X390762800Y-226220800D02*
X390762800Y-220920800D01*
X370322800Y-226220800D02*
X390762800Y-226220800D01*
X370322800Y-224570800D02*
X370322800Y-226220800D01*
X370322800Y-222570800D02*
G75*
G02*
X370322800Y-224570800I0J-1000000D01*
G01*
%TO.C,U14*%
X337066400Y-182870800D02*
X335416400Y-182870800D01*
X337066400Y-203310800D02*
X337066400Y-182870800D01*
X331766400Y-203310800D02*
X337066400Y-203310800D01*
X331766400Y-182870800D02*
X331766400Y-203310800D01*
X333416400Y-182870800D02*
X331766400Y-182870800D01*
X335416400Y-182870800D02*
G75*
G02*
X333416400Y-182870800I-1000000J0D01*
G01*
%TO.C,U13*%
X348580400Y-208932000D02*
X348580400Y-210582000D01*
X369020400Y-208932000D02*
X348580400Y-208932000D01*
X369020400Y-214232000D02*
X369020400Y-208932000D01*
X348580400Y-214232000D02*
X369020400Y-214232000D01*
X348580400Y-212582000D02*
X348580400Y-214232000D01*
X348580400Y-210582000D02*
G75*
G02*
X348580400Y-212582000I0J-1000000D01*
G01*
%TO.C,U12*%
X348428000Y-220920800D02*
X348428000Y-222570800D01*
X368868000Y-220920800D02*
X348428000Y-220920800D01*
X368868000Y-226220800D02*
X368868000Y-220920800D01*
X348428000Y-226220800D02*
X368868000Y-226220800D01*
X348428000Y-224570800D02*
X348428000Y-226220800D01*
X348428000Y-222570800D02*
G75*
G02*
X348428000Y-224570800I0J-1000000D01*
G01*
%TO.C,U11*%
X325788800Y-182870800D02*
X324138800Y-182870800D01*
X325788800Y-203310800D02*
X325788800Y-182870800D01*
X320488800Y-203310800D02*
X325788800Y-203310800D01*
X320488800Y-182870800D02*
X320488800Y-203310800D01*
X322138800Y-182870800D02*
X320488800Y-182870800D01*
X324138800Y-182870800D02*
G75*
G02*
X322138800Y-182870800I-1000000J0D01*
G01*
%TO.C,U10*%
X361146400Y-176487600D02*
X361146400Y-174837600D01*
X335626400Y-176487600D02*
X361146400Y-176487600D01*
X335626400Y-171187600D02*
X335626400Y-176487600D01*
X361146400Y-171187600D02*
X335626400Y-171187600D01*
X361146400Y-172837600D02*
X361146400Y-171187600D01*
X361146400Y-174837600D02*
G75*
G02*
X361146400Y-172837600I0J1000000D01*
G01*
%TO.C,U9*%
X326736400Y-220920800D02*
X326736400Y-222570800D01*
X347176400Y-220920800D02*
X326736400Y-220920800D01*
X347176400Y-226220800D02*
X347176400Y-220920800D01*
X326736400Y-226220800D02*
X347176400Y-226220800D01*
X326736400Y-224570800D02*
X326736400Y-226220800D01*
X326736400Y-222570800D02*
G75*
G02*
X326736400Y-224570800I0J-1000000D01*
G01*
%TO.C,U8*%
X326685600Y-208982800D02*
X326685600Y-210632800D01*
X347125600Y-208982800D02*
X326685600Y-208982800D01*
X347125600Y-214282800D02*
X347125600Y-208982800D01*
X326685600Y-214282800D02*
X347125600Y-214282800D01*
X326685600Y-212632800D02*
X326685600Y-214282800D01*
X326685600Y-210632800D02*
G75*
G02*
X326685600Y-212632800I0J-1000000D01*
G01*
%TO.C,U7*%
X314409600Y-182870800D02*
X312759600Y-182870800D01*
X314409600Y-203310800D02*
X314409600Y-182870800D01*
X309109600Y-203310800D02*
X314409600Y-203310800D01*
X309109600Y-182870800D02*
X309109600Y-203310800D01*
X310759600Y-182870800D02*
X309109600Y-182870800D01*
X312759600Y-182870800D02*
G75*
G02*
X310759600Y-182870800I-1000000J0D01*
G01*
%TO.C,U6*%
X305095600Y-220971600D02*
X305095600Y-222621600D01*
X325535600Y-220971600D02*
X305095600Y-220971600D01*
X325535600Y-226271600D02*
X325535600Y-220971600D01*
X305095600Y-226271600D02*
X325535600Y-226271600D01*
X305095600Y-224621600D02*
X305095600Y-226271600D01*
X305095600Y-222621600D02*
G75*
G02*
X305095600Y-224621600I0J-1000000D01*
G01*
%TO.C,U5*%
X305044800Y-209033600D02*
X305044800Y-210683600D01*
X325484800Y-209033600D02*
X305044800Y-209033600D01*
X325484800Y-214333600D02*
X325484800Y-209033600D01*
X305044800Y-214333600D02*
X325484800Y-214333600D01*
X305044800Y-212683600D02*
X305044800Y-214333600D01*
X305044800Y-210683600D02*
G75*
G02*
X305044800Y-212683600I0J-1000000D01*
G01*
%TO.C,U4*%
X331580800Y-176436800D02*
X331580800Y-174786800D01*
X306060800Y-176436800D02*
X331580800Y-176436800D01*
X306060800Y-171136800D02*
X306060800Y-176436800D01*
X331580800Y-171136800D02*
X306060800Y-171136800D01*
X331580800Y-172786800D02*
X331580800Y-171136800D01*
X331580800Y-174786800D02*
G75*
G02*
X331580800Y-172786800I0J1000000D01*
G01*
%TO.C,U3*%
X303995600Y-182921600D02*
X302345600Y-182921600D01*
X303995600Y-200821600D02*
X303995600Y-182921600D01*
X298695600Y-200821600D02*
X303995600Y-200821600D01*
X298695600Y-182921600D02*
X298695600Y-200821600D01*
X300345600Y-182921600D02*
X298695600Y-182921600D01*
X302345600Y-182921600D02*
G75*
G02*
X300345600Y-182921600I-1000000J0D01*
G01*
%TO.C,U2*%
X283048400Y-209084400D02*
X283048400Y-210734400D01*
X303488400Y-209084400D02*
X283048400Y-209084400D01*
X303488400Y-214384400D02*
X303488400Y-209084400D01*
X283048400Y-214384400D02*
X303488400Y-214384400D01*
X283048400Y-212734400D02*
X283048400Y-214384400D01*
X283048400Y-210734400D02*
G75*
G02*
X283048400Y-212734400I0J-1000000D01*
G01*
%TO.C,U1*%
X282997600Y-220920800D02*
X282997600Y-222570800D01*
X303437600Y-220920800D02*
X282997600Y-220920800D01*
X303437600Y-226220800D02*
X303437600Y-220920800D01*
X282997600Y-226220800D02*
X303437600Y-226220800D01*
X282997600Y-224570800D02*
X282997600Y-226220800D01*
X282997600Y-222570800D02*
G75*
G02*
X282997600Y-224570800I0J-1000000D01*
G01*
%TO.C,R6*%
X338753200Y-252779200D02*
X338753200Y-252449200D01*
X332213200Y-252779200D02*
X338753200Y-252779200D01*
X332213200Y-252449200D02*
X332213200Y-252779200D01*
X338753200Y-250039200D02*
X338753200Y-250369200D01*
X332213200Y-250039200D02*
X338753200Y-250039200D01*
X332213200Y-250369200D02*
X332213200Y-250039200D01*
%TO.C,R5*%
X390975600Y-236167600D02*
X390975600Y-235837600D01*
X384435600Y-236167600D02*
X390975600Y-236167600D01*
X384435600Y-235837600D02*
X384435600Y-236167600D01*
X390975600Y-233427600D02*
X390975600Y-233757600D01*
X384435600Y-233427600D02*
X390975600Y-233427600D01*
X384435600Y-233757600D02*
X384435600Y-233427600D01*
%TO.C,R4*%
X397592800Y-233427600D02*
X397592800Y-233757600D01*
X404132800Y-233427600D02*
X397592800Y-233427600D01*
X404132800Y-233757600D02*
X404132800Y-233427600D01*
X397592800Y-236167600D02*
X397592800Y-235837600D01*
X404132800Y-236167600D02*
X397592800Y-236167600D01*
X404132800Y-235837600D02*
X404132800Y-236167600D01*
%TO.C,R3*%
X384435600Y-230125600D02*
X384435600Y-230455600D01*
X390975600Y-230125600D02*
X384435600Y-230125600D01*
X390975600Y-230455600D02*
X390975600Y-230125600D01*
X384435600Y-232865600D02*
X384435600Y-232535600D01*
X390975600Y-232865600D02*
X384435600Y-232865600D01*
X390975600Y-232535600D02*
X390975600Y-232865600D01*
%TO.C,R2*%
X332213200Y-253392000D02*
X332213200Y-253722000D01*
X338753200Y-253392000D02*
X332213200Y-253392000D01*
X338753200Y-253722000D02*
X338753200Y-253392000D01*
X332213200Y-256132000D02*
X332213200Y-255802000D01*
X338753200Y-256132000D02*
X332213200Y-256132000D01*
X338753200Y-255802000D02*
X338753200Y-256132000D01*
%TO.C,R1*%
X332213200Y-246737200D02*
X332213200Y-247067200D01*
X338753200Y-246737200D02*
X332213200Y-246737200D01*
X338753200Y-247067200D02*
X338753200Y-246737200D01*
X332213200Y-249477200D02*
X332213200Y-249147200D01*
X338753200Y-249477200D02*
X332213200Y-249477200D01*
X338753200Y-249147200D02*
X338753200Y-249477200D01*
%TO.C,J9*%
X418786000Y-206086400D02*
X420116000Y-206086400D01*
X418786000Y-207416400D02*
X418786000Y-206086400D01*
X418786000Y-208686400D02*
X421446000Y-208686400D01*
X421446000Y-208686400D02*
X421446000Y-218906400D01*
X418786000Y-208686400D02*
X418786000Y-218906400D01*
X418786000Y-218906400D02*
X421446000Y-218906400D01*
D14*
%TO.C,J8*%
X343431200Y-241945600D02*
X343431200Y-258165600D01*
X374271200Y-241945600D02*
X343431200Y-241945600D01*
X374271200Y-258165600D02*
X374271200Y-241945600D01*
X343431200Y-258165600D02*
X374271200Y-258165600D01*
D15*
X363411200Y-240945600D02*
G75*
G03*
X363411200Y-240945600I-100000J0D01*
G01*
D13*
%TO.C,J7*%
X365464400Y-236922000D02*
X365464400Y-238252000D01*
X364134400Y-236922000D02*
X365464400Y-236922000D01*
X362864400Y-236922000D02*
X362864400Y-239582000D01*
X362864400Y-239582000D02*
X352644400Y-239582000D01*
X362864400Y-236922000D02*
X352644400Y-236922000D01*
X352644400Y-236922000D02*
X352644400Y-239582000D01*
%TO.C,J6*%
X312106000Y-163483600D02*
X312106000Y-162153600D01*
X313436000Y-163483600D02*
X312106000Y-163483600D01*
X314706000Y-163483600D02*
X314706000Y-160823600D01*
X314706000Y-160823600D02*
X352866000Y-160823600D01*
X314706000Y-163483600D02*
X352866000Y-163483600D01*
X352866000Y-163483600D02*
X352866000Y-160823600D01*
%TO.C,J5*%
X418786000Y-221936000D02*
X420116000Y-221936000D01*
X418786000Y-223266000D02*
X418786000Y-221936000D01*
X418786000Y-224536000D02*
X421446000Y-224536000D01*
X421446000Y-224536000D02*
X421446000Y-227136000D01*
X418786000Y-224536000D02*
X418786000Y-227136000D01*
X418786000Y-227136000D02*
X421446000Y-227136000D01*
%TO.C,J4*%
X312106000Y-158403600D02*
X312106000Y-157073600D01*
X313436000Y-158403600D02*
X312106000Y-158403600D01*
X314706000Y-158403600D02*
X314706000Y-155743600D01*
X314706000Y-155743600D02*
X352866000Y-155743600D01*
X314706000Y-158403600D02*
X352866000Y-158403600D01*
X352866000Y-158403600D02*
X352866000Y-155743600D01*
%TO.C,J3*%
X312106000Y-160943600D02*
X312106000Y-159613600D01*
X313436000Y-160943600D02*
X312106000Y-160943600D01*
X314706000Y-160943600D02*
X314706000Y-158283600D01*
X314706000Y-158283600D02*
X352866000Y-158283600D01*
X314706000Y-160943600D02*
X352866000Y-160943600D01*
X352866000Y-160943600D02*
X352866000Y-158283600D01*
%TO.C,J2*%
X280864000Y-256193600D02*
X280864000Y-254863600D01*
X282194000Y-256193600D02*
X280864000Y-256193600D01*
X283464000Y-256193600D02*
X283464000Y-253533600D01*
X283464000Y-253533600D02*
X326704000Y-253533600D01*
X283464000Y-256193600D02*
X326704000Y-256193600D01*
X326704000Y-256193600D02*
X326704000Y-253533600D01*
%TO.C,J1*%
X283524000Y-251316800D02*
X282194000Y-251316800D01*
X283524000Y-249986800D02*
X283524000Y-251316800D01*
X283524000Y-248716800D02*
X280864000Y-248716800D01*
X280864000Y-248716800D02*
X280864000Y-238496800D01*
X283524000Y-248716800D02*
X283524000Y-238496800D01*
X283524000Y-238496800D02*
X280864000Y-238496800D01*
%TO.C,C3*%
X285099154Y-241430200D02*
X285099154Y-242430200D01*
X284599154Y-241930200D02*
X285599154Y-241930200D01*
X295159800Y-244206200D02*
X295159800Y-245404200D01*
X295119800Y-243943200D02*
X295119800Y-245667200D01*
X295079800Y-243743200D02*
X295079800Y-245867200D01*
X295039800Y-243575200D02*
X295039800Y-246035200D01*
X294999800Y-243427200D02*
X294999800Y-246183200D01*
X294959800Y-243295200D02*
X294959800Y-246315200D01*
X294919800Y-243175200D02*
X294919800Y-246435200D01*
X294879800Y-243063200D02*
X294879800Y-246547200D01*
X294839800Y-242959200D02*
X294839800Y-246651200D01*
X294799800Y-242861200D02*
X294799800Y-246749200D01*
X294759800Y-242768200D02*
X294759800Y-246842200D01*
X294719800Y-242680200D02*
X294719800Y-246930200D01*
X294679800Y-242596200D02*
X294679800Y-247014200D01*
X294639800Y-242516200D02*
X294639800Y-247094200D01*
X294599800Y-242440200D02*
X294599800Y-247170200D01*
X294559800Y-242366200D02*
X294559800Y-247244200D01*
X294519800Y-242295200D02*
X294519800Y-247315200D01*
X294479800Y-242226200D02*
X294479800Y-247384200D01*
X294439800Y-242160200D02*
X294439800Y-247450200D01*
X294399800Y-242096200D02*
X294399800Y-247514200D01*
X294359800Y-242035200D02*
X294359800Y-247575200D01*
X294319800Y-241975200D02*
X294319800Y-247635200D01*
X294279800Y-241916200D02*
X294279800Y-247694200D01*
X294239800Y-241860200D02*
X294239800Y-247750200D01*
X294199800Y-241805200D02*
X294199800Y-247805200D01*
X294159800Y-241751200D02*
X294159800Y-247859200D01*
X294119800Y-241699200D02*
X294119800Y-247911200D01*
X294079800Y-241649200D02*
X294079800Y-247961200D01*
X294039800Y-241599200D02*
X294039800Y-248011200D01*
X293999800Y-241551200D02*
X293999800Y-248059200D01*
X293959800Y-241504200D02*
X293959800Y-248106200D01*
X293919800Y-241458200D02*
X293919800Y-248152200D01*
X293879800Y-241413200D02*
X293879800Y-248197200D01*
X293839800Y-241369200D02*
X293839800Y-248241200D01*
X293799800Y-246046200D02*
X293799800Y-248283200D01*
X293799800Y-241327200D02*
X293799800Y-243564200D01*
X293759800Y-246046200D02*
X293759800Y-248325200D01*
X293759800Y-241285200D02*
X293759800Y-243564200D01*
X293719800Y-246046200D02*
X293719800Y-248366200D01*
X293719800Y-241244200D02*
X293719800Y-243564200D01*
X293679800Y-246046200D02*
X293679800Y-248406200D01*
X293679800Y-241204200D02*
X293679800Y-243564200D01*
X293639800Y-246046200D02*
X293639800Y-248445200D01*
X293639800Y-241165200D02*
X293639800Y-243564200D01*
X293599800Y-246046200D02*
X293599800Y-248484200D01*
X293599800Y-241126200D02*
X293599800Y-243564200D01*
X293559800Y-246046200D02*
X293559800Y-248521200D01*
X293559800Y-241089200D02*
X293559800Y-243564200D01*
X293519800Y-246046200D02*
X293519800Y-248558200D01*
X293519800Y-241052200D02*
X293519800Y-243564200D01*
X293479800Y-246046200D02*
X293479800Y-248594200D01*
X293479800Y-241016200D02*
X293479800Y-243564200D01*
X293439800Y-246046200D02*
X293439800Y-248629200D01*
X293439800Y-240981200D02*
X293439800Y-243564200D01*
X293399800Y-246046200D02*
X293399800Y-248663200D01*
X293399800Y-240947200D02*
X293399800Y-243564200D01*
X293359800Y-246046200D02*
X293359800Y-248697200D01*
X293359800Y-240913200D02*
X293359800Y-243564200D01*
X293319800Y-246046200D02*
X293319800Y-248730200D01*
X293319800Y-240880200D02*
X293319800Y-243564200D01*
X293279800Y-246046200D02*
X293279800Y-248762200D01*
X293279800Y-240848200D02*
X293279800Y-243564200D01*
X293239800Y-246046200D02*
X293239800Y-248794200D01*
X293239800Y-240816200D02*
X293239800Y-243564200D01*
X293199800Y-246046200D02*
X293199800Y-248825200D01*
X293199800Y-240785200D02*
X293199800Y-243564200D01*
X293159800Y-246046200D02*
X293159800Y-248855200D01*
X293159800Y-240755200D02*
X293159800Y-243564200D01*
X293119800Y-246046200D02*
X293119800Y-248885200D01*
X293119800Y-240725200D02*
X293119800Y-243564200D01*
X293079800Y-246046200D02*
X293079800Y-248915200D01*
X293079800Y-240695200D02*
X293079800Y-243564200D01*
X293039800Y-246046200D02*
X293039800Y-248943200D01*
X293039800Y-240667200D02*
X293039800Y-243564200D01*
X292999800Y-246046200D02*
X292999800Y-248971200D01*
X292999800Y-240639200D02*
X292999800Y-243564200D01*
X292959800Y-246046200D02*
X292959800Y-248999200D01*
X292959800Y-240611200D02*
X292959800Y-243564200D01*
X292919800Y-246046200D02*
X292919800Y-249026200D01*
X292919800Y-240584200D02*
X292919800Y-243564200D01*
X292879800Y-246046200D02*
X292879800Y-249052200D01*
X292879800Y-240558200D02*
X292879800Y-243564200D01*
X292839800Y-246046200D02*
X292839800Y-249078200D01*
X292839800Y-240532200D02*
X292839800Y-243564200D01*
X292799800Y-246046200D02*
X292799800Y-249103200D01*
X292799800Y-240507200D02*
X292799800Y-243564200D01*
X292759800Y-246046200D02*
X292759800Y-249128200D01*
X292759800Y-240482200D02*
X292759800Y-243564200D01*
X292719800Y-246046200D02*
X292719800Y-249152200D01*
X292719800Y-240458200D02*
X292719800Y-243564200D01*
X292679800Y-246046200D02*
X292679800Y-249176200D01*
X292679800Y-240434200D02*
X292679800Y-243564200D01*
X292639800Y-246046200D02*
X292639800Y-249200200D01*
X292639800Y-240410200D02*
X292639800Y-243564200D01*
X292599800Y-246046200D02*
X292599800Y-249222200D01*
X292599800Y-240388200D02*
X292599800Y-243564200D01*
X292559800Y-246046200D02*
X292559800Y-249245200D01*
X292559800Y-240365200D02*
X292559800Y-243564200D01*
X292519800Y-246046200D02*
X292519800Y-249267200D01*
X292519800Y-240343200D02*
X292519800Y-243564200D01*
X292479800Y-246046200D02*
X292479800Y-249288200D01*
X292479800Y-240322200D02*
X292479800Y-243564200D01*
X292439800Y-246046200D02*
X292439800Y-249309200D01*
X292439800Y-240301200D02*
X292439800Y-243564200D01*
X292399800Y-246046200D02*
X292399800Y-249330200D01*
X292399800Y-240280200D02*
X292399800Y-243564200D01*
X292359800Y-246046200D02*
X292359800Y-249350200D01*
X292359800Y-240260200D02*
X292359800Y-243564200D01*
X292319800Y-246046200D02*
X292319800Y-249369200D01*
X292319800Y-240241200D02*
X292319800Y-243564200D01*
X292279800Y-246046200D02*
X292279800Y-249389200D01*
X292279800Y-240221200D02*
X292279800Y-243564200D01*
X292239800Y-246046200D02*
X292239800Y-249408200D01*
X292239800Y-240202200D02*
X292239800Y-243564200D01*
X292199800Y-246046200D02*
X292199800Y-249426200D01*
X292199800Y-240184200D02*
X292199800Y-243564200D01*
X292159800Y-246046200D02*
X292159800Y-249444200D01*
X292159800Y-240166200D02*
X292159800Y-243564200D01*
X292119800Y-246046200D02*
X292119800Y-249462200D01*
X292119800Y-240148200D02*
X292119800Y-243564200D01*
X292079800Y-246046200D02*
X292079800Y-249479200D01*
X292079800Y-240131200D02*
X292079800Y-243564200D01*
X292039800Y-246046200D02*
X292039800Y-249495200D01*
X292039800Y-240115200D02*
X292039800Y-243564200D01*
X291999800Y-246046200D02*
X291999800Y-249512200D01*
X291999800Y-240098200D02*
X291999800Y-243564200D01*
X291959800Y-246046200D02*
X291959800Y-249528200D01*
X291959800Y-240082200D02*
X291959800Y-243564200D01*
X291919800Y-246046200D02*
X291919800Y-249543200D01*
X291919800Y-240067200D02*
X291919800Y-243564200D01*
X291879800Y-246046200D02*
X291879800Y-249559200D01*
X291879800Y-240051200D02*
X291879800Y-243564200D01*
X291839800Y-246046200D02*
X291839800Y-249573200D01*
X291839800Y-240037200D02*
X291839800Y-243564200D01*
X291799800Y-246046200D02*
X291799800Y-249588200D01*
X291799800Y-240022200D02*
X291799800Y-243564200D01*
X291759800Y-246046200D02*
X291759800Y-249602200D01*
X291759800Y-240008200D02*
X291759800Y-243564200D01*
X291719800Y-246046200D02*
X291719800Y-249616200D01*
X291719800Y-239994200D02*
X291719800Y-243564200D01*
X291679800Y-246046200D02*
X291679800Y-249629200D01*
X291679800Y-239981200D02*
X291679800Y-243564200D01*
X291639800Y-246046200D02*
X291639800Y-249642200D01*
X291639800Y-239968200D02*
X291639800Y-243564200D01*
X291599800Y-246046200D02*
X291599800Y-249655200D01*
X291599800Y-239955200D02*
X291599800Y-243564200D01*
X291559800Y-246046200D02*
X291559800Y-249667200D01*
X291559800Y-239943200D02*
X291559800Y-243564200D01*
X291519800Y-246046200D02*
X291519800Y-249679200D01*
X291519800Y-239931200D02*
X291519800Y-243564200D01*
X291479800Y-246046200D02*
X291479800Y-249690200D01*
X291479800Y-239920200D02*
X291479800Y-243564200D01*
X291439800Y-246046200D02*
X291439800Y-249702200D01*
X291439800Y-239908200D02*
X291439800Y-243564200D01*
X291399800Y-246046200D02*
X291399800Y-249712200D01*
X291399800Y-239898200D02*
X291399800Y-243564200D01*
X291359800Y-246046200D02*
X291359800Y-249723200D01*
X291359800Y-239887200D02*
X291359800Y-243564200D01*
X291319800Y-239877200D02*
X291319800Y-249733200D01*
X291279800Y-239867200D02*
X291279800Y-249743200D01*
X291239800Y-239858200D02*
X291239800Y-249752200D01*
X291199800Y-239849200D02*
X291199800Y-249761200D01*
X291159800Y-239840200D02*
X291159800Y-249770200D01*
X291119800Y-239831200D02*
X291119800Y-249779200D01*
X291079800Y-239823200D02*
X291079800Y-249787200D01*
X291039800Y-239815200D02*
X291039800Y-249795200D01*
X290999800Y-239808200D02*
X290999800Y-249802200D01*
X290959800Y-239801200D02*
X290959800Y-249809200D01*
X290919800Y-239794200D02*
X290919800Y-249816200D01*
X290879800Y-239787200D02*
X290879800Y-249823200D01*
X290839800Y-239781200D02*
X290839800Y-249829200D01*
X290799800Y-239775200D02*
X290799800Y-249835200D01*
X290758800Y-239770200D02*
X290758800Y-249840200D01*
X290718800Y-239765200D02*
X290718800Y-249845200D01*
X290678800Y-239760200D02*
X290678800Y-249850200D01*
X290638800Y-239755200D02*
X290638800Y-249855200D01*
X290598800Y-239751200D02*
X290598800Y-249859200D01*
X290558800Y-239747200D02*
X290558800Y-249863200D01*
X290518800Y-239743200D02*
X290518800Y-249867200D01*
X290478800Y-239740200D02*
X290478800Y-249870200D01*
X290438800Y-239737200D02*
X290438800Y-249873200D01*
X290398800Y-239735200D02*
X290398800Y-249875200D01*
X290358800Y-239732200D02*
X290358800Y-249878200D01*
X290318800Y-239730200D02*
X290318800Y-249880200D01*
X290278800Y-239728200D02*
X290278800Y-249882200D01*
X290238800Y-239727200D02*
X290238800Y-249883200D01*
X290198800Y-239726200D02*
X290198800Y-249884200D01*
X290158800Y-239725200D02*
X290158800Y-249885200D01*
X290118800Y-239725200D02*
X290118800Y-249885200D01*
X290078800Y-239725200D02*
X290078800Y-249885200D01*
X295198800Y-244805200D02*
G75*
G03*
X295198800Y-244805200I-5120000J0D01*
G01*
%TO.C,C2*%
X357793954Y-155984600D02*
X357793954Y-156984600D01*
X357293954Y-156484600D02*
X358293954Y-156484600D01*
X367854600Y-158760600D02*
X367854600Y-159958600D01*
X367814600Y-158497600D02*
X367814600Y-160221600D01*
X367774600Y-158297600D02*
X367774600Y-160421600D01*
X367734600Y-158129600D02*
X367734600Y-160589600D01*
X367694600Y-157981600D02*
X367694600Y-160737600D01*
X367654600Y-157849600D02*
X367654600Y-160869600D01*
X367614600Y-157729600D02*
X367614600Y-160989600D01*
X367574600Y-157617600D02*
X367574600Y-161101600D01*
X367534600Y-157513600D02*
X367534600Y-161205600D01*
X367494600Y-157415600D02*
X367494600Y-161303600D01*
X367454600Y-157322600D02*
X367454600Y-161396600D01*
X367414600Y-157234600D02*
X367414600Y-161484600D01*
X367374600Y-157150600D02*
X367374600Y-161568600D01*
X367334600Y-157070600D02*
X367334600Y-161648600D01*
X367294600Y-156994600D02*
X367294600Y-161724600D01*
X367254600Y-156920600D02*
X367254600Y-161798600D01*
X367214600Y-156849600D02*
X367214600Y-161869600D01*
X367174600Y-156780600D02*
X367174600Y-161938600D01*
X367134600Y-156714600D02*
X367134600Y-162004600D01*
X367094600Y-156650600D02*
X367094600Y-162068600D01*
X367054600Y-156589600D02*
X367054600Y-162129600D01*
X367014600Y-156529600D02*
X367014600Y-162189600D01*
X366974600Y-156470600D02*
X366974600Y-162248600D01*
X366934600Y-156414600D02*
X366934600Y-162304600D01*
X366894600Y-156359600D02*
X366894600Y-162359600D01*
X366854600Y-156305600D02*
X366854600Y-162413600D01*
X366814600Y-156253600D02*
X366814600Y-162465600D01*
X366774600Y-156203600D02*
X366774600Y-162515600D01*
X366734600Y-156153600D02*
X366734600Y-162565600D01*
X366694600Y-156105600D02*
X366694600Y-162613600D01*
X366654600Y-156058600D02*
X366654600Y-162660600D01*
X366614600Y-156012600D02*
X366614600Y-162706600D01*
X366574600Y-155967600D02*
X366574600Y-162751600D01*
X366534600Y-155923600D02*
X366534600Y-162795600D01*
X366494600Y-160600600D02*
X366494600Y-162837600D01*
X366494600Y-155881600D02*
X366494600Y-158118600D01*
X366454600Y-160600600D02*
X366454600Y-162879600D01*
X366454600Y-155839600D02*
X366454600Y-158118600D01*
X366414600Y-160600600D02*
X366414600Y-162920600D01*
X366414600Y-155798600D02*
X366414600Y-158118600D01*
X366374600Y-160600600D02*
X366374600Y-162960600D01*
X366374600Y-155758600D02*
X366374600Y-158118600D01*
X366334600Y-160600600D02*
X366334600Y-162999600D01*
X366334600Y-155719600D02*
X366334600Y-158118600D01*
X366294600Y-160600600D02*
X366294600Y-163038600D01*
X366294600Y-155680600D02*
X366294600Y-158118600D01*
X366254600Y-160600600D02*
X366254600Y-163075600D01*
X366254600Y-155643600D02*
X366254600Y-158118600D01*
X366214600Y-160600600D02*
X366214600Y-163112600D01*
X366214600Y-155606600D02*
X366214600Y-158118600D01*
X366174600Y-160600600D02*
X366174600Y-163148600D01*
X366174600Y-155570600D02*
X366174600Y-158118600D01*
X366134600Y-160600600D02*
X366134600Y-163183600D01*
X366134600Y-155535600D02*
X366134600Y-158118600D01*
X366094600Y-160600600D02*
X366094600Y-163217600D01*
X366094600Y-155501600D02*
X366094600Y-158118600D01*
X366054600Y-160600600D02*
X366054600Y-163251600D01*
X366054600Y-155467600D02*
X366054600Y-158118600D01*
X366014600Y-160600600D02*
X366014600Y-163284600D01*
X366014600Y-155434600D02*
X366014600Y-158118600D01*
X365974600Y-160600600D02*
X365974600Y-163316600D01*
X365974600Y-155402600D02*
X365974600Y-158118600D01*
X365934600Y-160600600D02*
X365934600Y-163348600D01*
X365934600Y-155370600D02*
X365934600Y-158118600D01*
X365894600Y-160600600D02*
X365894600Y-163379600D01*
X365894600Y-155339600D02*
X365894600Y-158118600D01*
X365854600Y-160600600D02*
X365854600Y-163409600D01*
X365854600Y-155309600D02*
X365854600Y-158118600D01*
X365814600Y-160600600D02*
X365814600Y-163439600D01*
X365814600Y-155279600D02*
X365814600Y-158118600D01*
X365774600Y-160600600D02*
X365774600Y-163469600D01*
X365774600Y-155249600D02*
X365774600Y-158118600D01*
X365734600Y-160600600D02*
X365734600Y-163497600D01*
X365734600Y-155221600D02*
X365734600Y-158118600D01*
X365694600Y-160600600D02*
X365694600Y-163525600D01*
X365694600Y-155193600D02*
X365694600Y-158118600D01*
X365654600Y-160600600D02*
X365654600Y-163553600D01*
X365654600Y-155165600D02*
X365654600Y-158118600D01*
X365614600Y-160600600D02*
X365614600Y-163580600D01*
X365614600Y-155138600D02*
X365614600Y-158118600D01*
X365574600Y-160600600D02*
X365574600Y-163606600D01*
X365574600Y-155112600D02*
X365574600Y-158118600D01*
X365534600Y-160600600D02*
X365534600Y-163632600D01*
X365534600Y-155086600D02*
X365534600Y-158118600D01*
X365494600Y-160600600D02*
X365494600Y-163657600D01*
X365494600Y-155061600D02*
X365494600Y-158118600D01*
X365454600Y-160600600D02*
X365454600Y-163682600D01*
X365454600Y-155036600D02*
X365454600Y-158118600D01*
X365414600Y-160600600D02*
X365414600Y-163706600D01*
X365414600Y-155012600D02*
X365414600Y-158118600D01*
X365374600Y-160600600D02*
X365374600Y-163730600D01*
X365374600Y-154988600D02*
X365374600Y-158118600D01*
X365334600Y-160600600D02*
X365334600Y-163754600D01*
X365334600Y-154964600D02*
X365334600Y-158118600D01*
X365294600Y-160600600D02*
X365294600Y-163776600D01*
X365294600Y-154942600D02*
X365294600Y-158118600D01*
X365254600Y-160600600D02*
X365254600Y-163799600D01*
X365254600Y-154919600D02*
X365254600Y-158118600D01*
X365214600Y-160600600D02*
X365214600Y-163821600D01*
X365214600Y-154897600D02*
X365214600Y-158118600D01*
X365174600Y-160600600D02*
X365174600Y-163842600D01*
X365174600Y-154876600D02*
X365174600Y-158118600D01*
X365134600Y-160600600D02*
X365134600Y-163863600D01*
X365134600Y-154855600D02*
X365134600Y-158118600D01*
X365094600Y-160600600D02*
X365094600Y-163884600D01*
X365094600Y-154834600D02*
X365094600Y-158118600D01*
X365054600Y-160600600D02*
X365054600Y-163904600D01*
X365054600Y-154814600D02*
X365054600Y-158118600D01*
X365014600Y-160600600D02*
X365014600Y-163923600D01*
X365014600Y-154795600D02*
X365014600Y-158118600D01*
X364974600Y-160600600D02*
X364974600Y-163943600D01*
X364974600Y-154775600D02*
X364974600Y-158118600D01*
X364934600Y-160600600D02*
X364934600Y-163962600D01*
X364934600Y-154756600D02*
X364934600Y-158118600D01*
X364894600Y-160600600D02*
X364894600Y-163980600D01*
X364894600Y-154738600D02*
X364894600Y-158118600D01*
X364854600Y-160600600D02*
X364854600Y-163998600D01*
X364854600Y-154720600D02*
X364854600Y-158118600D01*
X364814600Y-160600600D02*
X364814600Y-164016600D01*
X364814600Y-154702600D02*
X364814600Y-158118600D01*
X364774600Y-160600600D02*
X364774600Y-164033600D01*
X364774600Y-154685600D02*
X364774600Y-158118600D01*
X364734600Y-160600600D02*
X364734600Y-164049600D01*
X364734600Y-154669600D02*
X364734600Y-158118600D01*
X364694600Y-160600600D02*
X364694600Y-164066600D01*
X364694600Y-154652600D02*
X364694600Y-158118600D01*
X364654600Y-160600600D02*
X364654600Y-164082600D01*
X364654600Y-154636600D02*
X364654600Y-158118600D01*
X364614600Y-160600600D02*
X364614600Y-164097600D01*
X364614600Y-154621600D02*
X364614600Y-158118600D01*
X364574600Y-160600600D02*
X364574600Y-164113600D01*
X364574600Y-154605600D02*
X364574600Y-158118600D01*
X364534600Y-160600600D02*
X364534600Y-164127600D01*
X364534600Y-154591600D02*
X364534600Y-158118600D01*
X364494600Y-160600600D02*
X364494600Y-164142600D01*
X364494600Y-154576600D02*
X364494600Y-158118600D01*
X364454600Y-160600600D02*
X364454600Y-164156600D01*
X364454600Y-154562600D02*
X364454600Y-158118600D01*
X364414600Y-160600600D02*
X364414600Y-164170600D01*
X364414600Y-154548600D02*
X364414600Y-158118600D01*
X364374600Y-160600600D02*
X364374600Y-164183600D01*
X364374600Y-154535600D02*
X364374600Y-158118600D01*
X364334600Y-160600600D02*
X364334600Y-164196600D01*
X364334600Y-154522600D02*
X364334600Y-158118600D01*
X364294600Y-160600600D02*
X364294600Y-164209600D01*
X364294600Y-154509600D02*
X364294600Y-158118600D01*
X364254600Y-160600600D02*
X364254600Y-164221600D01*
X364254600Y-154497600D02*
X364254600Y-158118600D01*
X364214600Y-160600600D02*
X364214600Y-164233600D01*
X364214600Y-154485600D02*
X364214600Y-158118600D01*
X364174600Y-160600600D02*
X364174600Y-164244600D01*
X364174600Y-154474600D02*
X364174600Y-158118600D01*
X364134600Y-160600600D02*
X364134600Y-164256600D01*
X364134600Y-154462600D02*
X364134600Y-158118600D01*
X364094600Y-160600600D02*
X364094600Y-164266600D01*
X364094600Y-154452600D02*
X364094600Y-158118600D01*
X364054600Y-160600600D02*
X364054600Y-164277600D01*
X364054600Y-154441600D02*
X364054600Y-158118600D01*
X364014600Y-154431600D02*
X364014600Y-164287600D01*
X363974600Y-154421600D02*
X363974600Y-164297600D01*
X363934600Y-154412600D02*
X363934600Y-164306600D01*
X363894600Y-154403600D02*
X363894600Y-164315600D01*
X363854600Y-154394600D02*
X363854600Y-164324600D01*
X363814600Y-154385600D02*
X363814600Y-164333600D01*
X363774600Y-154377600D02*
X363774600Y-164341600D01*
X363734600Y-154369600D02*
X363734600Y-164349600D01*
X363694600Y-154362600D02*
X363694600Y-164356600D01*
X363654600Y-154355600D02*
X363654600Y-164363600D01*
X363614600Y-154348600D02*
X363614600Y-164370600D01*
X363574600Y-154341600D02*
X363574600Y-164377600D01*
X363534600Y-154335600D02*
X363534600Y-164383600D01*
X363494600Y-154329600D02*
X363494600Y-164389600D01*
X363453600Y-154324600D02*
X363453600Y-164394600D01*
X363413600Y-154319600D02*
X363413600Y-164399600D01*
X363373600Y-154314600D02*
X363373600Y-164404600D01*
X363333600Y-154309600D02*
X363333600Y-164409600D01*
X363293600Y-154305600D02*
X363293600Y-164413600D01*
X363253600Y-154301600D02*
X363253600Y-164417600D01*
X363213600Y-154297600D02*
X363213600Y-164421600D01*
X363173600Y-154294600D02*
X363173600Y-164424600D01*
X363133600Y-154291600D02*
X363133600Y-164427600D01*
X363093600Y-154289600D02*
X363093600Y-164429600D01*
X363053600Y-154286600D02*
X363053600Y-164432600D01*
X363013600Y-154284600D02*
X363013600Y-164434600D01*
X362973600Y-154282600D02*
X362973600Y-164436600D01*
X362933600Y-154281600D02*
X362933600Y-164437600D01*
X362893600Y-154280600D02*
X362893600Y-164438600D01*
X362853600Y-154279600D02*
X362853600Y-164439600D01*
X362813600Y-154279600D02*
X362813600Y-164439600D01*
X362773600Y-154279600D02*
X362773600Y-164439600D01*
X367893600Y-159359600D02*
G75*
G03*
X367893600Y-159359600I-5120000J0D01*
G01*
%TO.C,C1*%
X282406754Y-157711800D02*
X282406754Y-158711800D01*
X281906754Y-158211800D02*
X282906754Y-158211800D01*
X292467400Y-160487800D02*
X292467400Y-161685800D01*
X292427400Y-160224800D02*
X292427400Y-161948800D01*
X292387400Y-160024800D02*
X292387400Y-162148800D01*
X292347400Y-159856800D02*
X292347400Y-162316800D01*
X292307400Y-159708800D02*
X292307400Y-162464800D01*
X292267400Y-159576800D02*
X292267400Y-162596800D01*
X292227400Y-159456800D02*
X292227400Y-162716800D01*
X292187400Y-159344800D02*
X292187400Y-162828800D01*
X292147400Y-159240800D02*
X292147400Y-162932800D01*
X292107400Y-159142800D02*
X292107400Y-163030800D01*
X292067400Y-159049800D02*
X292067400Y-163123800D01*
X292027400Y-158961800D02*
X292027400Y-163211800D01*
X291987400Y-158877800D02*
X291987400Y-163295800D01*
X291947400Y-158797800D02*
X291947400Y-163375800D01*
X291907400Y-158721800D02*
X291907400Y-163451800D01*
X291867400Y-158647800D02*
X291867400Y-163525800D01*
X291827400Y-158576800D02*
X291827400Y-163596800D01*
X291787400Y-158507800D02*
X291787400Y-163665800D01*
X291747400Y-158441800D02*
X291747400Y-163731800D01*
X291707400Y-158377800D02*
X291707400Y-163795800D01*
X291667400Y-158316800D02*
X291667400Y-163856800D01*
X291627400Y-158256800D02*
X291627400Y-163916800D01*
X291587400Y-158197800D02*
X291587400Y-163975800D01*
X291547400Y-158141800D02*
X291547400Y-164031800D01*
X291507400Y-158086800D02*
X291507400Y-164086800D01*
X291467400Y-158032800D02*
X291467400Y-164140800D01*
X291427400Y-157980800D02*
X291427400Y-164192800D01*
X291387400Y-157930800D02*
X291387400Y-164242800D01*
X291347400Y-157880800D02*
X291347400Y-164292800D01*
X291307400Y-157832800D02*
X291307400Y-164340800D01*
X291267400Y-157785800D02*
X291267400Y-164387800D01*
X291227400Y-157739800D02*
X291227400Y-164433800D01*
X291187400Y-157694800D02*
X291187400Y-164478800D01*
X291147400Y-157650800D02*
X291147400Y-164522800D01*
X291107400Y-162327800D02*
X291107400Y-164564800D01*
X291107400Y-157608800D02*
X291107400Y-159845800D01*
X291067400Y-162327800D02*
X291067400Y-164606800D01*
X291067400Y-157566800D02*
X291067400Y-159845800D01*
X291027400Y-162327800D02*
X291027400Y-164647800D01*
X291027400Y-157525800D02*
X291027400Y-159845800D01*
X290987400Y-162327800D02*
X290987400Y-164687800D01*
X290987400Y-157485800D02*
X290987400Y-159845800D01*
X290947400Y-162327800D02*
X290947400Y-164726800D01*
X290947400Y-157446800D02*
X290947400Y-159845800D01*
X290907400Y-162327800D02*
X290907400Y-164765800D01*
X290907400Y-157407800D02*
X290907400Y-159845800D01*
X290867400Y-162327800D02*
X290867400Y-164802800D01*
X290867400Y-157370800D02*
X290867400Y-159845800D01*
X290827400Y-162327800D02*
X290827400Y-164839800D01*
X290827400Y-157333800D02*
X290827400Y-159845800D01*
X290787400Y-162327800D02*
X290787400Y-164875800D01*
X290787400Y-157297800D02*
X290787400Y-159845800D01*
X290747400Y-162327800D02*
X290747400Y-164910800D01*
X290747400Y-157262800D02*
X290747400Y-159845800D01*
X290707400Y-162327800D02*
X290707400Y-164944800D01*
X290707400Y-157228800D02*
X290707400Y-159845800D01*
X290667400Y-162327800D02*
X290667400Y-164978800D01*
X290667400Y-157194800D02*
X290667400Y-159845800D01*
X290627400Y-162327800D02*
X290627400Y-165011800D01*
X290627400Y-157161800D02*
X290627400Y-159845800D01*
X290587400Y-162327800D02*
X290587400Y-165043800D01*
X290587400Y-157129800D02*
X290587400Y-159845800D01*
X290547400Y-162327800D02*
X290547400Y-165075800D01*
X290547400Y-157097800D02*
X290547400Y-159845800D01*
X290507400Y-162327800D02*
X290507400Y-165106800D01*
X290507400Y-157066800D02*
X290507400Y-159845800D01*
X290467400Y-162327800D02*
X290467400Y-165136800D01*
X290467400Y-157036800D02*
X290467400Y-159845800D01*
X290427400Y-162327800D02*
X290427400Y-165166800D01*
X290427400Y-157006800D02*
X290427400Y-159845800D01*
X290387400Y-162327800D02*
X290387400Y-165196800D01*
X290387400Y-156976800D02*
X290387400Y-159845800D01*
X290347400Y-162327800D02*
X290347400Y-165224800D01*
X290347400Y-156948800D02*
X290347400Y-159845800D01*
X290307400Y-162327800D02*
X290307400Y-165252800D01*
X290307400Y-156920800D02*
X290307400Y-159845800D01*
X290267400Y-162327800D02*
X290267400Y-165280800D01*
X290267400Y-156892800D02*
X290267400Y-159845800D01*
X290227400Y-162327800D02*
X290227400Y-165307800D01*
X290227400Y-156865800D02*
X290227400Y-159845800D01*
X290187400Y-162327800D02*
X290187400Y-165333800D01*
X290187400Y-156839800D02*
X290187400Y-159845800D01*
X290147400Y-162327800D02*
X290147400Y-165359800D01*
X290147400Y-156813800D02*
X290147400Y-159845800D01*
X290107400Y-162327800D02*
X290107400Y-165384800D01*
X290107400Y-156788800D02*
X290107400Y-159845800D01*
X290067400Y-162327800D02*
X290067400Y-165409800D01*
X290067400Y-156763800D02*
X290067400Y-159845800D01*
X290027400Y-162327800D02*
X290027400Y-165433800D01*
X290027400Y-156739800D02*
X290027400Y-159845800D01*
X289987400Y-162327800D02*
X289987400Y-165457800D01*
X289987400Y-156715800D02*
X289987400Y-159845800D01*
X289947400Y-162327800D02*
X289947400Y-165481800D01*
X289947400Y-156691800D02*
X289947400Y-159845800D01*
X289907400Y-162327800D02*
X289907400Y-165503800D01*
X289907400Y-156669800D02*
X289907400Y-159845800D01*
X289867400Y-162327800D02*
X289867400Y-165526800D01*
X289867400Y-156646800D02*
X289867400Y-159845800D01*
X289827400Y-162327800D02*
X289827400Y-165548800D01*
X289827400Y-156624800D02*
X289827400Y-159845800D01*
X289787400Y-162327800D02*
X289787400Y-165569800D01*
X289787400Y-156603800D02*
X289787400Y-159845800D01*
X289747400Y-162327800D02*
X289747400Y-165590800D01*
X289747400Y-156582800D02*
X289747400Y-159845800D01*
X289707400Y-162327800D02*
X289707400Y-165611800D01*
X289707400Y-156561800D02*
X289707400Y-159845800D01*
X289667400Y-162327800D02*
X289667400Y-165631800D01*
X289667400Y-156541800D02*
X289667400Y-159845800D01*
X289627400Y-162327800D02*
X289627400Y-165650800D01*
X289627400Y-156522800D02*
X289627400Y-159845800D01*
X289587400Y-162327800D02*
X289587400Y-165670800D01*
X289587400Y-156502800D02*
X289587400Y-159845800D01*
X289547400Y-162327800D02*
X289547400Y-165689800D01*
X289547400Y-156483800D02*
X289547400Y-159845800D01*
X289507400Y-162327800D02*
X289507400Y-165707800D01*
X289507400Y-156465800D02*
X289507400Y-159845800D01*
X289467400Y-162327800D02*
X289467400Y-165725800D01*
X289467400Y-156447800D02*
X289467400Y-159845800D01*
X289427400Y-162327800D02*
X289427400Y-165743800D01*
X289427400Y-156429800D02*
X289427400Y-159845800D01*
X289387400Y-162327800D02*
X289387400Y-165760800D01*
X289387400Y-156412800D02*
X289387400Y-159845800D01*
X289347400Y-162327800D02*
X289347400Y-165776800D01*
X289347400Y-156396800D02*
X289347400Y-159845800D01*
X289307400Y-162327800D02*
X289307400Y-165793800D01*
X289307400Y-156379800D02*
X289307400Y-159845800D01*
X289267400Y-162327800D02*
X289267400Y-165809800D01*
X289267400Y-156363800D02*
X289267400Y-159845800D01*
X289227400Y-162327800D02*
X289227400Y-165824800D01*
X289227400Y-156348800D02*
X289227400Y-159845800D01*
X289187400Y-162327800D02*
X289187400Y-165840800D01*
X289187400Y-156332800D02*
X289187400Y-159845800D01*
X289147400Y-162327800D02*
X289147400Y-165854800D01*
X289147400Y-156318800D02*
X289147400Y-159845800D01*
X289107400Y-162327800D02*
X289107400Y-165869800D01*
X289107400Y-156303800D02*
X289107400Y-159845800D01*
X289067400Y-162327800D02*
X289067400Y-165883800D01*
X289067400Y-156289800D02*
X289067400Y-159845800D01*
X289027400Y-162327800D02*
X289027400Y-165897800D01*
X289027400Y-156275800D02*
X289027400Y-159845800D01*
X288987400Y-162327800D02*
X288987400Y-165910800D01*
X288987400Y-156262800D02*
X288987400Y-159845800D01*
X288947400Y-162327800D02*
X288947400Y-165923800D01*
X288947400Y-156249800D02*
X288947400Y-159845800D01*
X288907400Y-162327800D02*
X288907400Y-165936800D01*
X288907400Y-156236800D02*
X288907400Y-159845800D01*
X288867400Y-162327800D02*
X288867400Y-165948800D01*
X288867400Y-156224800D02*
X288867400Y-159845800D01*
X288827400Y-162327800D02*
X288827400Y-165960800D01*
X288827400Y-156212800D02*
X288827400Y-159845800D01*
X288787400Y-162327800D02*
X288787400Y-165971800D01*
X288787400Y-156201800D02*
X288787400Y-159845800D01*
X288747400Y-162327800D02*
X288747400Y-165983800D01*
X288747400Y-156189800D02*
X288747400Y-159845800D01*
X288707400Y-162327800D02*
X288707400Y-165993800D01*
X288707400Y-156179800D02*
X288707400Y-159845800D01*
X288667400Y-162327800D02*
X288667400Y-166004800D01*
X288667400Y-156168800D02*
X288667400Y-159845800D01*
X288627400Y-156158800D02*
X288627400Y-166014800D01*
X288587400Y-156148800D02*
X288587400Y-166024800D01*
X288547400Y-156139800D02*
X288547400Y-166033800D01*
X288507400Y-156130800D02*
X288507400Y-166042800D01*
X288467400Y-156121800D02*
X288467400Y-166051800D01*
X288427400Y-156112800D02*
X288427400Y-166060800D01*
X288387400Y-156104800D02*
X288387400Y-166068800D01*
X288347400Y-156096800D02*
X288347400Y-166076800D01*
X288307400Y-156089800D02*
X288307400Y-166083800D01*
X288267400Y-156082800D02*
X288267400Y-166090800D01*
X288227400Y-156075800D02*
X288227400Y-166097800D01*
X288187400Y-156068800D02*
X288187400Y-166104800D01*
X288147400Y-156062800D02*
X288147400Y-166110800D01*
X288107400Y-156056800D02*
X288107400Y-166116800D01*
X288066400Y-156051800D02*
X288066400Y-166121800D01*
X288026400Y-156046800D02*
X288026400Y-166126800D01*
X287986400Y-156041800D02*
X287986400Y-166131800D01*
X287946400Y-156036800D02*
X287946400Y-166136800D01*
X287906400Y-156032800D02*
X287906400Y-166140800D01*
X287866400Y-156028800D02*
X287866400Y-166144800D01*
X287826400Y-156024800D02*
X287826400Y-166148800D01*
X287786400Y-156021800D02*
X287786400Y-166151800D01*
X287746400Y-156018800D02*
X287746400Y-166154800D01*
X287706400Y-156016800D02*
X287706400Y-166156800D01*
X287666400Y-156013800D02*
X287666400Y-166159800D01*
X287626400Y-156011800D02*
X287626400Y-166161800D01*
X287586400Y-156009800D02*
X287586400Y-166163800D01*
X287546400Y-156008800D02*
X287546400Y-166164800D01*
X287506400Y-156007800D02*
X287506400Y-166165800D01*
X287466400Y-156006800D02*
X287466400Y-166166800D01*
X287426400Y-156006800D02*
X287426400Y-166166800D01*
X287386400Y-156006800D02*
X287386400Y-166166800D01*
X292506400Y-161086800D02*
G75*
G03*
X292506400Y-161086800I-5120000J0D01*
G01*
%TO.C,X1*%
D10*
X288750476Y-185143980D02*
X289417142Y-186143980D01*
X289417142Y-185143980D02*
X288750476Y-186143980D01*
X290321904Y-186143980D02*
X289750476Y-186143980D01*
X290036190Y-186143980D02*
X290036190Y-185143980D01*
X289940952Y-185286838D01*
X289845714Y-185382076D01*
X289750476Y-185429695D01*
%TO.C,U27*%
X411054704Y-204284780D02*
X411054704Y-205094304D01*
X411102323Y-205189542D01*
X411149942Y-205237161D01*
X411245180Y-205284780D01*
X411435657Y-205284780D01*
X411530895Y-205237161D01*
X411578514Y-205189542D01*
X411626133Y-205094304D01*
X411626133Y-204284780D01*
X412054704Y-204380019D02*
X412102323Y-204332400D01*
X412197561Y-204284780D01*
X412435657Y-204284780D01*
X412530895Y-204332400D01*
X412578514Y-204380019D01*
X412626133Y-204475257D01*
X412626133Y-204570495D01*
X412578514Y-204713352D01*
X412007085Y-205284780D01*
X412626133Y-205284780D01*
X412959466Y-204284780D02*
X413626133Y-204284780D01*
X413197561Y-205284780D01*
%TO.C,U26*%
X411003904Y-176801980D02*
X411003904Y-177611504D01*
X411051523Y-177706742D01*
X411099142Y-177754361D01*
X411194380Y-177801980D01*
X411384857Y-177801980D01*
X411480095Y-177754361D01*
X411527714Y-177706742D01*
X411575333Y-177611504D01*
X411575333Y-176801980D01*
X412003904Y-176897219D02*
X412051523Y-176849600D01*
X412146761Y-176801980D01*
X412384857Y-176801980D01*
X412480095Y-176849600D01*
X412527714Y-176897219D01*
X412575333Y-176992457D01*
X412575333Y-177087695D01*
X412527714Y-177230552D01*
X411956285Y-177801980D01*
X412575333Y-177801980D01*
X413432476Y-176801980D02*
X413242000Y-176801980D01*
X413146761Y-176849600D01*
X413099142Y-176897219D01*
X413003904Y-177040076D01*
X412956285Y-177230552D01*
X412956285Y-177611504D01*
X413003904Y-177706742D01*
X413051523Y-177754361D01*
X413146761Y-177801980D01*
X413337238Y-177801980D01*
X413432476Y-177754361D01*
X413480095Y-177706742D01*
X413527714Y-177611504D01*
X413527714Y-177373409D01*
X413480095Y-177278171D01*
X413432476Y-177230552D01*
X413337238Y-177182933D01*
X413146761Y-177182933D01*
X413051523Y-177230552D01*
X413003904Y-177278171D01*
X412956285Y-177373409D01*
%TO.C,U25*%
X399472304Y-204233980D02*
X399472304Y-205043504D01*
X399519923Y-205138742D01*
X399567542Y-205186361D01*
X399662780Y-205233980D01*
X399853257Y-205233980D01*
X399948495Y-205186361D01*
X399996114Y-205138742D01*
X400043733Y-205043504D01*
X400043733Y-204233980D01*
X400472304Y-204329219D02*
X400519923Y-204281600D01*
X400615161Y-204233980D01*
X400853257Y-204233980D01*
X400948495Y-204281600D01*
X400996114Y-204329219D01*
X401043733Y-204424457D01*
X401043733Y-204519695D01*
X400996114Y-204662552D01*
X400424685Y-205233980D01*
X401043733Y-205233980D01*
X401948495Y-204233980D02*
X401472304Y-204233980D01*
X401424685Y-204710171D01*
X401472304Y-204662552D01*
X401567542Y-204614933D01*
X401805638Y-204614933D01*
X401900876Y-204662552D01*
X401948495Y-204710171D01*
X401996114Y-204805409D01*
X401996114Y-205043504D01*
X401948495Y-205138742D01*
X401900876Y-205186361D01*
X401805638Y-205233980D01*
X401567542Y-205233980D01*
X401472304Y-205186361D01*
X401424685Y-205138742D01*
%TO.C,U24*%
X399319904Y-176700380D02*
X399319904Y-177509904D01*
X399367523Y-177605142D01*
X399415142Y-177652761D01*
X399510380Y-177700380D01*
X399700857Y-177700380D01*
X399796095Y-177652761D01*
X399843714Y-177605142D01*
X399891333Y-177509904D01*
X399891333Y-176700380D01*
X400319904Y-176795619D02*
X400367523Y-176748000D01*
X400462761Y-176700380D01*
X400700857Y-176700380D01*
X400796095Y-176748000D01*
X400843714Y-176795619D01*
X400891333Y-176890857D01*
X400891333Y-176986095D01*
X400843714Y-177128952D01*
X400272285Y-177700380D01*
X400891333Y-177700380D01*
X401748476Y-177033714D02*
X401748476Y-177700380D01*
X401510380Y-176652761D02*
X401272285Y-177367047D01*
X401891333Y-177367047D01*
%TO.C,U23*%
X424031980Y-165728495D02*
X424841504Y-165728495D01*
X424936742Y-165680876D01*
X424984361Y-165633257D01*
X425031980Y-165538019D01*
X425031980Y-165347542D01*
X424984361Y-165252304D01*
X424936742Y-165204685D01*
X424841504Y-165157066D01*
X424031980Y-165157066D01*
X424127219Y-164728495D02*
X424079600Y-164680876D01*
X424031980Y-164585638D01*
X424031980Y-164347542D01*
X424079600Y-164252304D01*
X424127219Y-164204685D01*
X424222457Y-164157066D01*
X424317695Y-164157066D01*
X424460552Y-164204685D01*
X425031980Y-164776114D01*
X425031980Y-164157066D01*
X424031980Y-163823733D02*
X424031980Y-163204685D01*
X424412933Y-163538019D01*
X424412933Y-163395161D01*
X424460552Y-163299923D01*
X424508171Y-163252304D01*
X424603409Y-163204685D01*
X424841504Y-163204685D01*
X424936742Y-163252304D01*
X424984361Y-163299923D01*
X425031980Y-163395161D01*
X425031980Y-163680876D01*
X424984361Y-163776114D01*
X424936742Y-163823733D01*
%TO.C,U22*%
X383419504Y-181323180D02*
X383419504Y-182132704D01*
X383467123Y-182227942D01*
X383514742Y-182275561D01*
X383609980Y-182323180D01*
X383800457Y-182323180D01*
X383895695Y-182275561D01*
X383943314Y-182227942D01*
X383990933Y-182132704D01*
X383990933Y-181323180D01*
X384419504Y-181418419D02*
X384467123Y-181370800D01*
X384562361Y-181323180D01*
X384800457Y-181323180D01*
X384895695Y-181370800D01*
X384943314Y-181418419D01*
X384990933Y-181513657D01*
X384990933Y-181608895D01*
X384943314Y-181751752D01*
X384371885Y-182323180D01*
X384990933Y-182323180D01*
X385371885Y-181418419D02*
X385419504Y-181370800D01*
X385514742Y-181323180D01*
X385752838Y-181323180D01*
X385848076Y-181370800D01*
X385895695Y-181418419D01*
X385943314Y-181513657D01*
X385943314Y-181608895D01*
X385895695Y-181751752D01*
X385324266Y-182323180D01*
X385943314Y-182323180D01*
%TO.C,U21*%
X380509980Y-249040495D02*
X381319504Y-249040495D01*
X381414742Y-248992876D01*
X381462361Y-248945257D01*
X381509980Y-248850019D01*
X381509980Y-248659542D01*
X381462361Y-248564304D01*
X381414742Y-248516685D01*
X381319504Y-248469066D01*
X380509980Y-248469066D01*
X380605219Y-248040495D02*
X380557600Y-247992876D01*
X380509980Y-247897638D01*
X380509980Y-247659542D01*
X380557600Y-247564304D01*
X380605219Y-247516685D01*
X380700457Y-247469066D01*
X380795695Y-247469066D01*
X380938552Y-247516685D01*
X381509980Y-248088114D01*
X381509980Y-247469066D01*
X381509980Y-246516685D02*
X381509980Y-247088114D01*
X381509980Y-246802400D02*
X380509980Y-246802400D01*
X380652838Y-246897638D01*
X380748076Y-246992876D01*
X380795695Y-247088114D01*
%TO.C,U20*%
X370008304Y-181373980D02*
X370008304Y-182183504D01*
X370055923Y-182278742D01*
X370103542Y-182326361D01*
X370198780Y-182373980D01*
X370389257Y-182373980D01*
X370484495Y-182326361D01*
X370532114Y-182278742D01*
X370579733Y-182183504D01*
X370579733Y-181373980D01*
X371008304Y-181469219D02*
X371055923Y-181421600D01*
X371151161Y-181373980D01*
X371389257Y-181373980D01*
X371484495Y-181421600D01*
X371532114Y-181469219D01*
X371579733Y-181564457D01*
X371579733Y-181659695D01*
X371532114Y-181802552D01*
X370960685Y-182373980D01*
X371579733Y-182373980D01*
X372198780Y-181373980D02*
X372294019Y-181373980D01*
X372389257Y-181421600D01*
X372436876Y-181469219D01*
X372484495Y-181564457D01*
X372532114Y-181754933D01*
X372532114Y-181993028D01*
X372484495Y-182183504D01*
X372436876Y-182278742D01*
X372389257Y-182326361D01*
X372294019Y-182373980D01*
X372198780Y-182373980D01*
X372103542Y-182326361D01*
X372055923Y-182278742D01*
X372008304Y-182183504D01*
X371960685Y-181993028D01*
X371960685Y-181754933D01*
X372008304Y-181564457D01*
X372055923Y-181469219D01*
X372103542Y-181421600D01*
X372198780Y-181373980D01*
%TO.C,U19*%
X357359104Y-181221580D02*
X357359104Y-182031104D01*
X357406723Y-182126342D01*
X357454342Y-182173961D01*
X357549580Y-182221580D01*
X357740057Y-182221580D01*
X357835295Y-182173961D01*
X357882914Y-182126342D01*
X357930533Y-182031104D01*
X357930533Y-181221580D01*
X358930533Y-182221580D02*
X358359104Y-182221580D01*
X358644819Y-182221580D02*
X358644819Y-181221580D01*
X358549580Y-181364438D01*
X358454342Y-181459676D01*
X358359104Y-181507295D01*
X359406723Y-182221580D02*
X359597200Y-182221580D01*
X359692438Y-182173961D01*
X359740057Y-182126342D01*
X359835295Y-181983485D01*
X359882914Y-181793009D01*
X359882914Y-181412057D01*
X359835295Y-181316819D01*
X359787676Y-181269200D01*
X359692438Y-181221580D01*
X359501961Y-181221580D01*
X359406723Y-181269200D01*
X359359104Y-181316819D01*
X359311485Y-181412057D01*
X359311485Y-181650152D01*
X359359104Y-181745390D01*
X359406723Y-181793009D01*
X359501961Y-181840628D01*
X359692438Y-181840628D01*
X359787676Y-181793009D01*
X359835295Y-181745390D01*
X359882914Y-181650152D01*
%TO.C,U18*%
X374427904Y-153687980D02*
X374427904Y-154497504D01*
X374475523Y-154592742D01*
X374523142Y-154640361D01*
X374618380Y-154687980D01*
X374808857Y-154687980D01*
X374904095Y-154640361D01*
X374951714Y-154592742D01*
X374999333Y-154497504D01*
X374999333Y-153687980D01*
X375999333Y-154687980D02*
X375427904Y-154687980D01*
X375713619Y-154687980D02*
X375713619Y-153687980D01*
X375618380Y-153830838D01*
X375523142Y-153926076D01*
X375427904Y-153973695D01*
X376570761Y-154116552D02*
X376475523Y-154068933D01*
X376427904Y-154021314D01*
X376380285Y-153926076D01*
X376380285Y-153878457D01*
X376427904Y-153783219D01*
X376475523Y-153735600D01*
X376570761Y-153687980D01*
X376761238Y-153687980D01*
X376856476Y-153735600D01*
X376904095Y-153783219D01*
X376951714Y-153878457D01*
X376951714Y-153926076D01*
X376904095Y-154021314D01*
X376856476Y-154068933D01*
X376761238Y-154116552D01*
X376570761Y-154116552D01*
X376475523Y-154164171D01*
X376427904Y-154211790D01*
X376380285Y-154307028D01*
X376380285Y-154497504D01*
X376427904Y-154592742D01*
X376475523Y-154640361D01*
X376570761Y-154687980D01*
X376761238Y-154687980D01*
X376856476Y-154640361D01*
X376904095Y-154592742D01*
X376951714Y-154497504D01*
X376951714Y-154307028D01*
X376904095Y-154211790D01*
X376856476Y-154164171D01*
X376761238Y-154116552D01*
%TO.C,U17*%
X345268704Y-181272380D02*
X345268704Y-182081904D01*
X345316323Y-182177142D01*
X345363942Y-182224761D01*
X345459180Y-182272380D01*
X345649657Y-182272380D01*
X345744895Y-182224761D01*
X345792514Y-182177142D01*
X345840133Y-182081904D01*
X345840133Y-181272380D01*
X346840133Y-182272380D02*
X346268704Y-182272380D01*
X346554419Y-182272380D02*
X346554419Y-181272380D01*
X346459180Y-181415238D01*
X346363942Y-181510476D01*
X346268704Y-181558095D01*
X347173466Y-181272380D02*
X347840133Y-181272380D01*
X347411561Y-182272380D01*
%TO.C,U16*%
X368724380Y-212769295D02*
X369533904Y-212769295D01*
X369629142Y-212721676D01*
X369676761Y-212674057D01*
X369724380Y-212578819D01*
X369724380Y-212388342D01*
X369676761Y-212293104D01*
X369629142Y-212245485D01*
X369533904Y-212197866D01*
X368724380Y-212197866D01*
X369724380Y-211197866D02*
X369724380Y-211769295D01*
X369724380Y-211483580D02*
X368724380Y-211483580D01*
X368867238Y-211578819D01*
X368962476Y-211674057D01*
X369010095Y-211769295D01*
X368724380Y-210340723D02*
X368724380Y-210531200D01*
X368772000Y-210626438D01*
X368819619Y-210674057D01*
X368962476Y-210769295D01*
X369152952Y-210816914D01*
X369533904Y-210816914D01*
X369629142Y-210769295D01*
X369676761Y-210721676D01*
X369724380Y-210626438D01*
X369724380Y-210435961D01*
X369676761Y-210340723D01*
X369629142Y-210293104D01*
X369533904Y-210245485D01*
X369295809Y-210245485D01*
X369200571Y-210293104D01*
X369152952Y-210340723D01*
X369105333Y-210435961D01*
X369105333Y-210626438D01*
X369152952Y-210721676D01*
X369200571Y-210769295D01*
X369295809Y-210816914D01*
%TO.C,U15*%
X368775180Y-224808895D02*
X369584704Y-224808895D01*
X369679942Y-224761276D01*
X369727561Y-224713657D01*
X369775180Y-224618419D01*
X369775180Y-224427942D01*
X369727561Y-224332704D01*
X369679942Y-224285085D01*
X369584704Y-224237466D01*
X368775180Y-224237466D01*
X369775180Y-223237466D02*
X369775180Y-223808895D01*
X369775180Y-223523180D02*
X368775180Y-223523180D01*
X368918038Y-223618419D01*
X369013276Y-223713657D01*
X369060895Y-223808895D01*
X368775180Y-222332704D02*
X368775180Y-222808895D01*
X369251371Y-222856514D01*
X369203752Y-222808895D01*
X369156133Y-222713657D01*
X369156133Y-222475561D01*
X369203752Y-222380323D01*
X369251371Y-222332704D01*
X369346609Y-222285085D01*
X369584704Y-222285085D01*
X369679942Y-222332704D01*
X369727561Y-222380323D01*
X369775180Y-222475561D01*
X369775180Y-222713657D01*
X369727561Y-222808895D01*
X369679942Y-222856514D01*
%TO.C,U14*%
X333178304Y-181323180D02*
X333178304Y-182132704D01*
X333225923Y-182227942D01*
X333273542Y-182275561D01*
X333368780Y-182323180D01*
X333559257Y-182323180D01*
X333654495Y-182275561D01*
X333702114Y-182227942D01*
X333749733Y-182132704D01*
X333749733Y-181323180D01*
X334749733Y-182323180D02*
X334178304Y-182323180D01*
X334464019Y-182323180D02*
X334464019Y-181323180D01*
X334368780Y-181466038D01*
X334273542Y-181561276D01*
X334178304Y-181608895D01*
X335606876Y-181656514D02*
X335606876Y-182323180D01*
X335368780Y-181275561D02*
X335130685Y-181989847D01*
X335749733Y-181989847D01*
%TO.C,U13*%
X347032780Y-212820095D02*
X347842304Y-212820095D01*
X347937542Y-212772476D01*
X347985161Y-212724857D01*
X348032780Y-212629619D01*
X348032780Y-212439142D01*
X347985161Y-212343904D01*
X347937542Y-212296285D01*
X347842304Y-212248666D01*
X347032780Y-212248666D01*
X348032780Y-211248666D02*
X348032780Y-211820095D01*
X348032780Y-211534380D02*
X347032780Y-211534380D01*
X347175638Y-211629619D01*
X347270876Y-211724857D01*
X347318495Y-211820095D01*
X347032780Y-210915333D02*
X347032780Y-210296285D01*
X347413733Y-210629619D01*
X347413733Y-210486761D01*
X347461352Y-210391523D01*
X347508971Y-210343904D01*
X347604209Y-210296285D01*
X347842304Y-210296285D01*
X347937542Y-210343904D01*
X347985161Y-210391523D01*
X348032780Y-210486761D01*
X348032780Y-210772476D01*
X347985161Y-210867714D01*
X347937542Y-210915333D01*
%TO.C,U12*%
X346880380Y-224808895D02*
X347689904Y-224808895D01*
X347785142Y-224761276D01*
X347832761Y-224713657D01*
X347880380Y-224618419D01*
X347880380Y-224427942D01*
X347832761Y-224332704D01*
X347785142Y-224285085D01*
X347689904Y-224237466D01*
X346880380Y-224237466D01*
X347880380Y-223237466D02*
X347880380Y-223808895D01*
X347880380Y-223523180D02*
X346880380Y-223523180D01*
X347023238Y-223618419D01*
X347118476Y-223713657D01*
X347166095Y-223808895D01*
X346975619Y-222856514D02*
X346928000Y-222808895D01*
X346880380Y-222713657D01*
X346880380Y-222475561D01*
X346928000Y-222380323D01*
X346975619Y-222332704D01*
X347070857Y-222285085D01*
X347166095Y-222285085D01*
X347308952Y-222332704D01*
X347880380Y-222904133D01*
X347880380Y-222285085D01*
%TO.C,U11*%
X321900704Y-181323180D02*
X321900704Y-182132704D01*
X321948323Y-182227942D01*
X321995942Y-182275561D01*
X322091180Y-182323180D01*
X322281657Y-182323180D01*
X322376895Y-182275561D01*
X322424514Y-182227942D01*
X322472133Y-182132704D01*
X322472133Y-181323180D01*
X323472133Y-182323180D02*
X322900704Y-182323180D01*
X323186419Y-182323180D02*
X323186419Y-181323180D01*
X323091180Y-181466038D01*
X322995942Y-181561276D01*
X322900704Y-181608895D01*
X324424514Y-182323180D02*
X323853085Y-182323180D01*
X324138800Y-182323180D02*
X324138800Y-181323180D01*
X324043561Y-181466038D01*
X323948323Y-181561276D01*
X323853085Y-181608895D01*
%TO.C,U10*%
X361598780Y-175075695D02*
X362408304Y-175075695D01*
X362503542Y-175028076D01*
X362551161Y-174980457D01*
X362598780Y-174885219D01*
X362598780Y-174694742D01*
X362551161Y-174599504D01*
X362503542Y-174551885D01*
X362408304Y-174504266D01*
X361598780Y-174504266D01*
X362598780Y-173504266D02*
X362598780Y-174075695D01*
X362598780Y-173789980D02*
X361598780Y-173789980D01*
X361741638Y-173885219D01*
X361836876Y-173980457D01*
X361884495Y-174075695D01*
X361598780Y-172885219D02*
X361598780Y-172789980D01*
X361646400Y-172694742D01*
X361694019Y-172647123D01*
X361789257Y-172599504D01*
X361979733Y-172551885D01*
X362217828Y-172551885D01*
X362408304Y-172599504D01*
X362503542Y-172647123D01*
X362551161Y-172694742D01*
X362598780Y-172789980D01*
X362598780Y-172885219D01*
X362551161Y-172980457D01*
X362503542Y-173028076D01*
X362408304Y-173075695D01*
X362217828Y-173123314D01*
X361979733Y-173123314D01*
X361789257Y-173075695D01*
X361694019Y-173028076D01*
X361646400Y-172980457D01*
X361598780Y-172885219D01*
%TO.C,U9*%
X325188780Y-224332704D02*
X325998304Y-224332704D01*
X326093542Y-224285085D01*
X326141161Y-224237466D01*
X326188780Y-224142228D01*
X326188780Y-223951752D01*
X326141161Y-223856514D01*
X326093542Y-223808895D01*
X325998304Y-223761276D01*
X325188780Y-223761276D01*
X326188780Y-223237466D02*
X326188780Y-223046990D01*
X326141161Y-222951752D01*
X326093542Y-222904133D01*
X325950685Y-222808895D01*
X325760209Y-222761276D01*
X325379257Y-222761276D01*
X325284019Y-222808895D01*
X325236400Y-222856514D01*
X325188780Y-222951752D01*
X325188780Y-223142228D01*
X325236400Y-223237466D01*
X325284019Y-223285085D01*
X325379257Y-223332704D01*
X325617352Y-223332704D01*
X325712590Y-223285085D01*
X325760209Y-223237466D01*
X325807828Y-223142228D01*
X325807828Y-222951752D01*
X325760209Y-222856514D01*
X325712590Y-222808895D01*
X325617352Y-222761276D01*
%TO.C,U8*%
X325137980Y-212394704D02*
X325947504Y-212394704D01*
X326042742Y-212347085D01*
X326090361Y-212299466D01*
X326137980Y-212204228D01*
X326137980Y-212013752D01*
X326090361Y-211918514D01*
X326042742Y-211870895D01*
X325947504Y-211823276D01*
X325137980Y-211823276D01*
X325566552Y-211204228D02*
X325518933Y-211299466D01*
X325471314Y-211347085D01*
X325376076Y-211394704D01*
X325328457Y-211394704D01*
X325233219Y-211347085D01*
X325185600Y-211299466D01*
X325137980Y-211204228D01*
X325137980Y-211013752D01*
X325185600Y-210918514D01*
X325233219Y-210870895D01*
X325328457Y-210823276D01*
X325376076Y-210823276D01*
X325471314Y-210870895D01*
X325518933Y-210918514D01*
X325566552Y-211013752D01*
X325566552Y-211204228D01*
X325614171Y-211299466D01*
X325661790Y-211347085D01*
X325757028Y-211394704D01*
X325947504Y-211394704D01*
X326042742Y-211347085D01*
X326090361Y-211299466D01*
X326137980Y-211204228D01*
X326137980Y-211013752D01*
X326090361Y-210918514D01*
X326042742Y-210870895D01*
X325947504Y-210823276D01*
X325757028Y-210823276D01*
X325661790Y-210870895D01*
X325614171Y-210918514D01*
X325566552Y-211013752D01*
%TO.C,U7*%
X310997695Y-181323180D02*
X310997695Y-182132704D01*
X311045314Y-182227942D01*
X311092933Y-182275561D01*
X311188171Y-182323180D01*
X311378647Y-182323180D01*
X311473885Y-182275561D01*
X311521504Y-182227942D01*
X311569123Y-182132704D01*
X311569123Y-181323180D01*
X311950076Y-181323180D02*
X312616742Y-181323180D01*
X312188171Y-182323180D01*
%TO.C,U6*%
X303547980Y-224383504D02*
X304357504Y-224383504D01*
X304452742Y-224335885D01*
X304500361Y-224288266D01*
X304547980Y-224193028D01*
X304547980Y-224002552D01*
X304500361Y-223907314D01*
X304452742Y-223859695D01*
X304357504Y-223812076D01*
X303547980Y-223812076D01*
X303547980Y-222907314D02*
X303547980Y-223097790D01*
X303595600Y-223193028D01*
X303643219Y-223240647D01*
X303786076Y-223335885D01*
X303976552Y-223383504D01*
X304357504Y-223383504D01*
X304452742Y-223335885D01*
X304500361Y-223288266D01*
X304547980Y-223193028D01*
X304547980Y-223002552D01*
X304500361Y-222907314D01*
X304452742Y-222859695D01*
X304357504Y-222812076D01*
X304119409Y-222812076D01*
X304024171Y-222859695D01*
X303976552Y-222907314D01*
X303928933Y-223002552D01*
X303928933Y-223193028D01*
X303976552Y-223288266D01*
X304024171Y-223335885D01*
X304119409Y-223383504D01*
%TO.C,U5*%
X303497180Y-212445504D02*
X304306704Y-212445504D01*
X304401942Y-212397885D01*
X304449561Y-212350266D01*
X304497180Y-212255028D01*
X304497180Y-212064552D01*
X304449561Y-211969314D01*
X304401942Y-211921695D01*
X304306704Y-211874076D01*
X303497180Y-211874076D01*
X303497180Y-210921695D02*
X303497180Y-211397885D01*
X303973371Y-211445504D01*
X303925752Y-211397885D01*
X303878133Y-211302647D01*
X303878133Y-211064552D01*
X303925752Y-210969314D01*
X303973371Y-210921695D01*
X304068609Y-210874076D01*
X304306704Y-210874076D01*
X304401942Y-210921695D01*
X304449561Y-210969314D01*
X304497180Y-211064552D01*
X304497180Y-211302647D01*
X304449561Y-211397885D01*
X304401942Y-211445504D01*
%TO.C,U4*%
X332033180Y-174548704D02*
X332842704Y-174548704D01*
X332937942Y-174501085D01*
X332985561Y-174453466D01*
X333033180Y-174358228D01*
X333033180Y-174167752D01*
X332985561Y-174072514D01*
X332937942Y-174024895D01*
X332842704Y-173977276D01*
X332033180Y-173977276D01*
X332366514Y-173072514D02*
X333033180Y-173072514D01*
X331985561Y-173310609D02*
X332699847Y-173548704D01*
X332699847Y-172929657D01*
%TO.C,U3*%
X300583695Y-181373980D02*
X300583695Y-182183504D01*
X300631314Y-182278742D01*
X300678933Y-182326361D01*
X300774171Y-182373980D01*
X300964647Y-182373980D01*
X301059885Y-182326361D01*
X301107504Y-182278742D01*
X301155123Y-182183504D01*
X301155123Y-181373980D01*
X301536076Y-181373980D02*
X302155123Y-181373980D01*
X301821790Y-181754933D01*
X301964647Y-181754933D01*
X302059885Y-181802552D01*
X302107504Y-181850171D01*
X302155123Y-181945409D01*
X302155123Y-182183504D01*
X302107504Y-182278742D01*
X302059885Y-182326361D01*
X301964647Y-182373980D01*
X301678933Y-182373980D01*
X301583695Y-182326361D01*
X301536076Y-182278742D01*
%TO.C,U2*%
X281500780Y-212496304D02*
X282310304Y-212496304D01*
X282405542Y-212448685D01*
X282453161Y-212401066D01*
X282500780Y-212305828D01*
X282500780Y-212115352D01*
X282453161Y-212020114D01*
X282405542Y-211972495D01*
X282310304Y-211924876D01*
X281500780Y-211924876D01*
X281596019Y-211496304D02*
X281548400Y-211448685D01*
X281500780Y-211353447D01*
X281500780Y-211115352D01*
X281548400Y-211020114D01*
X281596019Y-210972495D01*
X281691257Y-210924876D01*
X281786495Y-210924876D01*
X281929352Y-210972495D01*
X282500780Y-211543923D01*
X282500780Y-210924876D01*
%TO.C,U1*%
X281449980Y-224332704D02*
X282259504Y-224332704D01*
X282354742Y-224285085D01*
X282402361Y-224237466D01*
X282449980Y-224142228D01*
X282449980Y-223951752D01*
X282402361Y-223856514D01*
X282354742Y-223808895D01*
X282259504Y-223761276D01*
X281449980Y-223761276D01*
X282449980Y-222761276D02*
X282449980Y-223332704D01*
X282449980Y-223046990D02*
X281449980Y-223046990D01*
X281592838Y-223142228D01*
X281688076Y-223237466D01*
X281735695Y-223332704D01*
%TO.C,R6*%
X335316533Y-249491580D02*
X334983200Y-249015390D01*
X334745104Y-249491580D02*
X334745104Y-248491580D01*
X335126057Y-248491580D01*
X335221295Y-248539200D01*
X335268914Y-248586819D01*
X335316533Y-248682057D01*
X335316533Y-248824914D01*
X335268914Y-248920152D01*
X335221295Y-248967771D01*
X335126057Y-249015390D01*
X334745104Y-249015390D01*
X336173676Y-248491580D02*
X335983200Y-248491580D01*
X335887961Y-248539200D01*
X335840342Y-248586819D01*
X335745104Y-248729676D01*
X335697485Y-248920152D01*
X335697485Y-249301104D01*
X335745104Y-249396342D01*
X335792723Y-249443961D01*
X335887961Y-249491580D01*
X336078438Y-249491580D01*
X336173676Y-249443961D01*
X336221295Y-249396342D01*
X336268914Y-249301104D01*
X336268914Y-249063009D01*
X336221295Y-248967771D01*
X336173676Y-248920152D01*
X336078438Y-248872533D01*
X335887961Y-248872533D01*
X335792723Y-248920152D01*
X335745104Y-248967771D01*
X335697485Y-249063009D01*
%TO.C,R5*%
X387538933Y-232879980D02*
X387205600Y-232403790D01*
X386967504Y-232879980D02*
X386967504Y-231879980D01*
X387348457Y-231879980D01*
X387443695Y-231927600D01*
X387491314Y-231975219D01*
X387538933Y-232070457D01*
X387538933Y-232213314D01*
X387491314Y-232308552D01*
X387443695Y-232356171D01*
X387348457Y-232403790D01*
X386967504Y-232403790D01*
X388443695Y-231879980D02*
X387967504Y-231879980D01*
X387919885Y-232356171D01*
X387967504Y-232308552D01*
X388062742Y-232260933D01*
X388300838Y-232260933D01*
X388396076Y-232308552D01*
X388443695Y-232356171D01*
X388491314Y-232451409D01*
X388491314Y-232689504D01*
X388443695Y-232784742D01*
X388396076Y-232832361D01*
X388300838Y-232879980D01*
X388062742Y-232879980D01*
X387967504Y-232832361D01*
X387919885Y-232784742D01*
%TO.C,R4*%
X400696133Y-237619980D02*
X400362800Y-237143790D01*
X400124704Y-237619980D02*
X400124704Y-236619980D01*
X400505657Y-236619980D01*
X400600895Y-236667600D01*
X400648514Y-236715219D01*
X400696133Y-236810457D01*
X400696133Y-236953314D01*
X400648514Y-237048552D01*
X400600895Y-237096171D01*
X400505657Y-237143790D01*
X400124704Y-237143790D01*
X401553276Y-236953314D02*
X401553276Y-237619980D01*
X401315180Y-236572361D02*
X401077085Y-237286647D01*
X401696133Y-237286647D01*
%TO.C,R3*%
X387538933Y-234317980D02*
X387205600Y-233841790D01*
X386967504Y-234317980D02*
X386967504Y-233317980D01*
X387348457Y-233317980D01*
X387443695Y-233365600D01*
X387491314Y-233413219D01*
X387538933Y-233508457D01*
X387538933Y-233651314D01*
X387491314Y-233746552D01*
X387443695Y-233794171D01*
X387348457Y-233841790D01*
X386967504Y-233841790D01*
X387872266Y-233317980D02*
X388491314Y-233317980D01*
X388157980Y-233698933D01*
X388300838Y-233698933D01*
X388396076Y-233746552D01*
X388443695Y-233794171D01*
X388491314Y-233889409D01*
X388491314Y-234127504D01*
X388443695Y-234222742D01*
X388396076Y-234270361D01*
X388300838Y-234317980D01*
X388015123Y-234317980D01*
X387919885Y-234270361D01*
X387872266Y-234222742D01*
%TO.C,R2*%
X335316533Y-257584380D02*
X334983200Y-257108190D01*
X334745104Y-257584380D02*
X334745104Y-256584380D01*
X335126057Y-256584380D01*
X335221295Y-256632000D01*
X335268914Y-256679619D01*
X335316533Y-256774857D01*
X335316533Y-256917714D01*
X335268914Y-257012952D01*
X335221295Y-257060571D01*
X335126057Y-257108190D01*
X334745104Y-257108190D01*
X335697485Y-256679619D02*
X335745104Y-256632000D01*
X335840342Y-256584380D01*
X336078438Y-256584380D01*
X336173676Y-256632000D01*
X336221295Y-256679619D01*
X336268914Y-256774857D01*
X336268914Y-256870095D01*
X336221295Y-257012952D01*
X335649866Y-257584380D01*
X336268914Y-257584380D01*
%TO.C,R1*%
X335316533Y-250929580D02*
X334983200Y-250453390D01*
X334745104Y-250929580D02*
X334745104Y-249929580D01*
X335126057Y-249929580D01*
X335221295Y-249977200D01*
X335268914Y-250024819D01*
X335316533Y-250120057D01*
X335316533Y-250262914D01*
X335268914Y-250358152D01*
X335221295Y-250405771D01*
X335126057Y-250453390D01*
X334745104Y-250453390D01*
X336268914Y-250929580D02*
X335697485Y-250929580D01*
X335983200Y-250929580D02*
X335983200Y-249929580D01*
X335887961Y-250072438D01*
X335792723Y-250167676D01*
X335697485Y-250215295D01*
%TO.C,J9*%
X419782666Y-204538780D02*
X419782666Y-205253066D01*
X419735047Y-205395923D01*
X419639809Y-205491161D01*
X419496952Y-205538780D01*
X419401714Y-205538780D01*
X420306476Y-205538780D02*
X420496952Y-205538780D01*
X420592190Y-205491161D01*
X420639809Y-205443542D01*
X420735047Y-205300685D01*
X420782666Y-205110209D01*
X420782666Y-204729257D01*
X420735047Y-204634019D01*
X420687428Y-204586400D01*
X420592190Y-204538780D01*
X420401714Y-204538780D01*
X420306476Y-204586400D01*
X420258857Y-204634019D01*
X420211238Y-204729257D01*
X420211238Y-204967352D01*
X420258857Y-205062590D01*
X420306476Y-205110209D01*
X420401714Y-205157828D01*
X420592190Y-205157828D01*
X420687428Y-205110209D01*
X420735047Y-205062590D01*
X420782666Y-204967352D01*
%TO.C,J8*%
X354212866Y-239732980D02*
X354212866Y-240447266D01*
X354165247Y-240590123D01*
X354070009Y-240685361D01*
X353927152Y-240732980D01*
X353831914Y-240732980D01*
X354831914Y-240161552D02*
X354736676Y-240113933D01*
X354689057Y-240066314D01*
X354641438Y-239971076D01*
X354641438Y-239923457D01*
X354689057Y-239828219D01*
X354736676Y-239780600D01*
X354831914Y-239732980D01*
X355022390Y-239732980D01*
X355117628Y-239780600D01*
X355165247Y-239828219D01*
X355212866Y-239923457D01*
X355212866Y-239971076D01*
X355165247Y-240066314D01*
X355117628Y-240113933D01*
X355022390Y-240161552D01*
X354831914Y-240161552D01*
X354736676Y-240209171D01*
X354689057Y-240256790D01*
X354641438Y-240352028D01*
X354641438Y-240542504D01*
X354689057Y-240637742D01*
X354736676Y-240685361D01*
X354831914Y-240732980D01*
X355022390Y-240732980D01*
X355117628Y-240685361D01*
X355165247Y-240637742D01*
X355212866Y-240542504D01*
X355212866Y-240352028D01*
X355165247Y-240256790D01*
X355117628Y-240209171D01*
X355022390Y-240161552D01*
%TO.C,J7*%
X365916780Y-238585333D02*
X366631066Y-238585333D01*
X366773923Y-238632952D01*
X366869161Y-238728190D01*
X366916780Y-238871047D01*
X366916780Y-238966285D01*
X365916780Y-238204380D02*
X365916780Y-237537714D01*
X366916780Y-237966285D01*
%TO.C,J6*%
X310558380Y-162486933D02*
X311272666Y-162486933D01*
X311415523Y-162534552D01*
X311510761Y-162629790D01*
X311558380Y-162772647D01*
X311558380Y-162867885D01*
X310558380Y-161582171D02*
X310558380Y-161772647D01*
X310606000Y-161867885D01*
X310653619Y-161915504D01*
X310796476Y-162010742D01*
X310986952Y-162058361D01*
X311367904Y-162058361D01*
X311463142Y-162010742D01*
X311510761Y-161963123D01*
X311558380Y-161867885D01*
X311558380Y-161677409D01*
X311510761Y-161582171D01*
X311463142Y-161534552D01*
X311367904Y-161486933D01*
X311129809Y-161486933D01*
X311034571Y-161534552D01*
X310986952Y-161582171D01*
X310939333Y-161677409D01*
X310939333Y-161867885D01*
X310986952Y-161963123D01*
X311034571Y-162010742D01*
X311129809Y-162058361D01*
%TO.C,J5*%
X419782666Y-220388380D02*
X419782666Y-221102666D01*
X419735047Y-221245523D01*
X419639809Y-221340761D01*
X419496952Y-221388380D01*
X419401714Y-221388380D01*
X420735047Y-220388380D02*
X420258857Y-220388380D01*
X420211238Y-220864571D01*
X420258857Y-220816952D01*
X420354095Y-220769333D01*
X420592190Y-220769333D01*
X420687428Y-220816952D01*
X420735047Y-220864571D01*
X420782666Y-220959809D01*
X420782666Y-221197904D01*
X420735047Y-221293142D01*
X420687428Y-221340761D01*
X420592190Y-221388380D01*
X420354095Y-221388380D01*
X420258857Y-221340761D01*
X420211238Y-221293142D01*
%TO.C,J4*%
X310558380Y-157406933D02*
X311272666Y-157406933D01*
X311415523Y-157454552D01*
X311510761Y-157549790D01*
X311558380Y-157692647D01*
X311558380Y-157787885D01*
X310891714Y-156502171D02*
X311558380Y-156502171D01*
X310510761Y-156740266D02*
X311225047Y-156978361D01*
X311225047Y-156359314D01*
%TO.C,J3*%
X310558380Y-159946933D02*
X311272666Y-159946933D01*
X311415523Y-159994552D01*
X311510761Y-160089790D01*
X311558380Y-160232647D01*
X311558380Y-160327885D01*
X310558380Y-159565980D02*
X310558380Y-158946933D01*
X310939333Y-159280266D01*
X310939333Y-159137409D01*
X310986952Y-159042171D01*
X311034571Y-158994552D01*
X311129809Y-158946933D01*
X311367904Y-158946933D01*
X311463142Y-158994552D01*
X311510761Y-159042171D01*
X311558380Y-159137409D01*
X311558380Y-159423123D01*
X311510761Y-159518361D01*
X311463142Y-159565980D01*
%TO.C,J2*%
X279316380Y-255196933D02*
X280030666Y-255196933D01*
X280173523Y-255244552D01*
X280268761Y-255339790D01*
X280316380Y-255482647D01*
X280316380Y-255577885D01*
X279411619Y-254768361D02*
X279364000Y-254720742D01*
X279316380Y-254625504D01*
X279316380Y-254387409D01*
X279364000Y-254292171D01*
X279411619Y-254244552D01*
X279506857Y-254196933D01*
X279602095Y-254196933D01*
X279744952Y-254244552D01*
X280316380Y-254815980D01*
X280316380Y-254196933D01*
%TO.C,J1*%
X281860666Y-251769180D02*
X281860666Y-252483466D01*
X281813047Y-252626323D01*
X281717809Y-252721561D01*
X281574952Y-252769180D01*
X281479714Y-252769180D01*
X282860666Y-252769180D02*
X282289238Y-252769180D01*
X282574952Y-252769180D02*
X282574952Y-251769180D01*
X282479714Y-251912038D01*
X282384476Y-252007276D01*
X282289238Y-252054895D01*
%TO.C,C3*%
X289912133Y-238912342D02*
X289864514Y-238959961D01*
X289721657Y-239007580D01*
X289626419Y-239007580D01*
X289483561Y-238959961D01*
X289388323Y-238864723D01*
X289340704Y-238769485D01*
X289293085Y-238579009D01*
X289293085Y-238436152D01*
X289340704Y-238245676D01*
X289388323Y-238150438D01*
X289483561Y-238055200D01*
X289626419Y-238007580D01*
X289721657Y-238007580D01*
X289864514Y-238055200D01*
X289912133Y-238102819D01*
X290245466Y-238007580D02*
X290864514Y-238007580D01*
X290531180Y-238388533D01*
X290674038Y-238388533D01*
X290769276Y-238436152D01*
X290816895Y-238483771D01*
X290864514Y-238579009D01*
X290864514Y-238817104D01*
X290816895Y-238912342D01*
X290769276Y-238959961D01*
X290674038Y-239007580D01*
X290388323Y-239007580D01*
X290293085Y-238959961D01*
X290245466Y-238912342D01*
%TO.C,C2*%
X362606933Y-153466742D02*
X362559314Y-153514361D01*
X362416457Y-153561980D01*
X362321219Y-153561980D01*
X362178361Y-153514361D01*
X362083123Y-153419123D01*
X362035504Y-153323885D01*
X361987885Y-153133409D01*
X361987885Y-152990552D01*
X362035504Y-152800076D01*
X362083123Y-152704838D01*
X362178361Y-152609600D01*
X362321219Y-152561980D01*
X362416457Y-152561980D01*
X362559314Y-152609600D01*
X362606933Y-152657219D01*
X362987885Y-152657219D02*
X363035504Y-152609600D01*
X363130742Y-152561980D01*
X363368838Y-152561980D01*
X363464076Y-152609600D01*
X363511695Y-152657219D01*
X363559314Y-152752457D01*
X363559314Y-152847695D01*
X363511695Y-152990552D01*
X362940266Y-153561980D01*
X363559314Y-153561980D01*
%TO.C,C1*%
X287219733Y-155193942D02*
X287172114Y-155241561D01*
X287029257Y-155289180D01*
X286934019Y-155289180D01*
X286791161Y-155241561D01*
X286695923Y-155146323D01*
X286648304Y-155051085D01*
X286600685Y-154860609D01*
X286600685Y-154717752D01*
X286648304Y-154527276D01*
X286695923Y-154432038D01*
X286791161Y-154336800D01*
X286934019Y-154289180D01*
X287029257Y-154289180D01*
X287172114Y-154336800D01*
X287219733Y-154384419D01*
X288172114Y-155289180D02*
X287600685Y-155289180D01*
X287886400Y-155289180D02*
X287886400Y-154289180D01*
X287791161Y-154432038D01*
X287695923Y-154527276D01*
X287600685Y-154574895D01*
%TD*%
%LPC*%
D16*
%TO.C,X1*%
X293370000Y-196951600D03*
X293370000Y-189331600D03*
X285750000Y-189331600D03*
D17*
X285750000Y-196951600D03*
%TD*%
D18*
%TO.C,U27*%
X416102800Y-207162400D03*
X408482800Y-230022400D03*
X416102800Y-209702400D03*
X408482800Y-227482400D03*
X416102800Y-212242400D03*
X408482800Y-224942400D03*
X416102800Y-214782400D03*
X408482800Y-222402400D03*
X416102800Y-217322400D03*
X408482800Y-219862400D03*
X416102800Y-219862400D03*
X408482800Y-217322400D03*
X416102800Y-222402400D03*
X408482800Y-214782400D03*
X416102800Y-224942400D03*
X408482800Y-212242400D03*
X416102800Y-227482400D03*
X408482800Y-209702400D03*
X416102800Y-230022400D03*
D17*
X408482800Y-207162400D03*
%TD*%
D18*
%TO.C,U26*%
X416052000Y-179679600D03*
X408432000Y-202539600D03*
X416052000Y-182219600D03*
X408432000Y-199999600D03*
X416052000Y-184759600D03*
X408432000Y-197459600D03*
X416052000Y-187299600D03*
X408432000Y-194919600D03*
X416052000Y-189839600D03*
X408432000Y-192379600D03*
X416052000Y-192379600D03*
X408432000Y-189839600D03*
X416052000Y-194919600D03*
X408432000Y-187299600D03*
X416052000Y-197459600D03*
X408432000Y-184759600D03*
X416052000Y-199999600D03*
X408432000Y-182219600D03*
X416052000Y-202539600D03*
D17*
X408432000Y-179679600D03*
%TD*%
D18*
%TO.C,U25*%
X404520400Y-207111600D03*
X396900400Y-229971600D03*
X404520400Y-209651600D03*
X396900400Y-227431600D03*
X404520400Y-212191600D03*
X396900400Y-224891600D03*
X404520400Y-214731600D03*
X396900400Y-222351600D03*
X404520400Y-217271600D03*
X396900400Y-219811600D03*
X404520400Y-219811600D03*
X396900400Y-217271600D03*
X404520400Y-222351600D03*
X396900400Y-214731600D03*
X404520400Y-224891600D03*
X396900400Y-212191600D03*
X404520400Y-227431600D03*
X396900400Y-209651600D03*
X404520400Y-229971600D03*
D17*
X396900400Y-207111600D03*
%TD*%
D18*
%TO.C,U24*%
X404368000Y-179578000D03*
X396748000Y-202438000D03*
X404368000Y-182118000D03*
X396748000Y-199898000D03*
X404368000Y-184658000D03*
X396748000Y-197358000D03*
X404368000Y-187198000D03*
X396748000Y-194818000D03*
X404368000Y-189738000D03*
X396748000Y-192278000D03*
X404368000Y-192278000D03*
X396748000Y-189738000D03*
X404368000Y-194818000D03*
X396748000Y-187198000D03*
X404368000Y-197358000D03*
X396748000Y-184658000D03*
X404368000Y-199898000D03*
X396748000Y-182118000D03*
X404368000Y-202438000D03*
D17*
X396748000Y-179578000D03*
%TD*%
D18*
%TO.C,U23*%
X422249600Y-172110400D03*
X384149600Y-156870400D03*
X419709600Y-172110400D03*
X386689600Y-156870400D03*
X417169600Y-172110400D03*
X389229600Y-156870400D03*
X414629600Y-172110400D03*
X391769600Y-156870400D03*
X412089600Y-172110400D03*
X394309600Y-156870400D03*
X409549600Y-172110400D03*
X396849600Y-156870400D03*
X407009600Y-172110400D03*
X399389600Y-156870400D03*
X404469600Y-172110400D03*
X401929600Y-156870400D03*
X401929600Y-172110400D03*
X404469600Y-156870400D03*
X399389600Y-172110400D03*
X407009600Y-156870400D03*
X396849600Y-172110400D03*
X409549600Y-156870400D03*
X394309600Y-172110400D03*
X412089600Y-156870400D03*
X391769600Y-172110400D03*
X414629600Y-156870400D03*
X389229600Y-172110400D03*
X417169600Y-156870400D03*
X386689600Y-172110400D03*
X419709600Y-156870400D03*
X384149600Y-172110400D03*
D17*
X422249600Y-156870400D03*
%TD*%
D18*
%TO.C,U22*%
X388467600Y-184200800D03*
X380847600Y-199440800D03*
X388467600Y-186740800D03*
X380847600Y-196900800D03*
X388467600Y-189280800D03*
X380847600Y-194360800D03*
X388467600Y-191820800D03*
X380847600Y-191820800D03*
X388467600Y-194360800D03*
X380847600Y-189280800D03*
X388467600Y-196900800D03*
X380847600Y-186740800D03*
X388467600Y-199440800D03*
D17*
X380847600Y-184200800D03*
%TD*%
D18*
%TO.C,U21*%
X383387600Y-240182400D03*
X421487600Y-255422400D03*
X385927600Y-240182400D03*
X418947600Y-255422400D03*
X388467600Y-240182400D03*
X416407600Y-255422400D03*
X391007600Y-240182400D03*
X413867600Y-255422400D03*
X393547600Y-240182400D03*
X411327600Y-255422400D03*
X396087600Y-240182400D03*
X408787600Y-255422400D03*
X398627600Y-240182400D03*
X406247600Y-255422400D03*
X401167600Y-240182400D03*
X403707600Y-255422400D03*
X403707600Y-240182400D03*
X401167600Y-255422400D03*
X406247600Y-240182400D03*
X398627600Y-255422400D03*
X408787600Y-240182400D03*
X396087600Y-255422400D03*
X411327600Y-240182400D03*
X393547600Y-255422400D03*
X413867600Y-240182400D03*
X391007600Y-255422400D03*
X416407600Y-240182400D03*
X388467600Y-255422400D03*
X418947600Y-240182400D03*
X385927600Y-255422400D03*
X421487600Y-240182400D03*
D17*
X383387600Y-255422400D03*
%TD*%
D18*
%TO.C,U20*%
X375056400Y-184251600D03*
X367436400Y-199491600D03*
X375056400Y-186791600D03*
X367436400Y-196951600D03*
X375056400Y-189331600D03*
X367436400Y-194411600D03*
X375056400Y-191871600D03*
X367436400Y-191871600D03*
X375056400Y-194411600D03*
X367436400Y-189331600D03*
X375056400Y-196951600D03*
X367436400Y-186791600D03*
X375056400Y-199491600D03*
D17*
X367436400Y-184251600D03*
%TD*%
D18*
%TO.C,U19*%
X362407200Y-184099200D03*
X354787200Y-201879200D03*
X362407200Y-186639200D03*
X354787200Y-199339200D03*
X362407200Y-189179200D03*
X354787200Y-196799200D03*
X362407200Y-191719200D03*
X354787200Y-194259200D03*
X362407200Y-194259200D03*
X354787200Y-191719200D03*
X362407200Y-196799200D03*
X354787200Y-189179200D03*
X362407200Y-199339200D03*
X354787200Y-186639200D03*
X362407200Y-201879200D03*
D17*
X354787200Y-184099200D03*
%TD*%
D18*
%TO.C,U18*%
X379476000Y-156565600D03*
X371856000Y-171805600D03*
X379476000Y-159105600D03*
X371856000Y-169265600D03*
X379476000Y-161645600D03*
X371856000Y-166725600D03*
X379476000Y-164185600D03*
X371856000Y-164185600D03*
X379476000Y-166725600D03*
X371856000Y-161645600D03*
X379476000Y-169265600D03*
X371856000Y-159105600D03*
X379476000Y-171805600D03*
D17*
X371856000Y-156565600D03*
%TD*%
D18*
%TO.C,U17*%
X350316800Y-184150000D03*
X342696800Y-201930000D03*
X350316800Y-186690000D03*
X342696800Y-199390000D03*
X350316800Y-189230000D03*
X342696800Y-196850000D03*
X350316800Y-191770000D03*
X342696800Y-194310000D03*
X350316800Y-194310000D03*
X342696800Y-191770000D03*
X350316800Y-196850000D03*
X342696800Y-189230000D03*
X350316800Y-199390000D03*
X342696800Y-186690000D03*
X350316800Y-201930000D03*
D17*
X342696800Y-184150000D03*
%TD*%
D18*
%TO.C,U16*%
X371602000Y-207721200D03*
X389382000Y-215341200D03*
X374142000Y-207721200D03*
X386842000Y-215341200D03*
X376682000Y-207721200D03*
X384302000Y-215341200D03*
X379222000Y-207721200D03*
X381762000Y-215341200D03*
X381762000Y-207721200D03*
X379222000Y-215341200D03*
X384302000Y-207721200D03*
X376682000Y-215341200D03*
X386842000Y-207721200D03*
X374142000Y-215341200D03*
X389382000Y-207721200D03*
D17*
X371602000Y-215341200D03*
%TD*%
D18*
%TO.C,U15*%
X371652800Y-219760800D03*
X389432800Y-227380800D03*
X374192800Y-219760800D03*
X386892800Y-227380800D03*
X376732800Y-219760800D03*
X384352800Y-227380800D03*
X379272800Y-219760800D03*
X381812800Y-227380800D03*
X381812800Y-219760800D03*
X379272800Y-227380800D03*
X384352800Y-219760800D03*
X376732800Y-227380800D03*
X386892800Y-219760800D03*
X374192800Y-227380800D03*
X389432800Y-219760800D03*
D17*
X371652800Y-227380800D03*
%TD*%
D18*
%TO.C,U14*%
X338226400Y-184200800D03*
X330606400Y-201980800D03*
X338226400Y-186740800D03*
X330606400Y-199440800D03*
X338226400Y-189280800D03*
X330606400Y-196900800D03*
X338226400Y-191820800D03*
X330606400Y-194360800D03*
X338226400Y-194360800D03*
X330606400Y-191820800D03*
X338226400Y-196900800D03*
X330606400Y-189280800D03*
X338226400Y-199440800D03*
X330606400Y-186740800D03*
X338226400Y-201980800D03*
D17*
X330606400Y-184200800D03*
%TD*%
D18*
%TO.C,U13*%
X349910400Y-207772000D03*
X367690400Y-215392000D03*
X352450400Y-207772000D03*
X365150400Y-215392000D03*
X354990400Y-207772000D03*
X362610400Y-215392000D03*
X357530400Y-207772000D03*
X360070400Y-215392000D03*
X360070400Y-207772000D03*
X357530400Y-215392000D03*
X362610400Y-207772000D03*
X354990400Y-215392000D03*
X365150400Y-207772000D03*
X352450400Y-215392000D03*
X367690400Y-207772000D03*
D17*
X349910400Y-215392000D03*
%TD*%
D18*
%TO.C,U12*%
X349758000Y-219760800D03*
X367538000Y-227380800D03*
X352298000Y-219760800D03*
X364998000Y-227380800D03*
X354838000Y-219760800D03*
X362458000Y-227380800D03*
X357378000Y-219760800D03*
X359918000Y-227380800D03*
X359918000Y-219760800D03*
X357378000Y-227380800D03*
X362458000Y-219760800D03*
X354838000Y-227380800D03*
X364998000Y-219760800D03*
X352298000Y-227380800D03*
X367538000Y-219760800D03*
D17*
X349758000Y-227380800D03*
%TD*%
D18*
%TO.C,U11*%
X326948800Y-184200800D03*
X319328800Y-201980800D03*
X326948800Y-186740800D03*
X319328800Y-199440800D03*
X326948800Y-189280800D03*
X319328800Y-196900800D03*
X326948800Y-191820800D03*
X319328800Y-194360800D03*
X326948800Y-194360800D03*
X319328800Y-191820800D03*
X326948800Y-196900800D03*
X319328800Y-189280800D03*
X326948800Y-199440800D03*
X319328800Y-186740800D03*
X326948800Y-201980800D03*
D17*
X319328800Y-184200800D03*
%TD*%
D18*
%TO.C,U10*%
X359816400Y-177647600D03*
X336956400Y-170027600D03*
X357276400Y-177647600D03*
X339496400Y-170027600D03*
X354736400Y-177647600D03*
X342036400Y-170027600D03*
X352196400Y-177647600D03*
X344576400Y-170027600D03*
X349656400Y-177647600D03*
X347116400Y-170027600D03*
X347116400Y-177647600D03*
X349656400Y-170027600D03*
X344576400Y-177647600D03*
X352196400Y-170027600D03*
X342036400Y-177647600D03*
X354736400Y-170027600D03*
X339496400Y-177647600D03*
X357276400Y-170027600D03*
X336956400Y-177647600D03*
D17*
X359816400Y-170027600D03*
%TD*%
D18*
%TO.C,U9*%
X328066400Y-219760800D03*
X345846400Y-227380800D03*
X330606400Y-219760800D03*
X343306400Y-227380800D03*
X333146400Y-219760800D03*
X340766400Y-227380800D03*
X335686400Y-219760800D03*
X338226400Y-227380800D03*
X338226400Y-219760800D03*
X335686400Y-227380800D03*
X340766400Y-219760800D03*
X333146400Y-227380800D03*
X343306400Y-219760800D03*
X330606400Y-227380800D03*
X345846400Y-219760800D03*
D17*
X328066400Y-227380800D03*
%TD*%
D18*
%TO.C,U8*%
X328015600Y-207822800D03*
X345795600Y-215442800D03*
X330555600Y-207822800D03*
X343255600Y-215442800D03*
X333095600Y-207822800D03*
X340715600Y-215442800D03*
X335635600Y-207822800D03*
X338175600Y-215442800D03*
X338175600Y-207822800D03*
X335635600Y-215442800D03*
X340715600Y-207822800D03*
X333095600Y-215442800D03*
X343255600Y-207822800D03*
X330555600Y-215442800D03*
X345795600Y-207822800D03*
D17*
X328015600Y-215442800D03*
%TD*%
D18*
%TO.C,U7*%
X315569600Y-184200800D03*
X307949600Y-201980800D03*
X315569600Y-186740800D03*
X307949600Y-199440800D03*
X315569600Y-189280800D03*
X307949600Y-196900800D03*
X315569600Y-191820800D03*
X307949600Y-194360800D03*
X315569600Y-194360800D03*
X307949600Y-191820800D03*
X315569600Y-196900800D03*
X307949600Y-189280800D03*
X315569600Y-199440800D03*
X307949600Y-186740800D03*
X315569600Y-201980800D03*
D17*
X307949600Y-184200800D03*
%TD*%
D18*
%TO.C,U6*%
X306425600Y-219811600D03*
X324205600Y-227431600D03*
X308965600Y-219811600D03*
X321665600Y-227431600D03*
X311505600Y-219811600D03*
X319125600Y-227431600D03*
X314045600Y-219811600D03*
X316585600Y-227431600D03*
X316585600Y-219811600D03*
X314045600Y-227431600D03*
X319125600Y-219811600D03*
X311505600Y-227431600D03*
X321665600Y-219811600D03*
X308965600Y-227431600D03*
X324205600Y-219811600D03*
D17*
X306425600Y-227431600D03*
%TD*%
D18*
%TO.C,U5*%
X306374800Y-207873600D03*
X324154800Y-215493600D03*
X308914800Y-207873600D03*
X321614800Y-215493600D03*
X311454800Y-207873600D03*
X319074800Y-215493600D03*
X313994800Y-207873600D03*
X316534800Y-215493600D03*
X316534800Y-207873600D03*
X313994800Y-215493600D03*
X319074800Y-207873600D03*
X311454800Y-215493600D03*
X321614800Y-207873600D03*
X308914800Y-215493600D03*
X324154800Y-207873600D03*
D17*
X306374800Y-215493600D03*
%TD*%
D18*
%TO.C,U4*%
X330250800Y-177596800D03*
X307390800Y-169976800D03*
X327710800Y-177596800D03*
X309930800Y-169976800D03*
X325170800Y-177596800D03*
X312470800Y-169976800D03*
X322630800Y-177596800D03*
X315010800Y-169976800D03*
X320090800Y-177596800D03*
X317550800Y-169976800D03*
X317550800Y-177596800D03*
X320090800Y-169976800D03*
X315010800Y-177596800D03*
X322630800Y-169976800D03*
X312470800Y-177596800D03*
X325170800Y-169976800D03*
X309930800Y-177596800D03*
X327710800Y-169976800D03*
X307390800Y-177596800D03*
D17*
X330250800Y-169976800D03*
%TD*%
D18*
%TO.C,U3*%
X305155600Y-184251600D03*
X297535600Y-199491600D03*
X305155600Y-186791600D03*
X297535600Y-196951600D03*
X305155600Y-189331600D03*
X297535600Y-194411600D03*
X305155600Y-191871600D03*
X297535600Y-191871600D03*
X305155600Y-194411600D03*
X297535600Y-189331600D03*
X305155600Y-196951600D03*
X297535600Y-186791600D03*
X305155600Y-199491600D03*
D17*
X297535600Y-184251600D03*
%TD*%
D18*
%TO.C,U2*%
X284378400Y-207924400D03*
X302158400Y-215544400D03*
X286918400Y-207924400D03*
X299618400Y-215544400D03*
X289458400Y-207924400D03*
X297078400Y-215544400D03*
X291998400Y-207924400D03*
X294538400Y-215544400D03*
X294538400Y-207924400D03*
X291998400Y-215544400D03*
X297078400Y-207924400D03*
X289458400Y-215544400D03*
X299618400Y-207924400D03*
X286918400Y-215544400D03*
X302158400Y-207924400D03*
D17*
X284378400Y-215544400D03*
%TD*%
D18*
%TO.C,U1*%
X284327600Y-219760800D03*
X302107600Y-227380800D03*
X286867600Y-219760800D03*
X299567600Y-227380800D03*
X289407600Y-219760800D03*
X297027600Y-227380800D03*
X291947600Y-219760800D03*
X294487600Y-227380800D03*
X294487600Y-219760800D03*
X291947600Y-227380800D03*
X297027600Y-219760800D03*
X289407600Y-227380800D03*
X299567600Y-219760800D03*
X286867600Y-227380800D03*
X302107600Y-219760800D03*
D17*
X284327600Y-227380800D03*
%TD*%
D18*
%TO.C,R6*%
X339293200Y-251409200D03*
D16*
X331673200Y-251409200D03*
%TD*%
D18*
%TO.C,R5*%
X391515600Y-234797600D03*
D16*
X383895600Y-234797600D03*
%TD*%
D18*
%TO.C,R4*%
X397052800Y-234797600D03*
D16*
X404672800Y-234797600D03*
%TD*%
D18*
%TO.C,R3*%
X383895600Y-231495600D03*
D16*
X391515600Y-231495600D03*
%TD*%
D18*
%TO.C,R2*%
X331673200Y-254762000D03*
D16*
X339293200Y-254762000D03*
%TD*%
D18*
%TO.C,R1*%
X331673200Y-248107200D03*
D16*
X339293200Y-248107200D03*
%TD*%
D19*
%TO.C,J9*%
X420116000Y-217576400D03*
X420116000Y-215036400D03*
X420116000Y-212496400D03*
X420116000Y-209956400D03*
D20*
X420116000Y-207416400D03*
%TD*%
D21*
%TO.C,J8*%
X371346200Y-246735600D03*
X346356200Y-246735600D03*
D22*
X354021200Y-249275600D03*
X356311200Y-249275600D03*
X358601200Y-249275600D03*
X360891200Y-249275600D03*
X363181200Y-249275600D03*
X355166200Y-246735600D03*
X357456200Y-246735600D03*
X359746200Y-246735600D03*
X362036200Y-246735600D03*
X364326200Y-246735600D03*
X354021200Y-244195600D03*
X356311200Y-244195600D03*
X358601200Y-244195600D03*
X360891200Y-244195600D03*
D23*
X363181200Y-244195600D03*
%TD*%
D19*
%TO.C,J7*%
X353974400Y-238252000D03*
X356514400Y-238252000D03*
X359054400Y-238252000D03*
X361594400Y-238252000D03*
D20*
X364134400Y-238252000D03*
%TD*%
D19*
%TO.C,J6*%
X351536000Y-162153600D03*
X348996000Y-162153600D03*
X346456000Y-162153600D03*
X343916000Y-162153600D03*
X341376000Y-162153600D03*
X338836000Y-162153600D03*
X336296000Y-162153600D03*
X333756000Y-162153600D03*
X331216000Y-162153600D03*
X328676000Y-162153600D03*
X326136000Y-162153600D03*
X323596000Y-162153600D03*
X321056000Y-162153600D03*
X318516000Y-162153600D03*
X315976000Y-162153600D03*
D20*
X313436000Y-162153600D03*
%TD*%
D19*
%TO.C,J5*%
X420116000Y-225806000D03*
D20*
X420116000Y-223266000D03*
%TD*%
D19*
%TO.C,J4*%
X351536000Y-157073600D03*
X348996000Y-157073600D03*
X346456000Y-157073600D03*
X343916000Y-157073600D03*
X341376000Y-157073600D03*
X338836000Y-157073600D03*
X336296000Y-157073600D03*
X333756000Y-157073600D03*
X331216000Y-157073600D03*
X328676000Y-157073600D03*
X326136000Y-157073600D03*
X323596000Y-157073600D03*
X321056000Y-157073600D03*
X318516000Y-157073600D03*
X315976000Y-157073600D03*
D20*
X313436000Y-157073600D03*
%TD*%
D19*
%TO.C,J3*%
X351536000Y-159613600D03*
X348996000Y-159613600D03*
X346456000Y-159613600D03*
X343916000Y-159613600D03*
X341376000Y-159613600D03*
X338836000Y-159613600D03*
X336296000Y-159613600D03*
X333756000Y-159613600D03*
X331216000Y-159613600D03*
X328676000Y-159613600D03*
X326136000Y-159613600D03*
X323596000Y-159613600D03*
X321056000Y-159613600D03*
X318516000Y-159613600D03*
X315976000Y-159613600D03*
D20*
X313436000Y-159613600D03*
%TD*%
D19*
%TO.C,J2*%
X325374000Y-254863600D03*
X322834000Y-254863600D03*
X320294000Y-254863600D03*
X317754000Y-254863600D03*
X315214000Y-254863600D03*
X312674000Y-254863600D03*
X310134000Y-254863600D03*
X307594000Y-254863600D03*
X305054000Y-254863600D03*
X302514000Y-254863600D03*
X299974000Y-254863600D03*
X297434000Y-254863600D03*
X294894000Y-254863600D03*
X292354000Y-254863600D03*
X289814000Y-254863600D03*
X287274000Y-254863600D03*
X284734000Y-254863600D03*
D20*
X282194000Y-254863600D03*
%TD*%
D19*
%TO.C,J1*%
X282194000Y-239826800D03*
X282194000Y-242366800D03*
X282194000Y-244906800D03*
X282194000Y-247446800D03*
D20*
X282194000Y-249986800D03*
%TD*%
D24*
%TO.C,C3*%
X292578800Y-244805200D03*
D25*
X287578800Y-244805200D03*
%TD*%
D24*
%TO.C,C2*%
X365273600Y-159359600D03*
D25*
X360273600Y-159359600D03*
%TD*%
D24*
%TO.C,C1*%
X289886400Y-161086800D03*
D25*
X284886400Y-161086800D03*
%TD*%
M02*
