%TF.GenerationSoftware,KiCad,Pcbnew,5.1.12-84ad8e8a86~92~ubuntu18.04.1*%
%TF.CreationDate,2022-02-09T16:29:34-05:00*%
%TF.ProjectId,kicad,6b696361-642e-46b6-9963-61645f706362,rev?*%
%TF.SameCoordinates,Original*%
%TF.FileFunction,Copper,L1,Top*%
%TF.FilePolarity,Positive*%
%FSLAX46Y46*%
G04 Gerber Fmt 4.6, Leading zero omitted, Abs format (unit mm)*
G04 Created by KiCad (PCBNEW 5.1.12-84ad8e8a86~92~ubuntu18.04.1) date 2022-02-09 16:29:34*
%MOMM*%
%LPD*%
G01*
G04 APERTURE LIST*
%TA.AperFunction,ComponentPad*%
%ADD10C,1.600000*%
%TD*%
%TA.AperFunction,ComponentPad*%
%ADD11R,1.600000X1.600000*%
%TD*%
%TA.AperFunction,ComponentPad*%
%ADD12O,1.600000X1.600000*%
%TD*%
%TA.AperFunction,ComponentPad*%
%ADD13O,1.700000X1.700000*%
%TD*%
%TA.AperFunction,ComponentPad*%
%ADD14R,1.700000X1.700000*%
%TD*%
%TA.AperFunction,ComponentPad*%
%ADD15C,4.066000*%
%TD*%
%TA.AperFunction,ComponentPad*%
%ADD16C,1.785000*%
%TD*%
%TA.AperFunction,ComponentPad*%
%ADD17R,1.785000X1.785000*%
%TD*%
%TA.AperFunction,ComponentPad*%
%ADD18C,2.000000*%
%TD*%
%TA.AperFunction,ComponentPad*%
%ADD19R,2.000000X2.000000*%
%TD*%
%TA.AperFunction,ViaPad*%
%ADD20C,0.800000*%
%TD*%
%TA.AperFunction,Conductor*%
%ADD21C,0.250000*%
%TD*%
G04 APERTURE END LIST*
D10*
%TO.P,X1,4*%
%TO.N,GND*%
X293370000Y-196951600D03*
%TO.P,X1,5*%
%TO.N,Net-(U3-Pad3)*%
X293370000Y-189331600D03*
%TO.P,X1,8*%
%TO.N,+5V*%
X285750000Y-189331600D03*
D11*
%TO.P,X1,1*%
%TO.N,Net-(X1-Pad1)*%
X285750000Y-196951600D03*
%TD*%
D12*
%TO.P,U27,20*%
%TO.N,+5V*%
X416102800Y-207162400D03*
%TO.P,U27,10*%
%TO.N,GND*%
X408482800Y-230022400D03*
%TO.P,U27,19*%
%TO.N,Net-(U13-Pad1)*%
X416102800Y-209702400D03*
%TO.P,U27,9*%
%TO.N,Net-(U21-Pad18)*%
X408482800Y-227482400D03*
%TO.P,U27,18*%
%TO.N,Net-(U21-Pad13)*%
X416102800Y-212242400D03*
%TO.P,U27,8*%
%TO.N,Net-(J9-Pad4)*%
X408482800Y-224942400D03*
%TO.P,U27,17*%
%TO.N,Net-(U27-Pad17)*%
X416102800Y-214782400D03*
%TO.P,U27,7*%
%TO.N,Net-(U27-Pad7)*%
X408482800Y-222402400D03*
%TO.P,U27,16*%
%TO.N,Net-(U21-Pad14)*%
X416102800Y-217322400D03*
%TO.P,U27,6*%
%TO.N,Net-(J9-Pad3)*%
X408482800Y-219862400D03*
%TO.P,U27,15*%
%TO.N,Net-(U27-Pad15)*%
X416102800Y-219862400D03*
%TO.P,U27,5*%
%TO.N,Net-(U27-Pad5)*%
X408482800Y-217322400D03*
%TO.P,U27,14*%
%TO.N,Net-(U21-Pad15)*%
X416102800Y-222402400D03*
%TO.P,U27,4*%
%TO.N,Net-(J9-Pad2)*%
X408482800Y-214782400D03*
%TO.P,U27,13*%
%TO.N,Net-(U27-Pad13)*%
X416102800Y-224942400D03*
%TO.P,U27,3*%
%TO.N,Net-(U27-Pad3)*%
X408482800Y-212242400D03*
%TO.P,U27,12*%
%TO.N,Net-(U21-Pad17)*%
X416102800Y-227482400D03*
%TO.P,U27,2*%
%TO.N,Net-(J9-Pad1)*%
X408482800Y-209702400D03*
%TO.P,U27,11*%
%TO.N,Net-(J9-Pad5)*%
X416102800Y-230022400D03*
D11*
%TO.P,U27,1*%
%TO.N,Net-(U13-Pad1)*%
X408482800Y-207162400D03*
%TD*%
D12*
%TO.P,U26,20*%
%TO.N,+5V*%
X416052000Y-179679600D03*
%TO.P,U26,10*%
%TO.N,GND*%
X408432000Y-202539600D03*
%TO.P,U26,19*%
%TO.N,Net-(U1-Pad1)*%
X416052000Y-182219600D03*
%TO.P,U26,9*%
%TO.N,Net-(U23-Pad18)*%
X408432000Y-199999600D03*
%TO.P,U26,18*%
%TO.N,Net-(U23-Pad13)*%
X416052000Y-184759600D03*
%TO.P,U26,8*%
%TO.N,Net-(J9-Pad4)*%
X408432000Y-197459600D03*
%TO.P,U26,17*%
%TO.N,Net-(U26-Pad17)*%
X416052000Y-187299600D03*
%TO.P,U26,7*%
%TO.N,Net-(U26-Pad7)*%
X408432000Y-194919600D03*
%TO.P,U26,16*%
%TO.N,Net-(U23-Pad14)*%
X416052000Y-189839600D03*
%TO.P,U26,6*%
%TO.N,Net-(J9-Pad3)*%
X408432000Y-192379600D03*
%TO.P,U26,15*%
%TO.N,Net-(U26-Pad15)*%
X416052000Y-192379600D03*
%TO.P,U26,5*%
%TO.N,Net-(U26-Pad5)*%
X408432000Y-189839600D03*
%TO.P,U26,14*%
%TO.N,Net-(U23-Pad15)*%
X416052000Y-194919600D03*
%TO.P,U26,4*%
%TO.N,Net-(J9-Pad2)*%
X408432000Y-187299600D03*
%TO.P,U26,13*%
%TO.N,Net-(U26-Pad13)*%
X416052000Y-197459600D03*
%TO.P,U26,3*%
%TO.N,Net-(U26-Pad3)*%
X408432000Y-184759600D03*
%TO.P,U26,12*%
%TO.N,Net-(U23-Pad17)*%
X416052000Y-199999600D03*
%TO.P,U26,2*%
%TO.N,Net-(J9-Pad1)*%
X408432000Y-182219600D03*
%TO.P,U26,11*%
%TO.N,Net-(J9-Pad5)*%
X416052000Y-202539600D03*
D11*
%TO.P,U26,1*%
%TO.N,Net-(U1-Pad1)*%
X408432000Y-179679600D03*
%TD*%
D12*
%TO.P,U25,20*%
%TO.N,+5V*%
X404520400Y-207111600D03*
%TO.P,U25,10*%
%TO.N,GND*%
X396900400Y-229971600D03*
%TO.P,U25,19*%
%TO.N,Net-(U1-Pad1)*%
X404520400Y-209651600D03*
%TO.P,U25,9*%
%TO.N,Net-(J7-Pad5)*%
X396900400Y-227431600D03*
%TO.P,U25,18*%
%TO.N,Net-(R3-Pad1)*%
X404520400Y-212191600D03*
%TO.P,U25,8*%
%TO.N,Net-(U21-Pad17)*%
X396900400Y-224891600D03*
%TO.P,U25,17*%
%TO.N,Net-(U25-Pad17)*%
X404520400Y-214731600D03*
%TO.P,U25,7*%
%TO.N,Net-(U25-Pad7)*%
X396900400Y-222351600D03*
%TO.P,U25,16*%
%TO.N,Net-(R4-Pad1)*%
X404520400Y-217271600D03*
%TO.P,U25,6*%
%TO.N,Net-(U21-Pad15)*%
X396900400Y-219811600D03*
%TO.P,U25,15*%
%TO.N,Net-(U25-Pad15)*%
X404520400Y-219811600D03*
%TO.P,U25,5*%
%TO.N,Net-(U25-Pad5)*%
X396900400Y-217271600D03*
%TO.P,U25,14*%
%TO.N,Net-(R5-Pad1)*%
X404520400Y-222351600D03*
%TO.P,U25,4*%
%TO.N,Net-(U21-Pad14)*%
X396900400Y-214731600D03*
%TO.P,U25,13*%
%TO.N,Net-(U25-Pad13)*%
X404520400Y-224891600D03*
%TO.P,U25,3*%
%TO.N,Net-(U25-Pad3)*%
X396900400Y-212191600D03*
%TO.P,U25,12*%
%TO.N,Net-(J7-Pad4)*%
X404520400Y-227431600D03*
%TO.P,U25,2*%
%TO.N,Net-(U21-Pad13)*%
X396900400Y-209651600D03*
%TO.P,U25,11*%
%TO.N,Net-(U21-Pad18)*%
X404520400Y-229971600D03*
D11*
%TO.P,U25,1*%
%TO.N,Net-(U1-Pad1)*%
X396900400Y-207111600D03*
%TD*%
D12*
%TO.P,U24,20*%
%TO.N,+5V*%
X404368000Y-179578000D03*
%TO.P,U24,10*%
%TO.N,GND*%
X396748000Y-202438000D03*
%TO.P,U24,19*%
%TO.N,Net-(U13-Pad1)*%
X404368000Y-182118000D03*
%TO.P,U24,9*%
%TO.N,Net-(J7-Pad5)*%
X396748000Y-199898000D03*
%TO.P,U24,18*%
%TO.N,Net-(R3-Pad1)*%
X404368000Y-184658000D03*
%TO.P,U24,8*%
%TO.N,Net-(U23-Pad17)*%
X396748000Y-197358000D03*
%TO.P,U24,17*%
%TO.N,Net-(U24-Pad17)*%
X404368000Y-187198000D03*
%TO.P,U24,7*%
%TO.N,Net-(U24-Pad7)*%
X396748000Y-194818000D03*
%TO.P,U24,16*%
%TO.N,Net-(R4-Pad1)*%
X404368000Y-189738000D03*
%TO.P,U24,6*%
%TO.N,Net-(U23-Pad15)*%
X396748000Y-192278000D03*
%TO.P,U24,15*%
%TO.N,Net-(U24-Pad15)*%
X404368000Y-192278000D03*
%TO.P,U24,5*%
%TO.N,Net-(U24-Pad5)*%
X396748000Y-189738000D03*
%TO.P,U24,14*%
%TO.N,Net-(R5-Pad1)*%
X404368000Y-194818000D03*
%TO.P,U24,4*%
%TO.N,Net-(U23-Pad14)*%
X396748000Y-187198000D03*
%TO.P,U24,13*%
%TO.N,Net-(U24-Pad13)*%
X404368000Y-197358000D03*
%TO.P,U24,3*%
%TO.N,Net-(U24-Pad3)*%
X396748000Y-184658000D03*
%TO.P,U24,12*%
%TO.N,Net-(J7-Pad4)*%
X404368000Y-199898000D03*
%TO.P,U24,2*%
%TO.N,Net-(U23-Pad13)*%
X396748000Y-182118000D03*
%TO.P,U24,11*%
%TO.N,Net-(U23-Pad18)*%
X404368000Y-202438000D03*
D11*
%TO.P,U24,1*%
%TO.N,Net-(U13-Pad1)*%
X396748000Y-179578000D03*
%TD*%
D12*
%TO.P,U23,32*%
%TO.N,+5V*%
X422249600Y-172110400D03*
%TO.P,U23,16*%
%TO.N,GND*%
X384149600Y-156870400D03*
%TO.P,U23,31*%
%TO.N,Net-(U13-Pad7)*%
X419709600Y-172110400D03*
%TO.P,U23,15*%
%TO.N,Net-(U23-Pad15)*%
X386689600Y-156870400D03*
%TO.P,U23,30*%
%TO.N,Net-(U16-Pad9)*%
X417169600Y-172110400D03*
%TO.P,U23,14*%
%TO.N,Net-(U23-Pad14)*%
X389229600Y-156870400D03*
%TO.P,U23,29*%
%TO.N,Net-(U16-Pad4)*%
X414629600Y-172110400D03*
%TO.P,U23,13*%
%TO.N,Net-(U23-Pad13)*%
X391769600Y-156870400D03*
%TO.P,U23,28*%
%TO.N,Net-(U13-Pad9)*%
X412089600Y-172110400D03*
%TO.P,U23,12*%
%TO.N,Net-(U2-Pad12)*%
X394309600Y-156870400D03*
%TO.P,U23,27*%
%TO.N,Net-(U23-Pad27)*%
X409549600Y-172110400D03*
%TO.P,U23,11*%
%TO.N,Net-(U2-Pad9)*%
X396849600Y-156870400D03*
%TO.P,U23,26*%
%TO.N,Net-(U23-Pad26)*%
X407009600Y-172110400D03*
%TO.P,U23,10*%
%TO.N,Net-(U2-Pad4)*%
X399389600Y-156870400D03*
%TO.P,U23,25*%
%TO.N,Net-(U23-Pad25)*%
X404469600Y-172110400D03*
%TO.P,U23,9*%
%TO.N,Net-(U2-Pad7)*%
X401929600Y-156870400D03*
%TO.P,U23,24*%
%TO.N,Net-(U13-Pad1)*%
X401929600Y-172110400D03*
%TO.P,U23,8*%
%TO.N,Net-(U23-Pad8)*%
X404469600Y-156870400D03*
%TO.P,U23,23*%
%TO.N,Net-(U23-Pad23)*%
X399389600Y-172110400D03*
%TO.P,U23,7*%
%TO.N,Net-(U23-Pad7)*%
X407009600Y-156870400D03*
%TO.P,U23,22*%
%TO.N,Net-(U16-Pad7)*%
X396849600Y-172110400D03*
%TO.P,U23,6*%
%TO.N,Net-(U23-Pad6)*%
X409549600Y-156870400D03*
%TO.P,U23,21*%
%TO.N,Net-(U23-Pad21)*%
X394309600Y-172110400D03*
%TO.P,U23,5*%
%TO.N,Net-(U23-Pad5)*%
X412089600Y-156870400D03*
%TO.P,U23,20*%
%TO.N,Net-(U23-Pad20)*%
X391769600Y-172110400D03*
%TO.P,U23,4*%
%TO.N,Net-(U13-Pad12)*%
X414629600Y-156870400D03*
%TO.P,U23,19*%
%TO.N,Net-(U23-Pad19)*%
X389229600Y-172110400D03*
%TO.P,U23,3*%
%TO.N,Net-(U13-Pad4)*%
X417169600Y-156870400D03*
%TO.P,U23,18*%
%TO.N,Net-(U23-Pad18)*%
X386689600Y-172110400D03*
%TO.P,U23,2*%
%TO.N,Net-(U16-Pad12)*%
X419709600Y-156870400D03*
%TO.P,U23,17*%
%TO.N,Net-(U23-Pad17)*%
X384149600Y-172110400D03*
D11*
%TO.P,U23,1*%
%TO.N,GND*%
X422249600Y-156870400D03*
%TD*%
D12*
%TO.P,U22,14*%
%TO.N,+5V*%
X388467600Y-184200800D03*
%TO.P,U22,7*%
%TO.N,GND*%
X380847600Y-199440800D03*
%TO.P,U22,13*%
%TO.N,+5V*%
X388467600Y-186740800D03*
%TO.P,U22,6*%
%TO.N,Net-(U22-Pad6)*%
X380847600Y-196900800D03*
%TO.P,U22,12*%
%TO.N,Net-(U1-Pad1)*%
X388467600Y-189280800D03*
%TO.P,U22,5*%
%TO.N,Net-(U22-Pad5)*%
X380847600Y-194360800D03*
%TO.P,U22,11*%
%TO.N,Net-(U20-Pad2)*%
X388467600Y-191820800D03*
%TO.P,U22,4*%
%TO.N,Net-(U22-Pad4)*%
X380847600Y-191820800D03*
%TO.P,U22,10*%
%TO.N,+5V*%
X388467600Y-194360800D03*
%TO.P,U22,3*%
%TO.N,Net-(U22-Pad3)*%
X380847600Y-189280800D03*
%TO.P,U22,9*%
%TO.N,Net-(U13-Pad1)*%
X388467600Y-196900800D03*
%TO.P,U22,2*%
%TO.N,Net-(U22-Pad2)*%
X380847600Y-186740800D03*
%TO.P,U22,8*%
%TO.N,Net-(U1-Pad1)*%
X388467600Y-199440800D03*
D11*
%TO.P,U22,1*%
%TO.N,Net-(U22-Pad1)*%
X380847600Y-184200800D03*
%TD*%
D12*
%TO.P,U21,32*%
%TO.N,+5V*%
X383387600Y-240182400D03*
%TO.P,U21,16*%
%TO.N,GND*%
X421487600Y-255422400D03*
%TO.P,U21,31*%
%TO.N,Net-(U12-Pad7)*%
X385927600Y-240182400D03*
%TO.P,U21,15*%
%TO.N,Net-(U21-Pad15)*%
X418947600Y-255422400D03*
%TO.P,U21,30*%
%TO.N,Net-(U15-Pad9)*%
X388467600Y-240182400D03*
%TO.P,U21,14*%
%TO.N,Net-(U21-Pad14)*%
X416407600Y-255422400D03*
%TO.P,U21,29*%
%TO.N,Net-(U15-Pad4)*%
X391007600Y-240182400D03*
%TO.P,U21,13*%
%TO.N,Net-(U21-Pad13)*%
X413867600Y-255422400D03*
%TO.P,U21,28*%
%TO.N,Net-(U12-Pad9)*%
X393547600Y-240182400D03*
%TO.P,U21,12*%
%TO.N,Net-(U1-Pad12)*%
X411327600Y-255422400D03*
%TO.P,U21,27*%
%TO.N,Net-(U21-Pad27)*%
X396087600Y-240182400D03*
%TO.P,U21,11*%
%TO.N,Net-(U1-Pad9)*%
X408787600Y-255422400D03*
%TO.P,U21,26*%
%TO.N,Net-(U21-Pad26)*%
X398627600Y-240182400D03*
%TO.P,U21,10*%
%TO.N,Net-(U1-Pad4)*%
X406247600Y-255422400D03*
%TO.P,U21,25*%
%TO.N,Net-(U21-Pad25)*%
X401167600Y-240182400D03*
%TO.P,U21,9*%
%TO.N,Net-(U1-Pad7)*%
X403707600Y-255422400D03*
%TO.P,U21,24*%
%TO.N,Net-(U1-Pad1)*%
X403707600Y-240182400D03*
%TO.P,U21,8*%
%TO.N,Net-(U21-Pad8)*%
X401167600Y-255422400D03*
%TO.P,U21,23*%
%TO.N,Net-(U21-Pad23)*%
X406247600Y-240182400D03*
%TO.P,U21,7*%
%TO.N,Net-(U21-Pad7)*%
X398627600Y-255422400D03*
%TO.P,U21,22*%
%TO.N,Net-(U15-Pad7)*%
X408787600Y-240182400D03*
%TO.P,U21,6*%
%TO.N,Net-(U21-Pad6)*%
X396087600Y-255422400D03*
%TO.P,U21,21*%
%TO.N,Net-(U21-Pad21)*%
X411327600Y-240182400D03*
%TO.P,U21,5*%
%TO.N,Net-(U21-Pad5)*%
X393547600Y-255422400D03*
%TO.P,U21,20*%
%TO.N,Net-(U21-Pad20)*%
X413867600Y-240182400D03*
%TO.P,U21,4*%
%TO.N,Net-(U12-Pad12)*%
X391007600Y-255422400D03*
%TO.P,U21,19*%
%TO.N,Net-(U21-Pad19)*%
X416407600Y-240182400D03*
%TO.P,U21,3*%
%TO.N,Net-(U12-Pad4)*%
X388467600Y-255422400D03*
%TO.P,U21,18*%
%TO.N,Net-(U21-Pad18)*%
X418947600Y-240182400D03*
%TO.P,U21,2*%
%TO.N,Net-(U15-Pad12)*%
X385927600Y-255422400D03*
%TO.P,U21,17*%
%TO.N,Net-(U21-Pad17)*%
X421487600Y-240182400D03*
D11*
%TO.P,U21,1*%
%TO.N,GND*%
X383387600Y-255422400D03*
%TD*%
D12*
%TO.P,U20,14*%
%TO.N,+5V*%
X375056400Y-184251600D03*
%TO.P,U20,7*%
%TO.N,GND*%
X367436400Y-199491600D03*
%TO.P,U20,13*%
%TO.N,Net-(U15-Pad14)*%
X375056400Y-186791600D03*
%TO.P,U20,6*%
%TO.N,Net-(U20-Pad6)*%
X367436400Y-196951600D03*
%TO.P,U20,12*%
%TO.N,Net-(U18-Pad10)*%
X375056400Y-189331600D03*
%TO.P,U20,5*%
%TO.N,Net-(U20-Pad5)*%
X367436400Y-194411600D03*
%TO.P,U20,11*%
%TO.N,Net-(U15-Pad11)*%
X375056400Y-191871600D03*
%TO.P,U20,4*%
%TO.N,Net-(U20-Pad4)*%
X367436400Y-191871600D03*
%TO.P,U20,10*%
%TO.N,Net-(U18-Pad9)*%
X375056400Y-194411600D03*
%TO.P,U20,3*%
%TO.N,Net-(U20-Pad3)*%
X367436400Y-189331600D03*
%TO.P,U20,9*%
%TO.N,Net-(J5-Pad1)*%
X375056400Y-196951600D03*
%TO.P,U20,2*%
%TO.N,Net-(U20-Pad2)*%
X367436400Y-186791600D03*
%TO.P,U20,8*%
%TO.N,Net-(U18-Pad5)*%
X375056400Y-199491600D03*
D11*
%TO.P,U20,1*%
%TO.N,Net-(U18-Pad6)*%
X367436400Y-184251600D03*
%TD*%
D12*
%TO.P,U19,16*%
%TO.N,+5V*%
X362407200Y-184099200D03*
%TO.P,U19,8*%
%TO.N,GND*%
X354787200Y-201879200D03*
%TO.P,U19,15*%
%TO.N,Net-(U19-Pad15)*%
X362407200Y-186639200D03*
%TO.P,U19,7*%
%TO.N,Net-(U17-Pad15)*%
X354787200Y-199339200D03*
%TO.P,U19,14*%
%TO.N,Net-(U15-Pad14)*%
X362407200Y-189179200D03*
%TO.P,U19,6*%
%TO.N,Net-(U19-Pad6)*%
X354787200Y-196799200D03*
%TO.P,U19,13*%
%TO.N,Net-(U15-Pad11)*%
X362407200Y-191719200D03*
%TO.P,U19,5*%
%TO.N,Net-(U19-Pad5)*%
X354787200Y-194259200D03*
%TO.P,U19,12*%
%TO.N,Net-(U19-Pad12)*%
X362407200Y-194259200D03*
%TO.P,U19,4*%
%TO.N,Net-(U19-Pad4)*%
X354787200Y-191719200D03*
%TO.P,U19,11*%
%TO.N,Net-(U19-Pad11)*%
X362407200Y-196799200D03*
%TO.P,U19,3*%
%TO.N,Net-(U19-Pad3)*%
X354787200Y-189179200D03*
%TO.P,U19,10*%
%TO.N,Net-(U17-Pad15)*%
X362407200Y-199339200D03*
%TO.P,U19,2*%
%TO.N,Net-(U11-Pad2)*%
X354787200Y-186639200D03*
%TO.P,U19,9*%
%TO.N,+5V*%
X362407200Y-201879200D03*
D11*
%TO.P,U19,1*%
%TO.N,Net-(U11-Pad1)*%
X354787200Y-184099200D03*
%TD*%
D12*
%TO.P,U18,14*%
%TO.N,+5V*%
X379476000Y-156565600D03*
%TO.P,U18,7*%
%TO.N,GND*%
X371856000Y-171805600D03*
%TO.P,U18,13*%
%TO.N,Net-(U18-Pad13)*%
X379476000Y-159105600D03*
%TO.P,U18,6*%
%TO.N,Net-(U18-Pad6)*%
X371856000Y-169265600D03*
%TO.P,U18,12*%
%TO.N,Net-(U10-Pad19)*%
X379476000Y-161645600D03*
%TO.P,U18,5*%
%TO.N,Net-(U18-Pad5)*%
X371856000Y-166725600D03*
%TO.P,U18,11*%
%TO.N,Net-(U18-Pad1)*%
X379476000Y-164185600D03*
%TO.P,U18,4*%
%TO.N,Net-(J5-Pad2)*%
X371856000Y-164185600D03*
%TO.P,U18,10*%
%TO.N,Net-(U18-Pad10)*%
X379476000Y-166725600D03*
%TO.P,U18,3*%
%TO.N,Net-(U11-Pad1)*%
X371856000Y-161645600D03*
%TO.P,U18,9*%
%TO.N,Net-(U18-Pad9)*%
X379476000Y-169265600D03*
%TO.P,U18,2*%
%TO.N,Net-(U18-Pad2)*%
X371856000Y-159105600D03*
%TO.P,U18,8*%
X379476000Y-171805600D03*
D11*
%TO.P,U18,1*%
%TO.N,Net-(U18-Pad1)*%
X371856000Y-156565600D03*
%TD*%
D12*
%TO.P,U17,16*%
%TO.N,Net-(U17-Pad16)*%
X350316800Y-184150000D03*
%TO.P,U17,8*%
%TO.N,Net-(U17-Pad8)*%
X342696800Y-201930000D03*
%TO.P,U17,15*%
%TO.N,Net-(U17-Pad15)*%
X350316800Y-186690000D03*
%TO.P,U17,7*%
%TO.N,Net-(U14-Pad15)*%
X342696800Y-199390000D03*
%TO.P,U17,14*%
%TO.N,Net-(U10-Pad8)*%
X350316800Y-189230000D03*
%TO.P,U17,6*%
%TO.N,Net-(U17-Pad6)*%
X342696800Y-196850000D03*
%TO.P,U17,13*%
%TO.N,Net-(U10-Pad6)*%
X350316800Y-191770000D03*
%TO.P,U17,5*%
%TO.N,Net-(U17-Pad5)*%
X342696800Y-194310000D03*
%TO.P,U17,12*%
%TO.N,Net-(U10-Pad4)*%
X350316800Y-194310000D03*
%TO.P,U17,4*%
%TO.N,Net-(U17-Pad4)*%
X342696800Y-191770000D03*
%TO.P,U17,11*%
%TO.N,Net-(U10-Pad2)*%
X350316800Y-196850000D03*
%TO.P,U17,3*%
%TO.N,Net-(U17-Pad3)*%
X342696800Y-189230000D03*
%TO.P,U17,10*%
%TO.N,Net-(U14-Pad15)*%
X350316800Y-199390000D03*
%TO.P,U17,2*%
%TO.N,Net-(U11-Pad2)*%
X342696800Y-186690000D03*
%TO.P,U17,9*%
%TO.N,+5V*%
X350316800Y-201930000D03*
D11*
%TO.P,U17,1*%
%TO.N,Net-(U11-Pad1)*%
X342696800Y-184150000D03*
%TD*%
D12*
%TO.P,U16,16*%
%TO.N,+5V*%
X371602000Y-207721200D03*
%TO.P,U16,8*%
%TO.N,GND*%
X389382000Y-215341200D03*
%TO.P,U16,15*%
X374142000Y-207721200D03*
%TO.P,U16,7*%
%TO.N,Net-(U16-Pad7)*%
X386842000Y-215341200D03*
%TO.P,U16,14*%
%TO.N,Net-(U15-Pad14)*%
X376682000Y-207721200D03*
%TO.P,U16,6*%
%TO.N,Net-(J5-Pad2)*%
X384302000Y-215341200D03*
%TO.P,U16,13*%
%TO.N,Net-(J2-Pad17)*%
X379222000Y-207721200D03*
%TO.P,U16,5*%
%TO.N,GND*%
X381762000Y-215341200D03*
%TO.P,U16,12*%
%TO.N,Net-(U16-Pad12)*%
X381762000Y-207721200D03*
%TO.P,U16,4*%
%TO.N,Net-(U16-Pad4)*%
X379222000Y-215341200D03*
%TO.P,U16,11*%
%TO.N,Net-(U15-Pad11)*%
X384302000Y-207721200D03*
%TO.P,U16,3*%
%TO.N,Net-(J5-Pad1)*%
X376682000Y-215341200D03*
%TO.P,U16,10*%
%TO.N,Net-(J2-Pad18)*%
X386842000Y-207721200D03*
%TO.P,U16,2*%
%TO.N,+5V*%
X374142000Y-215341200D03*
%TO.P,U16,9*%
%TO.N,Net-(U16-Pad9)*%
X389382000Y-207721200D03*
D11*
%TO.P,U16,1*%
%TO.N,Net-(U13-Pad1)*%
X371602000Y-215341200D03*
%TD*%
D12*
%TO.P,U15,16*%
%TO.N,+5V*%
X371652800Y-219760800D03*
%TO.P,U15,8*%
%TO.N,GND*%
X389432800Y-227380800D03*
%TO.P,U15,15*%
X374192800Y-219760800D03*
%TO.P,U15,7*%
%TO.N,Net-(U15-Pad7)*%
X386892800Y-227380800D03*
%TO.P,U15,14*%
%TO.N,Net-(U15-Pad14)*%
X376732800Y-219760800D03*
%TO.P,U15,6*%
%TO.N,Net-(J5-Pad2)*%
X384352800Y-227380800D03*
%TO.P,U15,13*%
%TO.N,Net-(J2-Pad17)*%
X379272800Y-219760800D03*
%TO.P,U15,5*%
%TO.N,GND*%
X381812800Y-227380800D03*
%TO.P,U15,12*%
%TO.N,Net-(U15-Pad12)*%
X381812800Y-219760800D03*
%TO.P,U15,4*%
%TO.N,Net-(U15-Pad4)*%
X379272800Y-227380800D03*
%TO.P,U15,11*%
%TO.N,Net-(U15-Pad11)*%
X384352800Y-219760800D03*
%TO.P,U15,3*%
%TO.N,Net-(J5-Pad1)*%
X376732800Y-227380800D03*
%TO.P,U15,10*%
%TO.N,Net-(J2-Pad18)*%
X386892800Y-219760800D03*
%TO.P,U15,2*%
%TO.N,+5V*%
X374192800Y-227380800D03*
%TO.P,U15,9*%
%TO.N,Net-(U15-Pad9)*%
X389432800Y-219760800D03*
D11*
%TO.P,U15,1*%
%TO.N,Net-(U1-Pad1)*%
X371652800Y-227380800D03*
%TD*%
D12*
%TO.P,U14,16*%
%TO.N,+5V*%
X338226400Y-184200800D03*
%TO.P,U14,8*%
%TO.N,GND*%
X330606400Y-201980800D03*
%TO.P,U14,15*%
%TO.N,Net-(U14-Pad15)*%
X338226400Y-186740800D03*
%TO.P,U14,7*%
%TO.N,Net-(U11-Pad15)*%
X330606400Y-199440800D03*
%TO.P,U14,14*%
%TO.N,Net-(U10-Pad17)*%
X338226400Y-189280800D03*
%TO.P,U14,6*%
%TO.N,Net-(U14-Pad6)*%
X330606400Y-196900800D03*
%TO.P,U14,13*%
%TO.N,Net-(U10-Pad15)*%
X338226400Y-191820800D03*
%TO.P,U14,5*%
%TO.N,Net-(U14-Pad5)*%
X330606400Y-194360800D03*
%TO.P,U14,12*%
%TO.N,Net-(U10-Pad13)*%
X338226400Y-194360800D03*
%TO.P,U14,4*%
%TO.N,Net-(U14-Pad4)*%
X330606400Y-191820800D03*
%TO.P,U14,11*%
%TO.N,Net-(U10-Pad11)*%
X338226400Y-196900800D03*
%TO.P,U14,3*%
%TO.N,Net-(U14-Pad3)*%
X330606400Y-189280800D03*
%TO.P,U14,10*%
%TO.N,Net-(U11-Pad15)*%
X338226400Y-199440800D03*
%TO.P,U14,2*%
%TO.N,Net-(U11-Pad2)*%
X330606400Y-186740800D03*
%TO.P,U14,9*%
%TO.N,+5V*%
X338226400Y-201980800D03*
D11*
%TO.P,U14,1*%
%TO.N,Net-(U11-Pad1)*%
X330606400Y-184200800D03*
%TD*%
D12*
%TO.P,U13,16*%
%TO.N,+5V*%
X349910400Y-207772000D03*
%TO.P,U13,8*%
%TO.N,GND*%
X367690400Y-215392000D03*
%TO.P,U13,15*%
X352450400Y-207772000D03*
%TO.P,U13,7*%
%TO.N,Net-(U13-Pad7)*%
X365150400Y-215392000D03*
%TO.P,U13,14*%
%TO.N,Net-(U10-Pad8)*%
X354990400Y-207772000D03*
%TO.P,U13,6*%
%TO.N,Net-(J2-Pad16)*%
X362610400Y-215392000D03*
%TO.P,U13,13*%
%TO.N,Net-(J2-Pad13)*%
X357530400Y-207772000D03*
%TO.P,U13,5*%
%TO.N,Net-(U10-Pad2)*%
X360070400Y-215392000D03*
%TO.P,U13,12*%
%TO.N,Net-(U13-Pad12)*%
X360070400Y-207772000D03*
%TO.P,U13,4*%
%TO.N,Net-(U13-Pad4)*%
X357530400Y-215392000D03*
%TO.P,U13,11*%
%TO.N,Net-(U10-Pad6)*%
X362610400Y-207772000D03*
%TO.P,U13,3*%
%TO.N,Net-(J2-Pad15)*%
X354990400Y-215392000D03*
%TO.P,U13,10*%
%TO.N,Net-(J2-Pad14)*%
X365150400Y-207772000D03*
%TO.P,U13,2*%
%TO.N,Net-(U10-Pad4)*%
X352450400Y-215392000D03*
%TO.P,U13,9*%
%TO.N,Net-(U13-Pad9)*%
X367690400Y-207772000D03*
D11*
%TO.P,U13,1*%
%TO.N,Net-(U13-Pad1)*%
X349910400Y-215392000D03*
%TD*%
D12*
%TO.P,U12,16*%
%TO.N,+5V*%
X349758000Y-219760800D03*
%TO.P,U12,8*%
%TO.N,GND*%
X367538000Y-227380800D03*
%TO.P,U12,15*%
X352298000Y-219760800D03*
%TO.P,U12,7*%
%TO.N,Net-(U12-Pad7)*%
X364998000Y-227380800D03*
%TO.P,U12,14*%
%TO.N,Net-(U10-Pad8)*%
X354838000Y-219760800D03*
%TO.P,U12,6*%
%TO.N,Net-(J2-Pad16)*%
X362458000Y-227380800D03*
%TO.P,U12,13*%
%TO.N,Net-(J2-Pad13)*%
X357378000Y-219760800D03*
%TO.P,U12,5*%
%TO.N,Net-(U10-Pad2)*%
X359918000Y-227380800D03*
%TO.P,U12,12*%
%TO.N,Net-(U12-Pad12)*%
X359918000Y-219760800D03*
%TO.P,U12,4*%
%TO.N,Net-(U12-Pad4)*%
X357378000Y-227380800D03*
%TO.P,U12,11*%
%TO.N,Net-(U10-Pad6)*%
X362458000Y-219760800D03*
%TO.P,U12,3*%
%TO.N,Net-(J2-Pad15)*%
X354838000Y-227380800D03*
%TO.P,U12,10*%
%TO.N,Net-(J2-Pad14)*%
X364998000Y-219760800D03*
%TO.P,U12,2*%
%TO.N,Net-(U10-Pad4)*%
X352298000Y-227380800D03*
%TO.P,U12,9*%
%TO.N,Net-(U12-Pad9)*%
X367538000Y-219760800D03*
D11*
%TO.P,U12,1*%
%TO.N,Net-(U1-Pad1)*%
X349758000Y-227380800D03*
%TD*%
D12*
%TO.P,U11,16*%
%TO.N,+5V*%
X326948800Y-184200800D03*
%TO.P,U11,8*%
%TO.N,GND*%
X319328800Y-201980800D03*
%TO.P,U11,15*%
%TO.N,Net-(U11-Pad15)*%
X326948800Y-186740800D03*
%TO.P,U11,7*%
%TO.N,Net-(U11-Pad10)*%
X319328800Y-199440800D03*
%TO.P,U11,14*%
%TO.N,Net-(U11-Pad14)*%
X326948800Y-189280800D03*
%TO.P,U11,6*%
%TO.N,Net-(U11-Pad6)*%
X319328800Y-196900800D03*
%TO.P,U11,13*%
%TO.N,Net-(U11-Pad13)*%
X326948800Y-191820800D03*
%TO.P,U11,5*%
%TO.N,Net-(U11-Pad5)*%
X319328800Y-194360800D03*
%TO.P,U11,12*%
%TO.N,Net-(U11-Pad12)*%
X326948800Y-194360800D03*
%TO.P,U11,4*%
%TO.N,Net-(U11-Pad4)*%
X319328800Y-191820800D03*
%TO.P,U11,11*%
%TO.N,Net-(U11-Pad11)*%
X326948800Y-196900800D03*
%TO.P,U11,3*%
%TO.N,Net-(U11-Pad3)*%
X319328800Y-189280800D03*
%TO.P,U11,10*%
%TO.N,Net-(U11-Pad10)*%
X326948800Y-199440800D03*
%TO.P,U11,2*%
%TO.N,Net-(U11-Pad2)*%
X319328800Y-186740800D03*
%TO.P,U11,9*%
%TO.N,+5V*%
X326948800Y-201980800D03*
D11*
%TO.P,U11,1*%
%TO.N,Net-(U11-Pad1)*%
X319328800Y-184200800D03*
%TD*%
D12*
%TO.P,U10,20*%
%TO.N,+5V*%
X359816400Y-177647600D03*
%TO.P,U10,10*%
%TO.N,GND*%
X336956400Y-170027600D03*
%TO.P,U10,19*%
%TO.N,Net-(U10-Pad19)*%
X357276400Y-177647600D03*
%TO.P,U10,9*%
%TO.N,Net-(J3-Pad13)*%
X339496400Y-170027600D03*
%TO.P,U10,18*%
%TO.N,Net-(J3-Pad9)*%
X354736400Y-177647600D03*
%TO.P,U10,8*%
%TO.N,Net-(U10-Pad8)*%
X342036400Y-170027600D03*
%TO.P,U10,17*%
%TO.N,Net-(U10-Pad17)*%
X352196400Y-177647600D03*
%TO.P,U10,7*%
%TO.N,Net-(J3-Pad14)*%
X344576400Y-170027600D03*
%TO.P,U10,16*%
%TO.N,Net-(J3-Pad10)*%
X349656400Y-177647600D03*
%TO.P,U10,6*%
%TO.N,Net-(U10-Pad6)*%
X347116400Y-170027600D03*
%TO.P,U10,15*%
%TO.N,Net-(U10-Pad15)*%
X347116400Y-177647600D03*
%TO.P,U10,5*%
%TO.N,Net-(J3-Pad15)*%
X349656400Y-170027600D03*
%TO.P,U10,14*%
%TO.N,Net-(J3-Pad11)*%
X344576400Y-177647600D03*
%TO.P,U10,4*%
%TO.N,Net-(U10-Pad4)*%
X352196400Y-170027600D03*
%TO.P,U10,13*%
%TO.N,Net-(U10-Pad13)*%
X342036400Y-177647600D03*
%TO.P,U10,3*%
%TO.N,Net-(J3-Pad16)*%
X354736400Y-170027600D03*
%TO.P,U10,12*%
%TO.N,Net-(J3-Pad12)*%
X339496400Y-177647600D03*
%TO.P,U10,2*%
%TO.N,Net-(U10-Pad2)*%
X357276400Y-170027600D03*
%TO.P,U10,11*%
%TO.N,Net-(U10-Pad11)*%
X336956400Y-177647600D03*
D11*
%TO.P,U10,1*%
%TO.N,Net-(U10-Pad1)*%
X359816400Y-170027600D03*
%TD*%
D12*
%TO.P,U9,16*%
%TO.N,+5V*%
X328066400Y-219760800D03*
%TO.P,U9,8*%
%TO.N,GND*%
X345846400Y-227380800D03*
%TO.P,U9,15*%
X330606400Y-219760800D03*
%TO.P,U9,7*%
%TO.N,Net-(U21-Pad25)*%
X343306400Y-227380800D03*
%TO.P,U9,14*%
%TO.N,Net-(U10-Pad17)*%
X333146400Y-219760800D03*
%TO.P,U9,6*%
%TO.N,Net-(J2-Pad12)*%
X340766400Y-227380800D03*
%TO.P,U9,13*%
%TO.N,Net-(J2-Pad9)*%
X335686400Y-219760800D03*
%TO.P,U9,5*%
%TO.N,Net-(U10-Pad11)*%
X338226400Y-227380800D03*
%TO.P,U9,12*%
%TO.N,Net-(U21-Pad27)*%
X338226400Y-219760800D03*
%TO.P,U9,4*%
%TO.N,Net-(U21-Pad23)*%
X335686400Y-227380800D03*
%TO.P,U9,11*%
%TO.N,Net-(U10-Pad15)*%
X340766400Y-219760800D03*
%TO.P,U9,3*%
%TO.N,Net-(J2-Pad11)*%
X333146400Y-227380800D03*
%TO.P,U9,10*%
%TO.N,Net-(J2-Pad10)*%
X343306400Y-219760800D03*
%TO.P,U9,2*%
%TO.N,Net-(U10-Pad13)*%
X330606400Y-227380800D03*
%TO.P,U9,9*%
%TO.N,Net-(U21-Pad26)*%
X345846400Y-219760800D03*
D11*
%TO.P,U9,1*%
%TO.N,Net-(U1-Pad1)*%
X328066400Y-227380800D03*
%TD*%
D12*
%TO.P,U8,16*%
%TO.N,+5V*%
X328015600Y-207822800D03*
%TO.P,U8,8*%
%TO.N,GND*%
X345795600Y-215442800D03*
%TO.P,U8,15*%
X330555600Y-207822800D03*
%TO.P,U8,7*%
%TO.N,Net-(U23-Pad25)*%
X343255600Y-215442800D03*
%TO.P,U8,14*%
%TO.N,Net-(U10-Pad17)*%
X333095600Y-207822800D03*
%TO.P,U8,6*%
%TO.N,Net-(J2-Pad12)*%
X340715600Y-215442800D03*
%TO.P,U8,13*%
%TO.N,Net-(J2-Pad9)*%
X335635600Y-207822800D03*
%TO.P,U8,5*%
%TO.N,Net-(U10-Pad11)*%
X338175600Y-215442800D03*
%TO.P,U8,12*%
%TO.N,Net-(U23-Pad27)*%
X338175600Y-207822800D03*
%TO.P,U8,4*%
%TO.N,Net-(U23-Pad23)*%
X335635600Y-215442800D03*
%TO.P,U8,11*%
%TO.N,Net-(U10-Pad15)*%
X340715600Y-207822800D03*
%TO.P,U8,3*%
%TO.N,Net-(J2-Pad11)*%
X333095600Y-215442800D03*
%TO.P,U8,10*%
%TO.N,Net-(J2-Pad10)*%
X343255600Y-207822800D03*
%TO.P,U8,2*%
%TO.N,Net-(U10-Pad13)*%
X330555600Y-215442800D03*
%TO.P,U8,9*%
%TO.N,Net-(U23-Pad26)*%
X345795600Y-207822800D03*
D11*
%TO.P,U8,1*%
%TO.N,Net-(U13-Pad1)*%
X328015600Y-215442800D03*
%TD*%
D12*
%TO.P,U7,16*%
%TO.N,+5V*%
X315569600Y-184200800D03*
%TO.P,U7,8*%
%TO.N,GND*%
X307949600Y-201980800D03*
%TO.P,U7,15*%
%TO.N,Net-(U11-Pad10)*%
X315569600Y-186740800D03*
%TO.P,U7,7*%
%TO.N,+5V*%
X307949600Y-199440800D03*
%TO.P,U7,14*%
%TO.N,Net-(U1-Pad14)*%
X315569600Y-189280800D03*
%TO.P,U7,6*%
%TO.N,Net-(U7-Pad6)*%
X307949600Y-196900800D03*
%TO.P,U7,13*%
%TO.N,Net-(U1-Pad11)*%
X315569600Y-191820800D03*
%TO.P,U7,5*%
%TO.N,Net-(U7-Pad5)*%
X307949600Y-194360800D03*
%TO.P,U7,12*%
%TO.N,Net-(U1-Pad2)*%
X315569600Y-194360800D03*
%TO.P,U7,4*%
%TO.N,Net-(U7-Pad4)*%
X307949600Y-191820800D03*
%TO.P,U7,11*%
%TO.N,Net-(U1-Pad5)*%
X315569600Y-196900800D03*
%TO.P,U7,3*%
%TO.N,Net-(U7-Pad3)*%
X307949600Y-189280800D03*
%TO.P,U7,10*%
%TO.N,+5V*%
X315569600Y-199440800D03*
%TO.P,U7,2*%
%TO.N,Net-(U11-Pad2)*%
X307949600Y-186740800D03*
%TO.P,U7,9*%
%TO.N,+5V*%
X315569600Y-201980800D03*
D11*
%TO.P,U7,1*%
%TO.N,Net-(U11-Pad1)*%
X307949600Y-184200800D03*
%TD*%
D12*
%TO.P,U6,16*%
%TO.N,+5V*%
X306425600Y-219811600D03*
%TO.P,U6,8*%
%TO.N,GND*%
X324205600Y-227431600D03*
%TO.P,U6,15*%
X308965600Y-219811600D03*
%TO.P,U6,7*%
%TO.N,Net-(U21-Pad5)*%
X321665600Y-227431600D03*
%TO.P,U6,14*%
%TO.N,Net-(U11-Pad14)*%
X311505600Y-219811600D03*
%TO.P,U6,6*%
%TO.N,Net-(J2-Pad8)*%
X319125600Y-227431600D03*
%TO.P,U6,13*%
%TO.N,Net-(J2-Pad5)*%
X314045600Y-219811600D03*
%TO.P,U6,5*%
%TO.N,Net-(U11-Pad11)*%
X316585600Y-227431600D03*
%TO.P,U6,12*%
%TO.N,Net-(U21-Pad8)*%
X316585600Y-219811600D03*
%TO.P,U6,4*%
%TO.N,Net-(U21-Pad6)*%
X314045600Y-227431600D03*
%TO.P,U6,11*%
%TO.N,Net-(U11-Pad13)*%
X319125600Y-219811600D03*
%TO.P,U6,3*%
%TO.N,Net-(J2-Pad7)*%
X311505600Y-227431600D03*
%TO.P,U6,10*%
%TO.N,Net-(J2-Pad6)*%
X321665600Y-219811600D03*
%TO.P,U6,2*%
%TO.N,Net-(U11-Pad12)*%
X308965600Y-227431600D03*
%TO.P,U6,9*%
%TO.N,Net-(U21-Pad7)*%
X324205600Y-219811600D03*
D11*
%TO.P,U6,1*%
%TO.N,Net-(U1-Pad1)*%
X306425600Y-227431600D03*
%TD*%
D12*
%TO.P,U5,16*%
%TO.N,+5V*%
X306374800Y-207873600D03*
%TO.P,U5,8*%
%TO.N,GND*%
X324154800Y-215493600D03*
%TO.P,U5,15*%
X308914800Y-207873600D03*
%TO.P,U5,7*%
%TO.N,Net-(U23-Pad5)*%
X321614800Y-215493600D03*
%TO.P,U5,14*%
%TO.N,Net-(U11-Pad14)*%
X311454800Y-207873600D03*
%TO.P,U5,6*%
%TO.N,Net-(J2-Pad8)*%
X319074800Y-215493600D03*
%TO.P,U5,13*%
%TO.N,Net-(J2-Pad5)*%
X313994800Y-207873600D03*
%TO.P,U5,5*%
%TO.N,Net-(U11-Pad11)*%
X316534800Y-215493600D03*
%TO.P,U5,12*%
%TO.N,Net-(U23-Pad8)*%
X316534800Y-207873600D03*
%TO.P,U5,4*%
%TO.N,Net-(U23-Pad6)*%
X313994800Y-215493600D03*
%TO.P,U5,11*%
%TO.N,Net-(U11-Pad13)*%
X319074800Y-207873600D03*
%TO.P,U5,3*%
%TO.N,Net-(J2-Pad7)*%
X311454800Y-215493600D03*
%TO.P,U5,10*%
%TO.N,Net-(J2-Pad6)*%
X321614800Y-207873600D03*
%TO.P,U5,2*%
%TO.N,Net-(U11-Pad12)*%
X308914800Y-215493600D03*
%TO.P,U5,9*%
%TO.N,Net-(U23-Pad7)*%
X324154800Y-207873600D03*
D11*
%TO.P,U5,1*%
%TO.N,Net-(U13-Pad1)*%
X306374800Y-215493600D03*
%TD*%
D12*
%TO.P,U4,20*%
%TO.N,+5V*%
X330250800Y-177596800D03*
%TO.P,U4,10*%
%TO.N,GND*%
X307390800Y-169976800D03*
%TO.P,U4,19*%
%TO.N,Net-(U18-Pad13)*%
X327710800Y-177596800D03*
%TO.P,U4,9*%
%TO.N,Net-(J3-Pad5)*%
X309930800Y-169976800D03*
%TO.P,U4,18*%
%TO.N,Net-(J3-Pad1)*%
X325170800Y-177596800D03*
%TO.P,U4,8*%
%TO.N,Net-(U11-Pad14)*%
X312470800Y-169976800D03*
%TO.P,U4,17*%
%TO.N,Net-(U1-Pad14)*%
X322630800Y-177596800D03*
%TO.P,U4,7*%
%TO.N,Net-(J3-Pad6)*%
X315010800Y-169976800D03*
%TO.P,U4,16*%
%TO.N,Net-(J3-Pad2)*%
X320090800Y-177596800D03*
%TO.P,U4,6*%
%TO.N,Net-(U11-Pad13)*%
X317550800Y-169976800D03*
%TO.P,U4,15*%
%TO.N,Net-(U1-Pad11)*%
X317550800Y-177596800D03*
%TO.P,U4,5*%
%TO.N,Net-(J3-Pad7)*%
X320090800Y-169976800D03*
%TO.P,U4,14*%
%TO.N,Net-(J3-Pad3)*%
X315010800Y-177596800D03*
%TO.P,U4,4*%
%TO.N,Net-(U11-Pad12)*%
X322630800Y-169976800D03*
%TO.P,U4,13*%
%TO.N,Net-(U1-Pad2)*%
X312470800Y-177596800D03*
%TO.P,U4,3*%
%TO.N,Net-(J3-Pad8)*%
X325170800Y-169976800D03*
%TO.P,U4,12*%
%TO.N,Net-(J3-Pad4)*%
X309930800Y-177596800D03*
%TO.P,U4,2*%
%TO.N,Net-(U11-Pad11)*%
X327710800Y-169976800D03*
%TO.P,U4,11*%
%TO.N,Net-(U1-Pad5)*%
X307390800Y-177596800D03*
D11*
%TO.P,U4,1*%
%TO.N,Net-(U4-Pad1)*%
X330250800Y-169976800D03*
%TD*%
D12*
%TO.P,U3,14*%
%TO.N,+5V*%
X305155600Y-184251600D03*
%TO.P,U3,7*%
%TO.N,GND*%
X297535600Y-199491600D03*
%TO.P,U3,13*%
%TO.N,Net-(U3-Pad13)*%
X305155600Y-186791600D03*
%TO.P,U3,6*%
%TO.N,Net-(U3-Pad2)*%
X297535600Y-196951600D03*
%TO.P,U3,12*%
%TO.N,Net-(U3-Pad12)*%
X305155600Y-189331600D03*
%TO.P,U3,5*%
%TO.N,Net-(U11-Pad2)*%
X297535600Y-194411600D03*
%TO.P,U3,11*%
%TO.N,Net-(U3-Pad11)*%
X305155600Y-191871600D03*
%TO.P,U3,4*%
%TO.N,+5V*%
X297535600Y-191871600D03*
%TO.P,U3,10*%
%TO.N,Net-(U3-Pad10)*%
X305155600Y-194411600D03*
%TO.P,U3,3*%
%TO.N,Net-(U3-Pad3)*%
X297535600Y-189331600D03*
%TO.P,U3,9*%
%TO.N,Net-(U3-Pad9)*%
X305155600Y-196951600D03*
%TO.P,U3,2*%
%TO.N,Net-(U3-Pad2)*%
X297535600Y-186791600D03*
%TO.P,U3,8*%
%TO.N,Net-(U3-Pad8)*%
X305155600Y-199491600D03*
D11*
%TO.P,U3,1*%
%TO.N,+5V*%
X297535600Y-184251600D03*
%TD*%
D12*
%TO.P,U2,16*%
%TO.N,+5V*%
X284378400Y-207924400D03*
%TO.P,U2,8*%
%TO.N,GND*%
X302158400Y-215544400D03*
%TO.P,U2,15*%
X286918400Y-207924400D03*
%TO.P,U2,7*%
%TO.N,Net-(U2-Pad7)*%
X299618400Y-215544400D03*
%TO.P,U2,14*%
%TO.N,Net-(U1-Pad14)*%
X289458400Y-207924400D03*
%TO.P,U2,6*%
%TO.N,Net-(J2-Pad4)*%
X297078400Y-215544400D03*
%TO.P,U2,13*%
%TO.N,Net-(J2-Pad1)*%
X291998400Y-207924400D03*
%TO.P,U2,5*%
%TO.N,Net-(U1-Pad5)*%
X294538400Y-215544400D03*
%TO.P,U2,12*%
%TO.N,Net-(U2-Pad12)*%
X294538400Y-207924400D03*
%TO.P,U2,4*%
%TO.N,Net-(U2-Pad4)*%
X291998400Y-215544400D03*
%TO.P,U2,11*%
%TO.N,Net-(U1-Pad11)*%
X297078400Y-207924400D03*
%TO.P,U2,3*%
%TO.N,Net-(J2-Pad3)*%
X289458400Y-215544400D03*
%TO.P,U2,10*%
%TO.N,Net-(J2-Pad2)*%
X299618400Y-207924400D03*
%TO.P,U2,2*%
%TO.N,Net-(U1-Pad2)*%
X286918400Y-215544400D03*
%TO.P,U2,9*%
%TO.N,Net-(U2-Pad9)*%
X302158400Y-207924400D03*
D11*
%TO.P,U2,1*%
%TO.N,Net-(U13-Pad1)*%
X284378400Y-215544400D03*
%TD*%
D12*
%TO.P,U1,16*%
%TO.N,+5V*%
X284327600Y-219760800D03*
%TO.P,U1,8*%
%TO.N,GND*%
X302107600Y-227380800D03*
%TO.P,U1,15*%
X286867600Y-219760800D03*
%TO.P,U1,7*%
%TO.N,Net-(U1-Pad7)*%
X299567600Y-227380800D03*
%TO.P,U1,14*%
%TO.N,Net-(U1-Pad14)*%
X289407600Y-219760800D03*
%TO.P,U1,6*%
%TO.N,Net-(J2-Pad4)*%
X297027600Y-227380800D03*
%TO.P,U1,13*%
%TO.N,Net-(J2-Pad1)*%
X291947600Y-219760800D03*
%TO.P,U1,5*%
%TO.N,Net-(U1-Pad5)*%
X294487600Y-227380800D03*
%TO.P,U1,12*%
%TO.N,Net-(U1-Pad12)*%
X294487600Y-219760800D03*
%TO.P,U1,4*%
%TO.N,Net-(U1-Pad4)*%
X291947600Y-227380800D03*
%TO.P,U1,11*%
%TO.N,Net-(U1-Pad11)*%
X297027600Y-219760800D03*
%TO.P,U1,3*%
%TO.N,Net-(J2-Pad3)*%
X289407600Y-227380800D03*
%TO.P,U1,10*%
%TO.N,Net-(J2-Pad2)*%
X299567600Y-219760800D03*
%TO.P,U1,2*%
%TO.N,Net-(U1-Pad2)*%
X286867600Y-227380800D03*
%TO.P,U1,9*%
%TO.N,Net-(U1-Pad9)*%
X302107600Y-219760800D03*
D11*
%TO.P,U1,1*%
%TO.N,Net-(U1-Pad1)*%
X284327600Y-227380800D03*
%TD*%
D12*
%TO.P,R6,2*%
%TO.N,Net-(J7-Pad3)*%
X339293200Y-251409200D03*
D10*
%TO.P,R6,1*%
%TO.N,GND*%
X331673200Y-251409200D03*
%TD*%
D12*
%TO.P,R5,2*%
%TO.N,Net-(J7-Pad3)*%
X391515600Y-234797600D03*
D10*
%TO.P,R5,1*%
%TO.N,Net-(R5-Pad1)*%
X383895600Y-234797600D03*
%TD*%
D12*
%TO.P,R4,2*%
%TO.N,Net-(J7-Pad2)*%
X397052800Y-234797600D03*
D10*
%TO.P,R4,1*%
%TO.N,Net-(R4-Pad1)*%
X404672800Y-234797600D03*
%TD*%
D12*
%TO.P,R3,2*%
%TO.N,Net-(J7-Pad1)*%
X383895600Y-231495600D03*
D10*
%TO.P,R3,1*%
%TO.N,Net-(R3-Pad1)*%
X391515600Y-231495600D03*
%TD*%
D12*
%TO.P,R2,2*%
%TO.N,GND*%
X331673200Y-254762000D03*
D10*
%TO.P,R2,1*%
%TO.N,Net-(J7-Pad1)*%
X339293200Y-254762000D03*
%TD*%
D12*
%TO.P,R1,2*%
%TO.N,GND*%
X331673200Y-248107200D03*
D10*
%TO.P,R1,1*%
%TO.N,Net-(J7-Pad2)*%
X339293200Y-248107200D03*
%TD*%
D13*
%TO.P,J9,5*%
%TO.N,Net-(J9-Pad5)*%
X420116000Y-217576400D03*
%TO.P,J9,4*%
%TO.N,Net-(J9-Pad4)*%
X420116000Y-215036400D03*
%TO.P,J9,3*%
%TO.N,Net-(J9-Pad3)*%
X420116000Y-212496400D03*
%TO.P,J9,2*%
%TO.N,Net-(J9-Pad2)*%
X420116000Y-209956400D03*
D14*
%TO.P,J9,1*%
%TO.N,Net-(J9-Pad1)*%
X420116000Y-207416400D03*
%TD*%
D15*
%TO.P,J8,S2*%
%TO.N,Net-(J8-PadS1)*%
X371346200Y-246735600D03*
%TO.P,J8,S1*%
X346356200Y-246735600D03*
D16*
%TO.P,J8,15*%
%TO.N,Net-(J8-Pad15)*%
X354021200Y-249275600D03*
%TO.P,J8,14*%
%TO.N,Net-(J7-Pad5)*%
X356311200Y-249275600D03*
%TO.P,J8,13*%
%TO.N,Net-(J7-Pad4)*%
X358601200Y-249275600D03*
%TO.P,J8,12*%
%TO.N,Net-(J8-Pad12)*%
X360891200Y-249275600D03*
%TO.P,J8,11*%
%TO.N,Net-(J8-Pad11)*%
X363181200Y-249275600D03*
%TO.P,J8,10*%
%TO.N,GND*%
X355166200Y-246735600D03*
%TO.P,J8,9*%
%TO.N,Net-(J8-Pad9)*%
X357456200Y-246735600D03*
%TO.P,J8,8*%
%TO.N,GND*%
X359746200Y-246735600D03*
%TO.P,J8,7*%
X362036200Y-246735600D03*
%TO.P,J8,6*%
X364326200Y-246735600D03*
%TO.P,J8,5*%
X354021200Y-244195600D03*
%TO.P,J8,4*%
%TO.N,Net-(J8-Pad4)*%
X356311200Y-244195600D03*
%TO.P,J8,3*%
%TO.N,Net-(J7-Pad3)*%
X358601200Y-244195600D03*
%TO.P,J8,2*%
%TO.N,Net-(J7-Pad2)*%
X360891200Y-244195600D03*
D17*
%TO.P,J8,1*%
%TO.N,Net-(J7-Pad1)*%
X363181200Y-244195600D03*
%TD*%
D13*
%TO.P,J7,5*%
%TO.N,Net-(J7-Pad5)*%
X353974400Y-238252000D03*
%TO.P,J7,4*%
%TO.N,Net-(J7-Pad4)*%
X356514400Y-238252000D03*
%TO.P,J7,3*%
%TO.N,Net-(J7-Pad3)*%
X359054400Y-238252000D03*
%TO.P,J7,2*%
%TO.N,Net-(J7-Pad2)*%
X361594400Y-238252000D03*
D14*
%TO.P,J7,1*%
%TO.N,Net-(J7-Pad1)*%
X364134400Y-238252000D03*
%TD*%
D13*
%TO.P,J6,16*%
%TO.N,GND*%
X351536000Y-162153600D03*
%TO.P,J6,15*%
X348996000Y-162153600D03*
%TO.P,J6,14*%
X346456000Y-162153600D03*
%TO.P,J6,13*%
X343916000Y-162153600D03*
%TO.P,J6,12*%
X341376000Y-162153600D03*
%TO.P,J6,11*%
X338836000Y-162153600D03*
%TO.P,J6,10*%
X336296000Y-162153600D03*
%TO.P,J6,9*%
X333756000Y-162153600D03*
%TO.P,J6,8*%
X331216000Y-162153600D03*
%TO.P,J6,7*%
X328676000Y-162153600D03*
%TO.P,J6,6*%
X326136000Y-162153600D03*
%TO.P,J6,5*%
X323596000Y-162153600D03*
%TO.P,J6,4*%
X321056000Y-162153600D03*
%TO.P,J6,3*%
X318516000Y-162153600D03*
%TO.P,J6,2*%
X315976000Y-162153600D03*
D14*
%TO.P,J6,1*%
X313436000Y-162153600D03*
%TD*%
D13*
%TO.P,J5,2*%
%TO.N,Net-(J5-Pad2)*%
X420116000Y-225806000D03*
D14*
%TO.P,J5,1*%
%TO.N,Net-(J5-Pad1)*%
X420116000Y-223266000D03*
%TD*%
D13*
%TO.P,J4,16*%
%TO.N,+5V*%
X351536000Y-157073600D03*
%TO.P,J4,15*%
X348996000Y-157073600D03*
%TO.P,J4,14*%
X346456000Y-157073600D03*
%TO.P,J4,13*%
X343916000Y-157073600D03*
%TO.P,J4,12*%
X341376000Y-157073600D03*
%TO.P,J4,11*%
X338836000Y-157073600D03*
%TO.P,J4,10*%
X336296000Y-157073600D03*
%TO.P,J4,9*%
X333756000Y-157073600D03*
%TO.P,J4,8*%
X331216000Y-157073600D03*
%TO.P,J4,7*%
X328676000Y-157073600D03*
%TO.P,J4,6*%
X326136000Y-157073600D03*
%TO.P,J4,5*%
X323596000Y-157073600D03*
%TO.P,J4,4*%
X321056000Y-157073600D03*
%TO.P,J4,3*%
X318516000Y-157073600D03*
%TO.P,J4,2*%
X315976000Y-157073600D03*
D14*
%TO.P,J4,1*%
X313436000Y-157073600D03*
%TD*%
D13*
%TO.P,J3,16*%
%TO.N,Net-(J3-Pad16)*%
X351536000Y-159613600D03*
%TO.P,J3,15*%
%TO.N,Net-(J3-Pad15)*%
X348996000Y-159613600D03*
%TO.P,J3,14*%
%TO.N,Net-(J3-Pad14)*%
X346456000Y-159613600D03*
%TO.P,J3,13*%
%TO.N,Net-(J3-Pad13)*%
X343916000Y-159613600D03*
%TO.P,J3,12*%
%TO.N,Net-(J3-Pad12)*%
X341376000Y-159613600D03*
%TO.P,J3,11*%
%TO.N,Net-(J3-Pad11)*%
X338836000Y-159613600D03*
%TO.P,J3,10*%
%TO.N,Net-(J3-Pad10)*%
X336296000Y-159613600D03*
%TO.P,J3,9*%
%TO.N,Net-(J3-Pad9)*%
X333756000Y-159613600D03*
%TO.P,J3,8*%
%TO.N,Net-(J3-Pad8)*%
X331216000Y-159613600D03*
%TO.P,J3,7*%
%TO.N,Net-(J3-Pad7)*%
X328676000Y-159613600D03*
%TO.P,J3,6*%
%TO.N,Net-(J3-Pad6)*%
X326136000Y-159613600D03*
%TO.P,J3,5*%
%TO.N,Net-(J3-Pad5)*%
X323596000Y-159613600D03*
%TO.P,J3,4*%
%TO.N,Net-(J3-Pad4)*%
X321056000Y-159613600D03*
%TO.P,J3,3*%
%TO.N,Net-(J3-Pad3)*%
X318516000Y-159613600D03*
%TO.P,J3,2*%
%TO.N,Net-(J3-Pad2)*%
X315976000Y-159613600D03*
D14*
%TO.P,J3,1*%
%TO.N,Net-(J3-Pad1)*%
X313436000Y-159613600D03*
%TD*%
D13*
%TO.P,J2,18*%
%TO.N,Net-(J2-Pad18)*%
X325374000Y-254863600D03*
%TO.P,J2,17*%
%TO.N,Net-(J2-Pad17)*%
X322834000Y-254863600D03*
%TO.P,J2,16*%
%TO.N,Net-(J2-Pad16)*%
X320294000Y-254863600D03*
%TO.P,J2,15*%
%TO.N,Net-(J2-Pad15)*%
X317754000Y-254863600D03*
%TO.P,J2,14*%
%TO.N,Net-(J2-Pad14)*%
X315214000Y-254863600D03*
%TO.P,J2,13*%
%TO.N,Net-(J2-Pad13)*%
X312674000Y-254863600D03*
%TO.P,J2,12*%
%TO.N,Net-(J2-Pad12)*%
X310134000Y-254863600D03*
%TO.P,J2,11*%
%TO.N,Net-(J2-Pad11)*%
X307594000Y-254863600D03*
%TO.P,J2,10*%
%TO.N,Net-(J2-Pad10)*%
X305054000Y-254863600D03*
%TO.P,J2,9*%
%TO.N,Net-(J2-Pad9)*%
X302514000Y-254863600D03*
%TO.P,J2,8*%
%TO.N,Net-(J2-Pad8)*%
X299974000Y-254863600D03*
%TO.P,J2,7*%
%TO.N,Net-(J2-Pad7)*%
X297434000Y-254863600D03*
%TO.P,J2,6*%
%TO.N,Net-(J2-Pad6)*%
X294894000Y-254863600D03*
%TO.P,J2,5*%
%TO.N,Net-(J2-Pad5)*%
X292354000Y-254863600D03*
%TO.P,J2,4*%
%TO.N,Net-(J2-Pad4)*%
X289814000Y-254863600D03*
%TO.P,J2,3*%
%TO.N,Net-(J2-Pad3)*%
X287274000Y-254863600D03*
%TO.P,J2,2*%
%TO.N,Net-(J2-Pad2)*%
X284734000Y-254863600D03*
D14*
%TO.P,J2,1*%
%TO.N,Net-(J2-Pad1)*%
X282194000Y-254863600D03*
%TD*%
D13*
%TO.P,J1,5*%
%TO.N,GND*%
X282194000Y-239826800D03*
%TO.P,J1,4*%
X282194000Y-242366800D03*
%TO.P,J1,3*%
X282194000Y-244906800D03*
%TO.P,J1,2*%
%TO.N,+5V*%
X282194000Y-247446800D03*
D14*
%TO.P,J1,1*%
X282194000Y-249986800D03*
%TD*%
D18*
%TO.P,C3,2*%
%TO.N,GND*%
X292578800Y-244805200D03*
D19*
%TO.P,C3,1*%
%TO.N,+5V*%
X287578800Y-244805200D03*
%TD*%
D18*
%TO.P,C2,2*%
%TO.N,GND*%
X365273600Y-159359600D03*
D19*
%TO.P,C2,1*%
%TO.N,+5V*%
X360273600Y-159359600D03*
%TD*%
D18*
%TO.P,C1,2*%
%TO.N,GND*%
X289886400Y-161086800D03*
D19*
%TO.P,C1,1*%
%TO.N,+5V*%
X284886400Y-161086800D03*
%TD*%
D20*
%TO.N,GND*%
X353166002Y-247959202D03*
%TO.N,Net-(J2-Pad18)*%
X387197600Y-211531200D03*
X326745600Y-213207600D03*
X324358000Y-239268000D03*
X325882000Y-251714000D03*
%TO.N,Net-(J2-Pad17)*%
X379730000Y-212090000D03*
X369403800Y-212090000D03*
X369011200Y-234797600D03*
X344017600Y-235291800D03*
%TO.N,Net-(J2-Pad16)*%
X343154000Y-231851200D03*
X362407200Y-230784400D03*
%TO.N,Net-(J2-Pad14)*%
X348183200Y-217474800D03*
X366275401Y-217467399D03*
%TO.N,Net-(J2-Pad13)*%
X336753200Y-229971600D03*
X356260400Y-228752400D03*
%TO.N,Net-(J2-Pad11)*%
X310794400Y-231343200D03*
%TO.N,Net-(J2-Pad10)*%
X312724800Y-223266000D03*
X340456947Y-223016653D03*
%TO.N,Net-(J2-Pad9)*%
X305054000Y-222453200D03*
%TO.N,Net-(J2-Pad8)*%
X300257599Y-235356400D03*
%TO.N,Net-(J2-Pad7)*%
X298907200Y-235610400D03*
%TO.N,Net-(J2-Pad6)*%
X304038000Y-210972400D03*
X302107600Y-230886000D03*
X295097200Y-238048800D03*
%TO.N,Net-(J2-Pad5)*%
X294087599Y-221640400D03*
%TO.N,Net-(J2-Pad4)*%
X296875200Y-251809201D03*
%TO.N,Net-(J2-Pad2)*%
X284632400Y-229362000D03*
%TO.N,Net-(J2-Pad1)*%
X283159200Y-217932000D03*
%TO.N,Net-(J3-Pad13)*%
X342747600Y-166319200D03*
X339648800Y-166319200D03*
%TO.N,Net-(J3-Pad11)*%
X338582000Y-174345600D03*
X344779600Y-174294800D03*
%TO.N,Net-(J3-Pad10)*%
X335229200Y-173278800D03*
X349758000Y-173278800D03*
%TO.N,Net-(J3-Pad9)*%
X332689200Y-175463200D03*
X354685600Y-175514000D03*
%TO.N,Net-(J3-Pad3)*%
X306120800Y-174498000D03*
X315061600Y-174904400D03*
%TO.N,Net-(J3-Pad2)*%
X308805799Y-173880999D03*
X320141600Y-173939200D03*
%TO.N,Net-(J3-Pad1)*%
X312166000Y-164592000D03*
X326445453Y-164647453D03*
%TO.N,Net-(J5-Pad2)*%
X370128800Y-217424000D03*
%TO.N,Net-(J5-Pad1)*%
X422415800Y-223266000D03*
X422452800Y-231394000D03*
X376631200Y-230682800D03*
%TO.N,Net-(J7-Pad5)*%
X394499000Y-199847200D03*
X394563600Y-227533200D03*
X353974400Y-229768400D03*
X394614400Y-229768400D03*
%TO.N,Net-(J7-Pad4)*%
X402477421Y-237413151D03*
X351942399Y-246684800D03*
X350266000Y-249682000D03*
%TO.N,Net-(J7-Pad3)*%
X351942400Y-251460000D03*
%TO.N,Net-(J7-Pad2)*%
X365607600Y-250494800D03*
%TO.N,Net-(J7-Pad1)*%
X366522000Y-255016000D03*
X364273000Y-231648000D03*
%TO.N,Net-(J9-Pad5)*%
X417423600Y-217881200D03*
%TO.N,Net-(J9-Pad4)*%
X425297600Y-199136000D03*
X424992800Y-215188800D03*
X421690800Y-224790000D03*
%TO.N,Net-(J9-Pad3)*%
X410667200Y-212881599D03*
%TO.N,Net-(J9-Pad2)*%
X420841000Y-188315600D03*
X418693600Y-216001600D03*
%TO.N,Net-(J9-Pad1)*%
X409765396Y-184332914D03*
X420116000Y-185928000D03*
X410057600Y-205994000D03*
%TO.N,Net-(R3-Pad1)*%
X406370401Y-212750400D03*
X404774400Y-232119000D03*
%TO.N,Net-(R4-Pad1)*%
X402670399Y-217271600D03*
X401611000Y-234899200D03*
%TO.N,Net-(R5-Pad1)*%
X402670399Y-222453200D03*
X402336000Y-236423200D03*
%TO.N,Net-(U1-Pad7)*%
X299567600Y-225530799D03*
X393365601Y-225530799D03*
%TO.N,Net-(U1-Pad14)*%
X322427600Y-187807600D03*
X289458400Y-176530000D03*
%TO.N,Net-(U1-Pad5)*%
X311745799Y-197039399D03*
X295859200Y-177647600D03*
%TO.N,Net-(U1-Pad4)*%
X290830000Y-251612400D03*
%TO.N,Net-(U1-Pad11)*%
X298704000Y-179693400D03*
%TO.N,Net-(U1-Pad2)*%
X312470800Y-194056000D03*
X286867600Y-178968400D03*
%TO.N,Net-(U1-Pad9)*%
X301498000Y-256780200D03*
%TO.N,Net-(U1-Pad1)*%
X409823439Y-182374204D03*
X387451600Y-177264399D03*
X408533600Y-177264399D03*
X400812000Y-201066400D03*
X400710400Y-209651600D03*
X400812000Y-207060800D03*
X400862800Y-225958400D03*
%TO.N,Net-(U2-Pad7)*%
X299632201Y-163866999D03*
X401929600Y-163068000D03*
%TO.N,Net-(U2-Pad12)*%
X294843200Y-154736800D03*
%TO.N,Net-(U2-Pad4)*%
X291439600Y-158292800D03*
%TO.N,Net-(U2-Pad9)*%
X293624000Y-154787600D03*
X292455600Y-205943200D03*
%TO.N,Net-(U13-Pad1)*%
X402539200Y-179679600D03*
X395224000Y-196850000D03*
X414223200Y-213868000D03*
X395224000Y-204419200D03*
%TO.N,Net-(U18-Pad13)*%
X331216000Y-164947600D03*
X376072400Y-165404800D03*
%TO.N,Net-(U11-Pad14)*%
X313486800Y-190703200D03*
X306500754Y-190676754D03*
X305358800Y-209804000D03*
%TO.N,Net-(U11-Pad13)*%
X318973200Y-179882800D03*
X325272400Y-179933600D03*
X325098799Y-206248000D03*
%TO.N,Net-(U11-Pad12)*%
X323755801Y-194454999D03*
X323799200Y-205523000D03*
X308152800Y-205536800D03*
%TO.N,Net-(U11-Pad11)*%
X325932800Y-216662000D03*
%TO.N,Net-(U23-Pad5)*%
X320395600Y-180898800D03*
X413105600Y-178714400D03*
%TO.N,Net-(U23-Pad8)*%
X318275800Y-180949600D03*
X361645200Y-179120800D03*
%TO.N,Net-(U23-Pad6)*%
X304670799Y-168452800D03*
X409491399Y-170680599D03*
%TO.N,Net-(U23-Pad7)*%
X321665600Y-165811200D03*
X406806400Y-167640000D03*
%TO.N,Net-(U21-Pad5)*%
X321868800Y-241401600D03*
X380986200Y-240639600D03*
X380847600Y-253492000D03*
X393496800Y-253529000D03*
%TO.N,Net-(U21-Pad8)*%
X317855600Y-241452400D03*
X401167600Y-242888600D03*
%TO.N,Net-(U21-Pad6)*%
X314452000Y-236524800D03*
X381711200Y-236016800D03*
X381711200Y-254254000D03*
%TO.N,Net-(U21-Pad7)*%
X323189600Y-242163600D03*
X395325600Y-242163600D03*
%TO.N,Net-(U11-Pad10)*%
X314604400Y-198323200D03*
%TO.N,Net-(U11-Pad1)*%
X353249400Y-162593872D03*
%TO.N,Net-(U23-Pad25)*%
X343255600Y-206349600D03*
X400050000Y-205173801D03*
%TO.N,Net-(U10-Pad17)*%
X336231400Y-181660800D03*
X336231400Y-189585600D03*
X351776200Y-181762400D03*
%TO.N,Net-(U23-Pad27)*%
X411327600Y-208635600D03*
%TO.N,Net-(U23-Pad23)*%
X398750402Y-218063198D03*
X335853203Y-218370771D03*
%TO.N,Net-(U10-Pad15)*%
X339736600Y-181051200D03*
X347167200Y-180898800D03*
%TO.N,Net-(U10-Pad13)*%
X340461600Y-194564000D03*
X340512400Y-206146400D03*
X331724000Y-206146400D03*
%TO.N,Net-(U23-Pad26)*%
X406958800Y-175426200D03*
X346252800Y-176377600D03*
%TO.N,Net-(U21-Pad25)*%
X400050000Y-221806600D03*
X343306400Y-223570800D03*
%TO.N,Net-(U21-Pad27)*%
X395224000Y-222805310D03*
%TO.N,Net-(U21-Pad23)*%
X335686400Y-239166400D03*
%TO.N,Net-(U21-Pad26)*%
X395274800Y-221806600D03*
%TO.N,Net-(U10-Pad19)*%
X356158800Y-161696400D03*
%TO.N,Net-(U10-Pad8)*%
X344678000Y-189280800D03*
X344627200Y-206095600D03*
%TO.N,Net-(U10-Pad6)*%
X348335600Y-205898801D03*
%TO.N,Net-(U10-Pad2)*%
X358401401Y-195521799D03*
%TO.N,Net-(U11-Pad15)*%
X332130400Y-186740800D03*
%TO.N,Net-(U12-Pad7)*%
X365048800Y-233070400D03*
X386029200Y-233121200D03*
%TO.N,Net-(U12-Pad12)*%
X359918000Y-224295800D03*
X391058400Y-224332800D03*
%TO.N,Net-(U12-Pad4)*%
X377952000Y-228854000D03*
%TO.N,Net-(U12-Pad9)*%
X366471200Y-241401600D03*
%TO.N,Net-(U13-Pad7)*%
X365150400Y-206298800D03*
X423418000Y-210972400D03*
X402742400Y-210870800D03*
X402742400Y-206095600D03*
%TO.N,Net-(U13-Pad12)*%
X362843653Y-178947653D03*
X416015001Y-177989399D03*
%TO.N,Net-(U13-Pad4)*%
X356586401Y-181203600D03*
X417525200Y-181203600D03*
%TO.N,Net-(U13-Pad9)*%
X412038800Y-174701200D03*
X369403800Y-174752000D03*
%TO.N,Net-(U14-Pad15)*%
X341302062Y-186811281D03*
%TO.N,Net-(U15-Pad7)*%
X386943600Y-237598210D03*
%TO.N,Net-(U15-Pad11)*%
X372874365Y-209672801D03*
X383176999Y-209811401D03*
%TO.N,Net-(U16-Pad7)*%
X398025401Y-215994199D03*
%TO.N,Net-(U16-Pad12)*%
X383184400Y-159308800D03*
%TO.N,Net-(U16-Pad4)*%
X377901200Y-221081600D03*
X413410400Y-221081600D03*
%TO.N,Net-(U16-Pad9)*%
X391718800Y-173888400D03*
%TO.N,Net-(U17-Pad15)*%
X353226200Y-186639200D03*
%TO.N,Net-(U18-Pad6)*%
X367842800Y-169824400D03*
%TO.N,Net-(U18-Pad5)*%
X370853800Y-199847200D03*
%TO.N,Net-(U18-Pad1)*%
X380796800Y-155498800D03*
%TO.N,Net-(U18-Pad10)*%
X376682000Y-166878000D03*
%TO.N,Net-(U18-Pad9)*%
X378510800Y-194411600D03*
%TO.N,Net-(U18-Pad2)*%
X381521800Y-160274000D03*
%TO.N,Net-(U21-Pad15)*%
X424923470Y-221386400D03*
X424942000Y-254254000D03*
%TO.N,Net-(U21-Pad14)*%
X424198470Y-216408000D03*
X424230800Y-256235200D03*
%TO.N,Net-(U21-Pad13)*%
X393774000Y-209905600D03*
X393750800Y-195935600D03*
X417880800Y-196291200D03*
X417952801Y-212242400D03*
X417952801Y-210972400D03*
X423473470Y-211970862D03*
X423468800Y-257149600D03*
%TO.N,Net-(U21-Pad18)*%
X409651200Y-238760000D03*
X419049200Y-238289000D03*
%TO.N,Net-(U21-Pad17)*%
X415036000Y-239014000D03*
%TO.N,Net-(U23-Pad15)*%
X389919598Y-192155198D03*
%TO.N,Net-(U23-Pad14)*%
X390644599Y-187154601D03*
%TO.N,Net-(U23-Pad13)*%
X392988800Y-182118000D03*
%TO.N,Net-(U23-Pad18)*%
X387248400Y-202438000D03*
%TO.N,Net-(U23-Pad17)*%
X384048000Y-197967600D03*
%TD*%
D21*
%TO.N,GND*%
X364326200Y-246735600D02*
X362036200Y-246735600D01*
X359746200Y-246735600D02*
X362036200Y-246735600D01*
X355166200Y-246735600D02*
X353942598Y-247959202D01*
X353942598Y-247959202D02*
X353166002Y-247959202D01*
%TO.N,Net-(J2-Pad18)*%
X387967001Y-218686599D02*
X386892800Y-219760800D01*
X386842000Y-207721200D02*
X387967001Y-208846201D01*
X387967001Y-211538601D02*
X387205001Y-211538601D01*
X387967001Y-211538601D02*
X387967001Y-218686599D01*
X387205001Y-211538601D02*
X387197600Y-211531200D01*
X387967001Y-208846201D02*
X387967001Y-211538601D01*
X324358000Y-228944202D02*
X324358000Y-239268000D01*
X326745600Y-213207600D02*
X326745600Y-226556602D01*
X326745600Y-226556602D02*
X324358000Y-228944202D01*
X325374000Y-252222000D02*
X325374000Y-254863600D01*
X325882000Y-251714000D02*
X325374000Y-252222000D01*
%TO.N,Net-(J2-Pad17)*%
X380347001Y-218686599D02*
X379272800Y-219760800D01*
X379222000Y-207721200D02*
X380347001Y-208846201D01*
X379976599Y-211843401D02*
X379730000Y-212090000D01*
X380347001Y-211843401D02*
X379976599Y-211843401D01*
X380347001Y-211843401D02*
X380347001Y-218686599D01*
X380347001Y-208846201D02*
X380347001Y-211843401D01*
X369403800Y-212090000D02*
X369403800Y-234405000D01*
X369403800Y-234405000D02*
X369011200Y-234797600D01*
X344017600Y-235291800D02*
X336841000Y-242468400D01*
X336841000Y-242468400D02*
X333400400Y-242468400D01*
X327406000Y-248462800D02*
X327331210Y-248462800D01*
X333400400Y-242468400D02*
X327406000Y-248462800D01*
X322834000Y-252960010D02*
X322834000Y-254863600D01*
X327331210Y-248462800D02*
X322834000Y-252960010D01*
%TO.N,Net-(J2-Pad16)*%
X361332999Y-216669401D02*
X362610400Y-215392000D01*
X361332999Y-226255799D02*
X361332999Y-216669401D01*
X362458000Y-227380800D02*
X361332999Y-226255799D01*
X320294000Y-254863600D02*
X333298800Y-241858800D01*
X335976232Y-241858800D02*
X343509600Y-234325432D01*
X333298800Y-241858800D02*
X335976232Y-241858800D01*
X343509600Y-234325432D02*
X343509600Y-232206800D01*
X343509600Y-232206800D02*
X343154000Y-231851200D01*
X362407200Y-227431600D02*
X362458000Y-227380800D01*
X362407200Y-230784400D02*
X362407200Y-227431600D01*
%TO.N,Net-(J2-Pad15)*%
X353712999Y-216669401D02*
X354990400Y-215392000D01*
X353712999Y-226255799D02*
X353712999Y-216669401D01*
X354838000Y-227380800D02*
X353712999Y-226255799D01*
X353175401Y-229043399D02*
X354838000Y-227380800D01*
X317754000Y-254863600D02*
X331774800Y-240842800D01*
X336355822Y-240842800D02*
X339235209Y-237963413D01*
X339235209Y-233991991D02*
X344183801Y-229043399D01*
X339235209Y-237963413D02*
X339235209Y-233991991D01*
X331774800Y-240842800D02*
X336355822Y-240842800D01*
X344183801Y-229043399D02*
X353175401Y-229043399D01*
%TO.N,Net-(J2-Pad14)*%
X366275401Y-218483399D02*
X364998000Y-219760800D01*
X365150400Y-207772000D02*
X366275401Y-208897001D01*
X336183803Y-240378409D02*
X338785200Y-237777012D01*
X315214000Y-254863600D02*
X329699191Y-240378409D01*
X329699191Y-240378409D02*
X336183803Y-240378409D01*
X338785200Y-237777012D02*
X338785200Y-230479600D01*
X348183200Y-221081600D02*
X348183200Y-217474800D01*
X344431401Y-224833399D02*
X348183200Y-221081600D01*
X344431401Y-227920801D02*
X344431401Y-224833399D01*
X338785200Y-230479600D02*
X341872602Y-230479600D01*
X341872602Y-230479600D02*
X344431401Y-227920801D01*
X366275401Y-208897001D02*
X366275401Y-217467399D01*
X366275401Y-217467399D02*
X366275401Y-218483399D01*
%TO.N,Net-(J2-Pad13)*%
X358655401Y-218483399D02*
X357378000Y-219760800D01*
X358655401Y-208897001D02*
X358655401Y-218483399D01*
X357530400Y-207772000D02*
X358655401Y-208897001D01*
X312674000Y-254863600D02*
X327609200Y-239928400D01*
X336411401Y-239514401D02*
X336411401Y-230036201D01*
X327609200Y-239928400D02*
X335997402Y-239928400D01*
X335997402Y-239928400D02*
X336411401Y-239514401D01*
X336411401Y-230036201D02*
X336476002Y-229971600D01*
X336476002Y-229971600D02*
X336753200Y-229971600D01*
X356252999Y-220885801D02*
X357378000Y-219760800D01*
X356252999Y-227982999D02*
X356252999Y-220885801D01*
X356260400Y-227990400D02*
X356252999Y-227982999D01*
X356260400Y-228752400D02*
X356260400Y-227990400D01*
%TO.N,Net-(J2-Pad12)*%
X339641399Y-216517001D02*
X340715600Y-215442800D01*
X339641399Y-226255799D02*
X339641399Y-216517001D01*
X340766400Y-227380800D02*
X339641399Y-226255799D01*
X312737603Y-253688599D02*
X325882000Y-240544202D01*
X310134000Y-254863600D02*
X311309001Y-253688599D01*
X311309001Y-253688599D02*
X312737603Y-253688599D01*
X325882000Y-235230200D02*
X330047600Y-231064600D01*
X325882000Y-240544202D02*
X325882000Y-235230200D01*
X339641399Y-228505801D02*
X340766400Y-227380800D01*
X337101399Y-227920801D02*
X337686399Y-228505801D01*
X337101399Y-227130797D02*
X337101399Y-227920801D01*
X336226401Y-226255799D02*
X337101399Y-227130797D01*
X335146399Y-226255799D02*
X336226401Y-226255799D01*
X334561399Y-226840799D02*
X335146399Y-226255799D01*
X334561399Y-227630803D02*
X334561399Y-226840799D01*
X331127602Y-231064600D02*
X334561399Y-227630803D01*
X337686399Y-228505801D02*
X339641399Y-228505801D01*
X330047600Y-231064600D02*
X331127602Y-231064600D01*
%TO.N,Net-(J2-Pad11)*%
X332021399Y-216517001D02*
X333095600Y-215442800D01*
X332021399Y-226255799D02*
X332021399Y-216517001D01*
X333146400Y-227380800D02*
X332021399Y-226255799D01*
X307594000Y-254863600D02*
X307594000Y-234543600D01*
X307594000Y-234543600D02*
X310794400Y-231343200D01*
%TO.N,Net-(J2-Pad10)*%
X344380601Y-218686599D02*
X343306400Y-219760800D01*
X344380601Y-208947801D02*
X344380601Y-218686599D01*
X343255600Y-207822800D02*
X344380601Y-208947801D01*
X305054000Y-254863600D02*
X306070000Y-253847600D01*
X306070000Y-253847600D02*
X306070000Y-232410000D01*
X308192202Y-232410000D02*
X312674000Y-227928202D01*
X306070000Y-232410000D02*
X308192202Y-232410000D01*
X312674000Y-227928202D02*
X312674000Y-223316800D01*
X312674000Y-223316800D02*
X312724800Y-223266000D01*
X343306400Y-220167200D02*
X343306400Y-219760800D01*
X340456947Y-223016653D02*
X343306400Y-220167200D01*
%TO.N,Net-(J2-Pad9)*%
X336760601Y-208947801D02*
X336760601Y-218686599D01*
X336760601Y-218686599D02*
X335686400Y-219760800D01*
X335635600Y-207822800D02*
X336760601Y-208947801D01*
X302514000Y-254863600D02*
X305003200Y-252374400D01*
X305003200Y-252374400D02*
X305003200Y-222504000D01*
X305003200Y-222504000D02*
X305054000Y-222453200D01*
%TO.N,Net-(J2-Pad8)*%
X318000599Y-216567801D02*
X319074800Y-215493600D01*
X318000599Y-226306599D02*
X318000599Y-216567801D01*
X319125600Y-227431600D02*
X318000599Y-226306599D01*
X299974000Y-254863600D02*
X299974000Y-235639999D01*
X299974000Y-235639999D02*
X300257599Y-235356400D01*
%TO.N,Net-(J2-Pad7)*%
X310380599Y-216567801D02*
X311454800Y-215493600D01*
X310380599Y-226306599D02*
X310380599Y-216567801D01*
X311505600Y-227431600D02*
X310380599Y-226306599D01*
X298907200Y-253390400D02*
X297434000Y-254863600D01*
X298907200Y-235610400D02*
X298907200Y-253390400D01*
%TO.N,Net-(J2-Pad6)*%
X322739801Y-218737399D02*
X321665600Y-219811600D01*
X322739801Y-208998601D02*
X322739801Y-218737399D01*
X321614800Y-207873600D02*
X322739801Y-208998601D01*
X304038000Y-210972400D02*
X304038000Y-228955600D01*
X304038000Y-228955600D02*
X302107600Y-230886000D01*
X295097200Y-254660400D02*
X294894000Y-254863600D01*
X295097200Y-238048800D02*
X295097200Y-254660400D01*
%TO.N,Net-(J2-Pad5)*%
X315119801Y-218737399D02*
X314045600Y-219811600D01*
X315119801Y-208998601D02*
X315119801Y-218737399D01*
X313994800Y-207873600D02*
X315119801Y-208998601D01*
X295612601Y-227920801D02*
X293815802Y-229717600D01*
X295612601Y-226840799D02*
X295612601Y-227920801D01*
X294087599Y-221640400D02*
X294087599Y-225315797D01*
X294087599Y-225315797D02*
X295612601Y-226840799D01*
X293903801Y-244169199D02*
X293903801Y-246100199D01*
X293815802Y-229717600D02*
X293815802Y-244081200D01*
X293815802Y-244081200D02*
X293903801Y-244169199D01*
X292354000Y-247650000D02*
X292354000Y-254863600D01*
X293903801Y-246100199D02*
X292354000Y-247650000D01*
%TO.N,Net-(J2-Pad4)*%
X295902599Y-216720201D02*
X297078400Y-215544400D01*
X295902599Y-226255799D02*
X295902599Y-216720201D01*
X297027600Y-227380800D02*
X295902599Y-226255799D01*
X297027600Y-227380800D02*
X297027600Y-251656801D01*
X297027600Y-251656801D02*
X296875200Y-251809201D01*
%TO.N,Net-(J2-Pad3)*%
X288282599Y-216720201D02*
X289458400Y-215544400D01*
X288282599Y-226255799D02*
X288282599Y-216720201D01*
X289407600Y-227380800D02*
X288282599Y-226255799D01*
X289407600Y-227380800D02*
X286004000Y-230784400D01*
X286004000Y-253593600D02*
X287274000Y-254863600D01*
X286004000Y-230784400D02*
X286004000Y-253593600D01*
%TO.N,Net-(J2-Pad2)*%
X300743401Y-218584999D02*
X299567600Y-219760800D01*
X300743401Y-209049401D02*
X300743401Y-218584999D01*
X299618400Y-207924400D02*
X300743401Y-209049401D01*
X284734000Y-254863600D02*
X284734000Y-229463600D01*
X284734000Y-229463600D02*
X284632400Y-229362000D01*
%TO.N,Net-(J2-Pad1)*%
X293123401Y-218584999D02*
X291947600Y-219760800D01*
X293123401Y-209049401D02*
X293123401Y-218584999D01*
X291998400Y-207924400D02*
X293123401Y-209049401D01*
X283159200Y-239052998D02*
X283159200Y-217932000D01*
X283369001Y-239262799D02*
X283159200Y-239052998D01*
X282194000Y-254863600D02*
X283369001Y-253688599D01*
X283369001Y-253688599D02*
X283369001Y-239262799D01*
%TO.N,Net-(J3-Pad16)*%
X351536000Y-159613600D02*
X353974400Y-162052000D01*
X353974400Y-169265600D02*
X354736400Y-170027600D01*
X353974400Y-162052000D02*
X353974400Y-169265600D01*
%TO.N,Net-(J3-Pad15)*%
X350171001Y-169512999D02*
X349656400Y-170027600D01*
X350171001Y-160788601D02*
X350171001Y-169512999D01*
X348996000Y-159613600D02*
X350171001Y-160788601D01*
%TO.N,Net-(J3-Pad14)*%
X345091001Y-169512999D02*
X344576400Y-170027600D01*
X346456000Y-160414598D02*
X345091001Y-161779597D01*
X345091001Y-161779597D02*
X345091001Y-169512999D01*
X346456000Y-159613600D02*
X346456000Y-160414598D01*
%TO.N,Net-(J3-Pad13)*%
X342740999Y-166312599D02*
X342747600Y-166319200D01*
X343916000Y-159613600D02*
X342740999Y-160788601D01*
X342740999Y-160788601D02*
X342740999Y-166312599D01*
X339648800Y-169875200D02*
X339496400Y-170027600D01*
X339648800Y-166319200D02*
X339648800Y-169875200D01*
%TO.N,Net-(J3-Pad12)*%
X340621401Y-166218799D02*
X340621401Y-176522599D01*
X340200999Y-165798397D02*
X340621401Y-166218799D01*
X340621401Y-176522599D02*
X339496400Y-177647600D01*
X340200999Y-161589599D02*
X340200999Y-165798397D01*
X341376000Y-160414598D02*
X340200999Y-161589599D01*
X341376000Y-159613600D02*
X341376000Y-160414598D01*
%TO.N,Net-(J3-Pad11)*%
X338271999Y-174035599D02*
X338582000Y-174345600D01*
X338271999Y-163328601D02*
X338271999Y-174035599D01*
X337660999Y-162717601D02*
X338271999Y-163328601D01*
X338836000Y-159613600D02*
X337660999Y-160788601D01*
X337660999Y-160788601D02*
X337660999Y-162717601D01*
X344779600Y-177444400D02*
X344576400Y-177647600D01*
X344779600Y-174294800D02*
X344779600Y-177444400D01*
%TO.N,Net-(J3-Pad10)*%
X335120999Y-173170599D02*
X335229200Y-173278800D01*
X336296000Y-159613600D02*
X335120999Y-160788601D01*
X335120999Y-160788601D02*
X335120999Y-173170599D01*
X349758000Y-177546000D02*
X349656400Y-177647600D01*
X349758000Y-173278800D02*
X349758000Y-177546000D01*
%TO.N,Net-(J3-Pad9)*%
X332580999Y-175354999D02*
X332689200Y-175463200D01*
X333756000Y-159613600D02*
X332580999Y-160788601D01*
X332580999Y-160788601D02*
X332580999Y-175354999D01*
X354685600Y-177596800D02*
X354736400Y-177647600D01*
X354685600Y-175514000D02*
X354685600Y-177596800D01*
%TO.N,Net-(J3-Pad8)*%
X330040999Y-165106601D02*
X325170800Y-169976800D01*
X330040999Y-160788601D02*
X330040999Y-165106601D01*
X331216000Y-159613600D02*
X330040999Y-160788601D01*
%TO.N,Net-(J3-Pad7)*%
X327311001Y-160978599D02*
X328676000Y-159613600D01*
X327311001Y-162756599D02*
X327311001Y-160978599D01*
X320090800Y-169976800D02*
X327311001Y-162756599D01*
%TO.N,Net-(J3-Pad6)*%
X322231001Y-161779597D02*
X322231001Y-162756599D01*
X322231001Y-162756599D02*
X315010800Y-169976800D01*
X323031999Y-160978599D02*
X322231001Y-161779597D01*
X324771001Y-160978599D02*
X323031999Y-160978599D01*
X326136000Y-159613600D02*
X324771001Y-160978599D01*
%TO.N,Net-(J3-Pad5)*%
X322420999Y-160788601D02*
X323596000Y-159613600D01*
X320681997Y-160788601D02*
X322420999Y-160788601D01*
X319880999Y-161589599D02*
X320681997Y-160788601D01*
X319880999Y-162527603D02*
X319880999Y-161589599D01*
X319080001Y-163328601D02*
X319880999Y-162527603D01*
X316578999Y-163328601D02*
X319080001Y-163328601D01*
X309930800Y-169976800D02*
X316578999Y-163328601D01*
%TO.N,Net-(J3-Pad4)*%
X305395799Y-162192389D02*
X305395799Y-174846001D01*
X312139598Y-155448590D02*
X305395799Y-162192389D01*
X305395799Y-174846001D02*
X305911398Y-175361600D01*
X319880999Y-158438599D02*
X317977409Y-158438599D01*
X321056000Y-159613600D02*
X319880999Y-158438599D01*
X317977409Y-158438599D02*
X317151001Y-157612191D01*
X317151001Y-157612191D02*
X317151001Y-156509599D01*
X317151001Y-156509599D02*
X316089991Y-155448589D01*
X316089991Y-155448589D02*
X312139598Y-155448590D01*
X305911398Y-175361600D02*
X310032400Y-175361600D01*
X310032400Y-177495200D02*
X309930800Y-177596800D01*
X310032400Y-175361600D02*
X310032400Y-177495200D01*
%TO.N,Net-(J3-Pad3)*%
X306120800Y-162103798D02*
X306120800Y-174498000D01*
X317340999Y-158438599D02*
X315437409Y-158438599D01*
X318516000Y-159613600D02*
X317340999Y-158438599D01*
X315437409Y-158438599D02*
X314611001Y-157612191D01*
X314611001Y-157612191D02*
X314611001Y-155963599D01*
X314611001Y-155963599D02*
X314546001Y-155898599D01*
X312325999Y-155898599D02*
X306120800Y-162103798D01*
X314546001Y-155898599D02*
X312325999Y-155898599D01*
X315061600Y-177546000D02*
X315010800Y-177596800D01*
X315061600Y-174904400D02*
X315061600Y-177546000D01*
%TO.N,Net-(J3-Pad2)*%
X308805799Y-161958799D02*
X308805799Y-173880999D01*
X312325999Y-158438599D02*
X308805799Y-161958799D01*
X315976000Y-159613600D02*
X314800999Y-158438599D01*
X314800999Y-158438599D02*
X312325999Y-158438599D01*
X320141600Y-177546000D02*
X320090800Y-177596800D01*
X320141600Y-173939200D02*
X320141600Y-177546000D01*
%TO.N,Net-(J3-Pad1)*%
X313436000Y-159613600D02*
X312166000Y-160883600D01*
X312166000Y-160883600D02*
X312166000Y-164592000D01*
X324045799Y-176471799D02*
X325170800Y-177596800D01*
X324045799Y-167047107D02*
X324045799Y-176471799D01*
X326445453Y-164647453D02*
X324045799Y-167047107D01*
%TO.N,Net-(J5-Pad2)*%
X371856000Y-164185600D02*
X370128800Y-165912800D01*
X370128800Y-165912800D02*
X370128800Y-217424000D01*
X385477801Y-226255799D02*
X384352800Y-227380800D01*
X385477801Y-216517001D02*
X385477801Y-226255799D01*
X384302000Y-215341200D02*
X385477801Y-216517001D01*
%TO.N,Net-(J5-Pad1)*%
X375317801Y-216705399D02*
X376682000Y-215341200D01*
X375317801Y-225965801D02*
X375317801Y-216705399D01*
X376732800Y-227380800D02*
X375317801Y-225965801D01*
X422415800Y-223266000D02*
X422415800Y-231357000D01*
X422415800Y-231357000D02*
X422452800Y-231394000D01*
X376631200Y-227482400D02*
X376732800Y-227380800D01*
X376631200Y-230682800D02*
X376631200Y-227482400D01*
X375556999Y-214216199D02*
X376682000Y-215341200D01*
X375556999Y-207471197D02*
X375556999Y-214216199D01*
X373931399Y-205845597D02*
X375556999Y-207471197D01*
X373931399Y-198076601D02*
X373931399Y-205845597D01*
X375056400Y-196951600D02*
X373931399Y-198076601D01*
%TO.N,Net-(J7-Pad5)*%
X394499000Y-199847200D02*
X394499000Y-227468600D01*
X394499000Y-227468600D02*
X394563600Y-227533200D01*
X353974400Y-238252000D02*
X353974400Y-229768400D01*
X394614400Y-227584000D02*
X394563600Y-227533200D01*
X394614400Y-229768400D02*
X394614400Y-227584000D01*
X351594399Y-252185001D02*
X353401799Y-252185001D01*
X351217399Y-251808001D02*
X351594399Y-252185001D01*
X351217399Y-241009001D02*
X351217399Y-251808001D01*
X353401799Y-252185001D02*
X356311200Y-249275600D01*
X353974400Y-238252000D02*
X351217399Y-241009001D01*
%TO.N,Net-(J7-Pad4)*%
X403504400Y-211542598D02*
X403395399Y-211651599D01*
X403395399Y-211651599D02*
X403395399Y-226306599D01*
X403504400Y-210159600D02*
X403504400Y-211542598D01*
X403395399Y-210050599D02*
X403504400Y-210159600D01*
X403395399Y-206571599D02*
X403395399Y-210050599D01*
X403606000Y-206360998D02*
X403395399Y-206571599D01*
X403606000Y-205886198D02*
X403606000Y-206360998D01*
X403242999Y-205523197D02*
X403606000Y-205886198D01*
X403395399Y-226306599D02*
X404520400Y-227431600D01*
X403242999Y-201023001D02*
X403242999Y-205523197D01*
X404368000Y-199898000D02*
X403242999Y-201023001D01*
X403061001Y-236829571D02*
X402477421Y-237413151D01*
X403061001Y-234805360D02*
X403061001Y-236829571D01*
X402901990Y-234646349D02*
X403061001Y-234805360D01*
X404520400Y-227431600D02*
X402901990Y-229050010D01*
X402901990Y-229050010D02*
X402901990Y-234646349D01*
X356514400Y-238252000D02*
X351942399Y-242824001D01*
X351942399Y-242824001D02*
X351942399Y-246684800D01*
X355241789Y-252635011D02*
X358601200Y-249275600D01*
X351407999Y-252635011D02*
X355241789Y-252635011D01*
X350266000Y-251493012D02*
X351407999Y-252635011D01*
X350266000Y-249682000D02*
X350266000Y-251493012D01*
%TO.N,Net-(J7-Pad3)*%
X354583498Y-245516400D02*
X357280400Y-245516400D01*
X351942400Y-248157498D02*
X354583498Y-245516400D01*
X357280400Y-245516400D02*
X358601200Y-244195600D01*
X351942400Y-251460000D02*
X351942400Y-248157498D01*
X359054400Y-243742400D02*
X358601200Y-244195600D01*
X359054400Y-238252000D02*
X359054400Y-243742400D01*
%TO.N,Net-(J7-Pad2)*%
X362108701Y-245413101D02*
X360891200Y-244195600D01*
X364805603Y-245413101D02*
X362108701Y-245413101D01*
X365607600Y-246215098D02*
X364805603Y-245413101D01*
X365607600Y-250494800D02*
X365607600Y-246215098D01*
X361594400Y-243492400D02*
X360891200Y-244195600D01*
X361594400Y-238252000D02*
X361594400Y-243492400D01*
%TO.N,Net-(J7-Pad1)*%
X366522000Y-255016000D02*
X366522000Y-244094000D01*
X366420400Y-244195600D02*
X363181200Y-244195600D01*
X366522000Y-244094000D02*
X366420400Y-244195600D01*
X364134400Y-243242400D02*
X363181200Y-244195600D01*
X364134400Y-238252000D02*
X364134400Y-243242400D01*
X364273000Y-238113400D02*
X364134400Y-238252000D01*
X364273000Y-231648000D02*
X364273000Y-238113400D01*
%TO.N,Net-(J8-PadS1)*%
X346356200Y-249610696D02*
X353133104Y-256387600D01*
X346356200Y-246735600D02*
X346356200Y-249610696D01*
X353133104Y-256387600D02*
X367588800Y-256387600D01*
X371346200Y-252630200D02*
X371346200Y-246735600D01*
X367588800Y-256387600D02*
X371346200Y-252630200D01*
%TO.N,Net-(J9-Pad5)*%
X417227801Y-217685401D02*
X417423600Y-217881200D01*
X416052000Y-202539600D02*
X417227801Y-203715401D01*
X417227801Y-203715401D02*
X417227801Y-217685401D01*
X417227801Y-218076999D02*
X417423600Y-217881200D01*
X417227801Y-228897399D02*
X417227801Y-218076999D01*
X416102800Y-230022400D02*
X417227801Y-228897399D01*
%TO.N,Net-(J9-Pad4)*%
X425297600Y-199136000D02*
X425297600Y-214884000D01*
X425297600Y-214884000D02*
X424992800Y-215188800D01*
X421690800Y-216611200D02*
X420116000Y-215036400D01*
X421690800Y-224790000D02*
X421690800Y-216611200D01*
%TO.N,Net-(J9-Pad3)*%
X408432000Y-192379600D02*
X410674390Y-192379600D01*
X410602599Y-212816998D02*
X410667200Y-212881599D01*
X410602599Y-208287599D02*
X410602599Y-212816998D01*
X410782601Y-208107597D02*
X410602599Y-208287599D01*
X410674390Y-192379600D02*
X410782601Y-192487811D01*
X410782601Y-192487811D02*
X410782601Y-208107597D01*
X410667200Y-217678000D02*
X410667200Y-212881599D01*
X408482800Y-219862400D02*
X410667200Y-217678000D01*
%TO.N,Net-(J9-Pad2)*%
X421291001Y-208781399D02*
X420116000Y-209956400D01*
X421291001Y-188765601D02*
X421291001Y-208781399D01*
X420841000Y-188315600D02*
X421291001Y-188765601D01*
X418693600Y-211378800D02*
X420116000Y-209956400D01*
X418693600Y-216001600D02*
X418693600Y-211378800D01*
%TO.N,Net-(J9-Pad1)*%
X408432000Y-182219600D02*
X409765396Y-183552996D01*
X409765396Y-183552996D02*
X409765396Y-184332914D01*
X420116000Y-185928000D02*
X420116000Y-207416400D01*
X410057600Y-208127600D02*
X408482800Y-209702400D01*
X410057600Y-205994000D02*
X410057600Y-208127600D01*
%TO.N,Net-(R3-Pad1)*%
X404368000Y-184658000D02*
X406370401Y-186660401D01*
X406370401Y-186660401D02*
X406370401Y-212750400D01*
X403980399Y-228846599D02*
X403352000Y-229474998D01*
X405008991Y-228846599D02*
X403980399Y-228846599D01*
X406370401Y-212750400D02*
X406370401Y-227485189D01*
X406370401Y-227485189D02*
X405008991Y-228846599D01*
X403352000Y-229474998D02*
X403352000Y-230696600D01*
X403352000Y-230696600D02*
X404774400Y-232119000D01*
%TO.N,Net-(R4-Pad1)*%
X402017399Y-216618600D02*
X402670399Y-217271600D01*
X404368000Y-189738000D02*
X402017399Y-192088601D01*
X402017399Y-192088601D02*
X402017399Y-216618600D01*
X402670399Y-217271600D02*
X401611000Y-218330999D01*
X401611000Y-218330999D02*
X401611000Y-234899200D01*
%TO.N,Net-(R5-Pad1)*%
X405645401Y-196095401D02*
X405645401Y-221226599D01*
X405645401Y-221226599D02*
X404520400Y-222351600D01*
X404368000Y-194818000D02*
X405645401Y-196095401D01*
X402670399Y-222453200D02*
X402336000Y-222787599D01*
X402336000Y-222787599D02*
X402336000Y-236423200D01*
%TO.N,Net-(U1-Pad7)*%
X299567600Y-227380800D02*
X299567600Y-225530799D01*
X394962599Y-240722401D02*
X396403798Y-242163600D01*
X394962599Y-239642399D02*
X394962599Y-240722401D01*
X393365601Y-225530799D02*
X393365601Y-238045401D01*
X393365601Y-238045401D02*
X394962599Y-239642399D01*
X396403798Y-242163600D02*
X403453600Y-242163600D01*
X403707600Y-242417600D02*
X403707600Y-255422400D01*
X403453600Y-242163600D02*
X403707600Y-242417600D01*
%TO.N,Net-(U1-Pad14)*%
X322630800Y-177596800D02*
X322630800Y-187604400D01*
X322630800Y-187604400D02*
X322427600Y-187807600D01*
X290583401Y-218584999D02*
X289407600Y-219760800D01*
X290583401Y-209049401D02*
X290583401Y-218584999D01*
X289458400Y-207924400D02*
X290583401Y-209049401D01*
X289458400Y-176530000D02*
X289458400Y-207924400D01*
%TO.N,Net-(U1-Pad5)*%
X307390800Y-177596800D02*
X308965600Y-179171600D01*
X308965600Y-179171600D02*
X310134000Y-179171600D01*
X310134000Y-179171600D02*
X312013600Y-179171600D01*
X311745799Y-193707999D02*
X311745799Y-197039399D01*
X312013600Y-179171600D02*
X312013600Y-193440198D01*
X312013600Y-193440198D02*
X311745799Y-193707999D01*
X294538400Y-217806410D02*
X294538400Y-215544400D01*
X293362599Y-218982211D02*
X294538400Y-217806410D01*
X293362599Y-226255799D02*
X293362599Y-218982211D01*
X294487600Y-227380800D02*
X293362599Y-226255799D01*
X295859200Y-214223600D02*
X294538400Y-215544400D01*
X295859200Y-177647600D02*
X295859200Y-214223600D01*
%TO.N,Net-(U1-Pad4)*%
X291947600Y-227380800D02*
X290830000Y-228498400D01*
X290830000Y-228498400D02*
X290830000Y-251612400D01*
%TO.N,Net-(U1-Pad11)*%
X317550800Y-189839600D02*
X315569600Y-191820800D01*
X317550800Y-177596800D02*
X317550800Y-189839600D01*
X298203401Y-218584999D02*
X297027600Y-219760800D01*
X298203401Y-209049401D02*
X298203401Y-218584999D01*
X297078400Y-207924400D02*
X298203401Y-209049401D01*
X298704000Y-206298800D02*
X297078400Y-207924400D01*
X298704000Y-179693400D02*
X298704000Y-206298800D01*
%TO.N,Net-(U1-Pad2)*%
X312470800Y-177596800D02*
X312470800Y-194056000D01*
X285742599Y-216720201D02*
X286918400Y-215544400D01*
X285742599Y-226255799D02*
X285742599Y-216720201D01*
X286867600Y-227380800D02*
X285742599Y-226255799D01*
X288043401Y-214419399D02*
X286918400Y-215544400D01*
X288043401Y-180144201D02*
X288043401Y-214419399D01*
X286867600Y-178968400D02*
X288043401Y-180144201D01*
%TO.N,Net-(U1-Pad9)*%
X301338999Y-256621199D02*
X301498000Y-256780200D01*
X301338999Y-254299599D02*
X301338999Y-256621199D01*
X300982599Y-253943199D02*
X301338999Y-254299599D01*
X302107600Y-219760800D02*
X300982599Y-220885801D01*
X300982599Y-220885801D02*
X300982599Y-253943199D01*
%TO.N,Net-(U1-Pad1)*%
X408432000Y-179679600D02*
X409823439Y-181071039D01*
X409823439Y-181071039D02*
X409823439Y-182374204D01*
X387342599Y-177373400D02*
X387451600Y-177264399D01*
X388467600Y-189280800D02*
X387342599Y-188155799D01*
X387342599Y-188155799D02*
X387342599Y-177373400D01*
X408533600Y-179578000D02*
X408432000Y-179679600D01*
X408533600Y-177264399D02*
X408533600Y-179578000D01*
X387342599Y-198315799D02*
X388467600Y-199440800D01*
X387342599Y-190405801D02*
X387342599Y-198315799D01*
X388467600Y-189280800D02*
X387342599Y-190405801D01*
X400812000Y-209550000D02*
X400710400Y-209651600D01*
X400812000Y-201066400D02*
X400812000Y-207060800D01*
X400812000Y-207060800D02*
X400812000Y-209550000D01*
X400862800Y-209804000D02*
X400710400Y-209651600D01*
X400862800Y-225958400D02*
X400862800Y-209804000D01*
X400862800Y-237337600D02*
X403707600Y-240182400D01*
X400862800Y-225958400D02*
X400862800Y-237337600D01*
%TO.N,Net-(U2-Pad7)*%
X298493399Y-207384399D02*
X298493399Y-208464401D01*
X299618400Y-209589402D02*
X299618400Y-215544400D01*
X299632201Y-206245597D02*
X298493399Y-207384399D01*
X298493399Y-208464401D02*
X299618400Y-209589402D01*
X299632201Y-163866999D02*
X299632201Y-206245597D01*
X401929600Y-163068000D02*
X401929600Y-156870400D01*
%TO.N,Net-(U2-Pad12)*%
X294843200Y-207619600D02*
X294538400Y-207924400D01*
X294843200Y-154736800D02*
X294843200Y-207619600D01*
%TO.N,Net-(U2-Pad4)*%
X290830000Y-208659590D02*
X291998400Y-209827990D01*
X290830000Y-207427798D02*
X290830000Y-208659590D01*
X291439600Y-206818198D02*
X290830000Y-207427798D01*
X291998400Y-209827990D02*
X291998400Y-215544400D01*
X291439600Y-158292800D02*
X291439600Y-206818198D01*
%TO.N,Net-(U2-Pad9)*%
X292244999Y-156166601D02*
X292244999Y-205783399D01*
X293624000Y-154787600D02*
X292244999Y-156166601D01*
X292244999Y-205783399D02*
X292404800Y-205943200D01*
X292404800Y-205943200D02*
X292455600Y-205943200D01*
%TO.N,Net-(U13-Pad1)*%
X395724599Y-172650401D02*
X397575391Y-174501193D01*
X395724599Y-171570399D02*
X395724599Y-172650401D01*
X396309599Y-170985399D02*
X395724599Y-171570399D01*
X401929600Y-172110400D02*
X400804599Y-170985399D01*
X400804599Y-170985399D02*
X396309599Y-170985399D01*
X397575391Y-174501193D02*
X397575391Y-178598209D01*
X396748000Y-179425600D02*
X396748000Y-179578000D01*
X397575391Y-178598209D02*
X396748000Y-179425600D01*
X404368000Y-181508400D02*
X404368000Y-182118000D01*
X402539200Y-179679600D02*
X404368000Y-181508400D01*
X396748000Y-179578000D02*
X395224000Y-181102000D01*
X395224000Y-181102000D02*
X395224000Y-196850000D01*
X414223200Y-211582000D02*
X416102800Y-209702400D01*
X414223200Y-213868000D02*
X414223200Y-211582000D01*
X395224000Y-196850000D02*
X395224000Y-204419200D01*
%TO.N,Net-(U3-Pad2)*%
X296410599Y-195826599D02*
X297535600Y-196951600D01*
X296410599Y-187916601D02*
X296410599Y-195826599D01*
X297535600Y-186791600D02*
X296410599Y-187916601D01*
%TO.N,Net-(U18-Pad13)*%
X331074998Y-164947600D02*
X331216000Y-164947600D01*
X326585799Y-169436799D02*
X331074998Y-164947600D01*
X327710800Y-177596800D02*
X326585799Y-176471799D01*
X326585799Y-176471799D02*
X326585799Y-169436799D01*
X376072400Y-165404800D02*
X376072400Y-159308800D01*
X376275600Y-159105600D02*
X379476000Y-159105600D01*
X376072400Y-159308800D02*
X376275600Y-159105600D01*
%TO.N,Net-(U11-Pad14)*%
X312470800Y-169976800D02*
X313595801Y-171101801D01*
X313595801Y-190594199D02*
X313486800Y-190703200D01*
X313595801Y-171101801D02*
X313595801Y-190594199D01*
X312579801Y-218737399D02*
X311505600Y-219811600D01*
X312579801Y-208998601D02*
X312579801Y-218737399D01*
X311454800Y-207873600D02*
X312579801Y-208998601D01*
X305249799Y-209694999D02*
X305358800Y-209804000D01*
X305249799Y-207333599D02*
X305249799Y-209694999D01*
X306500754Y-190676754D02*
X306500754Y-206082644D01*
X306500754Y-206082644D02*
X305249799Y-207333599D01*
%TO.N,Net-(U11-Pad13)*%
X318675801Y-179585401D02*
X318973200Y-179882800D01*
X317550800Y-169976800D02*
X318675801Y-171101801D01*
X318675801Y-171101801D02*
X318675801Y-179585401D01*
X325272400Y-179933600D02*
X325272400Y-191922400D01*
X325374000Y-191820800D02*
X326948800Y-191820800D01*
X325272400Y-191922400D02*
X325374000Y-191820800D01*
X320199801Y-218737399D02*
X319125600Y-219811600D01*
X320199801Y-208998601D02*
X320199801Y-218737399D01*
X319074800Y-207873600D02*
X320199801Y-208998601D01*
X326948800Y-191820800D02*
X325098799Y-193670801D01*
X325098799Y-193670801D02*
X325098799Y-206248000D01*
%TO.N,Net-(U11-Pad12)*%
X323755801Y-177056799D02*
X323755801Y-194454999D01*
X322630800Y-169976800D02*
X322630800Y-175931798D01*
X322630800Y-175931798D02*
X323755801Y-177056799D01*
X307840599Y-216567801D02*
X308914800Y-215493600D01*
X307840599Y-226306599D02*
X307840599Y-216567801D01*
X308965600Y-227431600D02*
X307840599Y-226306599D01*
X323755801Y-194454999D02*
X323755801Y-205479601D01*
X323755801Y-205479601D02*
X323799200Y-205523000D01*
X307752801Y-214331601D02*
X308914800Y-215493600D01*
X307752801Y-205936799D02*
X307752801Y-214331601D01*
X308152800Y-205536800D02*
X307752801Y-205936799D01*
%TO.N,Net-(U11-Pad11)*%
X328835801Y-195013799D02*
X326948800Y-196900800D01*
X328835801Y-171101801D02*
X328835801Y-195013799D01*
X327710800Y-169976800D02*
X328835801Y-171101801D01*
X316534800Y-217958810D02*
X316534800Y-215493600D01*
X315460599Y-219033011D02*
X316534800Y-217958810D01*
X315460599Y-226306599D02*
X315460599Y-219033011D01*
X316585600Y-227431600D02*
X315460599Y-226306599D01*
X325823799Y-216552999D02*
X325932800Y-216662000D01*
X326948800Y-196900800D02*
X325823799Y-198025801D01*
X325823799Y-198025801D02*
X325823799Y-216552999D01*
%TO.N,Net-(U23-Pad5)*%
X320489799Y-208413601D02*
X320489799Y-180992999D01*
X321614800Y-215493600D02*
X321614800Y-209538602D01*
X321614800Y-209538602D02*
X320489799Y-208413601D01*
X320489799Y-180992999D02*
X320395600Y-180898800D01*
X413504599Y-158285399D02*
X412089600Y-156870400D01*
X413504599Y-178315401D02*
X413504599Y-158285399D01*
X413105600Y-178714400D02*
X413504599Y-178315401D01*
%TO.N,Net-(U23-Pad8)*%
X318000810Y-181224590D02*
X318275800Y-180949600D01*
X316534800Y-207873600D02*
X318000810Y-206407590D01*
X318000810Y-206407590D02*
X318000810Y-181224590D01*
X366986390Y-155251990D02*
X367958780Y-154279600D01*
X361645200Y-179120800D02*
X366986390Y-173779610D01*
X366986390Y-173779610D02*
X366986390Y-155251990D01*
X367958780Y-154279600D02*
X404266400Y-154279600D01*
X404469600Y-154482800D02*
X404469600Y-156870400D01*
X404266400Y-154279600D02*
X404469600Y-154482800D01*
%TO.N,Net-(U23-Pad6)*%
X312579801Y-198946403D02*
X309074601Y-195441203D01*
X312579801Y-208123603D02*
X312579801Y-198946403D01*
X309074601Y-180945603D02*
X304945789Y-176816791D01*
X309074601Y-195441203D02*
X309074601Y-180945603D01*
X313994800Y-215493600D02*
X313994800Y-209538602D01*
X313994800Y-209538602D02*
X312579801Y-208123603D01*
X304945789Y-176816791D02*
X304945789Y-168727790D01*
X304945789Y-168727790D02*
X304670799Y-168452800D01*
X409491399Y-156928601D02*
X409549600Y-156870400D01*
X409491399Y-170680599D02*
X409491399Y-156928601D01*
%TO.N,Net-(U23-Pad7)*%
X318965799Y-170516801D02*
X318965799Y-168511001D01*
X321505799Y-173056801D02*
X318965799Y-170516801D01*
X324154800Y-207873600D02*
X321505799Y-205224599D01*
X321505799Y-205224599D02*
X321505799Y-173056801D01*
X318965799Y-168511001D02*
X321665600Y-165811200D01*
X406806400Y-157073600D02*
X407009600Y-156870400D01*
X406806400Y-167640000D02*
X406806400Y-157073600D01*
%TO.N,Net-(U21-Pad5)*%
X321665600Y-227431600D02*
X321665600Y-241198400D01*
X321665600Y-241198400D02*
X321868800Y-241401600D01*
X380986200Y-240639600D02*
X380986200Y-253353400D01*
X380986200Y-253353400D02*
X380847600Y-253492000D01*
X393496800Y-255371600D02*
X393547600Y-255422400D01*
X393496800Y-253529000D02*
X393496800Y-255371600D01*
%TO.N,Net-(U21-Pad8)*%
X317855600Y-227036598D02*
X317855600Y-241452400D01*
X316585600Y-219811600D02*
X316585600Y-225766598D01*
X316585600Y-225766598D02*
X317855600Y-227036598D01*
X401167600Y-242888600D02*
X401167600Y-255422400D01*
%TO.N,Net-(U21-Pad6)*%
X314045600Y-227431600D02*
X314045600Y-236118400D01*
X314045600Y-236118400D02*
X314452000Y-236524800D01*
X381711200Y-236016800D02*
X381711200Y-254254000D01*
%TO.N,Net-(U21-Pad7)*%
X323080599Y-242054599D02*
X323189600Y-242163600D01*
X324205600Y-219811600D02*
X323080599Y-220936601D01*
X323080599Y-220936601D02*
X323080599Y-242054599D01*
X395325600Y-242163600D02*
X397916400Y-244754400D01*
X397916400Y-254711200D02*
X398627600Y-255422400D01*
X397916400Y-244754400D02*
X397916400Y-254711200D01*
%TO.N,Net-(U11-Pad10)*%
X314444599Y-198163399D02*
X314604400Y-198323200D01*
X315569600Y-186740800D02*
X314444599Y-187865801D01*
X314444599Y-187865801D02*
X314444599Y-198163399D01*
%TO.N,Net-(U11-Pad1)*%
X355861401Y-183024999D02*
X355861401Y-176869011D01*
X354787200Y-184099200D02*
X355861401Y-183024999D01*
X355861401Y-176869011D02*
X355410601Y-176418211D01*
X353321401Y-162665873D02*
X353249400Y-162593872D01*
X355410601Y-176418211D02*
X355410601Y-172366803D01*
X355410601Y-172366803D02*
X353321401Y-170277603D01*
X353321401Y-170277603D02*
X353321401Y-162665873D01*
%TO.N,Net-(U23-Pad25)*%
X343063798Y-206349600D02*
X343255600Y-206349600D01*
X342130599Y-207282799D02*
X343063798Y-206349600D01*
X342130599Y-208362801D02*
X342130599Y-207282799D01*
X343255600Y-215442800D02*
X343255600Y-209487802D01*
X343255600Y-209487802D02*
X342130599Y-208362801D01*
X400050000Y-176530000D02*
X404469600Y-172110400D01*
X400050000Y-205173801D02*
X400050000Y-176530000D01*
%TO.N,Net-(U10-Pad17)*%
X336231400Y-181660800D02*
X336231400Y-189585600D01*
X334220601Y-208947801D02*
X334220601Y-218686599D01*
X334220601Y-218686599D02*
X333146400Y-219760800D01*
X333095600Y-207822800D02*
X334220601Y-208947801D01*
X352196400Y-177647600D02*
X351776200Y-178067800D01*
X351776200Y-178067800D02*
X351776200Y-181762400D01*
X336231400Y-204687000D02*
X333095600Y-207822800D01*
X336231400Y-189585600D02*
X336231400Y-204687000D01*
%TO.N,Net-(U10-Pad11)*%
X336956400Y-195630800D02*
X338226400Y-196900800D01*
X336956400Y-177647600D02*
X336956400Y-195630800D01*
X338175600Y-217908010D02*
X338175600Y-215442800D01*
X337101399Y-218982211D02*
X338175600Y-217908010D01*
X337101399Y-226255799D02*
X337101399Y-218982211D01*
X338226400Y-227380800D02*
X337101399Y-226255799D01*
X336905600Y-208456390D02*
X337210611Y-208761401D01*
X338226400Y-196900800D02*
X336905600Y-198221600D01*
X336905600Y-198221600D02*
X336905600Y-208456390D01*
X337210611Y-214477811D02*
X338175600Y-215442800D01*
X337210611Y-208761401D02*
X337210611Y-214477811D01*
%TO.N,Net-(U23-Pad27)*%
X409549600Y-173241770D02*
X409549600Y-172110400D01*
X411327600Y-175019770D02*
X409549600Y-173241770D01*
X411327600Y-208635600D02*
X411327600Y-175019770D01*
%TO.N,Net-(U23-Pad23)*%
X399389600Y-172110400D02*
X398526000Y-172974000D01*
X398750402Y-215646198D02*
X398750402Y-218063198D01*
X398526000Y-172974000D02*
X398526000Y-215421796D01*
X398526000Y-215421796D02*
X398750402Y-215646198D01*
X335853203Y-215660403D02*
X335635600Y-215442800D01*
X335853203Y-218370771D02*
X335853203Y-215660403D01*
%TO.N,Net-(U10-Pad15)*%
X339736600Y-190310600D02*
X338226400Y-191820800D01*
X339736600Y-181051200D02*
X339736600Y-190310600D01*
X341840601Y-218686599D02*
X340766400Y-219760800D01*
X341840601Y-208947801D02*
X341840601Y-218686599D01*
X340715600Y-207822800D02*
X341840601Y-208947801D01*
X347116400Y-177647600D02*
X347116400Y-180848000D01*
X347116400Y-180848000D02*
X347167200Y-180898800D01*
X339736599Y-206843799D02*
X340715600Y-207822800D01*
X339736599Y-193330999D02*
X339736599Y-206843799D01*
X338226400Y-191820800D02*
X339736599Y-193330999D01*
%TO.N,Net-(U10-Pad13)*%
X342036400Y-177647600D02*
X340461600Y-179222400D01*
X340461600Y-179222400D02*
X340461600Y-194564000D01*
X329481399Y-216517001D02*
X330555600Y-215442800D01*
X329481399Y-226255799D02*
X329481399Y-216517001D01*
X330606400Y-227380800D02*
X329481399Y-226255799D01*
X340461600Y-194564000D02*
X340461600Y-206095600D01*
X340461600Y-206095600D02*
X340512400Y-206146400D01*
X331724000Y-214274400D02*
X330555600Y-215442800D01*
X331724000Y-206146400D02*
X331724000Y-214274400D01*
%TO.N,Net-(U23-Pad26)*%
X407009600Y-172110400D02*
X407009600Y-175375400D01*
X407009600Y-175375400D02*
X406958800Y-175426200D01*
X345991399Y-207627001D02*
X345795600Y-207822800D01*
X345991399Y-176639001D02*
X345991399Y-207627001D01*
X346252800Y-176377600D02*
X345991399Y-176639001D01*
%TO.N,Net-(U21-Pad25)*%
X401167600Y-240182400D02*
X401167600Y-238278810D01*
X401167600Y-238278810D02*
X400412790Y-237524000D01*
X400412790Y-237524000D02*
X400050000Y-237161210D01*
X400050000Y-237161210D02*
X400050000Y-221806600D01*
X343306400Y-223570800D02*
X343306400Y-227380800D01*
%TO.N,Net-(U21-Pad27)*%
X395623999Y-239718799D02*
X396087600Y-240182400D01*
X395623999Y-223205309D02*
X395623999Y-239718799D01*
X395224000Y-222805310D02*
X395623999Y-223205309D01*
%TO.N,Net-(U21-Pad23)*%
X335686400Y-239166400D02*
X335686400Y-227380800D01*
%TO.N,Net-(U21-Pad26)*%
X397440401Y-221226599D02*
X398627600Y-222413798D01*
X398627600Y-222413798D02*
X398627600Y-240182400D01*
X395854801Y-221226599D02*
X397440401Y-221226599D01*
X395274800Y-221806600D02*
X395854801Y-221226599D01*
%TO.N,Net-(U10-Pad19)*%
X356151399Y-161703801D02*
X356158800Y-161696400D01*
X357276400Y-177647600D02*
X356151399Y-176522599D01*
X356151399Y-176522599D02*
X356151399Y-161703801D01*
%TO.N,Net-(U10-Pad8)*%
X343451399Y-182719597D02*
X344678000Y-183946198D01*
X342036400Y-170027600D02*
X343451399Y-171442599D01*
X343451399Y-171442599D02*
X343451399Y-182719597D01*
X344678000Y-183946198D02*
X344678000Y-189280800D01*
X356115401Y-218483399D02*
X354838000Y-219760800D01*
X356115401Y-208897001D02*
X356115401Y-218483399D01*
X354990400Y-207772000D02*
X356115401Y-208897001D01*
X344678000Y-189280800D02*
X344678000Y-206044800D01*
X344678000Y-206044800D02*
X344627200Y-206095600D01*
%TO.N,Net-(U10-Pad6)*%
X348241401Y-171152601D02*
X348241401Y-192372199D01*
X347116400Y-170027600D02*
X348241401Y-171152601D01*
X348843600Y-191770000D02*
X350316800Y-191770000D01*
X348241401Y-192372199D02*
X348843600Y-191770000D01*
X363735401Y-218483399D02*
X362458000Y-219760800D01*
X363735401Y-208897001D02*
X363735401Y-218483399D01*
X362610400Y-207772000D02*
X363735401Y-208897001D01*
X348241401Y-192372199D02*
X348241401Y-205804602D01*
X348241401Y-205804602D02*
X348335600Y-205898801D01*
%TO.N,Net-(U10-Pad4)*%
X353321401Y-171152601D02*
X353321401Y-179214999D01*
X352196400Y-170027600D02*
X353321401Y-171152601D01*
X353321401Y-179214999D02*
X352501200Y-180035200D01*
X352501200Y-180035200D02*
X352501200Y-193294000D01*
X351485200Y-194310000D02*
X350316800Y-194310000D01*
X352501200Y-193294000D02*
X351485200Y-194310000D01*
X351172999Y-216669401D02*
X352450400Y-215392000D01*
X351172999Y-226255799D02*
X351172999Y-216669401D01*
X352298000Y-227380800D02*
X351172999Y-226255799D01*
X351441801Y-195435001D02*
X350316800Y-194310000D01*
X351441801Y-202470001D02*
X351441801Y-195435001D01*
X351325399Y-214266999D02*
X351325399Y-202586403D01*
X351325399Y-202586403D02*
X351441801Y-202470001D01*
X352450400Y-215392000D02*
X351325399Y-214266999D01*
%TO.N,Net-(U10-Pad2)*%
X358401401Y-171152601D02*
X358401401Y-195521799D01*
X357276400Y-170027600D02*
X358401401Y-171152601D01*
X360070400Y-217704810D02*
X360070400Y-215392000D01*
X358792999Y-218982211D02*
X360070400Y-217704810D01*
X358792999Y-226255799D02*
X358792999Y-218982211D01*
X359918000Y-227380800D02*
X358792999Y-226255799D01*
X358655401Y-208260591D02*
X359105411Y-208710601D01*
X358401401Y-195521799D02*
X358655401Y-195775799D01*
X358655401Y-195775799D02*
X358655401Y-208260591D01*
X359105411Y-214427011D02*
X360070400Y-215392000D01*
X359105411Y-208710601D02*
X359105411Y-214427011D01*
%TO.N,Net-(U11-Pad15)*%
X332130400Y-197916800D02*
X330606400Y-199440800D01*
X332130400Y-186740800D02*
X332130400Y-197916800D01*
%TO.N,Net-(U12-Pad7)*%
X364998000Y-227380800D02*
X364998000Y-233019600D01*
X364998000Y-233019600D02*
X365048800Y-233070400D01*
X386029200Y-240080800D02*
X385927600Y-240182400D01*
X386029200Y-233121200D02*
X386029200Y-240080800D01*
%TO.N,Net-(U12-Pad12)*%
X359918000Y-219760800D02*
X359918000Y-224295800D01*
X389882599Y-254297399D02*
X391007600Y-255422400D01*
X389882599Y-231463599D02*
X389882599Y-254297399D01*
X391058400Y-230287798D02*
X389882599Y-231463599D01*
X391058400Y-224332800D02*
X391058400Y-230287798D01*
%TO.N,Net-(U12-Pad4)*%
X387342599Y-256547401D02*
X388467600Y-255422400D01*
X382327599Y-256547401D02*
X387342599Y-256547401D01*
X377952000Y-252171802D02*
X382327599Y-256547401D01*
X377952000Y-228854000D02*
X377952000Y-252171802D01*
%TO.N,Net-(U12-Pad9)*%
X366412999Y-241343399D02*
X366471200Y-241401600D01*
X367538000Y-219760800D02*
X366412999Y-220885801D01*
X366412999Y-220885801D02*
X366412999Y-241343399D01*
%TO.N,Net-(U13-Pad7)*%
X364958598Y-206298800D02*
X365150400Y-206298800D01*
X364025399Y-207231999D02*
X364958598Y-206298800D01*
X364025399Y-208312001D02*
X364025399Y-207231999D01*
X365150400Y-215392000D02*
X365150400Y-209437002D01*
X365150400Y-209437002D02*
X364025399Y-208312001D01*
X423418000Y-210972400D02*
X423418000Y-175666400D01*
X419862000Y-172110400D02*
X419709600Y-172110400D01*
X423418000Y-175666400D02*
X419862000Y-172110400D01*
X402742400Y-210870800D02*
X402742400Y-206095600D01*
%TO.N,Net-(U13-Pad12)*%
X362407200Y-179431802D02*
X362407200Y-178995210D01*
X360070400Y-207772000D02*
X360070400Y-181768602D01*
X360070400Y-181768602D02*
X362407200Y-179431802D01*
X362407200Y-178995210D02*
X362454757Y-178947653D01*
X362454757Y-178947653D02*
X362843653Y-178947653D01*
X414629600Y-170214596D02*
X414629600Y-156870400D01*
X416015001Y-171599997D02*
X414629600Y-170214596D01*
X416015001Y-177989399D02*
X416015001Y-171599997D01*
%TO.N,Net-(U13-Pad4)*%
X356405399Y-208312001D02*
X356405399Y-181160201D01*
X357530400Y-215392000D02*
X357530400Y-209437002D01*
X357530400Y-209437002D02*
X356405399Y-208312001D01*
X356405399Y-181160201D02*
X356448798Y-181203600D01*
X356448798Y-181203600D02*
X356586401Y-181203600D01*
X418294601Y-157995401D02*
X417169600Y-156870400D01*
X418294601Y-180434199D02*
X418294601Y-157995401D01*
X417525200Y-181203600D02*
X418294601Y-180434199D01*
%TO.N,Net-(U13-Pad9)*%
X412089600Y-172110400D02*
X412089600Y-174650400D01*
X412089600Y-174650400D02*
X412038800Y-174701200D01*
X369403800Y-199189202D02*
X369366800Y-199226202D01*
X369403800Y-174752000D02*
X369403800Y-199189202D01*
X369366800Y-206095600D02*
X367690400Y-207772000D01*
X369366800Y-199226202D02*
X369366800Y-206095600D01*
%TO.N,Net-(U14-Pad15)*%
X341302062Y-197995262D02*
X342696800Y-199390000D01*
X341302062Y-186811281D02*
X341302062Y-197995262D01*
%TO.N,Net-(U15-Pad7)*%
X386892800Y-227380800D02*
X386892800Y-237547410D01*
X386892800Y-237547410D02*
X386943600Y-237598210D01*
%TO.N,Net-(U15-Pad14)*%
X377807001Y-218686599D02*
X376732800Y-219760800D01*
X377807001Y-208846201D02*
X377807001Y-218686599D01*
X376682000Y-207721200D02*
X377807001Y-208846201D01*
X376181401Y-191331599D02*
X376181401Y-207053399D01*
X375596401Y-190746599D02*
X376181401Y-191331599D01*
X374516399Y-190746599D02*
X375596401Y-190746599D01*
X373931399Y-190161599D02*
X374516399Y-190746599D01*
X375056400Y-186791600D02*
X373931399Y-187916601D01*
X373931399Y-187916601D02*
X373931399Y-190161599D01*
X376682000Y-207553998D02*
X376682000Y-207721200D01*
X376181401Y-207053399D02*
X376682000Y-207553998D01*
%TO.N,Net-(U15-Pad12)*%
X378147799Y-227920801D02*
X378147799Y-226840799D01*
X384802599Y-236735401D02*
X385020601Y-236517399D01*
X385020601Y-236517399D02*
X385020601Y-230131401D01*
X385020601Y-230131401D02*
X380358399Y-230131401D01*
X380358399Y-230131401D02*
X378147799Y-227920801D01*
X378147799Y-226840799D02*
X378877798Y-226110800D01*
X384802599Y-254297399D02*
X384802599Y-236735401D01*
X385927600Y-255422400D02*
X384802599Y-254297399D01*
X381152400Y-226110800D02*
X381254000Y-226212400D01*
X378877798Y-226110800D02*
X381152400Y-226110800D01*
X381254000Y-226212400D02*
X381812800Y-226212400D01*
X381812800Y-226212400D02*
X381812800Y-219760800D01*
%TO.N,Net-(U15-Pad4)*%
X392640601Y-221303599D02*
X392640601Y-238549399D01*
X389972801Y-218635799D02*
X392640601Y-221303599D01*
X387857790Y-220699400D02*
X388307799Y-220249391D01*
X387857789Y-224512221D02*
X387857790Y-220699400D01*
X392640601Y-238549399D02*
X391007600Y-240182400D01*
X388892799Y-218635799D02*
X389972801Y-218635799D01*
X385767799Y-226602211D02*
X387857789Y-224512221D01*
X385767799Y-227920801D02*
X385767799Y-226602211D01*
X385182799Y-228505801D02*
X385767799Y-227920801D01*
X388307799Y-220249391D02*
X388307799Y-219220799D01*
X380397801Y-228505801D02*
X385182799Y-228505801D01*
X388307799Y-219220799D02*
X388892799Y-218635799D01*
X379272800Y-227380800D02*
X380397801Y-228505801D01*
%TO.N,Net-(U15-Pad11)*%
X383176999Y-218584999D02*
X384352800Y-219760800D01*
X384302000Y-207721200D02*
X383176999Y-208846201D01*
X372727001Y-209525437D02*
X372874365Y-209672801D01*
X375056400Y-191871600D02*
X372727001Y-194200999D01*
X372727001Y-194200999D02*
X372727001Y-209525437D01*
X383176999Y-208846201D02*
X383176999Y-209811401D01*
X383176999Y-209811401D02*
X383176999Y-218584999D01*
%TO.N,Net-(U15-Pad9)*%
X388307799Y-240022599D02*
X388467600Y-240182400D01*
X388307799Y-220885801D02*
X388307799Y-240022599D01*
X389432800Y-219760800D02*
X388307799Y-220885801D01*
%TO.N,Net-(U16-Pad7)*%
X398025401Y-173286201D02*
X398025401Y-215994199D01*
X396849600Y-172110400D02*
X398025401Y-173286201D01*
%TO.N,Net-(U16-Pad12)*%
X383024599Y-206458601D02*
X383024599Y-159468601D01*
X381762000Y-207721200D02*
X383024599Y-206458601D01*
X383024599Y-159468601D02*
X383184400Y-159308800D01*
%TO.N,Net-(U16-Pad4)*%
X413498199Y-211670591D02*
X413498199Y-216190999D01*
X414629600Y-172110400D02*
X414629600Y-210539190D01*
X414629600Y-210539190D02*
X413498199Y-211670591D01*
X379222000Y-218146598D02*
X379222000Y-215341200D01*
X377901200Y-219467398D02*
X379222000Y-218146598D01*
X377901200Y-221081600D02*
X377901200Y-219467398D01*
X413498199Y-216190999D02*
X413498199Y-220993801D01*
X413498199Y-220993801D02*
X413410400Y-221081600D01*
%TO.N,Net-(U16-Pad9)*%
X391718800Y-205384400D02*
X389382000Y-207721200D01*
X391718800Y-173888400D02*
X391718800Y-205384400D01*
%TO.N,Net-(U17-Pad15)*%
X353226200Y-186639200D02*
X353226200Y-199477800D01*
X353364800Y-199339200D02*
X354787200Y-199339200D01*
X353226200Y-199477800D02*
X353364800Y-199339200D01*
%TO.N,Net-(U18-Pad6)*%
X367436400Y-170230800D02*
X367436400Y-184251600D01*
X367842800Y-169824400D02*
X367436400Y-170230800D01*
%TO.N,Net-(U18-Pad5)*%
X370730999Y-199724399D02*
X370853800Y-199847200D01*
X371856000Y-166725600D02*
X370730999Y-167850601D01*
X370730999Y-167850601D02*
X370730999Y-199724399D01*
%TO.N,Net-(U18-Pad1)*%
X380796800Y-162864800D02*
X379476000Y-164185600D01*
X380796800Y-155498800D02*
X380796800Y-162864800D01*
%TO.N,Net-(U18-Pad10)*%
X375056400Y-189331600D02*
X376682000Y-187706000D01*
X376682000Y-187706000D02*
X376682000Y-166878000D01*
%TO.N,Net-(U18-Pad9)*%
X378350999Y-194251799D02*
X378510800Y-194411600D01*
X379476000Y-169265600D02*
X378350999Y-170390601D01*
X378350999Y-170390601D02*
X378350999Y-194251799D01*
%TO.N,Net-(U18-Pad2)*%
X381521800Y-169759800D02*
X379476000Y-171805600D01*
X381521800Y-160274000D02*
X381521800Y-169759800D01*
%TO.N,Net-(U21-Pad15)*%
X424923470Y-221386400D02*
X424923470Y-254235470D01*
X424923470Y-254235470D02*
X424942000Y-254254000D01*
%TO.N,Net-(U21-Pad14)*%
X424198470Y-216408000D02*
X424198470Y-256202870D01*
X424198470Y-256202870D02*
X424230800Y-256235200D01*
%TO.N,Net-(U21-Pad13)*%
X393774000Y-209905600D02*
X393774000Y-195958800D01*
X393774000Y-195958800D02*
X393750800Y-195935600D01*
X417880800Y-212170399D02*
X417952801Y-212242400D01*
X417880800Y-211044401D02*
X417952801Y-210972400D01*
X417880800Y-211074000D02*
X417880800Y-211044401D01*
X417880800Y-211074000D02*
X417880800Y-212170399D01*
X417880800Y-196291200D02*
X417880800Y-211074000D01*
X423473470Y-211970862D02*
X423473470Y-257144930D01*
X423473470Y-257144930D02*
X423468800Y-257149600D01*
%TO.N,Net-(U21-Pad18)*%
X407009600Y-227482400D02*
X404520400Y-229971600D01*
X408482800Y-227482400D02*
X407009600Y-227482400D01*
X408482800Y-227482400D02*
X409651200Y-228650800D01*
X409651200Y-228650800D02*
X409651200Y-238760000D01*
X419049200Y-240080800D02*
X418947600Y-240182400D01*
X419049200Y-238289000D02*
X419049200Y-240080800D01*
%TO.N,Net-(U21-Pad17)*%
X414977799Y-238955799D02*
X415036000Y-239014000D01*
X416102800Y-227482400D02*
X414977799Y-228607401D01*
X414977799Y-228607401D02*
X414977799Y-238955799D01*
%TO.N,Net-(U23-Pad15)*%
X389919598Y-175492798D02*
X389919598Y-192155198D01*
X388104599Y-173677799D02*
X389919598Y-175492798D01*
X386689600Y-156870400D02*
X388104599Y-158285399D01*
X388104599Y-158285399D02*
X388104599Y-173677799D01*
%TO.N,Net-(U23-Pad14)*%
X390644599Y-158285399D02*
X390644599Y-187154601D01*
X389229600Y-156870400D02*
X390644599Y-158285399D01*
%TO.N,Net-(U23-Pad13)*%
X392894601Y-182023801D02*
X392988800Y-182118000D01*
X391769600Y-156870400D02*
X392894601Y-157995401D01*
X392894601Y-157995401D02*
X392894601Y-182023801D01*
%TO.N,Net-(U23-Pad18)*%
X386689600Y-172110400D02*
X386689600Y-201879200D01*
X386689600Y-201879200D02*
X387248400Y-202438000D01*
%TO.N,Net-(U23-Pad17)*%
X384149600Y-172110400D02*
X384149600Y-197866000D01*
X384149600Y-197866000D02*
X384048000Y-197967600D01*
%TD*%
M02*
