M48
; DRILL file {KiCad 5.1.12-84ad8e8a86~92~ubuntu18.04.1} date Wed 09 Feb 2022 04:30:22 PM EST
; FORMAT={-:-/ absolute / metric / decimal}
; #@! TF.CreationDate,2022-02-09T16:30:22-05:00
; #@! TF.GenerationSoftware,Kicad,Pcbnew,5.1.12-84ad8e8a86~92~ubuntu18.04.1
; #@! TF.FileFunction,Plated,1,4,PTH
FMAT,2
METRIC
T1C0.400
T2C0.800
T3C1.000
T4C1.190
T5C3.050
%
G90
G05
T1
X283.159Y-217.932
X284.632Y-229.362
X286.868Y-178.968
X289.458Y-176.53
X290.83Y-251.612
X291.44Y-158.293
X292.456Y-205.943
X293.624Y-154.788
X294.088Y-221.64
X294.843Y-154.737
X295.097Y-238.049
X295.859Y-177.648
X296.875Y-251.809
X298.704Y-179.693
X298.907Y-235.61
X299.568Y-225.531
X299.632Y-163.867
X300.258Y-235.356
X301.498Y-256.78
X302.108Y-230.886
X304.038Y-210.972
X304.671Y-168.453
X305.054Y-222.453
X305.359Y-209.804
X306.121Y-174.498
X306.501Y-190.677
X308.153Y-205.537
X308.806Y-173.881
X310.794Y-231.343
X311.746Y-197.039
X312.166Y-164.592
X312.471Y-194.056
X312.725Y-223.266
X313.487Y-190.703
X314.452Y-236.525
X314.604Y-198.323
X315.062Y-174.904
X317.856Y-241.452
X318.276Y-180.95
X318.973Y-179.883
X320.142Y-173.939
X320.396Y-180.899
X321.666Y-165.811
X321.869Y-241.402
X322.428Y-187.808
X323.19Y-242.164
X323.756Y-194.455
X323.799Y-205.523
X324.358Y-239.268
X325.099Y-206.248
X325.272Y-179.934
X325.882Y-251.714
X325.933Y-216.662
X326.445Y-164.647
X326.746Y-213.208
X331.216Y-164.948
X331.724Y-206.146
X332.13Y-186.741
X332.689Y-175.463
X335.229Y-173.279
X335.686Y-239.166
X335.853Y-218.371
X336.231Y-181.661
X336.231Y-189.586
X336.753Y-229.972
X338.582Y-174.346
X339.649Y-166.319
X339.737Y-181.051
X340.457Y-223.017
X340.462Y-194.564
X340.512Y-206.146
X341.302Y-186.811
X342.748Y-166.319
X343.154Y-231.851
X343.256Y-206.35
X343.306Y-223.571
X344.018Y-235.292
X344.627Y-206.096
X344.678Y-189.281
X344.78Y-174.295
X346.253Y-176.378
X347.167Y-180.899
X348.183Y-217.475
X348.336Y-205.899
X349.758Y-173.279
X350.266Y-249.682
X351.776Y-181.762
X351.942Y-246.685
X351.942Y-251.46
X353.166Y-247.959
X353.226Y-186.639
X353.249Y-162.594
X353.974Y-229.768
X354.686Y-175.514
X356.159Y-161.696
X356.26Y-228.752
X356.586Y-181.204
X358.401Y-195.522
X359.918Y-224.296
X361.645Y-179.121
X362.407Y-230.784
X362.844Y-178.948
X364.273Y-231.648
X365.049Y-233.07
X365.15Y-206.299
X365.608Y-250.495
X366.275Y-217.467
X366.471Y-241.402
X366.522Y-255.016
X367.843Y-169.824
X369.011Y-234.798
X369.404Y-174.752
X369.404Y-212.09
X370.129Y-217.424
X370.854Y-199.847
X372.874Y-209.673
X376.072Y-165.405
X376.631Y-230.683
X376.682Y-166.878
X377.901Y-221.082
X377.952Y-228.854
X378.511Y-194.412
X379.73Y-212.09
X380.797Y-155.499
X380.848Y-253.492
X380.986Y-240.64
X381.522Y-160.274
X381.711Y-236.017
X381.711Y-254.254
X383.177Y-209.811
X383.184Y-159.309
X384.048Y-197.968
X386.029Y-233.121
X386.944Y-237.598
X387.198Y-211.531
X387.248Y-202.438
X387.452Y-177.264
X389.92Y-192.155
X390.645Y-187.155
X391.058Y-224.333
X391.719Y-173.888
X392.989Y-182.118
X393.366Y-225.531
X393.497Y-253.529
X393.751Y-195.936
X393.774Y-209.906
X394.499Y-199.847
X394.564Y-227.533
X394.614Y-229.768
X395.224Y-196.85
X395.224Y-204.419
X395.224Y-222.805
X395.275Y-221.807
X395.326Y-242.164
X398.025Y-215.994
X398.75Y-218.063
X400.05Y-205.174
X400.05Y-221.807
X400.71Y-209.652
X400.812Y-201.066
X400.812Y-207.061
X400.863Y-225.958
X401.168Y-242.889
X401.611Y-234.899
X401.93Y-163.068
X402.336Y-236.423
X402.477Y-237.413
X402.539Y-179.68
X402.67Y-217.272
X402.67Y-222.453
X402.742Y-206.096
X402.742Y-210.871
X404.774Y-232.119
X406.37Y-212.75
X406.806Y-167.64
X406.959Y-175.426
X408.534Y-177.264
X409.491Y-170.681
X409.651Y-238.76
X409.765Y-184.333
X409.823Y-182.374
X410.058Y-205.994
X410.667Y-212.882
X411.328Y-208.636
X412.039Y-174.701
X413.106Y-178.714
X413.41Y-221.082
X414.223Y-213.868
X415.036Y-239.014
X416.015Y-177.989
X417.424Y-217.881
X417.525Y-181.204
X417.881Y-196.291
X417.953Y-210.972
X417.953Y-212.242
X418.694Y-216.002
X419.049Y-238.289
X420.116Y-185.928
X420.841Y-188.316
X421.691Y-224.79
X422.416Y-223.266
X422.453Y-231.394
X423.418Y-210.972
X423.469Y-257.15
X423.473Y-211.971
X424.198Y-216.408
X424.231Y-256.235
X424.923Y-221.386
X424.942Y-254.254
X424.993Y-215.189
X425.298Y-199.136
T2
X284.328Y-219.761
X284.328Y-227.381
X284.378Y-207.924
X284.378Y-215.544
X285.75Y-189.332
X285.75Y-196.952
X286.868Y-219.761
X286.868Y-227.381
X286.918Y-207.924
X286.918Y-215.544
X289.408Y-219.761
X289.408Y-227.381
X289.458Y-207.924
X289.458Y-215.544
X291.948Y-219.761
X291.948Y-227.381
X291.998Y-207.924
X291.998Y-215.544
X293.37Y-189.332
X293.37Y-196.952
X294.488Y-219.761
X294.488Y-227.381
X294.538Y-207.924
X294.538Y-215.544
X297.028Y-219.761
X297.028Y-227.381
X297.078Y-207.924
X297.078Y-215.544
X297.536Y-184.252
X297.536Y-186.792
X297.536Y-189.332
X297.536Y-191.872
X297.536Y-194.412
X297.536Y-196.952
X297.536Y-199.492
X299.568Y-219.761
X299.568Y-227.381
X299.618Y-207.924
X299.618Y-215.544
X302.108Y-219.761
X302.108Y-227.381
X302.158Y-207.924
X302.158Y-215.544
X305.156Y-184.252
X305.156Y-186.792
X305.156Y-189.332
X305.156Y-191.872
X305.156Y-194.412
X305.156Y-196.952
X305.156Y-199.492
X306.375Y-207.874
X306.375Y-215.494
X306.426Y-219.812
X306.426Y-227.432
X307.391Y-169.977
X307.391Y-177.597
X307.95Y-184.201
X307.95Y-186.741
X307.95Y-189.281
X307.95Y-191.821
X307.95Y-194.361
X307.95Y-196.901
X307.95Y-199.441
X307.95Y-201.981
X308.915Y-207.874
X308.915Y-215.494
X308.966Y-219.812
X308.966Y-227.432
X309.931Y-169.977
X309.931Y-177.597
X311.455Y-207.874
X311.455Y-215.494
X311.506Y-219.812
X311.506Y-227.432
X312.471Y-169.977
X312.471Y-177.597
X313.995Y-207.874
X313.995Y-215.494
X314.046Y-219.812
X314.046Y-227.432
X315.011Y-169.977
X315.011Y-177.597
X315.57Y-184.201
X315.57Y-186.741
X315.57Y-189.281
X315.57Y-191.821
X315.57Y-194.361
X315.57Y-196.901
X315.57Y-199.441
X315.57Y-201.981
X316.535Y-207.874
X316.535Y-215.494
X316.586Y-219.812
X316.586Y-227.432
X317.551Y-169.977
X317.551Y-177.597
X319.075Y-207.874
X319.075Y-215.494
X319.126Y-219.812
X319.126Y-227.432
X319.329Y-184.201
X319.329Y-186.741
X319.329Y-189.281
X319.329Y-191.821
X319.329Y-194.361
X319.329Y-196.901
X319.329Y-199.441
X319.329Y-201.981
X320.091Y-169.977
X320.091Y-177.597
X321.615Y-207.874
X321.615Y-215.494
X321.666Y-219.812
X321.666Y-227.432
X322.631Y-169.977
X322.631Y-177.597
X324.155Y-207.874
X324.155Y-215.494
X324.206Y-219.812
X324.206Y-227.432
X325.171Y-169.977
X325.171Y-177.597
X326.949Y-184.201
X326.949Y-186.741
X326.949Y-189.281
X326.949Y-191.821
X326.949Y-194.361
X326.949Y-196.901
X326.949Y-199.441
X326.949Y-201.981
X327.711Y-169.977
X327.711Y-177.597
X328.016Y-207.823
X328.016Y-215.443
X328.066Y-219.761
X328.066Y-227.381
X330.251Y-169.977
X330.251Y-177.597
X330.556Y-207.823
X330.556Y-215.443
X330.606Y-184.201
X330.606Y-186.741
X330.606Y-189.281
X330.606Y-191.821
X330.606Y-194.361
X330.606Y-196.901
X330.606Y-199.441
X330.606Y-201.981
X330.606Y-219.761
X330.606Y-227.381
X331.673Y-248.107
X331.673Y-251.409
X331.673Y-254.762
X333.096Y-207.823
X333.096Y-215.443
X333.146Y-219.761
X333.146Y-227.381
X335.636Y-207.823
X335.636Y-215.443
X335.686Y-219.761
X335.686Y-227.381
X336.956Y-170.028
X336.956Y-177.648
X338.176Y-207.823
X338.176Y-215.443
X338.226Y-184.201
X338.226Y-186.741
X338.226Y-189.281
X338.226Y-191.821
X338.226Y-194.361
X338.226Y-196.901
X338.226Y-199.441
X338.226Y-201.981
X338.226Y-219.761
X338.226Y-227.381
X339.293Y-248.107
X339.293Y-251.409
X339.293Y-254.762
X339.496Y-170.028
X339.496Y-177.648
X340.716Y-207.823
X340.716Y-215.443
X340.766Y-219.761
X340.766Y-227.381
X342.036Y-170.028
X342.036Y-177.648
X342.697Y-184.15
X342.697Y-186.69
X342.697Y-189.23
X342.697Y-191.77
X342.697Y-194.31
X342.697Y-196.85
X342.697Y-199.39
X342.697Y-201.93
X343.256Y-207.823
X343.256Y-215.443
X343.306Y-219.761
X343.306Y-227.381
X344.576Y-170.028
X344.576Y-177.648
X345.796Y-207.823
X345.796Y-215.443
X345.846Y-219.761
X345.846Y-227.381
X347.116Y-170.028
X347.116Y-177.648
X349.656Y-170.028
X349.656Y-177.648
X349.758Y-219.761
X349.758Y-227.381
X349.91Y-207.772
X349.91Y-215.392
X350.317Y-184.15
X350.317Y-186.69
X350.317Y-189.23
X350.317Y-191.77
X350.317Y-194.31
X350.317Y-196.85
X350.317Y-199.39
X350.317Y-201.93
X352.196Y-170.028
X352.196Y-177.648
X352.298Y-219.761
X352.298Y-227.381
X352.45Y-207.772
X352.45Y-215.392
X354.736Y-170.028
X354.736Y-177.648
X354.787Y-184.099
X354.787Y-186.639
X354.787Y-189.179
X354.787Y-191.719
X354.787Y-194.259
X354.787Y-196.799
X354.787Y-199.339
X354.787Y-201.879
X354.838Y-219.761
X354.838Y-227.381
X354.99Y-207.772
X354.99Y-215.392
X357.276Y-170.028
X357.276Y-177.648
X357.378Y-219.761
X357.378Y-227.381
X357.53Y-207.772
X357.53Y-215.392
X359.816Y-170.028
X359.816Y-177.648
X359.918Y-219.761
X359.918Y-227.381
X360.07Y-207.772
X360.07Y-215.392
X362.407Y-184.099
X362.407Y-186.639
X362.407Y-189.179
X362.407Y-191.719
X362.407Y-194.259
X362.407Y-196.799
X362.407Y-199.339
X362.407Y-201.879
X362.458Y-219.761
X362.458Y-227.381
X362.61Y-207.772
X362.61Y-215.392
X364.998Y-219.761
X364.998Y-227.381
X365.15Y-207.772
X365.15Y-215.392
X367.436Y-184.252
X367.436Y-186.792
X367.436Y-189.332
X367.436Y-191.872
X367.436Y-194.412
X367.436Y-196.952
X367.436Y-199.492
X367.538Y-219.761
X367.538Y-227.381
X367.69Y-207.772
X367.69Y-215.392
X371.602Y-207.721
X371.602Y-215.341
X371.653Y-219.761
X371.653Y-227.381
X371.856Y-156.566
X371.856Y-159.106
X371.856Y-161.646
X371.856Y-164.186
X371.856Y-166.726
X371.856Y-169.266
X371.856Y-171.806
X374.142Y-207.721
X374.142Y-215.341
X374.193Y-219.761
X374.193Y-227.381
X375.056Y-184.252
X375.056Y-186.792
X375.056Y-189.332
X375.056Y-191.872
X375.056Y-194.412
X375.056Y-196.952
X375.056Y-199.492
X376.682Y-207.721
X376.682Y-215.341
X376.733Y-219.761
X376.733Y-227.381
X379.222Y-207.721
X379.222Y-215.341
X379.273Y-219.761
X379.273Y-227.381
X379.476Y-156.566
X379.476Y-159.106
X379.476Y-161.646
X379.476Y-164.186
X379.476Y-166.726
X379.476Y-169.266
X379.476Y-171.806
X380.848Y-184.201
X380.848Y-186.741
X380.848Y-189.281
X380.848Y-191.821
X380.848Y-194.361
X380.848Y-196.901
X380.848Y-199.441
X381.762Y-207.721
X381.762Y-215.341
X381.813Y-219.761
X381.813Y-227.381
X383.388Y-240.182
X383.388Y-255.422
X383.896Y-231.496
X383.896Y-234.798
X384.15Y-156.87
X384.15Y-172.11
X384.302Y-207.721
X384.302Y-215.341
X384.353Y-219.761
X384.353Y-227.381
X385.928Y-240.182
X385.928Y-255.422
X386.69Y-156.87
X386.69Y-172.11
X386.842Y-207.721
X386.842Y-215.341
X386.893Y-219.761
X386.893Y-227.381
X388.468Y-184.201
X388.468Y-186.741
X388.468Y-189.281
X388.468Y-191.821
X388.468Y-194.361
X388.468Y-196.901
X388.468Y-199.441
X388.468Y-240.182
X388.468Y-255.422
X389.23Y-156.87
X389.23Y-172.11
X389.382Y-207.721
X389.382Y-215.341
X389.433Y-219.761
X389.433Y-227.381
X391.008Y-240.182
X391.008Y-255.422
X391.516Y-231.496
X391.516Y-234.798
X391.77Y-156.87
X391.77Y-172.11
X393.548Y-240.182
X393.548Y-255.422
X394.31Y-156.87
X394.31Y-172.11
X396.088Y-240.182
X396.088Y-255.422
X396.748Y-179.578
X396.748Y-182.118
X396.748Y-184.658
X396.748Y-187.198
X396.748Y-189.738
X396.748Y-192.278
X396.748Y-194.818
X396.748Y-197.358
X396.748Y-199.898
X396.748Y-202.438
X396.85Y-156.87
X396.85Y-172.11
X396.9Y-207.112
X396.9Y-209.652
X396.9Y-212.192
X396.9Y-214.732
X396.9Y-217.272
X396.9Y-219.812
X396.9Y-222.352
X396.9Y-224.892
X396.9Y-227.432
X396.9Y-229.972
X397.053Y-234.798
X398.628Y-240.182
X398.628Y-255.422
X399.39Y-156.87
X399.39Y-172.11
X401.168Y-240.182
X401.168Y-255.422
X401.93Y-156.87
X401.93Y-172.11
X403.708Y-240.182
X403.708Y-255.422
X404.368Y-179.578
X404.368Y-182.118
X404.368Y-184.658
X404.368Y-187.198
X404.368Y-189.738
X404.368Y-192.278
X404.368Y-194.818
X404.368Y-197.358
X404.368Y-199.898
X404.368Y-202.438
X404.47Y-156.87
X404.47Y-172.11
X404.52Y-207.112
X404.52Y-209.652
X404.52Y-212.192
X404.52Y-214.732
X404.52Y-217.272
X404.52Y-219.812
X404.52Y-222.352
X404.52Y-224.892
X404.52Y-227.432
X404.52Y-229.972
X404.673Y-234.798
X406.248Y-240.182
X406.248Y-255.422
X407.01Y-156.87
X407.01Y-172.11
X408.432Y-179.68
X408.432Y-182.22
X408.432Y-184.76
X408.432Y-187.3
X408.432Y-189.84
X408.432Y-192.38
X408.432Y-194.92
X408.432Y-197.46
X408.432Y-200.0
X408.432Y-202.54
X408.483Y-207.162
X408.483Y-209.702
X408.483Y-212.242
X408.483Y-214.782
X408.483Y-217.322
X408.483Y-219.862
X408.483Y-222.402
X408.483Y-224.942
X408.483Y-227.482
X408.483Y-230.022
X408.788Y-240.182
X408.788Y-255.422
X409.55Y-156.87
X409.55Y-172.11
X411.328Y-240.182
X411.328Y-255.422
X412.09Y-156.87
X412.09Y-172.11
X413.868Y-240.182
X413.868Y-255.422
X414.63Y-156.87
X414.63Y-172.11
X416.052Y-179.68
X416.052Y-182.22
X416.052Y-184.76
X416.052Y-187.3
X416.052Y-189.84
X416.052Y-192.38
X416.052Y-194.92
X416.052Y-197.46
X416.052Y-200.0
X416.052Y-202.54
X416.103Y-207.162
X416.103Y-209.702
X416.103Y-212.242
X416.103Y-214.782
X416.103Y-217.322
X416.103Y-219.862
X416.103Y-222.402
X416.103Y-224.942
X416.103Y-227.482
X416.103Y-230.022
X416.408Y-240.182
X416.408Y-255.422
X417.17Y-156.87
X417.17Y-172.11
X418.948Y-240.182
X418.948Y-255.422
X419.71Y-156.87
X419.71Y-172.11
X421.488Y-240.182
X421.488Y-255.422
X422.25Y-156.87
X422.25Y-172.11
T3
X282.194Y-239.827
X282.194Y-242.367
X282.194Y-244.907
X282.194Y-247.447
X282.194Y-249.987
X282.194Y-254.864
X284.734Y-254.864
X284.886Y-161.087
X287.274Y-254.864
X287.579Y-244.805
X289.814Y-254.864
X289.886Y-161.087
X292.354Y-254.864
X292.579Y-244.805
X294.894Y-254.864
X297.434Y-254.864
X299.974Y-254.864
X302.514Y-254.864
X305.054Y-254.864
X307.594Y-254.864
X310.134Y-254.864
X312.674Y-254.864
X313.436Y-157.074
X313.436Y-159.614
X313.436Y-162.154
X315.214Y-254.864
X315.976Y-157.074
X315.976Y-159.614
X315.976Y-162.154
X317.754Y-254.864
X318.516Y-157.074
X318.516Y-159.614
X318.516Y-162.154
X320.294Y-254.864
X321.056Y-157.074
X321.056Y-159.614
X321.056Y-162.154
X322.834Y-254.864
X323.596Y-157.074
X323.596Y-159.614
X323.596Y-162.154
X325.374Y-254.864
X326.136Y-157.074
X326.136Y-159.614
X326.136Y-162.154
X328.676Y-157.074
X328.676Y-159.614
X328.676Y-162.154
X331.216Y-157.074
X331.216Y-159.614
X331.216Y-162.154
X333.756Y-157.074
X333.756Y-159.614
X333.756Y-162.154
X336.296Y-157.074
X336.296Y-159.614
X336.296Y-162.154
X338.836Y-157.074
X338.836Y-159.614
X338.836Y-162.154
X341.376Y-157.074
X341.376Y-159.614
X341.376Y-162.154
X343.916Y-157.074
X343.916Y-159.614
X343.916Y-162.154
X346.456Y-157.074
X346.456Y-159.614
X346.456Y-162.154
X348.996Y-157.074
X348.996Y-159.614
X348.996Y-162.154
X351.536Y-157.074
X351.536Y-159.614
X351.536Y-162.154
X353.974Y-238.252
X356.514Y-238.252
X359.054Y-238.252
X360.274Y-159.36
X361.594Y-238.252
X364.134Y-238.252
X365.274Y-159.36
X420.116Y-207.416
X420.116Y-209.956
X420.116Y-212.496
X420.116Y-215.036
X420.116Y-217.576
X420.116Y-223.266
X420.116Y-225.806
T4
X354.021Y-244.196
X354.021Y-249.276
X355.166Y-246.736
X356.311Y-244.196
X356.311Y-249.276
X357.456Y-246.736
X358.601Y-244.196
X358.601Y-249.276
X359.746Y-246.736
X360.891Y-244.196
X360.891Y-249.276
X362.036Y-246.736
X363.181Y-244.196
X363.181Y-249.276
X364.326Y-246.736
T5
X346.356Y-246.736
X371.346Y-246.736
T0
M30
