%TF.GenerationSoftware,KiCad,Pcbnew,5.1.12-84ad8e8a86~92~ubuntu18.04.1*%
%TF.CreationDate,2022-02-09T16:29:34-05:00*%
%TF.ProjectId,kicad,6b696361-642e-46b6-9963-61645f706362,rev?*%
%TF.SameCoordinates,Original*%
%TF.FileFunction,Soldermask,Bot*%
%TF.FilePolarity,Negative*%
%FSLAX46Y46*%
G04 Gerber Fmt 4.6, Leading zero omitted, Abs format (unit mm)*
G04 Created by KiCad (PCBNEW 5.1.12-84ad8e8a86~92~ubuntu18.04.1) date 2022-02-09 16:29:34*
%MOMM*%
%LPD*%
G01*
G04 APERTURE LIST*
%ADD10C,1.600000*%
%ADD11R,1.600000X1.600000*%
%ADD12O,1.600000X1.600000*%
%ADD13O,1.700000X1.700000*%
%ADD14R,1.700000X1.700000*%
%ADD15C,4.066000*%
%ADD16C,1.785000*%
%ADD17R,1.785000X1.785000*%
%ADD18C,2.000000*%
%ADD19R,2.000000X2.000000*%
G04 APERTURE END LIST*
D10*
%TO.C,X1*%
X293370000Y-196951600D03*
X293370000Y-189331600D03*
X285750000Y-189331600D03*
D11*
X285750000Y-196951600D03*
%TD*%
D12*
%TO.C,U27*%
X416102800Y-207162400D03*
X408482800Y-230022400D03*
X416102800Y-209702400D03*
X408482800Y-227482400D03*
X416102800Y-212242400D03*
X408482800Y-224942400D03*
X416102800Y-214782400D03*
X408482800Y-222402400D03*
X416102800Y-217322400D03*
X408482800Y-219862400D03*
X416102800Y-219862400D03*
X408482800Y-217322400D03*
X416102800Y-222402400D03*
X408482800Y-214782400D03*
X416102800Y-224942400D03*
X408482800Y-212242400D03*
X416102800Y-227482400D03*
X408482800Y-209702400D03*
X416102800Y-230022400D03*
D11*
X408482800Y-207162400D03*
%TD*%
D12*
%TO.C,U26*%
X416052000Y-179679600D03*
X408432000Y-202539600D03*
X416052000Y-182219600D03*
X408432000Y-199999600D03*
X416052000Y-184759600D03*
X408432000Y-197459600D03*
X416052000Y-187299600D03*
X408432000Y-194919600D03*
X416052000Y-189839600D03*
X408432000Y-192379600D03*
X416052000Y-192379600D03*
X408432000Y-189839600D03*
X416052000Y-194919600D03*
X408432000Y-187299600D03*
X416052000Y-197459600D03*
X408432000Y-184759600D03*
X416052000Y-199999600D03*
X408432000Y-182219600D03*
X416052000Y-202539600D03*
D11*
X408432000Y-179679600D03*
%TD*%
D12*
%TO.C,U25*%
X404520400Y-207111600D03*
X396900400Y-229971600D03*
X404520400Y-209651600D03*
X396900400Y-227431600D03*
X404520400Y-212191600D03*
X396900400Y-224891600D03*
X404520400Y-214731600D03*
X396900400Y-222351600D03*
X404520400Y-217271600D03*
X396900400Y-219811600D03*
X404520400Y-219811600D03*
X396900400Y-217271600D03*
X404520400Y-222351600D03*
X396900400Y-214731600D03*
X404520400Y-224891600D03*
X396900400Y-212191600D03*
X404520400Y-227431600D03*
X396900400Y-209651600D03*
X404520400Y-229971600D03*
D11*
X396900400Y-207111600D03*
%TD*%
D12*
%TO.C,U24*%
X404368000Y-179578000D03*
X396748000Y-202438000D03*
X404368000Y-182118000D03*
X396748000Y-199898000D03*
X404368000Y-184658000D03*
X396748000Y-197358000D03*
X404368000Y-187198000D03*
X396748000Y-194818000D03*
X404368000Y-189738000D03*
X396748000Y-192278000D03*
X404368000Y-192278000D03*
X396748000Y-189738000D03*
X404368000Y-194818000D03*
X396748000Y-187198000D03*
X404368000Y-197358000D03*
X396748000Y-184658000D03*
X404368000Y-199898000D03*
X396748000Y-182118000D03*
X404368000Y-202438000D03*
D11*
X396748000Y-179578000D03*
%TD*%
D12*
%TO.C,U23*%
X422249600Y-172110400D03*
X384149600Y-156870400D03*
X419709600Y-172110400D03*
X386689600Y-156870400D03*
X417169600Y-172110400D03*
X389229600Y-156870400D03*
X414629600Y-172110400D03*
X391769600Y-156870400D03*
X412089600Y-172110400D03*
X394309600Y-156870400D03*
X409549600Y-172110400D03*
X396849600Y-156870400D03*
X407009600Y-172110400D03*
X399389600Y-156870400D03*
X404469600Y-172110400D03*
X401929600Y-156870400D03*
X401929600Y-172110400D03*
X404469600Y-156870400D03*
X399389600Y-172110400D03*
X407009600Y-156870400D03*
X396849600Y-172110400D03*
X409549600Y-156870400D03*
X394309600Y-172110400D03*
X412089600Y-156870400D03*
X391769600Y-172110400D03*
X414629600Y-156870400D03*
X389229600Y-172110400D03*
X417169600Y-156870400D03*
X386689600Y-172110400D03*
X419709600Y-156870400D03*
X384149600Y-172110400D03*
D11*
X422249600Y-156870400D03*
%TD*%
D12*
%TO.C,U22*%
X388467600Y-184200800D03*
X380847600Y-199440800D03*
X388467600Y-186740800D03*
X380847600Y-196900800D03*
X388467600Y-189280800D03*
X380847600Y-194360800D03*
X388467600Y-191820800D03*
X380847600Y-191820800D03*
X388467600Y-194360800D03*
X380847600Y-189280800D03*
X388467600Y-196900800D03*
X380847600Y-186740800D03*
X388467600Y-199440800D03*
D11*
X380847600Y-184200800D03*
%TD*%
D12*
%TO.C,U21*%
X383387600Y-240182400D03*
X421487600Y-255422400D03*
X385927600Y-240182400D03*
X418947600Y-255422400D03*
X388467600Y-240182400D03*
X416407600Y-255422400D03*
X391007600Y-240182400D03*
X413867600Y-255422400D03*
X393547600Y-240182400D03*
X411327600Y-255422400D03*
X396087600Y-240182400D03*
X408787600Y-255422400D03*
X398627600Y-240182400D03*
X406247600Y-255422400D03*
X401167600Y-240182400D03*
X403707600Y-255422400D03*
X403707600Y-240182400D03*
X401167600Y-255422400D03*
X406247600Y-240182400D03*
X398627600Y-255422400D03*
X408787600Y-240182400D03*
X396087600Y-255422400D03*
X411327600Y-240182400D03*
X393547600Y-255422400D03*
X413867600Y-240182400D03*
X391007600Y-255422400D03*
X416407600Y-240182400D03*
X388467600Y-255422400D03*
X418947600Y-240182400D03*
X385927600Y-255422400D03*
X421487600Y-240182400D03*
D11*
X383387600Y-255422400D03*
%TD*%
D12*
%TO.C,U20*%
X375056400Y-184251600D03*
X367436400Y-199491600D03*
X375056400Y-186791600D03*
X367436400Y-196951600D03*
X375056400Y-189331600D03*
X367436400Y-194411600D03*
X375056400Y-191871600D03*
X367436400Y-191871600D03*
X375056400Y-194411600D03*
X367436400Y-189331600D03*
X375056400Y-196951600D03*
X367436400Y-186791600D03*
X375056400Y-199491600D03*
D11*
X367436400Y-184251600D03*
%TD*%
D12*
%TO.C,U19*%
X362407200Y-184099200D03*
X354787200Y-201879200D03*
X362407200Y-186639200D03*
X354787200Y-199339200D03*
X362407200Y-189179200D03*
X354787200Y-196799200D03*
X362407200Y-191719200D03*
X354787200Y-194259200D03*
X362407200Y-194259200D03*
X354787200Y-191719200D03*
X362407200Y-196799200D03*
X354787200Y-189179200D03*
X362407200Y-199339200D03*
X354787200Y-186639200D03*
X362407200Y-201879200D03*
D11*
X354787200Y-184099200D03*
%TD*%
D12*
%TO.C,U18*%
X379476000Y-156565600D03*
X371856000Y-171805600D03*
X379476000Y-159105600D03*
X371856000Y-169265600D03*
X379476000Y-161645600D03*
X371856000Y-166725600D03*
X379476000Y-164185600D03*
X371856000Y-164185600D03*
X379476000Y-166725600D03*
X371856000Y-161645600D03*
X379476000Y-169265600D03*
X371856000Y-159105600D03*
X379476000Y-171805600D03*
D11*
X371856000Y-156565600D03*
%TD*%
D12*
%TO.C,U17*%
X350316800Y-184150000D03*
X342696800Y-201930000D03*
X350316800Y-186690000D03*
X342696800Y-199390000D03*
X350316800Y-189230000D03*
X342696800Y-196850000D03*
X350316800Y-191770000D03*
X342696800Y-194310000D03*
X350316800Y-194310000D03*
X342696800Y-191770000D03*
X350316800Y-196850000D03*
X342696800Y-189230000D03*
X350316800Y-199390000D03*
X342696800Y-186690000D03*
X350316800Y-201930000D03*
D11*
X342696800Y-184150000D03*
%TD*%
D12*
%TO.C,U16*%
X371602000Y-207721200D03*
X389382000Y-215341200D03*
X374142000Y-207721200D03*
X386842000Y-215341200D03*
X376682000Y-207721200D03*
X384302000Y-215341200D03*
X379222000Y-207721200D03*
X381762000Y-215341200D03*
X381762000Y-207721200D03*
X379222000Y-215341200D03*
X384302000Y-207721200D03*
X376682000Y-215341200D03*
X386842000Y-207721200D03*
X374142000Y-215341200D03*
X389382000Y-207721200D03*
D11*
X371602000Y-215341200D03*
%TD*%
D12*
%TO.C,U15*%
X371652800Y-219760800D03*
X389432800Y-227380800D03*
X374192800Y-219760800D03*
X386892800Y-227380800D03*
X376732800Y-219760800D03*
X384352800Y-227380800D03*
X379272800Y-219760800D03*
X381812800Y-227380800D03*
X381812800Y-219760800D03*
X379272800Y-227380800D03*
X384352800Y-219760800D03*
X376732800Y-227380800D03*
X386892800Y-219760800D03*
X374192800Y-227380800D03*
X389432800Y-219760800D03*
D11*
X371652800Y-227380800D03*
%TD*%
D12*
%TO.C,U14*%
X338226400Y-184200800D03*
X330606400Y-201980800D03*
X338226400Y-186740800D03*
X330606400Y-199440800D03*
X338226400Y-189280800D03*
X330606400Y-196900800D03*
X338226400Y-191820800D03*
X330606400Y-194360800D03*
X338226400Y-194360800D03*
X330606400Y-191820800D03*
X338226400Y-196900800D03*
X330606400Y-189280800D03*
X338226400Y-199440800D03*
X330606400Y-186740800D03*
X338226400Y-201980800D03*
D11*
X330606400Y-184200800D03*
%TD*%
D12*
%TO.C,U13*%
X349910400Y-207772000D03*
X367690400Y-215392000D03*
X352450400Y-207772000D03*
X365150400Y-215392000D03*
X354990400Y-207772000D03*
X362610400Y-215392000D03*
X357530400Y-207772000D03*
X360070400Y-215392000D03*
X360070400Y-207772000D03*
X357530400Y-215392000D03*
X362610400Y-207772000D03*
X354990400Y-215392000D03*
X365150400Y-207772000D03*
X352450400Y-215392000D03*
X367690400Y-207772000D03*
D11*
X349910400Y-215392000D03*
%TD*%
D12*
%TO.C,U12*%
X349758000Y-219760800D03*
X367538000Y-227380800D03*
X352298000Y-219760800D03*
X364998000Y-227380800D03*
X354838000Y-219760800D03*
X362458000Y-227380800D03*
X357378000Y-219760800D03*
X359918000Y-227380800D03*
X359918000Y-219760800D03*
X357378000Y-227380800D03*
X362458000Y-219760800D03*
X354838000Y-227380800D03*
X364998000Y-219760800D03*
X352298000Y-227380800D03*
X367538000Y-219760800D03*
D11*
X349758000Y-227380800D03*
%TD*%
D12*
%TO.C,U11*%
X326948800Y-184200800D03*
X319328800Y-201980800D03*
X326948800Y-186740800D03*
X319328800Y-199440800D03*
X326948800Y-189280800D03*
X319328800Y-196900800D03*
X326948800Y-191820800D03*
X319328800Y-194360800D03*
X326948800Y-194360800D03*
X319328800Y-191820800D03*
X326948800Y-196900800D03*
X319328800Y-189280800D03*
X326948800Y-199440800D03*
X319328800Y-186740800D03*
X326948800Y-201980800D03*
D11*
X319328800Y-184200800D03*
%TD*%
D12*
%TO.C,U10*%
X359816400Y-177647600D03*
X336956400Y-170027600D03*
X357276400Y-177647600D03*
X339496400Y-170027600D03*
X354736400Y-177647600D03*
X342036400Y-170027600D03*
X352196400Y-177647600D03*
X344576400Y-170027600D03*
X349656400Y-177647600D03*
X347116400Y-170027600D03*
X347116400Y-177647600D03*
X349656400Y-170027600D03*
X344576400Y-177647600D03*
X352196400Y-170027600D03*
X342036400Y-177647600D03*
X354736400Y-170027600D03*
X339496400Y-177647600D03*
X357276400Y-170027600D03*
X336956400Y-177647600D03*
D11*
X359816400Y-170027600D03*
%TD*%
D12*
%TO.C,U9*%
X328066400Y-219760800D03*
X345846400Y-227380800D03*
X330606400Y-219760800D03*
X343306400Y-227380800D03*
X333146400Y-219760800D03*
X340766400Y-227380800D03*
X335686400Y-219760800D03*
X338226400Y-227380800D03*
X338226400Y-219760800D03*
X335686400Y-227380800D03*
X340766400Y-219760800D03*
X333146400Y-227380800D03*
X343306400Y-219760800D03*
X330606400Y-227380800D03*
X345846400Y-219760800D03*
D11*
X328066400Y-227380800D03*
%TD*%
D12*
%TO.C,U8*%
X328015600Y-207822800D03*
X345795600Y-215442800D03*
X330555600Y-207822800D03*
X343255600Y-215442800D03*
X333095600Y-207822800D03*
X340715600Y-215442800D03*
X335635600Y-207822800D03*
X338175600Y-215442800D03*
X338175600Y-207822800D03*
X335635600Y-215442800D03*
X340715600Y-207822800D03*
X333095600Y-215442800D03*
X343255600Y-207822800D03*
X330555600Y-215442800D03*
X345795600Y-207822800D03*
D11*
X328015600Y-215442800D03*
%TD*%
D12*
%TO.C,U7*%
X315569600Y-184200800D03*
X307949600Y-201980800D03*
X315569600Y-186740800D03*
X307949600Y-199440800D03*
X315569600Y-189280800D03*
X307949600Y-196900800D03*
X315569600Y-191820800D03*
X307949600Y-194360800D03*
X315569600Y-194360800D03*
X307949600Y-191820800D03*
X315569600Y-196900800D03*
X307949600Y-189280800D03*
X315569600Y-199440800D03*
X307949600Y-186740800D03*
X315569600Y-201980800D03*
D11*
X307949600Y-184200800D03*
%TD*%
D12*
%TO.C,U6*%
X306425600Y-219811600D03*
X324205600Y-227431600D03*
X308965600Y-219811600D03*
X321665600Y-227431600D03*
X311505600Y-219811600D03*
X319125600Y-227431600D03*
X314045600Y-219811600D03*
X316585600Y-227431600D03*
X316585600Y-219811600D03*
X314045600Y-227431600D03*
X319125600Y-219811600D03*
X311505600Y-227431600D03*
X321665600Y-219811600D03*
X308965600Y-227431600D03*
X324205600Y-219811600D03*
D11*
X306425600Y-227431600D03*
%TD*%
D12*
%TO.C,U5*%
X306374800Y-207873600D03*
X324154800Y-215493600D03*
X308914800Y-207873600D03*
X321614800Y-215493600D03*
X311454800Y-207873600D03*
X319074800Y-215493600D03*
X313994800Y-207873600D03*
X316534800Y-215493600D03*
X316534800Y-207873600D03*
X313994800Y-215493600D03*
X319074800Y-207873600D03*
X311454800Y-215493600D03*
X321614800Y-207873600D03*
X308914800Y-215493600D03*
X324154800Y-207873600D03*
D11*
X306374800Y-215493600D03*
%TD*%
D12*
%TO.C,U4*%
X330250800Y-177596800D03*
X307390800Y-169976800D03*
X327710800Y-177596800D03*
X309930800Y-169976800D03*
X325170800Y-177596800D03*
X312470800Y-169976800D03*
X322630800Y-177596800D03*
X315010800Y-169976800D03*
X320090800Y-177596800D03*
X317550800Y-169976800D03*
X317550800Y-177596800D03*
X320090800Y-169976800D03*
X315010800Y-177596800D03*
X322630800Y-169976800D03*
X312470800Y-177596800D03*
X325170800Y-169976800D03*
X309930800Y-177596800D03*
X327710800Y-169976800D03*
X307390800Y-177596800D03*
D11*
X330250800Y-169976800D03*
%TD*%
D12*
%TO.C,U3*%
X305155600Y-184251600D03*
X297535600Y-199491600D03*
X305155600Y-186791600D03*
X297535600Y-196951600D03*
X305155600Y-189331600D03*
X297535600Y-194411600D03*
X305155600Y-191871600D03*
X297535600Y-191871600D03*
X305155600Y-194411600D03*
X297535600Y-189331600D03*
X305155600Y-196951600D03*
X297535600Y-186791600D03*
X305155600Y-199491600D03*
D11*
X297535600Y-184251600D03*
%TD*%
D12*
%TO.C,U2*%
X284378400Y-207924400D03*
X302158400Y-215544400D03*
X286918400Y-207924400D03*
X299618400Y-215544400D03*
X289458400Y-207924400D03*
X297078400Y-215544400D03*
X291998400Y-207924400D03*
X294538400Y-215544400D03*
X294538400Y-207924400D03*
X291998400Y-215544400D03*
X297078400Y-207924400D03*
X289458400Y-215544400D03*
X299618400Y-207924400D03*
X286918400Y-215544400D03*
X302158400Y-207924400D03*
D11*
X284378400Y-215544400D03*
%TD*%
D12*
%TO.C,U1*%
X284327600Y-219760800D03*
X302107600Y-227380800D03*
X286867600Y-219760800D03*
X299567600Y-227380800D03*
X289407600Y-219760800D03*
X297027600Y-227380800D03*
X291947600Y-219760800D03*
X294487600Y-227380800D03*
X294487600Y-219760800D03*
X291947600Y-227380800D03*
X297027600Y-219760800D03*
X289407600Y-227380800D03*
X299567600Y-219760800D03*
X286867600Y-227380800D03*
X302107600Y-219760800D03*
D11*
X284327600Y-227380800D03*
%TD*%
D12*
%TO.C,R6*%
X339293200Y-251409200D03*
D10*
X331673200Y-251409200D03*
%TD*%
D12*
%TO.C,R5*%
X391515600Y-234797600D03*
D10*
X383895600Y-234797600D03*
%TD*%
D12*
%TO.C,R4*%
X397052800Y-234797600D03*
D10*
X404672800Y-234797600D03*
%TD*%
D12*
%TO.C,R3*%
X383895600Y-231495600D03*
D10*
X391515600Y-231495600D03*
%TD*%
D12*
%TO.C,R2*%
X331673200Y-254762000D03*
D10*
X339293200Y-254762000D03*
%TD*%
D12*
%TO.C,R1*%
X331673200Y-248107200D03*
D10*
X339293200Y-248107200D03*
%TD*%
D13*
%TO.C,J9*%
X420116000Y-217576400D03*
X420116000Y-215036400D03*
X420116000Y-212496400D03*
X420116000Y-209956400D03*
D14*
X420116000Y-207416400D03*
%TD*%
D15*
%TO.C,J8*%
X371346200Y-246735600D03*
X346356200Y-246735600D03*
D16*
X354021200Y-249275600D03*
X356311200Y-249275600D03*
X358601200Y-249275600D03*
X360891200Y-249275600D03*
X363181200Y-249275600D03*
X355166200Y-246735600D03*
X357456200Y-246735600D03*
X359746200Y-246735600D03*
X362036200Y-246735600D03*
X364326200Y-246735600D03*
X354021200Y-244195600D03*
X356311200Y-244195600D03*
X358601200Y-244195600D03*
X360891200Y-244195600D03*
D17*
X363181200Y-244195600D03*
%TD*%
D13*
%TO.C,J7*%
X353974400Y-238252000D03*
X356514400Y-238252000D03*
X359054400Y-238252000D03*
X361594400Y-238252000D03*
D14*
X364134400Y-238252000D03*
%TD*%
D13*
%TO.C,J6*%
X351536000Y-162153600D03*
X348996000Y-162153600D03*
X346456000Y-162153600D03*
X343916000Y-162153600D03*
X341376000Y-162153600D03*
X338836000Y-162153600D03*
X336296000Y-162153600D03*
X333756000Y-162153600D03*
X331216000Y-162153600D03*
X328676000Y-162153600D03*
X326136000Y-162153600D03*
X323596000Y-162153600D03*
X321056000Y-162153600D03*
X318516000Y-162153600D03*
X315976000Y-162153600D03*
D14*
X313436000Y-162153600D03*
%TD*%
D13*
%TO.C,J5*%
X420116000Y-225806000D03*
D14*
X420116000Y-223266000D03*
%TD*%
D13*
%TO.C,J4*%
X351536000Y-157073600D03*
X348996000Y-157073600D03*
X346456000Y-157073600D03*
X343916000Y-157073600D03*
X341376000Y-157073600D03*
X338836000Y-157073600D03*
X336296000Y-157073600D03*
X333756000Y-157073600D03*
X331216000Y-157073600D03*
X328676000Y-157073600D03*
X326136000Y-157073600D03*
X323596000Y-157073600D03*
X321056000Y-157073600D03*
X318516000Y-157073600D03*
X315976000Y-157073600D03*
D14*
X313436000Y-157073600D03*
%TD*%
D13*
%TO.C,J3*%
X351536000Y-159613600D03*
X348996000Y-159613600D03*
X346456000Y-159613600D03*
X343916000Y-159613600D03*
X341376000Y-159613600D03*
X338836000Y-159613600D03*
X336296000Y-159613600D03*
X333756000Y-159613600D03*
X331216000Y-159613600D03*
X328676000Y-159613600D03*
X326136000Y-159613600D03*
X323596000Y-159613600D03*
X321056000Y-159613600D03*
X318516000Y-159613600D03*
X315976000Y-159613600D03*
D14*
X313436000Y-159613600D03*
%TD*%
D13*
%TO.C,J2*%
X325374000Y-254863600D03*
X322834000Y-254863600D03*
X320294000Y-254863600D03*
X317754000Y-254863600D03*
X315214000Y-254863600D03*
X312674000Y-254863600D03*
X310134000Y-254863600D03*
X307594000Y-254863600D03*
X305054000Y-254863600D03*
X302514000Y-254863600D03*
X299974000Y-254863600D03*
X297434000Y-254863600D03*
X294894000Y-254863600D03*
X292354000Y-254863600D03*
X289814000Y-254863600D03*
X287274000Y-254863600D03*
X284734000Y-254863600D03*
D14*
X282194000Y-254863600D03*
%TD*%
D13*
%TO.C,J1*%
X282194000Y-239826800D03*
X282194000Y-242366800D03*
X282194000Y-244906800D03*
X282194000Y-247446800D03*
D14*
X282194000Y-249986800D03*
%TD*%
D18*
%TO.C,C3*%
X292578800Y-244805200D03*
D19*
X287578800Y-244805200D03*
%TD*%
D18*
%TO.C,C2*%
X365273600Y-159359600D03*
D19*
X360273600Y-159359600D03*
%TD*%
D18*
%TO.C,C1*%
X289886400Y-161086800D03*
D19*
X284886400Y-161086800D03*
%TD*%
M02*
