%TF.GenerationSoftware,KiCad,Pcbnew,5.1.12-84ad8e8a86~92~ubuntu18.04.1*%
%TF.CreationDate,2022-02-09T16:29:34-05:00*%
%TF.ProjectId,kicad,6b696361-642e-46b6-9963-61645f706362,rev?*%
%TF.SameCoordinates,Original*%
%TF.FileFunction,Copper,L4,Bot*%
%TF.FilePolarity,Positive*%
%FSLAX46Y46*%
G04 Gerber Fmt 4.6, Leading zero omitted, Abs format (unit mm)*
G04 Created by KiCad (PCBNEW 5.1.12-84ad8e8a86~92~ubuntu18.04.1) date 2022-02-09 16:29:34*
%MOMM*%
%LPD*%
G01*
G04 APERTURE LIST*
%TA.AperFunction,ComponentPad*%
%ADD10C,1.600000*%
%TD*%
%TA.AperFunction,ComponentPad*%
%ADD11R,1.600000X1.600000*%
%TD*%
%TA.AperFunction,ComponentPad*%
%ADD12O,1.600000X1.600000*%
%TD*%
%TA.AperFunction,ComponentPad*%
%ADD13O,1.700000X1.700000*%
%TD*%
%TA.AperFunction,ComponentPad*%
%ADD14R,1.700000X1.700000*%
%TD*%
%TA.AperFunction,ComponentPad*%
%ADD15C,4.066000*%
%TD*%
%TA.AperFunction,ComponentPad*%
%ADD16C,1.785000*%
%TD*%
%TA.AperFunction,ComponentPad*%
%ADD17R,1.785000X1.785000*%
%TD*%
%TA.AperFunction,ComponentPad*%
%ADD18C,2.000000*%
%TD*%
%TA.AperFunction,ComponentPad*%
%ADD19R,2.000000X2.000000*%
%TD*%
%TA.AperFunction,ViaPad*%
%ADD20C,0.800000*%
%TD*%
%TA.AperFunction,Conductor*%
%ADD21C,0.250000*%
%TD*%
G04 APERTURE END LIST*
D10*
%TO.P,X1,4*%
%TO.N,GND*%
X293370000Y-196951600D03*
%TO.P,X1,5*%
%TO.N,Net-(U3-Pad3)*%
X293370000Y-189331600D03*
%TO.P,X1,8*%
%TO.N,+5V*%
X285750000Y-189331600D03*
D11*
%TO.P,X1,1*%
%TO.N,Net-(X1-Pad1)*%
X285750000Y-196951600D03*
%TD*%
D12*
%TO.P,U27,20*%
%TO.N,+5V*%
X416102800Y-207162400D03*
%TO.P,U27,10*%
%TO.N,GND*%
X408482800Y-230022400D03*
%TO.P,U27,19*%
%TO.N,Net-(U13-Pad1)*%
X416102800Y-209702400D03*
%TO.P,U27,9*%
%TO.N,Net-(U21-Pad18)*%
X408482800Y-227482400D03*
%TO.P,U27,18*%
%TO.N,Net-(U21-Pad13)*%
X416102800Y-212242400D03*
%TO.P,U27,8*%
%TO.N,Net-(J9-Pad4)*%
X408482800Y-224942400D03*
%TO.P,U27,17*%
%TO.N,Net-(U27-Pad17)*%
X416102800Y-214782400D03*
%TO.P,U27,7*%
%TO.N,Net-(U27-Pad7)*%
X408482800Y-222402400D03*
%TO.P,U27,16*%
%TO.N,Net-(U21-Pad14)*%
X416102800Y-217322400D03*
%TO.P,U27,6*%
%TO.N,Net-(J9-Pad3)*%
X408482800Y-219862400D03*
%TO.P,U27,15*%
%TO.N,Net-(U27-Pad15)*%
X416102800Y-219862400D03*
%TO.P,U27,5*%
%TO.N,Net-(U27-Pad5)*%
X408482800Y-217322400D03*
%TO.P,U27,14*%
%TO.N,Net-(U21-Pad15)*%
X416102800Y-222402400D03*
%TO.P,U27,4*%
%TO.N,Net-(J9-Pad2)*%
X408482800Y-214782400D03*
%TO.P,U27,13*%
%TO.N,Net-(U27-Pad13)*%
X416102800Y-224942400D03*
%TO.P,U27,3*%
%TO.N,Net-(U27-Pad3)*%
X408482800Y-212242400D03*
%TO.P,U27,12*%
%TO.N,Net-(U21-Pad17)*%
X416102800Y-227482400D03*
%TO.P,U27,2*%
%TO.N,Net-(J9-Pad1)*%
X408482800Y-209702400D03*
%TO.P,U27,11*%
%TO.N,Net-(J9-Pad5)*%
X416102800Y-230022400D03*
D11*
%TO.P,U27,1*%
%TO.N,Net-(U13-Pad1)*%
X408482800Y-207162400D03*
%TD*%
D12*
%TO.P,U26,20*%
%TO.N,+5V*%
X416052000Y-179679600D03*
%TO.P,U26,10*%
%TO.N,GND*%
X408432000Y-202539600D03*
%TO.P,U26,19*%
%TO.N,Net-(U1-Pad1)*%
X416052000Y-182219600D03*
%TO.P,U26,9*%
%TO.N,Net-(U23-Pad18)*%
X408432000Y-199999600D03*
%TO.P,U26,18*%
%TO.N,Net-(U23-Pad13)*%
X416052000Y-184759600D03*
%TO.P,U26,8*%
%TO.N,Net-(J9-Pad4)*%
X408432000Y-197459600D03*
%TO.P,U26,17*%
%TO.N,Net-(U26-Pad17)*%
X416052000Y-187299600D03*
%TO.P,U26,7*%
%TO.N,Net-(U26-Pad7)*%
X408432000Y-194919600D03*
%TO.P,U26,16*%
%TO.N,Net-(U23-Pad14)*%
X416052000Y-189839600D03*
%TO.P,U26,6*%
%TO.N,Net-(J9-Pad3)*%
X408432000Y-192379600D03*
%TO.P,U26,15*%
%TO.N,Net-(U26-Pad15)*%
X416052000Y-192379600D03*
%TO.P,U26,5*%
%TO.N,Net-(U26-Pad5)*%
X408432000Y-189839600D03*
%TO.P,U26,14*%
%TO.N,Net-(U23-Pad15)*%
X416052000Y-194919600D03*
%TO.P,U26,4*%
%TO.N,Net-(J9-Pad2)*%
X408432000Y-187299600D03*
%TO.P,U26,13*%
%TO.N,Net-(U26-Pad13)*%
X416052000Y-197459600D03*
%TO.P,U26,3*%
%TO.N,Net-(U26-Pad3)*%
X408432000Y-184759600D03*
%TO.P,U26,12*%
%TO.N,Net-(U23-Pad17)*%
X416052000Y-199999600D03*
%TO.P,U26,2*%
%TO.N,Net-(J9-Pad1)*%
X408432000Y-182219600D03*
%TO.P,U26,11*%
%TO.N,Net-(J9-Pad5)*%
X416052000Y-202539600D03*
D11*
%TO.P,U26,1*%
%TO.N,Net-(U1-Pad1)*%
X408432000Y-179679600D03*
%TD*%
D12*
%TO.P,U25,20*%
%TO.N,+5V*%
X404520400Y-207111600D03*
%TO.P,U25,10*%
%TO.N,GND*%
X396900400Y-229971600D03*
%TO.P,U25,19*%
%TO.N,Net-(U1-Pad1)*%
X404520400Y-209651600D03*
%TO.P,U25,9*%
%TO.N,Net-(J7-Pad5)*%
X396900400Y-227431600D03*
%TO.P,U25,18*%
%TO.N,Net-(R3-Pad1)*%
X404520400Y-212191600D03*
%TO.P,U25,8*%
%TO.N,Net-(U21-Pad17)*%
X396900400Y-224891600D03*
%TO.P,U25,17*%
%TO.N,Net-(U25-Pad17)*%
X404520400Y-214731600D03*
%TO.P,U25,7*%
%TO.N,Net-(U25-Pad7)*%
X396900400Y-222351600D03*
%TO.P,U25,16*%
%TO.N,Net-(R4-Pad1)*%
X404520400Y-217271600D03*
%TO.P,U25,6*%
%TO.N,Net-(U21-Pad15)*%
X396900400Y-219811600D03*
%TO.P,U25,15*%
%TO.N,Net-(U25-Pad15)*%
X404520400Y-219811600D03*
%TO.P,U25,5*%
%TO.N,Net-(U25-Pad5)*%
X396900400Y-217271600D03*
%TO.P,U25,14*%
%TO.N,Net-(R5-Pad1)*%
X404520400Y-222351600D03*
%TO.P,U25,4*%
%TO.N,Net-(U21-Pad14)*%
X396900400Y-214731600D03*
%TO.P,U25,13*%
%TO.N,Net-(U25-Pad13)*%
X404520400Y-224891600D03*
%TO.P,U25,3*%
%TO.N,Net-(U25-Pad3)*%
X396900400Y-212191600D03*
%TO.P,U25,12*%
%TO.N,Net-(J7-Pad4)*%
X404520400Y-227431600D03*
%TO.P,U25,2*%
%TO.N,Net-(U21-Pad13)*%
X396900400Y-209651600D03*
%TO.P,U25,11*%
%TO.N,Net-(U21-Pad18)*%
X404520400Y-229971600D03*
D11*
%TO.P,U25,1*%
%TO.N,Net-(U1-Pad1)*%
X396900400Y-207111600D03*
%TD*%
D12*
%TO.P,U24,20*%
%TO.N,+5V*%
X404368000Y-179578000D03*
%TO.P,U24,10*%
%TO.N,GND*%
X396748000Y-202438000D03*
%TO.P,U24,19*%
%TO.N,Net-(U13-Pad1)*%
X404368000Y-182118000D03*
%TO.P,U24,9*%
%TO.N,Net-(J7-Pad5)*%
X396748000Y-199898000D03*
%TO.P,U24,18*%
%TO.N,Net-(R3-Pad1)*%
X404368000Y-184658000D03*
%TO.P,U24,8*%
%TO.N,Net-(U23-Pad17)*%
X396748000Y-197358000D03*
%TO.P,U24,17*%
%TO.N,Net-(U24-Pad17)*%
X404368000Y-187198000D03*
%TO.P,U24,7*%
%TO.N,Net-(U24-Pad7)*%
X396748000Y-194818000D03*
%TO.P,U24,16*%
%TO.N,Net-(R4-Pad1)*%
X404368000Y-189738000D03*
%TO.P,U24,6*%
%TO.N,Net-(U23-Pad15)*%
X396748000Y-192278000D03*
%TO.P,U24,15*%
%TO.N,Net-(U24-Pad15)*%
X404368000Y-192278000D03*
%TO.P,U24,5*%
%TO.N,Net-(U24-Pad5)*%
X396748000Y-189738000D03*
%TO.P,U24,14*%
%TO.N,Net-(R5-Pad1)*%
X404368000Y-194818000D03*
%TO.P,U24,4*%
%TO.N,Net-(U23-Pad14)*%
X396748000Y-187198000D03*
%TO.P,U24,13*%
%TO.N,Net-(U24-Pad13)*%
X404368000Y-197358000D03*
%TO.P,U24,3*%
%TO.N,Net-(U24-Pad3)*%
X396748000Y-184658000D03*
%TO.P,U24,12*%
%TO.N,Net-(J7-Pad4)*%
X404368000Y-199898000D03*
%TO.P,U24,2*%
%TO.N,Net-(U23-Pad13)*%
X396748000Y-182118000D03*
%TO.P,U24,11*%
%TO.N,Net-(U23-Pad18)*%
X404368000Y-202438000D03*
D11*
%TO.P,U24,1*%
%TO.N,Net-(U13-Pad1)*%
X396748000Y-179578000D03*
%TD*%
D12*
%TO.P,U23,32*%
%TO.N,+5V*%
X422249600Y-172110400D03*
%TO.P,U23,16*%
%TO.N,GND*%
X384149600Y-156870400D03*
%TO.P,U23,31*%
%TO.N,Net-(U13-Pad7)*%
X419709600Y-172110400D03*
%TO.P,U23,15*%
%TO.N,Net-(U23-Pad15)*%
X386689600Y-156870400D03*
%TO.P,U23,30*%
%TO.N,Net-(U16-Pad9)*%
X417169600Y-172110400D03*
%TO.P,U23,14*%
%TO.N,Net-(U23-Pad14)*%
X389229600Y-156870400D03*
%TO.P,U23,29*%
%TO.N,Net-(U16-Pad4)*%
X414629600Y-172110400D03*
%TO.P,U23,13*%
%TO.N,Net-(U23-Pad13)*%
X391769600Y-156870400D03*
%TO.P,U23,28*%
%TO.N,Net-(U13-Pad9)*%
X412089600Y-172110400D03*
%TO.P,U23,12*%
%TO.N,Net-(U2-Pad12)*%
X394309600Y-156870400D03*
%TO.P,U23,27*%
%TO.N,Net-(U23-Pad27)*%
X409549600Y-172110400D03*
%TO.P,U23,11*%
%TO.N,Net-(U2-Pad9)*%
X396849600Y-156870400D03*
%TO.P,U23,26*%
%TO.N,Net-(U23-Pad26)*%
X407009600Y-172110400D03*
%TO.P,U23,10*%
%TO.N,Net-(U2-Pad4)*%
X399389600Y-156870400D03*
%TO.P,U23,25*%
%TO.N,Net-(U23-Pad25)*%
X404469600Y-172110400D03*
%TO.P,U23,9*%
%TO.N,Net-(U2-Pad7)*%
X401929600Y-156870400D03*
%TO.P,U23,24*%
%TO.N,Net-(U13-Pad1)*%
X401929600Y-172110400D03*
%TO.P,U23,8*%
%TO.N,Net-(U23-Pad8)*%
X404469600Y-156870400D03*
%TO.P,U23,23*%
%TO.N,Net-(U23-Pad23)*%
X399389600Y-172110400D03*
%TO.P,U23,7*%
%TO.N,Net-(U23-Pad7)*%
X407009600Y-156870400D03*
%TO.P,U23,22*%
%TO.N,Net-(U16-Pad7)*%
X396849600Y-172110400D03*
%TO.P,U23,6*%
%TO.N,Net-(U23-Pad6)*%
X409549600Y-156870400D03*
%TO.P,U23,21*%
%TO.N,Net-(U23-Pad21)*%
X394309600Y-172110400D03*
%TO.P,U23,5*%
%TO.N,Net-(U23-Pad5)*%
X412089600Y-156870400D03*
%TO.P,U23,20*%
%TO.N,Net-(U23-Pad20)*%
X391769600Y-172110400D03*
%TO.P,U23,4*%
%TO.N,Net-(U13-Pad12)*%
X414629600Y-156870400D03*
%TO.P,U23,19*%
%TO.N,Net-(U23-Pad19)*%
X389229600Y-172110400D03*
%TO.P,U23,3*%
%TO.N,Net-(U13-Pad4)*%
X417169600Y-156870400D03*
%TO.P,U23,18*%
%TO.N,Net-(U23-Pad18)*%
X386689600Y-172110400D03*
%TO.P,U23,2*%
%TO.N,Net-(U16-Pad12)*%
X419709600Y-156870400D03*
%TO.P,U23,17*%
%TO.N,Net-(U23-Pad17)*%
X384149600Y-172110400D03*
D11*
%TO.P,U23,1*%
%TO.N,GND*%
X422249600Y-156870400D03*
%TD*%
D12*
%TO.P,U22,14*%
%TO.N,+5V*%
X388467600Y-184200800D03*
%TO.P,U22,7*%
%TO.N,GND*%
X380847600Y-199440800D03*
%TO.P,U22,13*%
%TO.N,+5V*%
X388467600Y-186740800D03*
%TO.P,U22,6*%
%TO.N,Net-(U22-Pad6)*%
X380847600Y-196900800D03*
%TO.P,U22,12*%
%TO.N,Net-(U1-Pad1)*%
X388467600Y-189280800D03*
%TO.P,U22,5*%
%TO.N,Net-(U22-Pad5)*%
X380847600Y-194360800D03*
%TO.P,U22,11*%
%TO.N,Net-(U20-Pad2)*%
X388467600Y-191820800D03*
%TO.P,U22,4*%
%TO.N,Net-(U22-Pad4)*%
X380847600Y-191820800D03*
%TO.P,U22,10*%
%TO.N,+5V*%
X388467600Y-194360800D03*
%TO.P,U22,3*%
%TO.N,Net-(U22-Pad3)*%
X380847600Y-189280800D03*
%TO.P,U22,9*%
%TO.N,Net-(U13-Pad1)*%
X388467600Y-196900800D03*
%TO.P,U22,2*%
%TO.N,Net-(U22-Pad2)*%
X380847600Y-186740800D03*
%TO.P,U22,8*%
%TO.N,Net-(U1-Pad1)*%
X388467600Y-199440800D03*
D11*
%TO.P,U22,1*%
%TO.N,Net-(U22-Pad1)*%
X380847600Y-184200800D03*
%TD*%
D12*
%TO.P,U21,32*%
%TO.N,+5V*%
X383387600Y-240182400D03*
%TO.P,U21,16*%
%TO.N,GND*%
X421487600Y-255422400D03*
%TO.P,U21,31*%
%TO.N,Net-(U12-Pad7)*%
X385927600Y-240182400D03*
%TO.P,U21,15*%
%TO.N,Net-(U21-Pad15)*%
X418947600Y-255422400D03*
%TO.P,U21,30*%
%TO.N,Net-(U15-Pad9)*%
X388467600Y-240182400D03*
%TO.P,U21,14*%
%TO.N,Net-(U21-Pad14)*%
X416407600Y-255422400D03*
%TO.P,U21,29*%
%TO.N,Net-(U15-Pad4)*%
X391007600Y-240182400D03*
%TO.P,U21,13*%
%TO.N,Net-(U21-Pad13)*%
X413867600Y-255422400D03*
%TO.P,U21,28*%
%TO.N,Net-(U12-Pad9)*%
X393547600Y-240182400D03*
%TO.P,U21,12*%
%TO.N,Net-(U1-Pad12)*%
X411327600Y-255422400D03*
%TO.P,U21,27*%
%TO.N,Net-(U21-Pad27)*%
X396087600Y-240182400D03*
%TO.P,U21,11*%
%TO.N,Net-(U1-Pad9)*%
X408787600Y-255422400D03*
%TO.P,U21,26*%
%TO.N,Net-(U21-Pad26)*%
X398627600Y-240182400D03*
%TO.P,U21,10*%
%TO.N,Net-(U1-Pad4)*%
X406247600Y-255422400D03*
%TO.P,U21,25*%
%TO.N,Net-(U21-Pad25)*%
X401167600Y-240182400D03*
%TO.P,U21,9*%
%TO.N,Net-(U1-Pad7)*%
X403707600Y-255422400D03*
%TO.P,U21,24*%
%TO.N,Net-(U1-Pad1)*%
X403707600Y-240182400D03*
%TO.P,U21,8*%
%TO.N,Net-(U21-Pad8)*%
X401167600Y-255422400D03*
%TO.P,U21,23*%
%TO.N,Net-(U21-Pad23)*%
X406247600Y-240182400D03*
%TO.P,U21,7*%
%TO.N,Net-(U21-Pad7)*%
X398627600Y-255422400D03*
%TO.P,U21,22*%
%TO.N,Net-(U15-Pad7)*%
X408787600Y-240182400D03*
%TO.P,U21,6*%
%TO.N,Net-(U21-Pad6)*%
X396087600Y-255422400D03*
%TO.P,U21,21*%
%TO.N,Net-(U21-Pad21)*%
X411327600Y-240182400D03*
%TO.P,U21,5*%
%TO.N,Net-(U21-Pad5)*%
X393547600Y-255422400D03*
%TO.P,U21,20*%
%TO.N,Net-(U21-Pad20)*%
X413867600Y-240182400D03*
%TO.P,U21,4*%
%TO.N,Net-(U12-Pad12)*%
X391007600Y-255422400D03*
%TO.P,U21,19*%
%TO.N,Net-(U21-Pad19)*%
X416407600Y-240182400D03*
%TO.P,U21,3*%
%TO.N,Net-(U12-Pad4)*%
X388467600Y-255422400D03*
%TO.P,U21,18*%
%TO.N,Net-(U21-Pad18)*%
X418947600Y-240182400D03*
%TO.P,U21,2*%
%TO.N,Net-(U15-Pad12)*%
X385927600Y-255422400D03*
%TO.P,U21,17*%
%TO.N,Net-(U21-Pad17)*%
X421487600Y-240182400D03*
D11*
%TO.P,U21,1*%
%TO.N,GND*%
X383387600Y-255422400D03*
%TD*%
D12*
%TO.P,U20,14*%
%TO.N,+5V*%
X375056400Y-184251600D03*
%TO.P,U20,7*%
%TO.N,GND*%
X367436400Y-199491600D03*
%TO.P,U20,13*%
%TO.N,Net-(U15-Pad14)*%
X375056400Y-186791600D03*
%TO.P,U20,6*%
%TO.N,Net-(U20-Pad6)*%
X367436400Y-196951600D03*
%TO.P,U20,12*%
%TO.N,Net-(U18-Pad10)*%
X375056400Y-189331600D03*
%TO.P,U20,5*%
%TO.N,Net-(U20-Pad5)*%
X367436400Y-194411600D03*
%TO.P,U20,11*%
%TO.N,Net-(U15-Pad11)*%
X375056400Y-191871600D03*
%TO.P,U20,4*%
%TO.N,Net-(U20-Pad4)*%
X367436400Y-191871600D03*
%TO.P,U20,10*%
%TO.N,Net-(U18-Pad9)*%
X375056400Y-194411600D03*
%TO.P,U20,3*%
%TO.N,Net-(U20-Pad3)*%
X367436400Y-189331600D03*
%TO.P,U20,9*%
%TO.N,Net-(J5-Pad1)*%
X375056400Y-196951600D03*
%TO.P,U20,2*%
%TO.N,Net-(U20-Pad2)*%
X367436400Y-186791600D03*
%TO.P,U20,8*%
%TO.N,Net-(U18-Pad5)*%
X375056400Y-199491600D03*
D11*
%TO.P,U20,1*%
%TO.N,Net-(U18-Pad6)*%
X367436400Y-184251600D03*
%TD*%
D12*
%TO.P,U19,16*%
%TO.N,+5V*%
X362407200Y-184099200D03*
%TO.P,U19,8*%
%TO.N,GND*%
X354787200Y-201879200D03*
%TO.P,U19,15*%
%TO.N,Net-(U19-Pad15)*%
X362407200Y-186639200D03*
%TO.P,U19,7*%
%TO.N,Net-(U17-Pad15)*%
X354787200Y-199339200D03*
%TO.P,U19,14*%
%TO.N,Net-(U15-Pad14)*%
X362407200Y-189179200D03*
%TO.P,U19,6*%
%TO.N,Net-(U19-Pad6)*%
X354787200Y-196799200D03*
%TO.P,U19,13*%
%TO.N,Net-(U15-Pad11)*%
X362407200Y-191719200D03*
%TO.P,U19,5*%
%TO.N,Net-(U19-Pad5)*%
X354787200Y-194259200D03*
%TO.P,U19,12*%
%TO.N,Net-(U19-Pad12)*%
X362407200Y-194259200D03*
%TO.P,U19,4*%
%TO.N,Net-(U19-Pad4)*%
X354787200Y-191719200D03*
%TO.P,U19,11*%
%TO.N,Net-(U19-Pad11)*%
X362407200Y-196799200D03*
%TO.P,U19,3*%
%TO.N,Net-(U19-Pad3)*%
X354787200Y-189179200D03*
%TO.P,U19,10*%
%TO.N,Net-(U17-Pad15)*%
X362407200Y-199339200D03*
%TO.P,U19,2*%
%TO.N,Net-(U11-Pad2)*%
X354787200Y-186639200D03*
%TO.P,U19,9*%
%TO.N,+5V*%
X362407200Y-201879200D03*
D11*
%TO.P,U19,1*%
%TO.N,Net-(U11-Pad1)*%
X354787200Y-184099200D03*
%TD*%
D12*
%TO.P,U18,14*%
%TO.N,+5V*%
X379476000Y-156565600D03*
%TO.P,U18,7*%
%TO.N,GND*%
X371856000Y-171805600D03*
%TO.P,U18,13*%
%TO.N,Net-(U18-Pad13)*%
X379476000Y-159105600D03*
%TO.P,U18,6*%
%TO.N,Net-(U18-Pad6)*%
X371856000Y-169265600D03*
%TO.P,U18,12*%
%TO.N,Net-(U10-Pad19)*%
X379476000Y-161645600D03*
%TO.P,U18,5*%
%TO.N,Net-(U18-Pad5)*%
X371856000Y-166725600D03*
%TO.P,U18,11*%
%TO.N,Net-(U18-Pad1)*%
X379476000Y-164185600D03*
%TO.P,U18,4*%
%TO.N,Net-(J5-Pad2)*%
X371856000Y-164185600D03*
%TO.P,U18,10*%
%TO.N,Net-(U18-Pad10)*%
X379476000Y-166725600D03*
%TO.P,U18,3*%
%TO.N,Net-(U11-Pad1)*%
X371856000Y-161645600D03*
%TO.P,U18,9*%
%TO.N,Net-(U18-Pad9)*%
X379476000Y-169265600D03*
%TO.P,U18,2*%
%TO.N,Net-(U18-Pad2)*%
X371856000Y-159105600D03*
%TO.P,U18,8*%
X379476000Y-171805600D03*
D11*
%TO.P,U18,1*%
%TO.N,Net-(U18-Pad1)*%
X371856000Y-156565600D03*
%TD*%
D12*
%TO.P,U17,16*%
%TO.N,Net-(U17-Pad16)*%
X350316800Y-184150000D03*
%TO.P,U17,8*%
%TO.N,Net-(U17-Pad8)*%
X342696800Y-201930000D03*
%TO.P,U17,15*%
%TO.N,Net-(U17-Pad15)*%
X350316800Y-186690000D03*
%TO.P,U17,7*%
%TO.N,Net-(U14-Pad15)*%
X342696800Y-199390000D03*
%TO.P,U17,14*%
%TO.N,Net-(U10-Pad8)*%
X350316800Y-189230000D03*
%TO.P,U17,6*%
%TO.N,Net-(U17-Pad6)*%
X342696800Y-196850000D03*
%TO.P,U17,13*%
%TO.N,Net-(U10-Pad6)*%
X350316800Y-191770000D03*
%TO.P,U17,5*%
%TO.N,Net-(U17-Pad5)*%
X342696800Y-194310000D03*
%TO.P,U17,12*%
%TO.N,Net-(U10-Pad4)*%
X350316800Y-194310000D03*
%TO.P,U17,4*%
%TO.N,Net-(U17-Pad4)*%
X342696800Y-191770000D03*
%TO.P,U17,11*%
%TO.N,Net-(U10-Pad2)*%
X350316800Y-196850000D03*
%TO.P,U17,3*%
%TO.N,Net-(U17-Pad3)*%
X342696800Y-189230000D03*
%TO.P,U17,10*%
%TO.N,Net-(U14-Pad15)*%
X350316800Y-199390000D03*
%TO.P,U17,2*%
%TO.N,Net-(U11-Pad2)*%
X342696800Y-186690000D03*
%TO.P,U17,9*%
%TO.N,+5V*%
X350316800Y-201930000D03*
D11*
%TO.P,U17,1*%
%TO.N,Net-(U11-Pad1)*%
X342696800Y-184150000D03*
%TD*%
D12*
%TO.P,U16,16*%
%TO.N,+5V*%
X371602000Y-207721200D03*
%TO.P,U16,8*%
%TO.N,GND*%
X389382000Y-215341200D03*
%TO.P,U16,15*%
X374142000Y-207721200D03*
%TO.P,U16,7*%
%TO.N,Net-(U16-Pad7)*%
X386842000Y-215341200D03*
%TO.P,U16,14*%
%TO.N,Net-(U15-Pad14)*%
X376682000Y-207721200D03*
%TO.P,U16,6*%
%TO.N,Net-(J5-Pad2)*%
X384302000Y-215341200D03*
%TO.P,U16,13*%
%TO.N,Net-(J2-Pad17)*%
X379222000Y-207721200D03*
%TO.P,U16,5*%
%TO.N,GND*%
X381762000Y-215341200D03*
%TO.P,U16,12*%
%TO.N,Net-(U16-Pad12)*%
X381762000Y-207721200D03*
%TO.P,U16,4*%
%TO.N,Net-(U16-Pad4)*%
X379222000Y-215341200D03*
%TO.P,U16,11*%
%TO.N,Net-(U15-Pad11)*%
X384302000Y-207721200D03*
%TO.P,U16,3*%
%TO.N,Net-(J5-Pad1)*%
X376682000Y-215341200D03*
%TO.P,U16,10*%
%TO.N,Net-(J2-Pad18)*%
X386842000Y-207721200D03*
%TO.P,U16,2*%
%TO.N,+5V*%
X374142000Y-215341200D03*
%TO.P,U16,9*%
%TO.N,Net-(U16-Pad9)*%
X389382000Y-207721200D03*
D11*
%TO.P,U16,1*%
%TO.N,Net-(U13-Pad1)*%
X371602000Y-215341200D03*
%TD*%
D12*
%TO.P,U15,16*%
%TO.N,+5V*%
X371652800Y-219760800D03*
%TO.P,U15,8*%
%TO.N,GND*%
X389432800Y-227380800D03*
%TO.P,U15,15*%
X374192800Y-219760800D03*
%TO.P,U15,7*%
%TO.N,Net-(U15-Pad7)*%
X386892800Y-227380800D03*
%TO.P,U15,14*%
%TO.N,Net-(U15-Pad14)*%
X376732800Y-219760800D03*
%TO.P,U15,6*%
%TO.N,Net-(J5-Pad2)*%
X384352800Y-227380800D03*
%TO.P,U15,13*%
%TO.N,Net-(J2-Pad17)*%
X379272800Y-219760800D03*
%TO.P,U15,5*%
%TO.N,GND*%
X381812800Y-227380800D03*
%TO.P,U15,12*%
%TO.N,Net-(U15-Pad12)*%
X381812800Y-219760800D03*
%TO.P,U15,4*%
%TO.N,Net-(U15-Pad4)*%
X379272800Y-227380800D03*
%TO.P,U15,11*%
%TO.N,Net-(U15-Pad11)*%
X384352800Y-219760800D03*
%TO.P,U15,3*%
%TO.N,Net-(J5-Pad1)*%
X376732800Y-227380800D03*
%TO.P,U15,10*%
%TO.N,Net-(J2-Pad18)*%
X386892800Y-219760800D03*
%TO.P,U15,2*%
%TO.N,+5V*%
X374192800Y-227380800D03*
%TO.P,U15,9*%
%TO.N,Net-(U15-Pad9)*%
X389432800Y-219760800D03*
D11*
%TO.P,U15,1*%
%TO.N,Net-(U1-Pad1)*%
X371652800Y-227380800D03*
%TD*%
D12*
%TO.P,U14,16*%
%TO.N,+5V*%
X338226400Y-184200800D03*
%TO.P,U14,8*%
%TO.N,GND*%
X330606400Y-201980800D03*
%TO.P,U14,15*%
%TO.N,Net-(U14-Pad15)*%
X338226400Y-186740800D03*
%TO.P,U14,7*%
%TO.N,Net-(U11-Pad15)*%
X330606400Y-199440800D03*
%TO.P,U14,14*%
%TO.N,Net-(U10-Pad17)*%
X338226400Y-189280800D03*
%TO.P,U14,6*%
%TO.N,Net-(U14-Pad6)*%
X330606400Y-196900800D03*
%TO.P,U14,13*%
%TO.N,Net-(U10-Pad15)*%
X338226400Y-191820800D03*
%TO.P,U14,5*%
%TO.N,Net-(U14-Pad5)*%
X330606400Y-194360800D03*
%TO.P,U14,12*%
%TO.N,Net-(U10-Pad13)*%
X338226400Y-194360800D03*
%TO.P,U14,4*%
%TO.N,Net-(U14-Pad4)*%
X330606400Y-191820800D03*
%TO.P,U14,11*%
%TO.N,Net-(U10-Pad11)*%
X338226400Y-196900800D03*
%TO.P,U14,3*%
%TO.N,Net-(U14-Pad3)*%
X330606400Y-189280800D03*
%TO.P,U14,10*%
%TO.N,Net-(U11-Pad15)*%
X338226400Y-199440800D03*
%TO.P,U14,2*%
%TO.N,Net-(U11-Pad2)*%
X330606400Y-186740800D03*
%TO.P,U14,9*%
%TO.N,+5V*%
X338226400Y-201980800D03*
D11*
%TO.P,U14,1*%
%TO.N,Net-(U11-Pad1)*%
X330606400Y-184200800D03*
%TD*%
D12*
%TO.P,U13,16*%
%TO.N,+5V*%
X349910400Y-207772000D03*
%TO.P,U13,8*%
%TO.N,GND*%
X367690400Y-215392000D03*
%TO.P,U13,15*%
X352450400Y-207772000D03*
%TO.P,U13,7*%
%TO.N,Net-(U13-Pad7)*%
X365150400Y-215392000D03*
%TO.P,U13,14*%
%TO.N,Net-(U10-Pad8)*%
X354990400Y-207772000D03*
%TO.P,U13,6*%
%TO.N,Net-(J2-Pad16)*%
X362610400Y-215392000D03*
%TO.P,U13,13*%
%TO.N,Net-(J2-Pad13)*%
X357530400Y-207772000D03*
%TO.P,U13,5*%
%TO.N,Net-(U10-Pad2)*%
X360070400Y-215392000D03*
%TO.P,U13,12*%
%TO.N,Net-(U13-Pad12)*%
X360070400Y-207772000D03*
%TO.P,U13,4*%
%TO.N,Net-(U13-Pad4)*%
X357530400Y-215392000D03*
%TO.P,U13,11*%
%TO.N,Net-(U10-Pad6)*%
X362610400Y-207772000D03*
%TO.P,U13,3*%
%TO.N,Net-(J2-Pad15)*%
X354990400Y-215392000D03*
%TO.P,U13,10*%
%TO.N,Net-(J2-Pad14)*%
X365150400Y-207772000D03*
%TO.P,U13,2*%
%TO.N,Net-(U10-Pad4)*%
X352450400Y-215392000D03*
%TO.P,U13,9*%
%TO.N,Net-(U13-Pad9)*%
X367690400Y-207772000D03*
D11*
%TO.P,U13,1*%
%TO.N,Net-(U13-Pad1)*%
X349910400Y-215392000D03*
%TD*%
D12*
%TO.P,U12,16*%
%TO.N,+5V*%
X349758000Y-219760800D03*
%TO.P,U12,8*%
%TO.N,GND*%
X367538000Y-227380800D03*
%TO.P,U12,15*%
X352298000Y-219760800D03*
%TO.P,U12,7*%
%TO.N,Net-(U12-Pad7)*%
X364998000Y-227380800D03*
%TO.P,U12,14*%
%TO.N,Net-(U10-Pad8)*%
X354838000Y-219760800D03*
%TO.P,U12,6*%
%TO.N,Net-(J2-Pad16)*%
X362458000Y-227380800D03*
%TO.P,U12,13*%
%TO.N,Net-(J2-Pad13)*%
X357378000Y-219760800D03*
%TO.P,U12,5*%
%TO.N,Net-(U10-Pad2)*%
X359918000Y-227380800D03*
%TO.P,U12,12*%
%TO.N,Net-(U12-Pad12)*%
X359918000Y-219760800D03*
%TO.P,U12,4*%
%TO.N,Net-(U12-Pad4)*%
X357378000Y-227380800D03*
%TO.P,U12,11*%
%TO.N,Net-(U10-Pad6)*%
X362458000Y-219760800D03*
%TO.P,U12,3*%
%TO.N,Net-(J2-Pad15)*%
X354838000Y-227380800D03*
%TO.P,U12,10*%
%TO.N,Net-(J2-Pad14)*%
X364998000Y-219760800D03*
%TO.P,U12,2*%
%TO.N,Net-(U10-Pad4)*%
X352298000Y-227380800D03*
%TO.P,U12,9*%
%TO.N,Net-(U12-Pad9)*%
X367538000Y-219760800D03*
D11*
%TO.P,U12,1*%
%TO.N,Net-(U1-Pad1)*%
X349758000Y-227380800D03*
%TD*%
D12*
%TO.P,U11,16*%
%TO.N,+5V*%
X326948800Y-184200800D03*
%TO.P,U11,8*%
%TO.N,GND*%
X319328800Y-201980800D03*
%TO.P,U11,15*%
%TO.N,Net-(U11-Pad15)*%
X326948800Y-186740800D03*
%TO.P,U11,7*%
%TO.N,Net-(U11-Pad10)*%
X319328800Y-199440800D03*
%TO.P,U11,14*%
%TO.N,Net-(U11-Pad14)*%
X326948800Y-189280800D03*
%TO.P,U11,6*%
%TO.N,Net-(U11-Pad6)*%
X319328800Y-196900800D03*
%TO.P,U11,13*%
%TO.N,Net-(U11-Pad13)*%
X326948800Y-191820800D03*
%TO.P,U11,5*%
%TO.N,Net-(U11-Pad5)*%
X319328800Y-194360800D03*
%TO.P,U11,12*%
%TO.N,Net-(U11-Pad12)*%
X326948800Y-194360800D03*
%TO.P,U11,4*%
%TO.N,Net-(U11-Pad4)*%
X319328800Y-191820800D03*
%TO.P,U11,11*%
%TO.N,Net-(U11-Pad11)*%
X326948800Y-196900800D03*
%TO.P,U11,3*%
%TO.N,Net-(U11-Pad3)*%
X319328800Y-189280800D03*
%TO.P,U11,10*%
%TO.N,Net-(U11-Pad10)*%
X326948800Y-199440800D03*
%TO.P,U11,2*%
%TO.N,Net-(U11-Pad2)*%
X319328800Y-186740800D03*
%TO.P,U11,9*%
%TO.N,+5V*%
X326948800Y-201980800D03*
D11*
%TO.P,U11,1*%
%TO.N,Net-(U11-Pad1)*%
X319328800Y-184200800D03*
%TD*%
D12*
%TO.P,U10,20*%
%TO.N,+5V*%
X359816400Y-177647600D03*
%TO.P,U10,10*%
%TO.N,GND*%
X336956400Y-170027600D03*
%TO.P,U10,19*%
%TO.N,Net-(U10-Pad19)*%
X357276400Y-177647600D03*
%TO.P,U10,9*%
%TO.N,Net-(J3-Pad13)*%
X339496400Y-170027600D03*
%TO.P,U10,18*%
%TO.N,Net-(J3-Pad9)*%
X354736400Y-177647600D03*
%TO.P,U10,8*%
%TO.N,Net-(U10-Pad8)*%
X342036400Y-170027600D03*
%TO.P,U10,17*%
%TO.N,Net-(U10-Pad17)*%
X352196400Y-177647600D03*
%TO.P,U10,7*%
%TO.N,Net-(J3-Pad14)*%
X344576400Y-170027600D03*
%TO.P,U10,16*%
%TO.N,Net-(J3-Pad10)*%
X349656400Y-177647600D03*
%TO.P,U10,6*%
%TO.N,Net-(U10-Pad6)*%
X347116400Y-170027600D03*
%TO.P,U10,15*%
%TO.N,Net-(U10-Pad15)*%
X347116400Y-177647600D03*
%TO.P,U10,5*%
%TO.N,Net-(J3-Pad15)*%
X349656400Y-170027600D03*
%TO.P,U10,14*%
%TO.N,Net-(J3-Pad11)*%
X344576400Y-177647600D03*
%TO.P,U10,4*%
%TO.N,Net-(U10-Pad4)*%
X352196400Y-170027600D03*
%TO.P,U10,13*%
%TO.N,Net-(U10-Pad13)*%
X342036400Y-177647600D03*
%TO.P,U10,3*%
%TO.N,Net-(J3-Pad16)*%
X354736400Y-170027600D03*
%TO.P,U10,12*%
%TO.N,Net-(J3-Pad12)*%
X339496400Y-177647600D03*
%TO.P,U10,2*%
%TO.N,Net-(U10-Pad2)*%
X357276400Y-170027600D03*
%TO.P,U10,11*%
%TO.N,Net-(U10-Pad11)*%
X336956400Y-177647600D03*
D11*
%TO.P,U10,1*%
%TO.N,Net-(U10-Pad1)*%
X359816400Y-170027600D03*
%TD*%
D12*
%TO.P,U9,16*%
%TO.N,+5V*%
X328066400Y-219760800D03*
%TO.P,U9,8*%
%TO.N,GND*%
X345846400Y-227380800D03*
%TO.P,U9,15*%
X330606400Y-219760800D03*
%TO.P,U9,7*%
%TO.N,Net-(U21-Pad25)*%
X343306400Y-227380800D03*
%TO.P,U9,14*%
%TO.N,Net-(U10-Pad17)*%
X333146400Y-219760800D03*
%TO.P,U9,6*%
%TO.N,Net-(J2-Pad12)*%
X340766400Y-227380800D03*
%TO.P,U9,13*%
%TO.N,Net-(J2-Pad9)*%
X335686400Y-219760800D03*
%TO.P,U9,5*%
%TO.N,Net-(U10-Pad11)*%
X338226400Y-227380800D03*
%TO.P,U9,12*%
%TO.N,Net-(U21-Pad27)*%
X338226400Y-219760800D03*
%TO.P,U9,4*%
%TO.N,Net-(U21-Pad23)*%
X335686400Y-227380800D03*
%TO.P,U9,11*%
%TO.N,Net-(U10-Pad15)*%
X340766400Y-219760800D03*
%TO.P,U9,3*%
%TO.N,Net-(J2-Pad11)*%
X333146400Y-227380800D03*
%TO.P,U9,10*%
%TO.N,Net-(J2-Pad10)*%
X343306400Y-219760800D03*
%TO.P,U9,2*%
%TO.N,Net-(U10-Pad13)*%
X330606400Y-227380800D03*
%TO.P,U9,9*%
%TO.N,Net-(U21-Pad26)*%
X345846400Y-219760800D03*
D11*
%TO.P,U9,1*%
%TO.N,Net-(U1-Pad1)*%
X328066400Y-227380800D03*
%TD*%
D12*
%TO.P,U8,16*%
%TO.N,+5V*%
X328015600Y-207822800D03*
%TO.P,U8,8*%
%TO.N,GND*%
X345795600Y-215442800D03*
%TO.P,U8,15*%
X330555600Y-207822800D03*
%TO.P,U8,7*%
%TO.N,Net-(U23-Pad25)*%
X343255600Y-215442800D03*
%TO.P,U8,14*%
%TO.N,Net-(U10-Pad17)*%
X333095600Y-207822800D03*
%TO.P,U8,6*%
%TO.N,Net-(J2-Pad12)*%
X340715600Y-215442800D03*
%TO.P,U8,13*%
%TO.N,Net-(J2-Pad9)*%
X335635600Y-207822800D03*
%TO.P,U8,5*%
%TO.N,Net-(U10-Pad11)*%
X338175600Y-215442800D03*
%TO.P,U8,12*%
%TO.N,Net-(U23-Pad27)*%
X338175600Y-207822800D03*
%TO.P,U8,4*%
%TO.N,Net-(U23-Pad23)*%
X335635600Y-215442800D03*
%TO.P,U8,11*%
%TO.N,Net-(U10-Pad15)*%
X340715600Y-207822800D03*
%TO.P,U8,3*%
%TO.N,Net-(J2-Pad11)*%
X333095600Y-215442800D03*
%TO.P,U8,10*%
%TO.N,Net-(J2-Pad10)*%
X343255600Y-207822800D03*
%TO.P,U8,2*%
%TO.N,Net-(U10-Pad13)*%
X330555600Y-215442800D03*
%TO.P,U8,9*%
%TO.N,Net-(U23-Pad26)*%
X345795600Y-207822800D03*
D11*
%TO.P,U8,1*%
%TO.N,Net-(U13-Pad1)*%
X328015600Y-215442800D03*
%TD*%
D12*
%TO.P,U7,16*%
%TO.N,+5V*%
X315569600Y-184200800D03*
%TO.P,U7,8*%
%TO.N,GND*%
X307949600Y-201980800D03*
%TO.P,U7,15*%
%TO.N,Net-(U11-Pad10)*%
X315569600Y-186740800D03*
%TO.P,U7,7*%
%TO.N,+5V*%
X307949600Y-199440800D03*
%TO.P,U7,14*%
%TO.N,Net-(U1-Pad14)*%
X315569600Y-189280800D03*
%TO.P,U7,6*%
%TO.N,Net-(U7-Pad6)*%
X307949600Y-196900800D03*
%TO.P,U7,13*%
%TO.N,Net-(U1-Pad11)*%
X315569600Y-191820800D03*
%TO.P,U7,5*%
%TO.N,Net-(U7-Pad5)*%
X307949600Y-194360800D03*
%TO.P,U7,12*%
%TO.N,Net-(U1-Pad2)*%
X315569600Y-194360800D03*
%TO.P,U7,4*%
%TO.N,Net-(U7-Pad4)*%
X307949600Y-191820800D03*
%TO.P,U7,11*%
%TO.N,Net-(U1-Pad5)*%
X315569600Y-196900800D03*
%TO.P,U7,3*%
%TO.N,Net-(U7-Pad3)*%
X307949600Y-189280800D03*
%TO.P,U7,10*%
%TO.N,+5V*%
X315569600Y-199440800D03*
%TO.P,U7,2*%
%TO.N,Net-(U11-Pad2)*%
X307949600Y-186740800D03*
%TO.P,U7,9*%
%TO.N,+5V*%
X315569600Y-201980800D03*
D11*
%TO.P,U7,1*%
%TO.N,Net-(U11-Pad1)*%
X307949600Y-184200800D03*
%TD*%
D12*
%TO.P,U6,16*%
%TO.N,+5V*%
X306425600Y-219811600D03*
%TO.P,U6,8*%
%TO.N,GND*%
X324205600Y-227431600D03*
%TO.P,U6,15*%
X308965600Y-219811600D03*
%TO.P,U6,7*%
%TO.N,Net-(U21-Pad5)*%
X321665600Y-227431600D03*
%TO.P,U6,14*%
%TO.N,Net-(U11-Pad14)*%
X311505600Y-219811600D03*
%TO.P,U6,6*%
%TO.N,Net-(J2-Pad8)*%
X319125600Y-227431600D03*
%TO.P,U6,13*%
%TO.N,Net-(J2-Pad5)*%
X314045600Y-219811600D03*
%TO.P,U6,5*%
%TO.N,Net-(U11-Pad11)*%
X316585600Y-227431600D03*
%TO.P,U6,12*%
%TO.N,Net-(U21-Pad8)*%
X316585600Y-219811600D03*
%TO.P,U6,4*%
%TO.N,Net-(U21-Pad6)*%
X314045600Y-227431600D03*
%TO.P,U6,11*%
%TO.N,Net-(U11-Pad13)*%
X319125600Y-219811600D03*
%TO.P,U6,3*%
%TO.N,Net-(J2-Pad7)*%
X311505600Y-227431600D03*
%TO.P,U6,10*%
%TO.N,Net-(J2-Pad6)*%
X321665600Y-219811600D03*
%TO.P,U6,2*%
%TO.N,Net-(U11-Pad12)*%
X308965600Y-227431600D03*
%TO.P,U6,9*%
%TO.N,Net-(U21-Pad7)*%
X324205600Y-219811600D03*
D11*
%TO.P,U6,1*%
%TO.N,Net-(U1-Pad1)*%
X306425600Y-227431600D03*
%TD*%
D12*
%TO.P,U5,16*%
%TO.N,+5V*%
X306374800Y-207873600D03*
%TO.P,U5,8*%
%TO.N,GND*%
X324154800Y-215493600D03*
%TO.P,U5,15*%
X308914800Y-207873600D03*
%TO.P,U5,7*%
%TO.N,Net-(U23-Pad5)*%
X321614800Y-215493600D03*
%TO.P,U5,14*%
%TO.N,Net-(U11-Pad14)*%
X311454800Y-207873600D03*
%TO.P,U5,6*%
%TO.N,Net-(J2-Pad8)*%
X319074800Y-215493600D03*
%TO.P,U5,13*%
%TO.N,Net-(J2-Pad5)*%
X313994800Y-207873600D03*
%TO.P,U5,5*%
%TO.N,Net-(U11-Pad11)*%
X316534800Y-215493600D03*
%TO.P,U5,12*%
%TO.N,Net-(U23-Pad8)*%
X316534800Y-207873600D03*
%TO.P,U5,4*%
%TO.N,Net-(U23-Pad6)*%
X313994800Y-215493600D03*
%TO.P,U5,11*%
%TO.N,Net-(U11-Pad13)*%
X319074800Y-207873600D03*
%TO.P,U5,3*%
%TO.N,Net-(J2-Pad7)*%
X311454800Y-215493600D03*
%TO.P,U5,10*%
%TO.N,Net-(J2-Pad6)*%
X321614800Y-207873600D03*
%TO.P,U5,2*%
%TO.N,Net-(U11-Pad12)*%
X308914800Y-215493600D03*
%TO.P,U5,9*%
%TO.N,Net-(U23-Pad7)*%
X324154800Y-207873600D03*
D11*
%TO.P,U5,1*%
%TO.N,Net-(U13-Pad1)*%
X306374800Y-215493600D03*
%TD*%
D12*
%TO.P,U4,20*%
%TO.N,+5V*%
X330250800Y-177596800D03*
%TO.P,U4,10*%
%TO.N,GND*%
X307390800Y-169976800D03*
%TO.P,U4,19*%
%TO.N,Net-(U18-Pad13)*%
X327710800Y-177596800D03*
%TO.P,U4,9*%
%TO.N,Net-(J3-Pad5)*%
X309930800Y-169976800D03*
%TO.P,U4,18*%
%TO.N,Net-(J3-Pad1)*%
X325170800Y-177596800D03*
%TO.P,U4,8*%
%TO.N,Net-(U11-Pad14)*%
X312470800Y-169976800D03*
%TO.P,U4,17*%
%TO.N,Net-(U1-Pad14)*%
X322630800Y-177596800D03*
%TO.P,U4,7*%
%TO.N,Net-(J3-Pad6)*%
X315010800Y-169976800D03*
%TO.P,U4,16*%
%TO.N,Net-(J3-Pad2)*%
X320090800Y-177596800D03*
%TO.P,U4,6*%
%TO.N,Net-(U11-Pad13)*%
X317550800Y-169976800D03*
%TO.P,U4,15*%
%TO.N,Net-(U1-Pad11)*%
X317550800Y-177596800D03*
%TO.P,U4,5*%
%TO.N,Net-(J3-Pad7)*%
X320090800Y-169976800D03*
%TO.P,U4,14*%
%TO.N,Net-(J3-Pad3)*%
X315010800Y-177596800D03*
%TO.P,U4,4*%
%TO.N,Net-(U11-Pad12)*%
X322630800Y-169976800D03*
%TO.P,U4,13*%
%TO.N,Net-(U1-Pad2)*%
X312470800Y-177596800D03*
%TO.P,U4,3*%
%TO.N,Net-(J3-Pad8)*%
X325170800Y-169976800D03*
%TO.P,U4,12*%
%TO.N,Net-(J3-Pad4)*%
X309930800Y-177596800D03*
%TO.P,U4,2*%
%TO.N,Net-(U11-Pad11)*%
X327710800Y-169976800D03*
%TO.P,U4,11*%
%TO.N,Net-(U1-Pad5)*%
X307390800Y-177596800D03*
D11*
%TO.P,U4,1*%
%TO.N,Net-(U4-Pad1)*%
X330250800Y-169976800D03*
%TD*%
D12*
%TO.P,U3,14*%
%TO.N,+5V*%
X305155600Y-184251600D03*
%TO.P,U3,7*%
%TO.N,GND*%
X297535600Y-199491600D03*
%TO.P,U3,13*%
%TO.N,Net-(U3-Pad13)*%
X305155600Y-186791600D03*
%TO.P,U3,6*%
%TO.N,Net-(U3-Pad2)*%
X297535600Y-196951600D03*
%TO.P,U3,12*%
%TO.N,Net-(U3-Pad12)*%
X305155600Y-189331600D03*
%TO.P,U3,5*%
%TO.N,Net-(U11-Pad2)*%
X297535600Y-194411600D03*
%TO.P,U3,11*%
%TO.N,Net-(U3-Pad11)*%
X305155600Y-191871600D03*
%TO.P,U3,4*%
%TO.N,+5V*%
X297535600Y-191871600D03*
%TO.P,U3,10*%
%TO.N,Net-(U3-Pad10)*%
X305155600Y-194411600D03*
%TO.P,U3,3*%
%TO.N,Net-(U3-Pad3)*%
X297535600Y-189331600D03*
%TO.P,U3,9*%
%TO.N,Net-(U3-Pad9)*%
X305155600Y-196951600D03*
%TO.P,U3,2*%
%TO.N,Net-(U3-Pad2)*%
X297535600Y-186791600D03*
%TO.P,U3,8*%
%TO.N,Net-(U3-Pad8)*%
X305155600Y-199491600D03*
D11*
%TO.P,U3,1*%
%TO.N,+5V*%
X297535600Y-184251600D03*
%TD*%
D12*
%TO.P,U2,16*%
%TO.N,+5V*%
X284378400Y-207924400D03*
%TO.P,U2,8*%
%TO.N,GND*%
X302158400Y-215544400D03*
%TO.P,U2,15*%
X286918400Y-207924400D03*
%TO.P,U2,7*%
%TO.N,Net-(U2-Pad7)*%
X299618400Y-215544400D03*
%TO.P,U2,14*%
%TO.N,Net-(U1-Pad14)*%
X289458400Y-207924400D03*
%TO.P,U2,6*%
%TO.N,Net-(J2-Pad4)*%
X297078400Y-215544400D03*
%TO.P,U2,13*%
%TO.N,Net-(J2-Pad1)*%
X291998400Y-207924400D03*
%TO.P,U2,5*%
%TO.N,Net-(U1-Pad5)*%
X294538400Y-215544400D03*
%TO.P,U2,12*%
%TO.N,Net-(U2-Pad12)*%
X294538400Y-207924400D03*
%TO.P,U2,4*%
%TO.N,Net-(U2-Pad4)*%
X291998400Y-215544400D03*
%TO.P,U2,11*%
%TO.N,Net-(U1-Pad11)*%
X297078400Y-207924400D03*
%TO.P,U2,3*%
%TO.N,Net-(J2-Pad3)*%
X289458400Y-215544400D03*
%TO.P,U2,10*%
%TO.N,Net-(J2-Pad2)*%
X299618400Y-207924400D03*
%TO.P,U2,2*%
%TO.N,Net-(U1-Pad2)*%
X286918400Y-215544400D03*
%TO.P,U2,9*%
%TO.N,Net-(U2-Pad9)*%
X302158400Y-207924400D03*
D11*
%TO.P,U2,1*%
%TO.N,Net-(U13-Pad1)*%
X284378400Y-215544400D03*
%TD*%
D12*
%TO.P,U1,16*%
%TO.N,+5V*%
X284327600Y-219760800D03*
%TO.P,U1,8*%
%TO.N,GND*%
X302107600Y-227380800D03*
%TO.P,U1,15*%
X286867600Y-219760800D03*
%TO.P,U1,7*%
%TO.N,Net-(U1-Pad7)*%
X299567600Y-227380800D03*
%TO.P,U1,14*%
%TO.N,Net-(U1-Pad14)*%
X289407600Y-219760800D03*
%TO.P,U1,6*%
%TO.N,Net-(J2-Pad4)*%
X297027600Y-227380800D03*
%TO.P,U1,13*%
%TO.N,Net-(J2-Pad1)*%
X291947600Y-219760800D03*
%TO.P,U1,5*%
%TO.N,Net-(U1-Pad5)*%
X294487600Y-227380800D03*
%TO.P,U1,12*%
%TO.N,Net-(U1-Pad12)*%
X294487600Y-219760800D03*
%TO.P,U1,4*%
%TO.N,Net-(U1-Pad4)*%
X291947600Y-227380800D03*
%TO.P,U1,11*%
%TO.N,Net-(U1-Pad11)*%
X297027600Y-219760800D03*
%TO.P,U1,3*%
%TO.N,Net-(J2-Pad3)*%
X289407600Y-227380800D03*
%TO.P,U1,10*%
%TO.N,Net-(J2-Pad2)*%
X299567600Y-219760800D03*
%TO.P,U1,2*%
%TO.N,Net-(U1-Pad2)*%
X286867600Y-227380800D03*
%TO.P,U1,9*%
%TO.N,Net-(U1-Pad9)*%
X302107600Y-219760800D03*
D11*
%TO.P,U1,1*%
%TO.N,Net-(U1-Pad1)*%
X284327600Y-227380800D03*
%TD*%
D12*
%TO.P,R6,2*%
%TO.N,Net-(J7-Pad3)*%
X339293200Y-251409200D03*
D10*
%TO.P,R6,1*%
%TO.N,GND*%
X331673200Y-251409200D03*
%TD*%
D12*
%TO.P,R5,2*%
%TO.N,Net-(J7-Pad3)*%
X391515600Y-234797600D03*
D10*
%TO.P,R5,1*%
%TO.N,Net-(R5-Pad1)*%
X383895600Y-234797600D03*
%TD*%
D12*
%TO.P,R4,2*%
%TO.N,Net-(J7-Pad2)*%
X397052800Y-234797600D03*
D10*
%TO.P,R4,1*%
%TO.N,Net-(R4-Pad1)*%
X404672800Y-234797600D03*
%TD*%
D12*
%TO.P,R3,2*%
%TO.N,Net-(J7-Pad1)*%
X383895600Y-231495600D03*
D10*
%TO.P,R3,1*%
%TO.N,Net-(R3-Pad1)*%
X391515600Y-231495600D03*
%TD*%
D12*
%TO.P,R2,2*%
%TO.N,GND*%
X331673200Y-254762000D03*
D10*
%TO.P,R2,1*%
%TO.N,Net-(J7-Pad1)*%
X339293200Y-254762000D03*
%TD*%
D12*
%TO.P,R1,2*%
%TO.N,GND*%
X331673200Y-248107200D03*
D10*
%TO.P,R1,1*%
%TO.N,Net-(J7-Pad2)*%
X339293200Y-248107200D03*
%TD*%
D13*
%TO.P,J9,5*%
%TO.N,Net-(J9-Pad5)*%
X420116000Y-217576400D03*
%TO.P,J9,4*%
%TO.N,Net-(J9-Pad4)*%
X420116000Y-215036400D03*
%TO.P,J9,3*%
%TO.N,Net-(J9-Pad3)*%
X420116000Y-212496400D03*
%TO.P,J9,2*%
%TO.N,Net-(J9-Pad2)*%
X420116000Y-209956400D03*
D14*
%TO.P,J9,1*%
%TO.N,Net-(J9-Pad1)*%
X420116000Y-207416400D03*
%TD*%
D15*
%TO.P,J8,S2*%
%TO.N,Net-(J8-PadS1)*%
X371346200Y-246735600D03*
%TO.P,J8,S1*%
X346356200Y-246735600D03*
D16*
%TO.P,J8,15*%
%TO.N,Net-(J8-Pad15)*%
X354021200Y-249275600D03*
%TO.P,J8,14*%
%TO.N,Net-(J7-Pad5)*%
X356311200Y-249275600D03*
%TO.P,J8,13*%
%TO.N,Net-(J7-Pad4)*%
X358601200Y-249275600D03*
%TO.P,J8,12*%
%TO.N,Net-(J8-Pad12)*%
X360891200Y-249275600D03*
%TO.P,J8,11*%
%TO.N,Net-(J8-Pad11)*%
X363181200Y-249275600D03*
%TO.P,J8,10*%
%TO.N,GND*%
X355166200Y-246735600D03*
%TO.P,J8,9*%
%TO.N,Net-(J8-Pad9)*%
X357456200Y-246735600D03*
%TO.P,J8,8*%
%TO.N,GND*%
X359746200Y-246735600D03*
%TO.P,J8,7*%
X362036200Y-246735600D03*
%TO.P,J8,6*%
X364326200Y-246735600D03*
%TO.P,J8,5*%
X354021200Y-244195600D03*
%TO.P,J8,4*%
%TO.N,Net-(J8-Pad4)*%
X356311200Y-244195600D03*
%TO.P,J8,3*%
%TO.N,Net-(J7-Pad3)*%
X358601200Y-244195600D03*
%TO.P,J8,2*%
%TO.N,Net-(J7-Pad2)*%
X360891200Y-244195600D03*
D17*
%TO.P,J8,1*%
%TO.N,Net-(J7-Pad1)*%
X363181200Y-244195600D03*
%TD*%
D13*
%TO.P,J7,5*%
%TO.N,Net-(J7-Pad5)*%
X353974400Y-238252000D03*
%TO.P,J7,4*%
%TO.N,Net-(J7-Pad4)*%
X356514400Y-238252000D03*
%TO.P,J7,3*%
%TO.N,Net-(J7-Pad3)*%
X359054400Y-238252000D03*
%TO.P,J7,2*%
%TO.N,Net-(J7-Pad2)*%
X361594400Y-238252000D03*
D14*
%TO.P,J7,1*%
%TO.N,Net-(J7-Pad1)*%
X364134400Y-238252000D03*
%TD*%
D13*
%TO.P,J6,16*%
%TO.N,GND*%
X351536000Y-162153600D03*
%TO.P,J6,15*%
X348996000Y-162153600D03*
%TO.P,J6,14*%
X346456000Y-162153600D03*
%TO.P,J6,13*%
X343916000Y-162153600D03*
%TO.P,J6,12*%
X341376000Y-162153600D03*
%TO.P,J6,11*%
X338836000Y-162153600D03*
%TO.P,J6,10*%
X336296000Y-162153600D03*
%TO.P,J6,9*%
X333756000Y-162153600D03*
%TO.P,J6,8*%
X331216000Y-162153600D03*
%TO.P,J6,7*%
X328676000Y-162153600D03*
%TO.P,J6,6*%
X326136000Y-162153600D03*
%TO.P,J6,5*%
X323596000Y-162153600D03*
%TO.P,J6,4*%
X321056000Y-162153600D03*
%TO.P,J6,3*%
X318516000Y-162153600D03*
%TO.P,J6,2*%
X315976000Y-162153600D03*
D14*
%TO.P,J6,1*%
X313436000Y-162153600D03*
%TD*%
D13*
%TO.P,J5,2*%
%TO.N,Net-(J5-Pad2)*%
X420116000Y-225806000D03*
D14*
%TO.P,J5,1*%
%TO.N,Net-(J5-Pad1)*%
X420116000Y-223266000D03*
%TD*%
D13*
%TO.P,J4,16*%
%TO.N,+5V*%
X351536000Y-157073600D03*
%TO.P,J4,15*%
X348996000Y-157073600D03*
%TO.P,J4,14*%
X346456000Y-157073600D03*
%TO.P,J4,13*%
X343916000Y-157073600D03*
%TO.P,J4,12*%
X341376000Y-157073600D03*
%TO.P,J4,11*%
X338836000Y-157073600D03*
%TO.P,J4,10*%
X336296000Y-157073600D03*
%TO.P,J4,9*%
X333756000Y-157073600D03*
%TO.P,J4,8*%
X331216000Y-157073600D03*
%TO.P,J4,7*%
X328676000Y-157073600D03*
%TO.P,J4,6*%
X326136000Y-157073600D03*
%TO.P,J4,5*%
X323596000Y-157073600D03*
%TO.P,J4,4*%
X321056000Y-157073600D03*
%TO.P,J4,3*%
X318516000Y-157073600D03*
%TO.P,J4,2*%
X315976000Y-157073600D03*
D14*
%TO.P,J4,1*%
X313436000Y-157073600D03*
%TD*%
D13*
%TO.P,J3,16*%
%TO.N,Net-(J3-Pad16)*%
X351536000Y-159613600D03*
%TO.P,J3,15*%
%TO.N,Net-(J3-Pad15)*%
X348996000Y-159613600D03*
%TO.P,J3,14*%
%TO.N,Net-(J3-Pad14)*%
X346456000Y-159613600D03*
%TO.P,J3,13*%
%TO.N,Net-(J3-Pad13)*%
X343916000Y-159613600D03*
%TO.P,J3,12*%
%TO.N,Net-(J3-Pad12)*%
X341376000Y-159613600D03*
%TO.P,J3,11*%
%TO.N,Net-(J3-Pad11)*%
X338836000Y-159613600D03*
%TO.P,J3,10*%
%TO.N,Net-(J3-Pad10)*%
X336296000Y-159613600D03*
%TO.P,J3,9*%
%TO.N,Net-(J3-Pad9)*%
X333756000Y-159613600D03*
%TO.P,J3,8*%
%TO.N,Net-(J3-Pad8)*%
X331216000Y-159613600D03*
%TO.P,J3,7*%
%TO.N,Net-(J3-Pad7)*%
X328676000Y-159613600D03*
%TO.P,J3,6*%
%TO.N,Net-(J3-Pad6)*%
X326136000Y-159613600D03*
%TO.P,J3,5*%
%TO.N,Net-(J3-Pad5)*%
X323596000Y-159613600D03*
%TO.P,J3,4*%
%TO.N,Net-(J3-Pad4)*%
X321056000Y-159613600D03*
%TO.P,J3,3*%
%TO.N,Net-(J3-Pad3)*%
X318516000Y-159613600D03*
%TO.P,J3,2*%
%TO.N,Net-(J3-Pad2)*%
X315976000Y-159613600D03*
D14*
%TO.P,J3,1*%
%TO.N,Net-(J3-Pad1)*%
X313436000Y-159613600D03*
%TD*%
D13*
%TO.P,J2,18*%
%TO.N,Net-(J2-Pad18)*%
X325374000Y-254863600D03*
%TO.P,J2,17*%
%TO.N,Net-(J2-Pad17)*%
X322834000Y-254863600D03*
%TO.P,J2,16*%
%TO.N,Net-(J2-Pad16)*%
X320294000Y-254863600D03*
%TO.P,J2,15*%
%TO.N,Net-(J2-Pad15)*%
X317754000Y-254863600D03*
%TO.P,J2,14*%
%TO.N,Net-(J2-Pad14)*%
X315214000Y-254863600D03*
%TO.P,J2,13*%
%TO.N,Net-(J2-Pad13)*%
X312674000Y-254863600D03*
%TO.P,J2,12*%
%TO.N,Net-(J2-Pad12)*%
X310134000Y-254863600D03*
%TO.P,J2,11*%
%TO.N,Net-(J2-Pad11)*%
X307594000Y-254863600D03*
%TO.P,J2,10*%
%TO.N,Net-(J2-Pad10)*%
X305054000Y-254863600D03*
%TO.P,J2,9*%
%TO.N,Net-(J2-Pad9)*%
X302514000Y-254863600D03*
%TO.P,J2,8*%
%TO.N,Net-(J2-Pad8)*%
X299974000Y-254863600D03*
%TO.P,J2,7*%
%TO.N,Net-(J2-Pad7)*%
X297434000Y-254863600D03*
%TO.P,J2,6*%
%TO.N,Net-(J2-Pad6)*%
X294894000Y-254863600D03*
%TO.P,J2,5*%
%TO.N,Net-(J2-Pad5)*%
X292354000Y-254863600D03*
%TO.P,J2,4*%
%TO.N,Net-(J2-Pad4)*%
X289814000Y-254863600D03*
%TO.P,J2,3*%
%TO.N,Net-(J2-Pad3)*%
X287274000Y-254863600D03*
%TO.P,J2,2*%
%TO.N,Net-(J2-Pad2)*%
X284734000Y-254863600D03*
D14*
%TO.P,J2,1*%
%TO.N,Net-(J2-Pad1)*%
X282194000Y-254863600D03*
%TD*%
D13*
%TO.P,J1,5*%
%TO.N,GND*%
X282194000Y-239826800D03*
%TO.P,J1,4*%
X282194000Y-242366800D03*
%TO.P,J1,3*%
X282194000Y-244906800D03*
%TO.P,J1,2*%
%TO.N,+5V*%
X282194000Y-247446800D03*
D14*
%TO.P,J1,1*%
X282194000Y-249986800D03*
%TD*%
D18*
%TO.P,C3,2*%
%TO.N,GND*%
X292578800Y-244805200D03*
D19*
%TO.P,C3,1*%
%TO.N,+5V*%
X287578800Y-244805200D03*
%TD*%
D18*
%TO.P,C2,2*%
%TO.N,GND*%
X365273600Y-159359600D03*
D19*
%TO.P,C2,1*%
%TO.N,+5V*%
X360273600Y-159359600D03*
%TD*%
D18*
%TO.P,C1,2*%
%TO.N,GND*%
X289886400Y-161086800D03*
D19*
%TO.P,C1,1*%
%TO.N,+5V*%
X284886400Y-161086800D03*
%TD*%
D20*
%TO.N,GND*%
X353166002Y-247959202D03*
%TO.N,Net-(J2-Pad18)*%
X387197600Y-211531200D03*
X326745600Y-213207600D03*
X324358000Y-239268000D03*
X325882000Y-251714000D03*
%TO.N,Net-(J2-Pad17)*%
X379730000Y-212090000D03*
X369403800Y-212090000D03*
X369011200Y-234797600D03*
X344017600Y-235291800D03*
%TO.N,Net-(J2-Pad16)*%
X343154000Y-231851200D03*
X362407200Y-230784400D03*
%TO.N,Net-(J2-Pad14)*%
X348183200Y-217474800D03*
X366275401Y-217467399D03*
%TO.N,Net-(J2-Pad13)*%
X336753200Y-229971600D03*
X356260400Y-228752400D03*
%TO.N,Net-(J2-Pad11)*%
X310794400Y-231343200D03*
%TO.N,Net-(J2-Pad10)*%
X312724800Y-223266000D03*
X340456947Y-223016653D03*
%TO.N,Net-(J2-Pad9)*%
X305054000Y-222453200D03*
%TO.N,Net-(J2-Pad8)*%
X300257599Y-235356400D03*
%TO.N,Net-(J2-Pad7)*%
X298907200Y-235610400D03*
%TO.N,Net-(J2-Pad6)*%
X304038000Y-210972400D03*
X302107600Y-230886000D03*
X295097200Y-238048800D03*
%TO.N,Net-(J2-Pad5)*%
X294087599Y-221640400D03*
%TO.N,Net-(J2-Pad4)*%
X296875200Y-251809201D03*
%TO.N,Net-(J2-Pad2)*%
X284632400Y-229362000D03*
%TO.N,Net-(J2-Pad1)*%
X283159200Y-217932000D03*
%TO.N,Net-(J3-Pad13)*%
X342747600Y-166319200D03*
X339648800Y-166319200D03*
%TO.N,Net-(J3-Pad11)*%
X338582000Y-174345600D03*
X344779600Y-174294800D03*
%TO.N,Net-(J3-Pad10)*%
X335229200Y-173278800D03*
X349758000Y-173278800D03*
%TO.N,Net-(J3-Pad9)*%
X332689200Y-175463200D03*
X354685600Y-175514000D03*
%TO.N,Net-(J3-Pad3)*%
X306120800Y-174498000D03*
X315061600Y-174904400D03*
%TO.N,Net-(J3-Pad2)*%
X308805799Y-173880999D03*
X320141600Y-173939200D03*
%TO.N,Net-(J3-Pad1)*%
X312166000Y-164592000D03*
X326445453Y-164647453D03*
%TO.N,Net-(J5-Pad2)*%
X370128800Y-217424000D03*
%TO.N,Net-(J5-Pad1)*%
X422415800Y-223266000D03*
X422452800Y-231394000D03*
X376631200Y-230682800D03*
%TO.N,Net-(J7-Pad5)*%
X394499000Y-199847200D03*
X394563600Y-227533200D03*
X353974400Y-229768400D03*
X394614400Y-229768400D03*
%TO.N,Net-(J7-Pad4)*%
X402477421Y-237413151D03*
X351942399Y-246684800D03*
X350266000Y-249682000D03*
%TO.N,Net-(J7-Pad3)*%
X351942400Y-251460000D03*
%TO.N,Net-(J7-Pad2)*%
X365607600Y-250494800D03*
%TO.N,Net-(J7-Pad1)*%
X366522000Y-255016000D03*
X364273000Y-231648000D03*
%TO.N,Net-(J9-Pad5)*%
X417423600Y-217881200D03*
%TO.N,Net-(J9-Pad4)*%
X425297600Y-199136000D03*
X424992800Y-215188800D03*
X421690800Y-224790000D03*
%TO.N,Net-(J9-Pad3)*%
X410667200Y-212881599D03*
%TO.N,Net-(J9-Pad2)*%
X420841000Y-188315600D03*
X418693600Y-216001600D03*
%TO.N,Net-(J9-Pad1)*%
X409765396Y-184332914D03*
X420116000Y-185928000D03*
X410057600Y-205994000D03*
%TO.N,Net-(R3-Pad1)*%
X406370401Y-212750400D03*
X404774400Y-232119000D03*
%TO.N,Net-(R4-Pad1)*%
X402670399Y-217271600D03*
X401611000Y-234899200D03*
%TO.N,Net-(R5-Pad1)*%
X402670399Y-222453200D03*
X402336000Y-236423200D03*
%TO.N,Net-(U1-Pad7)*%
X299567600Y-225530799D03*
X393365601Y-225530799D03*
%TO.N,Net-(U1-Pad14)*%
X322427600Y-187807600D03*
X289458400Y-176530000D03*
%TO.N,Net-(U1-Pad5)*%
X311745799Y-197039399D03*
X295859200Y-177647600D03*
%TO.N,Net-(U1-Pad4)*%
X290830000Y-251612400D03*
%TO.N,Net-(U1-Pad11)*%
X298704000Y-179693400D03*
%TO.N,Net-(U1-Pad2)*%
X312470800Y-194056000D03*
X286867600Y-178968400D03*
%TO.N,Net-(U1-Pad9)*%
X301498000Y-256780200D03*
%TO.N,Net-(U1-Pad1)*%
X409823439Y-182374204D03*
X387451600Y-177264399D03*
X408533600Y-177264399D03*
X400812000Y-201066400D03*
X400710400Y-209651600D03*
X400812000Y-207060800D03*
X400862800Y-225958400D03*
%TO.N,Net-(U2-Pad7)*%
X299632201Y-163866999D03*
X401929600Y-163068000D03*
%TO.N,Net-(U2-Pad12)*%
X294843200Y-154736800D03*
%TO.N,Net-(U2-Pad4)*%
X291439600Y-158292800D03*
%TO.N,Net-(U2-Pad9)*%
X293624000Y-154787600D03*
X292455600Y-205943200D03*
%TO.N,Net-(U13-Pad1)*%
X402539200Y-179679600D03*
X395224000Y-196850000D03*
X414223200Y-213868000D03*
X395224000Y-204419200D03*
%TO.N,Net-(U18-Pad13)*%
X331216000Y-164947600D03*
X376072400Y-165404800D03*
%TO.N,Net-(U11-Pad14)*%
X313486800Y-190703200D03*
X306500754Y-190676754D03*
X305358800Y-209804000D03*
%TO.N,Net-(U11-Pad13)*%
X318973200Y-179882800D03*
X325272400Y-179933600D03*
X325098799Y-206248000D03*
%TO.N,Net-(U11-Pad12)*%
X323755801Y-194454999D03*
X323799200Y-205523000D03*
X308152800Y-205536800D03*
%TO.N,Net-(U11-Pad11)*%
X325932800Y-216662000D03*
%TO.N,Net-(U23-Pad5)*%
X320395600Y-180898800D03*
X413105600Y-178714400D03*
%TO.N,Net-(U23-Pad8)*%
X318275800Y-180949600D03*
X361645200Y-179120800D03*
%TO.N,Net-(U23-Pad6)*%
X304670799Y-168452800D03*
X409491399Y-170680599D03*
%TO.N,Net-(U23-Pad7)*%
X321665600Y-165811200D03*
X406806400Y-167640000D03*
%TO.N,Net-(U21-Pad5)*%
X321868800Y-241401600D03*
X380986200Y-240639600D03*
X380847600Y-253492000D03*
X393496800Y-253529000D03*
%TO.N,Net-(U21-Pad8)*%
X317855600Y-241452400D03*
X401167600Y-242888600D03*
%TO.N,Net-(U21-Pad6)*%
X314452000Y-236524800D03*
X381711200Y-236016800D03*
X381711200Y-254254000D03*
%TO.N,Net-(U21-Pad7)*%
X323189600Y-242163600D03*
X395325600Y-242163600D03*
%TO.N,Net-(U11-Pad10)*%
X314604400Y-198323200D03*
%TO.N,Net-(U11-Pad1)*%
X353249400Y-162593872D03*
%TO.N,Net-(U23-Pad25)*%
X343255600Y-206349600D03*
X400050000Y-205173801D03*
%TO.N,Net-(U10-Pad17)*%
X336231400Y-181660800D03*
X336231400Y-189585600D03*
X351776200Y-181762400D03*
%TO.N,Net-(U23-Pad27)*%
X411327600Y-208635600D03*
%TO.N,Net-(U23-Pad23)*%
X398750402Y-218063198D03*
X335853203Y-218370771D03*
%TO.N,Net-(U10-Pad15)*%
X339736600Y-181051200D03*
X347167200Y-180898800D03*
%TO.N,Net-(U10-Pad13)*%
X340461600Y-194564000D03*
X340512400Y-206146400D03*
X331724000Y-206146400D03*
%TO.N,Net-(U23-Pad26)*%
X406958800Y-175426200D03*
X346252800Y-176377600D03*
%TO.N,Net-(U21-Pad25)*%
X400050000Y-221806600D03*
X343306400Y-223570800D03*
%TO.N,Net-(U21-Pad27)*%
X395224000Y-222805310D03*
%TO.N,Net-(U21-Pad23)*%
X335686400Y-239166400D03*
%TO.N,Net-(U21-Pad26)*%
X395274800Y-221806600D03*
%TO.N,Net-(U10-Pad19)*%
X356158800Y-161696400D03*
%TO.N,Net-(U10-Pad8)*%
X344678000Y-189280800D03*
X344627200Y-206095600D03*
%TO.N,Net-(U10-Pad6)*%
X348335600Y-205898801D03*
%TO.N,Net-(U10-Pad2)*%
X358401401Y-195521799D03*
%TO.N,Net-(U11-Pad15)*%
X332130400Y-186740800D03*
%TO.N,Net-(U12-Pad7)*%
X365048800Y-233070400D03*
X386029200Y-233121200D03*
%TO.N,Net-(U12-Pad12)*%
X359918000Y-224295800D03*
X391058400Y-224332800D03*
%TO.N,Net-(U12-Pad4)*%
X377952000Y-228854000D03*
%TO.N,Net-(U12-Pad9)*%
X366471200Y-241401600D03*
%TO.N,Net-(U13-Pad7)*%
X365150400Y-206298800D03*
X423418000Y-210972400D03*
X402742400Y-210870800D03*
X402742400Y-206095600D03*
%TO.N,Net-(U13-Pad12)*%
X362843653Y-178947653D03*
X416015001Y-177989399D03*
%TO.N,Net-(U13-Pad4)*%
X356586401Y-181203600D03*
X417525200Y-181203600D03*
%TO.N,Net-(U13-Pad9)*%
X412038800Y-174701200D03*
X369403800Y-174752000D03*
%TO.N,Net-(U14-Pad15)*%
X341302062Y-186811281D03*
%TO.N,Net-(U15-Pad7)*%
X386943600Y-237598210D03*
%TO.N,Net-(U15-Pad11)*%
X372874365Y-209672801D03*
X383176999Y-209811401D03*
%TO.N,Net-(U16-Pad7)*%
X398025401Y-215994199D03*
%TO.N,Net-(U16-Pad12)*%
X383184400Y-159308800D03*
%TO.N,Net-(U16-Pad4)*%
X377901200Y-221081600D03*
X413410400Y-221081600D03*
%TO.N,Net-(U16-Pad9)*%
X391718800Y-173888400D03*
%TO.N,Net-(U17-Pad15)*%
X353226200Y-186639200D03*
%TO.N,Net-(U18-Pad6)*%
X367842800Y-169824400D03*
%TO.N,Net-(U18-Pad5)*%
X370853800Y-199847200D03*
%TO.N,Net-(U18-Pad1)*%
X380796800Y-155498800D03*
%TO.N,Net-(U18-Pad10)*%
X376682000Y-166878000D03*
%TO.N,Net-(U18-Pad9)*%
X378510800Y-194411600D03*
%TO.N,Net-(U18-Pad2)*%
X381521800Y-160274000D03*
%TO.N,Net-(U21-Pad15)*%
X424923470Y-221386400D03*
X424942000Y-254254000D03*
%TO.N,Net-(U21-Pad14)*%
X424198470Y-216408000D03*
X424230800Y-256235200D03*
%TO.N,Net-(U21-Pad13)*%
X393774000Y-209905600D03*
X393750800Y-195935600D03*
X417880800Y-196291200D03*
X417952801Y-212242400D03*
X417952801Y-210972400D03*
X423473470Y-211970862D03*
X423468800Y-257149600D03*
%TO.N,Net-(U21-Pad18)*%
X409651200Y-238760000D03*
X419049200Y-238289000D03*
%TO.N,Net-(U21-Pad17)*%
X415036000Y-239014000D03*
%TO.N,Net-(U23-Pad15)*%
X389919598Y-192155198D03*
%TO.N,Net-(U23-Pad14)*%
X390644599Y-187154601D03*
%TO.N,Net-(U23-Pad13)*%
X392988800Y-182118000D03*
%TO.N,Net-(U23-Pad18)*%
X387248400Y-202438000D03*
%TO.N,Net-(U23-Pad17)*%
X384048000Y-197967600D03*
%TD*%
D21*
%TO.N,GND*%
X353166002Y-245050798D02*
X354021200Y-244195600D01*
X353166002Y-247959202D02*
X353166002Y-245050798D01*
%TO.N,Net-(J2-Pad18)*%
X328821999Y-211131201D02*
X326745600Y-213207600D01*
X387197600Y-211531200D02*
X386797601Y-211131201D01*
X386797601Y-211131201D02*
X328821999Y-211131201D01*
X317130599Y-242962599D02*
X325882000Y-251714000D01*
X317130599Y-241104399D02*
X317130599Y-242962599D01*
X324358000Y-239268000D02*
X318966998Y-239268000D01*
X318966998Y-239268000D02*
X317130599Y-241104399D01*
%TO.N,Net-(J2-Pad17)*%
X379730000Y-212090000D02*
X369403800Y-212090000D01*
X369011200Y-234797600D02*
X368517000Y-235291800D01*
X368517000Y-235291800D02*
X344017600Y-235291800D01*
%TO.N,Net-(J2-Pad16)*%
X343154000Y-231851200D02*
X344220800Y-230784400D01*
X344220800Y-230784400D02*
X362407200Y-230784400D01*
%TO.N,Net-(J2-Pad14)*%
X366268000Y-217474800D02*
X366275401Y-217467399D01*
X348183200Y-217474800D02*
X366268000Y-217474800D01*
%TO.N,Net-(J2-Pad13)*%
X336753200Y-229971600D02*
X337972400Y-228752400D01*
X337972400Y-228752400D02*
X356260400Y-228752400D01*
%TO.N,Net-(J2-Pad11)*%
X310794400Y-231343200D02*
X317398400Y-231343200D01*
X317398400Y-231343200D02*
X319938400Y-228803200D01*
X331724000Y-228803200D02*
X333146400Y-227380800D01*
X319938400Y-228803200D02*
X331724000Y-228803200D01*
%TO.N,Net-(J2-Pad10)*%
X312724800Y-223266000D02*
X340207600Y-223266000D01*
X340207600Y-223266000D02*
X340456947Y-223016653D01*
%TO.N,Net-(J2-Pad9)*%
X332994000Y-222453200D02*
X335686400Y-219760800D01*
X305054000Y-222453200D02*
X332994000Y-222453200D01*
%TO.N,Net-(J2-Pad8)*%
X300257599Y-235356400D02*
X305235999Y-230378000D01*
X316179200Y-230378000D02*
X319125600Y-227431600D01*
X305235999Y-230378000D02*
X316179200Y-230378000D01*
%TO.N,Net-(J2-Pad7)*%
X311505600Y-227431600D02*
X309168800Y-229768400D01*
X309168800Y-229768400D02*
X304495200Y-229768400D01*
X304495200Y-229768400D02*
X298907200Y-235356400D01*
X298907200Y-235356400D02*
X298907200Y-235610400D01*
%TO.N,Net-(J2-Pad6)*%
X321614800Y-207873600D02*
X318516000Y-210972400D01*
X318516000Y-210972400D02*
X304038000Y-210972400D01*
X302107600Y-230886000D02*
X295097200Y-237896400D01*
X295097200Y-237896400D02*
X295097200Y-238048800D01*
%TO.N,Net-(J2-Pad5)*%
X314045600Y-219811600D02*
X312216800Y-221640400D01*
X312216800Y-221640400D02*
X294087599Y-221640400D01*
%TO.N,Net-(J2-Pad4)*%
X290481999Y-250887399D02*
X289814000Y-251555398D01*
X295953398Y-250887399D02*
X290481999Y-250887399D01*
X289814000Y-251555398D02*
X289814000Y-254863600D01*
X296875200Y-251809201D02*
X295953398Y-250887399D01*
%TO.N,Net-(J2-Pad2)*%
X283202599Y-226320799D02*
X288637597Y-220885801D01*
X283202599Y-228497884D02*
X283202599Y-226320799D01*
X298442599Y-220885801D02*
X299567600Y-219760800D01*
X288637597Y-220885801D02*
X298442599Y-220885801D01*
X284066715Y-229362000D02*
X283202599Y-228497884D01*
X284632400Y-229362000D02*
X284066715Y-229362000D01*
%TO.N,Net-(J2-Pad1)*%
X290118800Y-217932000D02*
X291947600Y-219760800D01*
X283159200Y-217932000D02*
X290118800Y-217932000D01*
%TO.N,Net-(J3-Pad13)*%
X342747600Y-166319200D02*
X339648800Y-166319200D01*
%TO.N,Net-(J3-Pad11)*%
X338582000Y-174345600D02*
X344728800Y-174345600D01*
X344728800Y-174345600D02*
X344779600Y-174294800D01*
%TO.N,Net-(J3-Pad10)*%
X335229200Y-173278800D02*
X349758000Y-173278800D01*
%TO.N,Net-(J3-Pad9)*%
X332689200Y-175463200D02*
X354634800Y-175463200D01*
X354634800Y-175463200D02*
X354685600Y-175514000D01*
%TO.N,Net-(J3-Pad3)*%
X306120800Y-174498000D02*
X306527200Y-174904400D01*
X306527200Y-174904400D02*
X315061600Y-174904400D01*
%TO.N,Net-(J3-Pad2)*%
X308805799Y-173880999D02*
X320083399Y-173880999D01*
X320083399Y-173880999D02*
X320141600Y-173939200D01*
%TO.N,Net-(J3-Pad1)*%
X312166000Y-164592000D02*
X326390000Y-164592000D01*
X326390000Y-164592000D02*
X326445453Y-164647453D01*
%TO.N,Net-(J5-Pad2)*%
X382219200Y-217424000D02*
X384302000Y-215341200D01*
X370128800Y-217424000D02*
X382219200Y-217424000D01*
X417075401Y-228846599D02*
X420116000Y-225806000D01*
X385818599Y-228846599D02*
X417075401Y-228846599D01*
X384352800Y-227380800D02*
X385818599Y-228846599D01*
%TO.N,Net-(J5-Pad1)*%
X420116000Y-223266000D02*
X422415800Y-223266000D01*
X376943401Y-230370599D02*
X376631200Y-230682800D01*
X392055601Y-230370599D02*
X376943401Y-230370599D01*
X422452800Y-231394000D02*
X393079002Y-231394000D01*
X393079002Y-231394000D02*
X392055601Y-230370599D01*
%TO.N,Net-(J7-Pad5)*%
X396748000Y-199898000D02*
X394549800Y-199898000D01*
X394549800Y-199898000D02*
X394499000Y-199847200D01*
X396798800Y-227533200D02*
X396900400Y-227431600D01*
X394563600Y-227533200D02*
X396798800Y-227533200D01*
X353974400Y-229768400D02*
X394614400Y-229768400D01*
%TO.N,Net-(J7-Pad4)*%
X356623190Y-236873210D02*
X356514400Y-236982000D01*
X356514400Y-236982000D02*
X356514400Y-238252000D01*
X401465210Y-236873210D02*
X356623190Y-236873210D01*
X402477421Y-237413151D02*
X402005151Y-237413151D01*
X402005151Y-237413151D02*
X401465210Y-236873210D01*
X351942399Y-246684800D02*
X351942399Y-248005601D01*
X351942399Y-248005601D02*
X350266000Y-249682000D01*
%TO.N,Net-(J7-Pad3)*%
X339293200Y-251409200D02*
X351891600Y-251409200D01*
X351891600Y-251409200D02*
X351942400Y-251460000D01*
X423062610Y-240908802D02*
X414427802Y-249543610D01*
X423062611Y-238506211D02*
X423062610Y-240908802D01*
X418228999Y-233672599D02*
X423062611Y-238506211D01*
X391515600Y-234797600D02*
X392640601Y-233672599D01*
X392640601Y-233672599D02*
X418228999Y-233672599D01*
X357278701Y-245518099D02*
X358601200Y-244195600D01*
X354581799Y-245518099D02*
X357278701Y-245518099D01*
X353948699Y-246151199D02*
X354581799Y-245518099D01*
X353948699Y-247320001D02*
X353948699Y-246151199D01*
X354581799Y-247953101D02*
X353948699Y-247320001D01*
X364910601Y-247953101D02*
X354581799Y-247953101D01*
X365543701Y-247320001D02*
X364910601Y-247953101D01*
X365543701Y-249290521D02*
X365543701Y-247320001D01*
X365796790Y-249543610D02*
X365543701Y-249290521D01*
X414427802Y-249543610D02*
X365796790Y-249543610D01*
%TO.N,Net-(J7-Pad2)*%
X339293200Y-248107200D02*
X341680800Y-250494800D01*
X341680800Y-250494800D02*
X365607600Y-250494800D01*
X362108701Y-245413101D02*
X360891200Y-244195600D01*
X364805603Y-245413101D02*
X362108701Y-245413101D01*
X368486103Y-249093601D02*
X364805603Y-245413101D01*
X414241401Y-249093601D02*
X368486103Y-249093601D01*
X422612601Y-239604191D02*
X422612601Y-240722401D01*
X422612601Y-240722401D02*
X414241401Y-249093601D01*
X420572409Y-237563999D02*
X422612601Y-239604191D01*
X397953399Y-235698199D02*
X403908397Y-235698199D01*
X405774197Y-237563999D02*
X420572409Y-237563999D01*
X403908397Y-235698199D02*
X405774197Y-237563999D01*
X397052800Y-234797600D02*
X397953399Y-235698199D01*
%TO.N,Net-(J7-Pad1)*%
X339293200Y-254762000D02*
X366268000Y-254762000D01*
X366268000Y-254762000D02*
X366522000Y-255016000D01*
X383895600Y-231495600D02*
X364425400Y-231495600D01*
X364425400Y-231495600D02*
X364273000Y-231648000D01*
%TO.N,Net-(J9-Pad5)*%
X419811200Y-217881200D02*
X420116000Y-217576400D01*
X417423600Y-217881200D02*
X419811200Y-217881200D01*
%TO.N,Net-(J9-Pad4)*%
X424746201Y-198584601D02*
X425297600Y-199136000D01*
X415511999Y-198584601D02*
X424746201Y-198584601D01*
X408432000Y-197459600D02*
X414386998Y-197459600D01*
X414386998Y-197459600D02*
X415511999Y-198584601D01*
X420268400Y-215188800D02*
X420116000Y-215036400D01*
X424992800Y-215188800D02*
X420268400Y-215188800D01*
X421531799Y-224630999D02*
X421690800Y-224790000D01*
X419551999Y-224630999D02*
X421531799Y-224630999D01*
X418115597Y-226067401D02*
X419551999Y-224630999D01*
X408482800Y-224942400D02*
X409607801Y-226067401D01*
X409607801Y-226067401D02*
X418115597Y-226067401D01*
%TO.N,Net-(J9-Pad3)*%
X415562799Y-213367401D02*
X419244999Y-213367401D01*
X419244999Y-213367401D02*
X420116000Y-212496400D01*
X415076997Y-212881599D02*
X415562799Y-213367401D01*
X410667200Y-212881599D02*
X415076997Y-212881599D01*
%TO.N,Net-(J9-Pad2)*%
X420731999Y-188424601D02*
X420841000Y-188315600D01*
X415511999Y-188424601D02*
X420731999Y-188424601D01*
X408432000Y-187299600D02*
X414386998Y-187299600D01*
X414386998Y-187299600D02*
X415511999Y-188424601D01*
X415656998Y-216001600D02*
X418693600Y-216001600D01*
X408482800Y-214782400D02*
X414437798Y-214782400D01*
X414437798Y-214782400D02*
X415656998Y-216001600D01*
%TO.N,Net-(J9-Pad1)*%
X409765396Y-184332914D02*
X411360482Y-185928000D01*
X411360482Y-185928000D02*
X420116000Y-185928000D01*
X420116000Y-207416400D02*
X418693600Y-205994000D01*
X418693600Y-205994000D02*
X410057600Y-205994000D01*
%TO.N,Net-(R3-Pad1)*%
X405079200Y-212750400D02*
X404520400Y-212191600D01*
X406370401Y-212750400D02*
X405079200Y-212750400D01*
X392139000Y-232119000D02*
X391515600Y-231495600D01*
X404774400Y-232119000D02*
X392139000Y-232119000D01*
%TO.N,Net-(R4-Pad1)*%
X402670399Y-217271600D02*
X404520400Y-217271600D01*
X404571200Y-234899200D02*
X404672800Y-234797600D01*
X401611000Y-234899200D02*
X404571200Y-234899200D01*
%TO.N,Net-(R5-Pad1)*%
X404520400Y-222351600D02*
X402771999Y-222351600D01*
X402771999Y-222351600D02*
X402670399Y-222453200D01*
X385521200Y-236423200D02*
X383895600Y-234797600D01*
X402336000Y-236423200D02*
X385521200Y-236423200D01*
%TO.N,Net-(U1-Pad7)*%
X299567600Y-225530799D02*
X393365601Y-225530799D01*
%TO.N,Net-(U1-Pad14)*%
X316694601Y-188155799D02*
X315569600Y-189280800D01*
X322079401Y-188155799D02*
X316694601Y-188155799D01*
X322427600Y-187807600D02*
X322079401Y-188155799D01*
X289516601Y-176471799D02*
X289458400Y-176530000D01*
X322630800Y-177596800D02*
X321505799Y-176471799D01*
X321505799Y-176471799D02*
X289516601Y-176471799D01*
%TO.N,Net-(U1-Pad5)*%
X315431001Y-197039399D02*
X315569600Y-196900800D01*
X311745799Y-197039399D02*
X315431001Y-197039399D01*
X307390800Y-177596800D02*
X295910000Y-177596800D01*
X295910000Y-177596800D02*
X295859200Y-177647600D01*
%TO.N,Net-(U1-Pad12)*%
X411327600Y-257200400D02*
X411327600Y-255422400D01*
X411022800Y-257505200D02*
X411327600Y-257200400D01*
X291795200Y-217068400D02*
X282956000Y-217068400D01*
X294487600Y-219760800D02*
X291795200Y-217068400D01*
X282956000Y-217068400D02*
X279958800Y-220065600D01*
X279958800Y-220065600D02*
X279958800Y-254913402D01*
X279958800Y-254913402D02*
X282550598Y-257505200D01*
X282550598Y-257505200D02*
X411022800Y-257505200D01*
%TO.N,Net-(U1-Pad4)*%
X291751801Y-252534201D02*
X406305801Y-252534201D01*
X290830000Y-251612400D02*
X291751801Y-252534201D01*
X406247600Y-252592402D02*
X406247600Y-255422400D01*
X406305801Y-252534201D02*
X406247600Y-252592402D01*
%TO.N,Net-(U1-Pad11)*%
X317550800Y-177596800D02*
X315454200Y-179693400D01*
X315454200Y-179693400D02*
X298704000Y-179693400D01*
%TO.N,Net-(U1-Pad2)*%
X315264800Y-194056000D02*
X315569600Y-194360800D01*
X312470800Y-194056000D02*
X315264800Y-194056000D01*
X312470800Y-177596800D02*
X311099200Y-178968400D01*
X311099200Y-178968400D02*
X286867600Y-178968400D01*
%TO.N,Net-(U1-Pad9)*%
X301498000Y-256780200D02*
X408801400Y-256780200D01*
X408787600Y-256766400D02*
X408787600Y-255422400D01*
X408801400Y-256780200D02*
X408787600Y-256766400D01*
%TO.N,Net-(U1-Pad1)*%
X415897396Y-182374204D02*
X416052000Y-182219600D01*
X409823439Y-182374204D02*
X415897396Y-182374204D01*
X387451600Y-177264399D02*
X408533600Y-177264399D01*
X388467600Y-199440800D02*
X390093200Y-201066400D01*
X390093200Y-201066400D02*
X400812000Y-201066400D01*
X400710400Y-209651600D02*
X404520400Y-209651600D01*
X400761200Y-207111600D02*
X400812000Y-207060800D01*
X396900400Y-207111600D02*
X400761200Y-207111600D01*
X285452601Y-226255799D02*
X305960999Y-226255799D01*
X284327600Y-227380800D02*
X285452601Y-226255799D01*
X306425600Y-226720400D02*
X306425600Y-227431600D01*
X305960999Y-226255799D02*
X306425600Y-226720400D01*
X326992199Y-226306599D02*
X328066400Y-227380800D01*
X308425599Y-226306599D02*
X326992199Y-226306599D01*
X307300598Y-227431600D02*
X308425599Y-226306599D01*
X306425600Y-227431600D02*
X307300598Y-227431600D01*
X348632999Y-226255799D02*
X349758000Y-227380800D01*
X329191401Y-226255799D02*
X348632999Y-226255799D01*
X328066400Y-227380800D02*
X329191401Y-226255799D01*
X370527799Y-226255799D02*
X371652800Y-227380800D01*
X351757999Y-226255799D02*
X370527799Y-226255799D01*
X350632998Y-227380800D02*
X351757999Y-226255799D01*
X349758000Y-227380800D02*
X350632998Y-227380800D01*
X400565401Y-226255799D02*
X400862800Y-225958400D01*
X371652800Y-227380800D02*
X372777801Y-226255799D01*
X372777801Y-226255799D02*
X400565401Y-226255799D01*
%TO.N,Net-(U2-Pad7)*%
X353049275Y-163866999D02*
X299632201Y-163866999D01*
X353872392Y-163043882D02*
X353049275Y-163866999D01*
X395756118Y-163043882D02*
X353872392Y-163043882D01*
X395756118Y-163043882D02*
X401905482Y-163043882D01*
X401905482Y-163043882D02*
X401929600Y-163068000D01*
%TO.N,Net-(U2-Pad12)*%
X392212999Y-154773799D02*
X294958601Y-154773799D01*
X394309600Y-156870400D02*
X392212999Y-154773799D01*
X294958601Y-154773799D02*
X294921602Y-154736800D01*
X294921602Y-154736800D02*
X294843200Y-154736800D01*
%TO.N,Net-(U2-Pad4)*%
X352864201Y-157690601D02*
X352262002Y-158292800D01*
X382582201Y-157690601D02*
X352864201Y-157690601D01*
X382887001Y-157995401D02*
X382582201Y-157690601D01*
X399389600Y-156870400D02*
X398264599Y-157995401D01*
X398264599Y-157995401D02*
X382887001Y-157995401D01*
X352262002Y-158292800D02*
X291439600Y-158292800D01*
%TO.N,Net-(U2-Pad9)*%
X294399801Y-154011799D02*
X293624000Y-154787600D01*
X396849600Y-156870400D02*
X393990999Y-154011799D01*
X393990999Y-154011799D02*
X294399801Y-154011799D01*
X292455600Y-205943200D02*
X302056800Y-205943200D01*
X302158400Y-206044800D02*
X302158400Y-207924400D01*
X302056800Y-205943200D02*
X302158400Y-206044800D01*
%TO.N,Net-(U13-Pad1)*%
X396748000Y-179578000D02*
X402437600Y-179578000D01*
X402437600Y-179578000D02*
X402539200Y-179679600D01*
X388518400Y-196850000D02*
X388467600Y-196900800D01*
X395224000Y-196850000D02*
X388518400Y-196850000D01*
X305300599Y-214419399D02*
X306374800Y-215493600D01*
X285503401Y-214419399D02*
X305300599Y-214419399D01*
X284378400Y-215544400D02*
X285503401Y-214419399D01*
X326941399Y-214368599D02*
X328015600Y-215442800D01*
X308374799Y-214368599D02*
X326941399Y-214368599D01*
X307249798Y-215493600D02*
X308374799Y-214368599D01*
X306374800Y-215493600D02*
X307249798Y-215493600D01*
X348836199Y-214317799D02*
X349910400Y-215392000D01*
X330015599Y-214317799D02*
X348836199Y-214317799D01*
X328890598Y-215442800D02*
X330015599Y-214317799D01*
X328015600Y-215442800D02*
X328890598Y-215442800D01*
X370527799Y-214266999D02*
X371602000Y-215341200D01*
X350785398Y-215392000D02*
X351910399Y-214266999D01*
X351910399Y-214266999D02*
X370527799Y-214266999D01*
X349910400Y-215392000D02*
X350785398Y-215392000D01*
X413961799Y-213606599D02*
X414223200Y-213868000D01*
X371602000Y-215341200D02*
X373336601Y-213606599D01*
X373336601Y-213606599D02*
X413961799Y-213606599D01*
X408482800Y-207162400D02*
X414223200Y-207162400D01*
X416102800Y-209042000D02*
X416102800Y-209702400D01*
X414223200Y-207162400D02*
X416102800Y-209042000D01*
X395224000Y-204419200D02*
X408228800Y-204419200D01*
X408482800Y-204673200D02*
X408482800Y-207162400D01*
X408228800Y-204419200D02*
X408482800Y-204673200D01*
%TO.N,Net-(U11-Pad2)*%
X306824599Y-187865801D02*
X307949600Y-186740800D01*
X306824599Y-189327603D02*
X306824599Y-187865801D01*
X305695601Y-190456601D02*
X306824599Y-189327603D01*
X301490599Y-190456601D02*
X305695601Y-190456601D01*
X297535600Y-194411600D02*
X301490599Y-190456601D01*
X316348189Y-187865801D02*
X317473190Y-186740800D01*
X317473190Y-186740800D02*
X319328800Y-186740800D01*
X309074601Y-187865801D02*
X316348189Y-187865801D01*
X307949600Y-186740800D02*
X309074601Y-187865801D01*
X329481399Y-187865801D02*
X330606400Y-186740800D01*
X326408799Y-187865801D02*
X329481399Y-187865801D01*
X325283798Y-186740800D02*
X326408799Y-187865801D01*
X319328800Y-186740800D02*
X325283798Y-186740800D01*
X341520999Y-187865801D02*
X342696800Y-186690000D01*
X331731401Y-187865801D02*
X341520999Y-187865801D01*
X330606400Y-186740800D02*
X331731401Y-187865801D01*
X353611399Y-187815001D02*
X354787200Y-186639200D01*
X343821801Y-187815001D02*
X353611399Y-187815001D01*
X342696800Y-186690000D02*
X343821801Y-187815001D01*
%TO.N,Net-(U3-Pad3)*%
X293370000Y-189331600D02*
X297535600Y-189331600D01*
%TO.N,Net-(U18-Pad13)*%
X331216000Y-164947600D02*
X331673200Y-165404800D01*
X331673200Y-165404800D02*
X376072400Y-165404800D01*
%TO.N,Net-(U11-Pad14)*%
X325533801Y-190695799D02*
X326948800Y-189280800D01*
X313494201Y-190695799D02*
X325533801Y-190695799D01*
X313486800Y-190703200D02*
X313494201Y-190695799D01*
X306519799Y-190695799D02*
X306500754Y-190676754D01*
X313486800Y-190703200D02*
X313479399Y-190695799D01*
X313479399Y-190695799D02*
X306519799Y-190695799D01*
X309524400Y-209804000D02*
X311454800Y-207873600D01*
X305358800Y-209804000D02*
X309524400Y-209804000D01*
%TO.N,Net-(U11-Pad13)*%
X318973200Y-179882800D02*
X325221600Y-179882800D01*
X325221600Y-179882800D02*
X325272400Y-179933600D01*
X325098799Y-206248000D02*
X319024000Y-206248000D01*
X319074800Y-206298800D02*
X319074800Y-207873600D01*
X319024000Y-206248000D02*
X319074800Y-206298800D01*
%TO.N,Net-(U11-Pad12)*%
X326854601Y-194454999D02*
X326948800Y-194360800D01*
X323755801Y-194454999D02*
X326854601Y-194454999D01*
X323799200Y-205523000D02*
X308166600Y-205523000D01*
X308166600Y-205523000D02*
X308152800Y-205536800D01*
%TO.N,Net-(U11-Pad11)*%
X317703200Y-216662000D02*
X316534800Y-215493600D01*
X325932800Y-216662000D02*
X317703200Y-216662000D01*
%TO.N,Net-(U23-Pad5)*%
X395687999Y-178452999D02*
X412844199Y-178452999D01*
X394295197Y-179845801D02*
X395687999Y-178452999D01*
X326433201Y-179845801D02*
X394295197Y-179845801D01*
X320395600Y-180898800D02*
X325380202Y-180898800D01*
X325380202Y-180898800D02*
X326433201Y-179845801D01*
X412844199Y-178452999D02*
X413105600Y-178714400D01*
%TO.N,Net-(U23-Pad8)*%
X317875801Y-179907197D02*
X318865398Y-178917600D01*
X318275800Y-180949600D02*
X317875801Y-180549601D01*
X317875801Y-180549601D02*
X317875801Y-179907197D01*
X318865398Y-178917600D02*
X344971402Y-178917600D01*
X344971402Y-178917600D02*
X361442000Y-178917600D01*
X361442000Y-178917600D02*
X361645200Y-179120800D01*
%TO.N,Net-(U23-Pad6)*%
X367625997Y-170680599D02*
X409491399Y-170680599D01*
X304670799Y-168452800D02*
X365398198Y-168452800D01*
X365398198Y-168452800D02*
X367625997Y-170680599D01*
%TO.N,Net-(U23-Pad7)*%
X323705001Y-167850601D02*
X406595799Y-167850601D01*
X321665600Y-165811200D02*
X323705001Y-167850601D01*
X406595799Y-167850601D02*
X406806400Y-167640000D01*
%TO.N,Net-(U21-Pad5)*%
X364668212Y-240639600D02*
X380986200Y-240639600D01*
X321868800Y-241401600D02*
X363906212Y-241401600D01*
X363906212Y-241401600D02*
X364668212Y-240639600D01*
X380847600Y-253492000D02*
X393459800Y-253492000D01*
X393459800Y-253492000D02*
X393496800Y-253529000D01*
%TO.N,Net-(U21-Pad8)*%
X317855600Y-241452400D02*
X319291800Y-242888600D01*
X319291800Y-242888600D02*
X401167600Y-242888600D01*
%TO.N,Net-(U21-Pad6)*%
X314452000Y-236524800D02*
X314960000Y-236016800D01*
X314960000Y-236016800D02*
X381711200Y-236016800D01*
X381711200Y-254254000D02*
X396189200Y-254254000D01*
X396189200Y-254254000D02*
X396189200Y-255320800D01*
X396189200Y-255320800D02*
X396087600Y-255422400D01*
%TO.N,Net-(U21-Pad7)*%
X323189600Y-242163600D02*
X395325600Y-242163600D01*
%TO.N,Net-(U11-Pad10)*%
X319328800Y-199440800D02*
X326948800Y-199440800D01*
X315029599Y-198315799D02*
X318203799Y-198315799D01*
X314869798Y-198475600D02*
X315029599Y-198315799D01*
X318203799Y-198315799D02*
X319328800Y-199440800D01*
X314756800Y-198475600D02*
X314869798Y-198475600D01*
X314604400Y-198323200D02*
X314756800Y-198475600D01*
%TO.N,Net-(U11-Pad1)*%
X370907728Y-162593872D02*
X371856000Y-161645600D01*
X353249400Y-162593872D02*
X370907728Y-162593872D01*
X343821801Y-185275001D02*
X342696800Y-184150000D01*
X353611399Y-185275001D02*
X343821801Y-185275001D01*
X354787200Y-184099200D02*
X353611399Y-185275001D01*
X331731401Y-185325801D02*
X330606400Y-184200800D01*
X341520999Y-185325801D02*
X331731401Y-185325801D01*
X342696800Y-184150000D02*
X341520999Y-185325801D01*
X320743799Y-185615799D02*
X319328800Y-184200800D01*
X329191401Y-185615799D02*
X320743799Y-185615799D01*
X330606400Y-184200800D02*
X329191401Y-185615799D01*
X309074601Y-185325801D02*
X307949600Y-184200800D01*
X318203799Y-185325801D02*
X309074601Y-185325801D01*
X319328800Y-184200800D02*
X318203799Y-185325801D01*
%TO.N,Net-(U23-Pad25)*%
X343255600Y-206349600D02*
X344431399Y-205173801D01*
X344431399Y-205173801D02*
X400050000Y-205173801D01*
%TO.N,Net-(U10-Pad17)*%
X336346801Y-181776201D02*
X336231400Y-181660800D01*
X337921600Y-189585600D02*
X338226400Y-189280800D01*
X336231400Y-189585600D02*
X337921600Y-189585600D01*
X347776800Y-181762400D02*
X347762999Y-181776201D01*
X351776200Y-181762400D02*
X347776800Y-181762400D01*
X348067799Y-181776201D02*
X347762999Y-181776201D01*
X347762999Y-181776201D02*
X336346801Y-181776201D01*
%TO.N,Net-(U23-Pad27)*%
X410979401Y-208287401D02*
X411327600Y-208635600D01*
X395789599Y-208287401D02*
X410979401Y-208287401D01*
X395129199Y-208947801D02*
X395789599Y-208287401D01*
X338175600Y-207822800D02*
X339300601Y-208947801D01*
X339300601Y-208947801D02*
X395129199Y-208947801D01*
%TO.N,Net-(U23-Pad23)*%
X398416999Y-218396601D02*
X335729799Y-218396601D01*
X398750402Y-218063198D02*
X398416999Y-218396601D01*
X335729799Y-218396601D02*
X335827373Y-218396601D01*
X335827373Y-218396601D02*
X335853203Y-218370771D01*
%TO.N,Net-(U10-Pad15)*%
X347116400Y-181051200D02*
X339736600Y-181051200D01*
%TO.N,Net-(U10-Pad13)*%
X338429600Y-194564000D02*
X338226400Y-194360800D01*
X340461600Y-194564000D02*
X338429600Y-194564000D01*
X340512400Y-206146400D02*
X331724000Y-206146400D01*
%TO.N,Net-(U23-Pad26)*%
X406958800Y-175426200D02*
X406007400Y-176377600D01*
X406007400Y-176377600D02*
X346252800Y-176377600D01*
%TO.N,Net-(U21-Pad25)*%
X397346202Y-223570800D02*
X343306400Y-223570800D01*
X400050000Y-221806600D02*
X399110402Y-221806600D01*
X399110402Y-221806600D02*
X397346202Y-223570800D01*
%TO.N,Net-(U21-Pad27)*%
X338226400Y-219760800D02*
X341270910Y-222805310D01*
X341270910Y-222805310D02*
X395224000Y-222805310D01*
%TO.N,Net-(U21-Pad23)*%
X406247600Y-240182400D02*
X406247600Y-238607600D01*
X335947001Y-239427001D02*
X335686400Y-239166400D01*
X365244401Y-239427001D02*
X335947001Y-239427001D01*
X406247600Y-238607600D02*
X366063802Y-238607600D01*
X366063802Y-238607600D02*
X365244401Y-239427001D01*
%TO.N,Net-(U21-Pad26)*%
X345846400Y-219760800D02*
X347892200Y-221806600D01*
X347892200Y-221806600D02*
X395274800Y-221806600D01*
%TO.N,Net-(U10-Pad19)*%
X378350999Y-160520599D02*
X379476000Y-161645600D01*
X366073603Y-160520599D02*
X378350999Y-160520599D01*
X364897802Y-161696400D02*
X366073603Y-160520599D01*
X356158800Y-161696400D02*
X364897802Y-161696400D01*
%TO.N,Net-(U10-Pad8)*%
X350266000Y-189280800D02*
X350316800Y-189230000D01*
X344678000Y-189280800D02*
X350266000Y-189280800D01*
X345155402Y-206623802D02*
X354807402Y-206623802D01*
X344627200Y-206095600D02*
X345155402Y-206623802D01*
X354990400Y-206806800D02*
X354990400Y-207772000D01*
X354807402Y-206623802D02*
X354990400Y-206806800D01*
%TO.N,Net-(U10-Pad6)*%
X348335600Y-205898801D02*
X362515201Y-205898801D01*
X362610400Y-205994000D02*
X362610400Y-207772000D01*
X362515201Y-205898801D02*
X362610400Y-205994000D01*
%TO.N,Net-(U10-Pad2)*%
X351645001Y-195521799D02*
X350316800Y-196850000D01*
X358401401Y-195521799D02*
X351645001Y-195521799D01*
%TO.N,Net-(U11-Pad15)*%
X330606400Y-199440800D02*
X338226400Y-199440800D01*
X332130400Y-186599798D02*
X332130400Y-186740800D01*
X331146401Y-185615799D02*
X332130400Y-186599798D01*
X330066399Y-185615799D02*
X331146401Y-185615799D01*
X326948800Y-186740800D02*
X328941398Y-186740800D01*
X328941398Y-186740800D02*
X330066399Y-185615799D01*
%TO.N,Net-(U12-Pad7)*%
X365048800Y-233070400D02*
X385978400Y-233070400D01*
X385978400Y-233070400D02*
X386029200Y-233121200D01*
%TO.N,Net-(U12-Pad12)*%
X359918000Y-224295800D02*
X391021400Y-224295800D01*
X391021400Y-224295800D02*
X391058400Y-224332800D01*
%TO.N,Net-(U12-Pad4)*%
X357378000Y-227380800D02*
X358851200Y-228854000D01*
X358851200Y-228854000D02*
X377952000Y-228854000D01*
%TO.N,Net-(U12-Pad9)*%
X366471200Y-241401600D02*
X393547600Y-241401600D01*
X393547600Y-241401600D02*
X393547600Y-240182400D01*
%TO.N,Net-(U13-Pad7)*%
X421037001Y-208591401D02*
X423418000Y-210972400D01*
X402801203Y-210827401D02*
X416769999Y-210827401D01*
X416769999Y-210827401D02*
X419005999Y-208591401D01*
X419005999Y-208591401D02*
X421037001Y-208591401D01*
X365150400Y-206298800D02*
X365550399Y-205898801D01*
X402801203Y-210827401D02*
X402785799Y-210827401D01*
X402785799Y-210827401D02*
X402742400Y-210870800D01*
X402545601Y-205898801D02*
X397516401Y-205898801D01*
X402742400Y-206095600D02*
X402545601Y-205898801D01*
X365550399Y-205898801D02*
X397516401Y-205898801D01*
X397516401Y-205898801D02*
X397872603Y-205898801D01*
%TO.N,Net-(U13-Pad12)*%
X363801907Y-177989399D02*
X416015001Y-177989399D01*
X362843653Y-178947653D02*
X363801907Y-177989399D01*
%TO.N,Net-(U13-Pad4)*%
X407661997Y-181094599D02*
X417619399Y-181094599D01*
X407370999Y-180803601D02*
X407661997Y-181094599D01*
X356586401Y-181203600D02*
X356986400Y-180803601D01*
X356986400Y-180803601D02*
X407370999Y-180803601D01*
X417619399Y-181094599D02*
X417619399Y-181109401D01*
X417619399Y-181109401D02*
X417525200Y-181203600D01*
%TO.N,Net-(U13-Pad9)*%
X412038800Y-174701200D02*
X369454600Y-174701200D01*
X369454600Y-174701200D02*
X369403800Y-174752000D01*
%TO.N,Net-(U14-Pad15)*%
X342696800Y-199390000D02*
X350316800Y-199390000D01*
X338226400Y-186740800D02*
X341231581Y-186740800D01*
X341231581Y-186740800D02*
X341302062Y-186811281D01*
%TO.N,Net-(U15-Pad7)*%
X387483542Y-238138152D02*
X408724552Y-238138152D01*
X386943600Y-237598210D02*
X387483542Y-238138152D01*
X408787600Y-238201200D02*
X408787600Y-240182400D01*
X408724552Y-238138152D02*
X408787600Y-238201200D01*
%TO.N,Net-(U15-Pad14)*%
X363379801Y-188206599D02*
X375063801Y-188206599D01*
X362407200Y-189179200D02*
X363379801Y-188206599D01*
X375056400Y-188199198D02*
X375056400Y-186791600D01*
X375063801Y-188206599D02*
X375056400Y-188199198D01*
%TO.N,Net-(U15-Pad11)*%
X373931399Y-190746599D02*
X375056400Y-191871600D01*
X363379801Y-190746599D02*
X373931399Y-190746599D01*
X362407200Y-191719200D02*
X363379801Y-190746599D01*
X383038399Y-209672801D02*
X383176999Y-209811401D01*
X372874365Y-209672801D02*
X383038399Y-209672801D01*
%TO.N,Net-(U16-Pad7)*%
X387967001Y-216466201D02*
X386842000Y-215341200D01*
X389922001Y-216466201D02*
X387967001Y-216466201D01*
X390394003Y-215994199D02*
X389922001Y-216466201D01*
X398025401Y-215994199D02*
X390394003Y-215994199D01*
%TO.N,Net-(U16-Pad12)*%
X417271200Y-159308800D02*
X419709600Y-156870400D01*
X383184400Y-159308800D02*
X417271200Y-159308800D01*
%TO.N,Net-(U16-Pad4)*%
X413410400Y-221081600D02*
X409194000Y-221081600D01*
X409404085Y-221081600D02*
X409194000Y-221081600D01*
X409194000Y-221081600D02*
X377901200Y-221081600D01*
%TO.N,Net-(U16-Pad9)*%
X417169600Y-172110400D02*
X415391600Y-173888400D01*
X415391600Y-173888400D02*
X391718800Y-173888400D01*
%TO.N,Net-(U17-Pad15)*%
X350316800Y-186690000D02*
X353175400Y-186690000D01*
X353175400Y-186690000D02*
X353226200Y-186639200D01*
X354787200Y-199339200D02*
X362407200Y-199339200D01*
%TO.N,Net-(U18-Pad6)*%
X371856000Y-169265600D02*
X368401600Y-169265600D01*
X368401600Y-169265600D02*
X367842800Y-169824400D01*
%TO.N,Net-(U18-Pad5)*%
X374700800Y-199847200D02*
X375056400Y-199491600D01*
X370853800Y-199847200D02*
X374700800Y-199847200D01*
%TO.N,Net-(U18-Pad1)*%
X380738599Y-155440599D02*
X380796800Y-155498800D01*
X371856000Y-156565600D02*
X372981001Y-155440599D01*
X372981001Y-155440599D02*
X380738599Y-155440599D01*
%TO.N,Net-(U18-Pad10)*%
X379323600Y-166878000D02*
X379476000Y-166725600D01*
X376682000Y-166878000D02*
X379323600Y-166878000D01*
%TO.N,Net-(U18-Pad9)*%
X378510800Y-194411600D02*
X375056400Y-194411600D01*
%TO.N,Net-(U18-Pad2)*%
X378979398Y-160274000D02*
X381521800Y-160274000D01*
X371856000Y-159105600D02*
X377810998Y-159105600D01*
X377810998Y-159105600D02*
X378979398Y-160274000D01*
%TO.N,Net-(U20-Pad2)*%
X389592601Y-190695799D02*
X388467600Y-191820800D01*
X389592601Y-186200799D02*
X389592601Y-190695799D01*
X389007601Y-185615799D02*
X389592601Y-186200799D01*
X368612201Y-185615799D02*
X389007601Y-185615799D01*
X367436400Y-186791600D02*
X368612201Y-185615799D01*
%TO.N,Net-(U21-Pad15)*%
X416102800Y-222402400D02*
X417118800Y-221386400D01*
X417118800Y-221386400D02*
X424923470Y-221386400D01*
X420116000Y-254254000D02*
X418947600Y-255422400D01*
X424942000Y-254254000D02*
X420116000Y-254254000D01*
X412386999Y-218686599D02*
X416102800Y-222402400D01*
X403980399Y-218686599D02*
X412386999Y-218686599D01*
X402855398Y-219811600D02*
X403980399Y-218686599D01*
X396900400Y-219811600D02*
X402855398Y-219811600D01*
%TO.N,Net-(U21-Pad14)*%
X413265599Y-215581399D02*
X414361799Y-215581399D01*
X412939597Y-215907401D02*
X413265599Y-215581399D01*
X404031199Y-215907401D02*
X412939597Y-215907401D01*
X402855398Y-214731600D02*
X404031199Y-215907401D01*
X414361799Y-215581399D02*
X416102800Y-217322400D01*
X396900400Y-214731600D02*
X402855398Y-214731600D01*
X424191869Y-216401399D02*
X424198470Y-216408000D01*
X419551999Y-216401399D02*
X424191869Y-216401399D01*
X418940999Y-217012399D02*
X419551999Y-216401399D01*
X416102800Y-217322400D02*
X416412801Y-217012399D01*
X416412801Y-217012399D02*
X418940999Y-217012399D01*
X423310198Y-256235200D02*
X422852998Y-256692400D01*
X424230800Y-256235200D02*
X423310198Y-256235200D01*
X417677600Y-256692400D02*
X416407600Y-255422400D01*
X422852998Y-256692400D02*
X417677600Y-256692400D01*
%TO.N,Net-(U21-Pad13)*%
X396900400Y-209651600D02*
X394028000Y-209651600D01*
X394028000Y-209651600D02*
X393774000Y-209905600D01*
X417714599Y-196124999D02*
X417880800Y-196291200D01*
X393750800Y-195935600D02*
X393940199Y-196124999D01*
X393940199Y-196124999D02*
X417714599Y-196124999D01*
X417952801Y-212242400D02*
X416102800Y-212242400D01*
X423343460Y-211970862D02*
X423473470Y-211970862D01*
X422692999Y-211320401D02*
X423343460Y-211970862D01*
X417952801Y-210972400D02*
X418300802Y-211320401D01*
X418300802Y-211320401D02*
X422692999Y-211320401D01*
X415594800Y-257149600D02*
X413867600Y-255422400D01*
X423468800Y-257149600D02*
X415594800Y-257149600D01*
%TO.N,Net-(U21-Pad18)*%
X409651200Y-238760000D02*
X410122200Y-238289000D01*
X410122200Y-238289000D02*
X419049200Y-238289000D01*
%TO.N,Net-(U21-Pad17)*%
X408971391Y-226067401D02*
X409421401Y-226517411D01*
X407942799Y-226067401D02*
X408971391Y-226067401D01*
X405641997Y-223766599D02*
X407942799Y-226067401D01*
X396900400Y-224891600D02*
X398025401Y-223766599D01*
X398025401Y-223766599D02*
X405641997Y-223766599D01*
X415137811Y-226517411D02*
X416102800Y-227482400D01*
X409421401Y-226517411D02*
X415137811Y-226517411D01*
X415036000Y-239014000D02*
X421386000Y-239014000D01*
X421487600Y-239115600D02*
X421487600Y-240182400D01*
X421386000Y-239014000D02*
X421487600Y-239115600D01*
%TO.N,Net-(U23-Pad15)*%
X396625198Y-192155198D02*
X396748000Y-192278000D01*
X389919598Y-192155198D02*
X396625198Y-192155198D01*
X414825399Y-193692999D02*
X416052000Y-194919600D01*
X398162999Y-193692999D02*
X414825399Y-193692999D01*
X396748000Y-192278000D02*
X398162999Y-193692999D01*
%TO.N,Net-(U23-Pad14)*%
X396704601Y-187154601D02*
X396748000Y-187198000D01*
X390644599Y-187154601D02*
X396704601Y-187154601D01*
X414637001Y-188424601D02*
X416052000Y-189839600D01*
X397974601Y-188424601D02*
X414637001Y-188424601D01*
X396748000Y-187198000D02*
X397974601Y-188424601D01*
%TO.N,Net-(U23-Pad13)*%
X392988800Y-182118000D02*
X396748000Y-182118000D01*
X414637001Y-183344601D02*
X416052000Y-184759600D01*
X397974601Y-183344601D02*
X414637001Y-183344601D01*
X396748000Y-182118000D02*
X397974601Y-183344601D01*
%TO.N,Net-(U23-Pad18)*%
X403242999Y-203563001D02*
X404368000Y-202438000D01*
X388373401Y-203563001D02*
X403242999Y-203563001D01*
X387248400Y-202438000D02*
X388373401Y-203563001D01*
X405993600Y-202438000D02*
X408432000Y-199999600D01*
X404368000Y-202438000D02*
X405993600Y-202438000D01*
%TO.N,Net-(U23-Pad17)*%
X384396199Y-198315799D02*
X395790201Y-198315799D01*
X395790201Y-198315799D02*
X396748000Y-197358000D01*
X384048000Y-197967600D02*
X384396199Y-198315799D01*
X414637001Y-198584601D02*
X416052000Y-199999600D01*
X397974601Y-198584601D02*
X414637001Y-198584601D01*
X396748000Y-197358000D02*
X397974601Y-198584601D01*
%TD*%
M02*
